solid OpenSCAD_Model
  facet normal -1 0 0
    outer loop
      vertex -47 -47 0
      vertex -47 47 35
      vertex -47 47 0
    endloop
  endfacet
  facet normal -1 -0 0
    outer loop
      vertex -47 47 35
      vertex -47 -47 0
      vertex -47 -47 35
    endloop
  endfacet
  facet normal 0 0 1
    outer loop
      vertex 47 47 35
      vertex -45.05 46.05 35
      vertex 47 46.05 35
    endloop
  endfacet
  facet normal 0 0 1
    outer loop
      vertex -45.05 46.05 35
      vertex -47 47 35
      vertex -45.05 -46.05 35
    endloop
  endfacet
  facet normal -0 0 1
    outer loop
      vertex -47 47 35
      vertex -45.05 46.05 35
      vertex 47 47 35
    endloop
  endfacet
  facet normal -0 0 1
    outer loop
      vertex -45.05 -46.05 35
      vertex 47 -47 35
      vertex 47 -46.05 35
    endloop
  endfacet
  facet normal 0 0 1
    outer loop
      vertex -45.05 -46.05 35
      vertex -47 -47 35
      vertex 47 -47 35
    endloop
  endfacet
  facet normal 0 0 1
    outer loop
      vertex -47 -47 35
      vertex -45.05 -46.05 35
      vertex -47 47 35
    endloop
  endfacet
  facet normal 1 0 0
    outer loop
      vertex 47 -46.05 35
      vertex 47 -47 35
      vertex 47 -46.05 32.95
    endloop
  endfacet
  facet normal 1 0 0
    outer loop
      vertex 47 46.05 32.95
      vertex 47 47 35
      vertex 47 46.05 35
    endloop
  endfacet
  facet normal 1 0 0
    outer loop
      vertex 47 47 35
      vertex 47 46.05 32.95
      vertex 47 47 0
    endloop
  endfacet
  facet normal 1 -0 0
    outer loop
      vertex 47 -46.05 32.95
      vertex 47 47 0
      vertex 47 46.05 32.95
    endloop
  endfacet
  facet normal 1 0 0
    outer loop
      vertex 47 -46.05 32.95
      vertex 47 -47 0
      vertex 47 47 0
    endloop
  endfacet
  facet normal 1 0 0
    outer loop
      vertex 47 -47 0
      vertex 47 -46.05 32.95
      vertex 47 -47 35
    endloop
  endfacet
  facet normal 0 0 -1
    outer loop
      vertex -47 -47 0
      vertex 47 47 0
      vertex 47 -47 0
    endloop
  endfacet
  facet normal -0 0 -1
    outer loop
      vertex 47 47 0
      vertex -47 -47 0
      vertex -47 47 0
    endloop
  endfacet
  facet normal 0 -1 0
    outer loop
      vertex 14.3815 -47 24.9088
      vertex 25 -47 25
      vertex 14.0451 -47 25.4389
    endloop
  endfacet
  facet normal 0 -1 0
    outer loop
      vertex 14.6489 -47 24.3406
      vertex 25 -47 25
      vertex 14.3815 -47 24.9088
    endloop
  endfacet
  facet normal 0 -1 0
    outer loop
      vertex 14.8429 -47 23.7435
      vertex 25 -47 25
      vertex 14.6489 -47 24.3406
    endloop
  endfacet
  facet normal 0 -1 0
    outer loop
      vertex 14.9606 -47 23.1267
      vertex 25 -47 25
      vertex 14.8429 -47 23.7435
    endloop
  endfacet
  facet normal 0 -1 0
    outer loop
      vertex 14.9842 -47 22.7507
      vertex 25 -47 25
      vertex 14.9606 -47 23.1267
    endloop
  endfacet
  facet normal 0 -1 0
    outer loop
      vertex 15 -47 22.5
      vertex 25 -47 25
      vertex 14.9842 -47 22.7507
    endloop
  endfacet
  facet normal 0 -1 0
    outer loop
      vertex 25 -47 20
      vertex 15 -47 22.5
      vertex 14.9763 -47 22.124
    endloop
  endfacet
  facet normal 0 -1 0
    outer loop
      vertex 25 -47 20
      vertex 14.9763 -47 22.124
      vertex 14.9606 -47 21.8733
    endloop
  endfacet
  facet normal 0 -1 0
    outer loop
      vertex 25 -47 20
      vertex 14.9606 -47 21.8733
      vertex 14.8429 -47 21.2565
    endloop
  endfacet
  facet normal 0 -1 0
    outer loop
      vertex 25 -47 20
      vertex 14.8429 -47 21.2565
      vertex 14.6489 -47 20.6594
    endloop
  endfacet
  facet normal 0 -1 0
    outer loop
      vertex 25 -47 20
      vertex 14.6489 -47 20.6594
      vertex 14.3815 -47 20.0912
    endloop
  endfacet
  facet normal 0 -1 0
    outer loop
      vertex 15 -47 22.5
      vertex 25 -47 20
      vertex 25 -47 25
    endloop
  endfacet
  facet normal 0 -1 0
    outer loop
      vertex 13.6448 -47 19.0773
      vertex 25 -47 20
      vertex 14.0451 -47 19.5611
    endloop
  endfacet
  facet normal 0 -1 0
    outer loop
      vertex 14.0451 -47 19.5611
      vertex 25 -47 20
      vertex 14.3815 -47 20.0912
    endloop
  endfacet
  facet normal 0 -1 0
    outer loop
      vertex -26.7639 -47 24.8511
      vertex -17.5 -47 25
      vertex -27.0841 -47 25.2382
    endloop
  endfacet
  facet normal 0 -1 0
    outer loop
      vertex -26.4948 -47 24.427
      vertex -17.5 -47 25
      vertex -26.7639 -47 24.8511
    endloop
  endfacet
  facet normal 0 -1 0
    outer loop
      vertex -26.2809 -47 23.9725
      vertex -17.5 -47 25
      vertex -26.4948 -47 24.427
    endloop
  endfacet
  facet normal 0 -1 0
    outer loop
      vertex -26.1257 -47 23.4948
      vertex -17.5 -47 25
      vertex -26.2809 -47 23.9725
    endloop
  endfacet
  facet normal 0 -1 0
    outer loop
      vertex -26.0315 -47 23.0013
      vertex -17.5 -47 25
      vertex -26.1257 -47 23.4948
    endloop
  endfacet
  facet normal 0 -1 0
    outer loop
      vertex -26.0126 -47 22.7005
      vertex -17.5 -47 25
      vertex -26.0315 -47 23.0013
    endloop
  endfacet
  facet normal 0 -1 0
    outer loop
      vertex -26 -47 22.5
      vertex -17.5 -47 25
      vertex -26.0126 -47 22.7005
    endloop
  endfacet
  facet normal 0 -1 0
    outer loop
      vertex -17.5 -47 20
      vertex -26 -47 22.5
      vertex -26.0189 -47 22.1992
    endloop
  endfacet
  facet normal 0 -1 0
    outer loop
      vertex -17.5 -47 20
      vertex -26.0189 -47 22.1992
      vertex -26.0315 -47 21.9987
    endloop
  endfacet
  facet normal 0 -1 0
    outer loop
      vertex -17.5 -47 20
      vertex -26.0315 -47 21.9987
      vertex -26.1257 -47 21.5052
    endloop
  endfacet
  facet normal 0 -1 0
    outer loop
      vertex -17.5 -47 20
      vertex -26.1257 -47 21.5052
      vertex -26.2809 -47 21.0275
    endloop
  endfacet
  facet normal 0 -1 0
    outer loop
      vertex -17.5 -47 20
      vertex -26.2809 -47 21.0275
      vertex -26.4948 -47 20.573
    endloop
  endfacet
  facet normal 0 -1 0
    outer loop
      vertex -17.5 -47 20
      vertex -26.4948 -47 20.573
      vertex -26.7639 -47 20.1489
    endloop
  endfacet
  facet normal 0 -1 0
    outer loop
      vertex -26 -47 22.5
      vertex -17.5 -47 20
      vertex -17.5 -47 25
    endloop
  endfacet
  facet normal 0 -1 0
    outer loop
      vertex -27.4503 -47 19.4179
      vertex -17.5 -47 20
      vertex -27.0841 -47 19.7618
    endloop
  endfacet
  facet normal 0 -1 0
    outer loop
      vertex -27.0841 -47 19.7618
      vertex -17.5 -47 20
      vertex -26.7639 -47 20.1489
    endloop
  endfacet
  facet normal 0 -1 0
    outer loop
      vertex -47 -47 35
      vertex 9.68605 -47 27.4901
      vertex 47 -47 35
    endloop
  endfacet
  facet normal 0 -1 0
    outer loop
      vertex -47 -47 35
      vertex 9.06309 -47 27.4114
      vertex 9.68605 -47 27.4901
    endloop
  endfacet
  facet normal 0 -1 0
    outer loop
      vertex -47 -47 35
      vertex 8.45491 -47 27.2553
      vertex 9.06309 -47 27.4114
    endloop
  endfacet
  facet normal 0 -1 0
    outer loop
      vertex -17.5 -47 25
      vertex 8.45491 -47 27.2553
      vertex -47 -47 35
    endloop
  endfacet
  facet normal 0 -1 0
    outer loop
      vertex -2.5 -47 25
      vertex 8.45491 -47 27.2553
      vertex -17.5 -47 25
    endloop
  endfacet
  facet normal 0 -1 0
    outer loop
      vertex -29.7488 -47 26.4921
      vertex -47 -47 35
      vertex -30.2512 -47 26.4921
    endloop
  endfacet
  facet normal 0 -1 0
    outer loop
      vertex -47 -47 35
      vertex -30.7495 -47 26.4291
      vertex -30.2512 -47 26.4921
    endloop
  endfacet
  facet normal 0 -1 0
    outer loop
      vertex -47 -47 35
      vertex -31.2361 -47 26.3042
      vertex -30.7495 -47 26.4291
    endloop
  endfacet
  facet normal 0 -1 0
    outer loop
      vertex -47 -47 35
      vertex -31.7031 -47 26.1193
      vertex -31.2361 -47 26.3042
    endloop
  endfacet
  facet normal 0 -1 0
    outer loop
      vertex -47 -47 35
      vertex -32.1433 -47 25.8773
      vertex -31.7031 -47 26.1193
    endloop
  endfacet
  facet normal 0 -1 0
    outer loop
      vertex -47 -47 35
      vertex -32.5497 -47 25.5821
      vertex -32.1433 -47 25.8773
    endloop
  endfacet
  facet normal 0 -1 0
    outer loop
      vertex -47 -47 35
      vertex -32.9159 -47 25.2382
      vertex -32.5497 -47 25.5821
    endloop
  endfacet
  facet normal 0 -1 0
    outer loop
      vertex -47 -47 35
      vertex -33.2361 -47 24.8511
      vertex -32.9159 -47 25.2382
    endloop
  endfacet
  facet normal 0 -1 0
    outer loop
      vertex -47 -47 35
      vertex -33.5052 -47 24.427
      vertex -33.2361 -47 24.8511
    endloop
  endfacet
  facet normal 0 -1 0
    outer loop
      vertex -47 -47 35
      vertex -33.7191 -47 23.9725
      vertex -33.5052 -47 24.427
    endloop
  endfacet
  facet normal 0 -1 0
    outer loop
      vertex -47 -47 35
      vertex -33.8743 -47 23.4948
      vertex -33.7191 -47 23.9725
    endloop
  endfacet
  facet normal 0 -1 0
    outer loop
      vertex -47 -47 35
      vertex -33.9685 -47 23.0013
      vertex -33.8743 -47 23.4948
    endloop
  endfacet
  facet normal 0 -1 0
    outer loop
      vertex -47 -47 35
      vertex -33.9874 -47 22.7005
      vertex -33.9685 -47 23.0013
    endloop
  endfacet
  facet normal 0 -1 0
    outer loop
      vertex -47 -47 35
      vertex -34 -47 22.5
      vertex -33.9874 -47 22.7005
    endloop
  endfacet
  facet normal 0 -1 0
    outer loop
      vertex -47 -47 35
      vertex -33.9811 -47 22.1992
      vertex -34 -47 22.5
    endloop
  endfacet
  facet normal 0 -1 0
    outer loop
      vertex -47 -47 35
      vertex -33.9685 -47 21.9987
      vertex -33.9811 -47 22.1992
    endloop
  endfacet
  facet normal 0 -1 0
    outer loop
      vertex -47 -47 35
      vertex -33.8743 -47 21.5052
      vertex -33.9685 -47 21.9987
    endloop
  endfacet
  facet normal 0 -1 0
    outer loop
      vertex -47 -47 0
      vertex -33.8743 -47 21.5052
      vertex -47 -47 35
    endloop
  endfacet
  facet normal 0 -1 -0
    outer loop
      vertex -33.8743 -47 21.5052
      vertex -47 -47 0
      vertex -33.7191 -47 21.0275
    endloop
  endfacet
  facet normal 0 -1 -0
    outer loop
      vertex -33.7191 -47 21.0275
      vertex -47 -47 0
      vertex -33.5052 -47 20.573
    endloop
  endfacet
  facet normal 0 -1 -0
    outer loop
      vertex -33.5052 -47 20.573
      vertex -47 -47 0
      vertex -33.2361 -47 20.1489
    endloop
  endfacet
  facet normal 0 -1 0
    outer loop
      vertex -47 -47 0
      vertex -29.7488 -47 18.5079
      vertex -30.2512 -47 18.5079
    endloop
  endfacet
  facet normal 0 -1 -0
    outer loop
      vertex -29.7488 -47 18.5079
      vertex -47 -47 0
      vertex 7.32087 -47 18.2784
    endloop
  endfacet
  facet normal 0 -1 -0
    outer loop
      vertex 7.32087 -47 18.2784
      vertex -47 -47 0
      vertex 7.8711 -47 17.9759
    endloop
  endfacet
  facet normal 0 -1 -0
    outer loop
      vertex 7.8711 -47 17.9759
      vertex -47 -47 0
      vertex 8.45491 -47 17.7447
    endloop
  endfacet
  facet normal 0 -1 -0
    outer loop
      vertex 8.45491 -47 17.7447
      vertex -47 -47 0
      vertex 9.06309 -47 17.5886
    endloop
  endfacet
  facet normal 0 -1 0
    outer loop
      vertex 47 -47 0
      vertex 9.68605 -47 17.5099
      vertex -47 -47 0
    endloop
  endfacet
  facet normal 0 -1 -0
    outer loop
      vertex 9.06309 -47 17.5886
      vertex -47 -47 0
      vertex 9.68605 -47 17.5099
    endloop
  endfacet
  facet normal 0 -1 -0
    outer loop
      vertex -30.7495 -47 18.5709
      vertex -47 -47 0
      vertex -30.2512 -47 18.5079
    endloop
  endfacet
  facet normal 0 -1 -0
    outer loop
      vertex -31.2361 -47 18.6958
      vertex -47 -47 0
      vertex -30.7495 -47 18.5709
    endloop
  endfacet
  facet normal 0 -1 -0
    outer loop
      vertex -31.7031 -47 18.8807
      vertex -47 -47 0
      vertex -31.2361 -47 18.6958
    endloop
  endfacet
  facet normal 0 -1 -0
    outer loop
      vertex -32.1433 -47 19.1227
      vertex -47 -47 0
      vertex -31.7031 -47 18.8807
    endloop
  endfacet
  facet normal 0 -1 -0
    outer loop
      vertex -32.5497 -47 19.4179
      vertex -47 -47 0
      vertex -32.1433 -47 19.1227
    endloop
  endfacet
  facet normal 0 -1 -0
    outer loop
      vertex -32.9159 -47 19.7618
      vertex -47 -47 0
      vertex -32.5497 -47 19.4179
    endloop
  endfacet
  facet normal 0 -1 -0
    outer loop
      vertex -33.2361 -47 20.1489
      vertex -47 -47 0
      vertex -32.9159 -47 19.7618
    endloop
  endfacet
  facet normal 0 -1 0
    outer loop
      vertex 10.314 -47 27.4901
      vertex 47 -47 35
      vertex 9.68605 -47 27.4901
    endloop
  endfacet
  facet normal 0 -1 0
    outer loop
      vertex 10.9369 -47 27.4114
      vertex 47 -47 35
      vertex 10.314 -47 27.4901
    endloop
  endfacet
  facet normal 0 -1 0
    outer loop
      vertex 11.5451 -47 27.2553
      vertex 47 -47 35
      vertex 10.9369 -47 27.4114
    endloop
  endfacet
  facet normal 0 -1 0
    outer loop
      vertex 12.1289 -47 27.0241
      vertex 47 -47 35
      vertex 11.5451 -47 27.2553
    endloop
  endfacet
  facet normal 0 -1 0
    outer loop
      vertex 25 -47 25
      vertex 12.1289 -47 27.0241
      vertex 12.6791 -47 26.7216
    endloop
  endfacet
  facet normal 0 -1 0
    outer loop
      vertex 25 -47 25
      vertex 12.6791 -47 26.7216
      vertex 13.1871 -47 26.3526
    endloop
  endfacet
  facet normal 0 -1 0
    outer loop
      vertex 25 -47 25
      vertex 13.1871 -47 26.3526
      vertex 13.6448 -47 25.9227
    endloop
  endfacet
  facet normal 0 -1 0
    outer loop
      vertex 25 -47 25
      vertex 13.6448 -47 25.9227
      vertex 14.0451 -47 25.4389
    endloop
  endfacet
  facet normal 0 -1 0
    outer loop
      vertex 12.1289 -47 27.0241
      vertex 25 -47 25
      vertex 47 -47 35
    endloop
  endfacet
  facet normal 0 -1 0
    outer loop
      vertex 35 -47 25
      vertex 47 -47 35
      vertex 25 -47 25
    endloop
  endfacet
  facet normal 0 -1 0
    outer loop
      vertex 35 -47 20
      vertex 47 -47 35
      vertex 35 -47 25
    endloop
  endfacet
  facet normal 0 -1 0
    outer loop
      vertex 13.1871 -47 18.6474
      vertex 25 -47 20
      vertex 13.6448 -47 19.0773
    endloop
  endfacet
  facet normal 0 -1 0
    outer loop
      vertex 12.6791 -47 18.2784
      vertex 25 -47 20
      vertex 13.1871 -47 18.6474
    endloop
  endfacet
  facet normal 0 -1 0
    outer loop
      vertex 12.1289 -47 17.9759
      vertex 25 -47 20
      vertex 12.6791 -47 18.2784
    endloop
  endfacet
  facet normal 0 -1 -0
    outer loop
      vertex 25 -47 20
      vertex 12.1289 -47 17.9759
      vertex 47 -47 0
    endloop
  endfacet
  facet normal 0 -1 0
    outer loop
      vertex 47 -47 0
      vertex 12.1289 -47 17.9759
      vertex 11.5451 -47 17.7447
    endloop
  endfacet
  facet normal 0 -1 0
    outer loop
      vertex 47 -47 0
      vertex 11.5451 -47 17.7447
      vertex 10.9369 -47 17.5886
    endloop
  endfacet
  facet normal 0 -1 0
    outer loop
      vertex 47 -47 0
      vertex 10.9369 -47 17.5886
      vertex 10.314 -47 17.5099
    endloop
  endfacet
  facet normal 0 -1 0
    outer loop
      vertex 9.68605 -47 17.5099
      vertex 47 -47 0
      vertex 10.314 -47 17.5099
    endloop
  endfacet
  facet normal 0 -1 0
    outer loop
      vertex 35 -47 20
      vertex 47 -47 0
      vertex 47 -47 35
    endloop
  endfacet
  facet normal 0 -1 0
    outer loop
      vertex 25 -47 20
      vertex 47 -47 0
      vertex 35 -47 20
    endloop
  endfacet
  facet normal 0 -1 0
    outer loop
      vertex -29.2505 -47 26.4291
      vertex -47 -47 35
      vertex -29.7488 -47 26.4921
    endloop
  endfacet
  facet normal 0 -1 0
    outer loop
      vertex -17.5 -47 25
      vertex -47 -47 35
      vertex -29.2505 -47 26.4291
    endloop
  endfacet
  facet normal 0 -1 0
    outer loop
      vertex 8.45491 -47 27.2553
      vertex -2.5 -47 25
      vertex 7.8711 -47 27.0241
    endloop
  endfacet
  facet normal 0 -1 0
    outer loop
      vertex -17.5 -47 25
      vertex -29.2505 -47 26.4291
      vertex -28.7639 -47 26.3042
    endloop
  endfacet
  facet normal 0 -1 0
    outer loop
      vertex -17.5 -47 25
      vertex -28.7639 -47 26.3042
      vertex -28.2969 -47 26.1193
    endloop
  endfacet
  facet normal 0 -1 0
    outer loop
      vertex 7.8711 -47 27.0241
      vertex -2.5 -47 25
      vertex 7.32087 -47 26.7216
    endloop
  endfacet
  facet normal 0 -1 0
    outer loop
      vertex -17.5 -47 25
      vertex -28.2969 -47 26.1193
      vertex -27.8567 -47 25.8773
    endloop
  endfacet
  facet normal 0 -1 0
    outer loop
      vertex -17.5 -47 25
      vertex -27.8567 -47 25.8773
      vertex -27.4503 -47 25.5821
    endloop
  endfacet
  facet normal 0 -1 0
    outer loop
      vertex 7.32087 -47 26.7216
      vertex -2.5 -47 25
      vertex 6.81288 -47 26.3526
    endloop
  endfacet
  facet normal 0 -1 0
    outer loop
      vertex -17.5 -47 25
      vertex -27.4503 -47 25.5821
      vertex -27.0841 -47 25.2382
    endloop
  endfacet
  facet normal 0 -1 0
    outer loop
      vertex 6.81288 -47 26.3526
      vertex -2.5 -47 25
      vertex 6.35516 -47 25.9227
    endloop
  endfacet
  facet normal 0 -1 0
    outer loop
      vertex 6.35516 -47 25.9227
      vertex -2.5 -47 25
      vertex 5.95491 -47 25.4389
    endloop
  endfacet
  facet normal 0 -1 0
    outer loop
      vertex -2.5 -47 25
      vertex 5.61847 -47 24.9088
      vertex 5.95491 -47 25.4389
    endloop
  endfacet
  facet normal 0 -1 0
    outer loop
      vertex -2.5 -47 25
      vertex 5.35112 -47 24.3406
      vertex 5.61847 -47 24.9088
    endloop
  endfacet
  facet normal 0 -1 0
    outer loop
      vertex -2.5 -47 25
      vertex 5.15708 -47 23.7435
      vertex 5.35112 -47 24.3406
    endloop
  endfacet
  facet normal 0 -1 0
    outer loop
      vertex -2.5 -47 25
      vertex 5.03943 -47 23.1267
      vertex 5.15708 -47 23.7435
    endloop
  endfacet
  facet normal 0 -1 0
    outer loop
      vertex -2.5 -47 25
      vertex 5.01577 -47 22.7507
      vertex 5.03943 -47 23.1267
    endloop
  endfacet
  facet normal 0 -1 0
    outer loop
      vertex -2.5 -47 25
      vertex 5 -47 22.5
      vertex 5.01577 -47 22.7507
    endloop
  endfacet
  facet normal 0 -1 0
    outer loop
      vertex -2.5 -47 20
      vertex 5 -47 22.5
      vertex -2.5 -47 25
    endloop
  endfacet
  facet normal 0 -1 -0
    outer loop
      vertex 5 -47 22.5
      vertex -2.5 -47 20
      vertex 5.02366 -47 22.124
    endloop
  endfacet
  facet normal 0 -1 -0
    outer loop
      vertex 5.02366 -47 22.124
      vertex -2.5 -47 20
      vertex 5.03943 -47 21.8733
    endloop
  endfacet
  facet normal 0 -1 -0
    outer loop
      vertex 5.03943 -47 21.8733
      vertex -2.5 -47 20
      vertex 5.15708 -47 21.2565
    endloop
  endfacet
  facet normal 0 -1 -0
    outer loop
      vertex 5.15708 -47 21.2565
      vertex -2.5 -47 20
      vertex 5.35112 -47 20.6594
    endloop
  endfacet
  facet normal 0 -1 -0
    outer loop
      vertex 5.35112 -47 20.6594
      vertex -2.5 -47 20
      vertex 5.61847 -47 20.0912
    endloop
  endfacet
  facet normal 0 -1 0
    outer loop
      vertex -2.5 -47 20
      vertex 5.95491 -47 19.5611
      vertex 5.61847 -47 20.0912
    endloop
  endfacet
  facet normal 0 -1 0
    outer loop
      vertex -27.8567 -47 19.1227
      vertex -17.5 -47 20
      vertex -27.4503 -47 19.4179
    endloop
  endfacet
  facet normal 0 -1 0
    outer loop
      vertex -28.2969 -47 18.8807
      vertex -17.5 -47 20
      vertex -27.8567 -47 19.1227
    endloop
  endfacet
  facet normal 0 -1 0
    outer loop
      vertex -28.7639 -47 18.6958
      vertex -17.5 -47 20
      vertex -28.2969 -47 18.8807
    endloop
  endfacet
  facet normal 0 -1 0
    outer loop
      vertex -2.5 -47 20
      vertex 6.35516 -47 19.0773
      vertex 5.95491 -47 19.5611
    endloop
  endfacet
  facet normal 0 -1 0
    outer loop
      vertex -29.2505 -47 18.5709
      vertex -17.5 -47 20
      vertex -28.7639 -47 18.6958
    endloop
  endfacet
  facet normal 0 -1 0
    outer loop
      vertex 7.32087 -47 18.2784
      vertex -17.5 -47 20
      vertex -29.2505 -47 18.5709
    endloop
  endfacet
  facet normal 0 -1 0
    outer loop
      vertex -2.5 -47 20
      vertex 6.81288 -47 18.6474
      vertex 6.35516 -47 19.0773
    endloop
  endfacet
  facet normal 0 -1 0
    outer loop
      vertex -17.5 -47 20
      vertex 7.32087 -47 18.2784
      vertex -2.5 -47 20
    endloop
  endfacet
  facet normal 0 -1 0
    outer loop
      vertex 7.32087 -47 18.2784
      vertex -29.2505 -47 18.5709
      vertex -29.7488 -47 18.5079
    endloop
  endfacet
  facet normal 0 -1 0
    outer loop
      vertex -2.5 -47 20
      vertex 7.32087 -47 18.2784
      vertex 6.81288 -47 18.6474
    endloop
  endfacet
  facet normal 0 1 -0
    outer loop
      vertex 47 47 0
      vertex -47 47 35
      vertex 47 47 35
    endloop
  endfacet
  facet normal 0 1 0
    outer loop
      vertex -47 47 35
      vertex 47 47 0
      vertex -47 47 0
    endloop
  endfacet
  facet normal 1 -0 0
    outer loop
      vertex -45 -45 32.95
      vertex -45 45 6
      vertex -45 45 32.95
    endloop
  endfacet
  facet normal 1 0 0
    outer loop
      vertex -45 45 6
      vertex -45 -45 32.95
      vertex -45 -45 6
    endloop
  endfacet
  facet normal -1 0 0
    outer loop
      vertex 45 -45 6
      vertex 45 45 32.95
      vertex 45 45 6
    endloop
  endfacet
  facet normal -1 -0 0
    outer loop
      vertex 45 45 32.95
      vertex 45 -45 6
      vertex 45 -45 32.95
    endloop
  endfacet
  facet normal 0 -1 0
    outer loop
      vertex -45 45 6
      vertex 45 45 32.95
      vertex -45 45 32.95
    endloop
  endfacet
  facet normal 0 -1 -0
    outer loop
      vertex 45 45 32.95
      vertex -45 45 6
      vertex 45 45 6
    endloop
  endfacet
  facet normal 0 0 1
    outer loop
      vertex 40 -15 6
      vertex 45 45 6
      vertex 40 35 6
    endloop
  endfacet
  facet normal 0 0 1
    outer loop
      vertex 45 45 6
      vertex -10 35 6
      vertex 40 35 6
    endloop
  endfacet
  facet normal 0 0 1
    outer loop
      vertex -10 35 6
      vertex -12.5 30 6
      vertex -10 -15 6
    endloop
  endfacet
  facet normal 0 0 1
    outer loop
      vertex -10 35 6
      vertex -37.5 30 6
      vertex -12.5 30 6
    endloop
  endfacet
  facet normal -0 0 1
    outer loop
      vertex -45 45 6
      vertex -10 35 6
      vertex 45 45 6
    endloop
  endfacet
  facet normal 0 0 1
    outer loop
      vertex -37.5 30 6
      vertex -45 45 6
      vertex -37.5 -10 6
    endloop
  endfacet
  facet normal 0 0 1
    outer loop
      vertex -10 35 6
      vertex -45 45 6
      vertex -37.5 30 6
    endloop
  endfacet
  facet normal 0 0 1
    outer loop
      vertex 45 45 6
      vertex 40 -15 6
      vertex 45 -45 6
    endloop
  endfacet
  facet normal -0 0 1
    outer loop
      vertex -10 -15 6
      vertex 45 -45 6
      vertex 40 -15 6
    endloop
  endfacet
  facet normal -0 0 1
    outer loop
      vertex -12.5 -10 6
      vertex -10 -15 6
      vertex -12.5 30 6
    endloop
  endfacet
  facet normal -0 0 1
    outer loop
      vertex -37.5 -10 6
      vertex -10 -15 6
      vertex -12.5 -10 6
    endloop
  endfacet
  facet normal 0 0 1
    outer loop
      vertex -45 -45 6
      vertex -10 -15 6
      vertex -37.5 -10 6
    endloop
  endfacet
  facet normal 0 0 1
    outer loop
      vertex -10 -15 6
      vertex -45 -45 6
      vertex 45 -45 6
    endloop
  endfacet
  facet normal 0 0 1
    outer loop
      vertex -45 -45 6
      vertex -37.5 -10 6
      vertex -45 45 6
    endloop
  endfacet
  facet normal 0 1 0
    outer loop
      vertex -45 -45 32.95
      vertex -29.2505 -45 26.4291
      vertex -29.7488 -45 26.4921
    endloop
  endfacet
  facet normal 0 1 0
    outer loop
      vertex -2.5 -45 25
      vertex 7.32087 -45 26.7216
      vertex 6.81288 -45 26.3526
    endloop
  endfacet
  facet normal 0 1 0
    outer loop
      vertex 7.8711 -45 27.0241
      vertex -17.5 -45 25
      vertex -29.2505 -45 26.4291
    endloop
  endfacet
  facet normal 0 1 0
    outer loop
      vertex -29.2505 -45 26.4291
      vertex -17.5 -45 25
      vertex -28.7639 -45 26.3042
    endloop
  endfacet
  facet normal 0 1 0
    outer loop
      vertex -2.5 -45 25
      vertex 6.81288 -45 26.3526
      vertex 6.35516 -45 25.9227
    endloop
  endfacet
  facet normal 0 1 0
    outer loop
      vertex -28.7639 -45 26.3042
      vertex -17.5 -45 25
      vertex -28.2969 -45 26.1193
    endloop
  endfacet
  facet normal 0 1 0
    outer loop
      vertex -28.2969 -45 26.1193
      vertex -17.5 -45 25
      vertex -27.8567 -45 25.8773
    endloop
  endfacet
  facet normal 0 1 0
    outer loop
      vertex -2.5 -45 25
      vertex 6.35516 -45 25.9227
      vertex 5.95491 -45 25.4389
    endloop
  endfacet
  facet normal 0 1 0
    outer loop
      vertex -27.8567 -45 25.8773
      vertex -17.5 -45 25
      vertex -27.4503 -45 25.5821
    endloop
  endfacet
  facet normal 0 1 0
    outer loop
      vertex 7.8711 -45 27.0241
      vertex -2.5 -45 25
      vertex -17.5 -45 25
    endloop
  endfacet
  facet normal 0 1 -0
    outer loop
      vertex 5.61847 -45 24.9088
      vertex -2.5 -45 25
      vertex 5.95491 -45 25.4389
    endloop
  endfacet
  facet normal 0 1 -0
    outer loop
      vertex 5.35112 -45 24.3406
      vertex -2.5 -45 25
      vertex 5.61847 -45 24.9088
    endloop
  endfacet
  facet normal 0 1 -0
    outer loop
      vertex 5.15708 -45 23.7435
      vertex -2.5 -45 25
      vertex 5.35112 -45 24.3406
    endloop
  endfacet
  facet normal 0 1 -0
    outer loop
      vertex 5.03943 -45 23.1267
      vertex -2.5 -45 25
      vertex 5.15708 -45 23.7435
    endloop
  endfacet
  facet normal 0 1 -0
    outer loop
      vertex 5.01971 -45 22.8133
      vertex -2.5 -45 25
      vertex 5.03943 -45 23.1267
    endloop
  endfacet
  facet normal 0 1 -0
    outer loop
      vertex 5 -45 22.5
      vertex -2.5 -45 25
      vertex 5.01971 -45 22.8133
    endloop
  endfacet
  facet normal 0 1 0
    outer loop
      vertex -2.5 -45 20
      vertex 5 -45 22.5
      vertex 5.01971 -45 22.1867
    endloop
  endfacet
  facet normal 0 1 0
    outer loop
      vertex -2.5 -45 20
      vertex 5.01971 -45 22.1867
      vertex 5.03943 -45 21.8733
    endloop
  endfacet
  facet normal 0 1 0
    outer loop
      vertex -2.5 -45 20
      vertex 5.03943 -45 21.8733
      vertex 5.15708 -45 21.2565
    endloop
  endfacet
  facet normal 0 1 0
    outer loop
      vertex -2.5 -45 20
      vertex 5.15708 -45 21.2565
      vertex 5.35112 -45 20.6594
    endloop
  endfacet
  facet normal 0 1 0
    outer loop
      vertex -2.5 -45 20
      vertex 5.35112 -45 20.6594
      vertex 5.61847 -45 20.0912
    endloop
  endfacet
  facet normal 0 1 0
    outer loop
      vertex 5 -45 22.5
      vertex -2.5 -45 20
      vertex -2.5 -45 25
    endloop
  endfacet
  facet normal 0 1 0
    outer loop
      vertex -45 -45 6
      vertex -17.5 -45 20
      vertex -2.5 -45 20
    endloop
  endfacet
  facet normal 0 1 0
    outer loop
      vertex 5.95491 -45 19.5611
      vertex -2.5 -45 20
      vertex 5.61847 -45 20.0912
    endloop
  endfacet
  facet normal 0 1 0
    outer loop
      vertex 6.35516 -45 19.0773
      vertex -2.5 -45 20
      vertex 5.95491 -45 19.5611
    endloop
  endfacet
  facet normal 0 1 0
    outer loop
      vertex 6.81288 -45 18.6474
      vertex -2.5 -45 20
      vertex 6.35516 -45 19.0773
    endloop
  endfacet
  facet normal 0 1 0
    outer loop
      vertex -17.5 -45 20
      vertex -27.4503 -45 19.4179
      vertex -27.0841 -45 19.7618
    endloop
  endfacet
  facet normal 0 1 0
    outer loop
      vertex 7.32087 -45 18.2784
      vertex -2.5 -45 20
      vertex 6.81288 -45 18.6474
    endloop
  endfacet
  facet normal 0 1 0
    outer loop
      vertex -17.5 -45 20
      vertex -27.8567 -45 19.1227
      vertex -27.4503 -45 19.4179
    endloop
  endfacet
  facet normal 0 1 0
    outer loop
      vertex 7.8711 -45 17.9759
      vertex -2.5 -45 20
      vertex 7.32087 -45 18.2784
    endloop
  endfacet
  facet normal 0 1 0
    outer loop
      vertex -17.5 -45 20
      vertex -28.2969 -45 18.8807
      vertex -27.8567 -45 19.1227
    endloop
  endfacet
  facet normal 0 1 0
    outer loop
      vertex 8.45491 -45 17.7447
      vertex -2.5 -45 20
      vertex 7.8711 -45 17.9759
    endloop
  endfacet
  facet normal -0 1 0
    outer loop
      vertex -28.7639 -45 18.6958
      vertex -17.5 -45 20
      vertex -45 -45 6
    endloop
  endfacet
  facet normal 0 1 0
    outer loop
      vertex -28.7639 -45 18.6958
      vertex -45 -45 6
      vertex -29.2505 -45 18.5709
    endloop
  endfacet
  facet normal 0 1 0
    outer loop
      vertex -17.5 -45 20
      vertex -28.7639 -45 18.6958
      vertex -28.2969 -45 18.8807
    endloop
  endfacet
  facet normal 0 1 0
    outer loop
      vertex 9.68605 -45 27.4901
      vertex 45 -45 32.95
      vertex 10.314 -45 27.4901
    endloop
  endfacet
  facet normal 0 1 0
    outer loop
      vertex 45 -45 32.95
      vertex 10.9369 -45 27.4114
      vertex 10.314 -45 27.4901
    endloop
  endfacet
  facet normal 0 1 0
    outer loop
      vertex 45 -45 32.95
      vertex 11.5451 -45 27.2553
      vertex 10.9369 -45 27.4114
    endloop
  endfacet
  facet normal 0 1 -0
    outer loop
      vertex 25 -45 25
      vertex 11.5451 -45 27.2553
      vertex 45 -45 32.95
    endloop
  endfacet
  facet normal 0 1 0
    outer loop
      vertex 11.5451 -45 27.2553
      vertex 25 -45 25
      vertex 12.1289 -45 27.0241
    endloop
  endfacet
  facet normal 0 1 0
    outer loop
      vertex 12.1289 -45 27.0241
      vertex 25 -45 25
      vertex 12.6791 -45 26.7216
    endloop
  endfacet
  facet normal 0 1 0
    outer loop
      vertex 12.6791 -45 26.7216
      vertex 25 -45 25
      vertex 13.1871 -45 26.3526
    endloop
  endfacet
  facet normal 0 1 0
    outer loop
      vertex 13.1871 -45 26.3526
      vertex 25 -45 25
      vertex 13.6448 -45 25.9227
    endloop
  endfacet
  facet normal 0 1 0
    outer loop
      vertex 25 -45 25
      vertex 45 -45 32.95
      vertex 35 -45 25
    endloop
  endfacet
  facet normal 0 1 0
    outer loop
      vertex 45 -45 32.95
      vertex 35 -45 20
      vertex 35 -45 25
    endloop
  endfacet
  facet normal 0 1 0
    outer loop
      vertex 45 -45 6
      vertex 25 -45 20
      vertex 35 -45 20
    endloop
  endfacet
  facet normal 0 1 0
    outer loop
      vertex 25 -45 20
      vertex 13.6448 -45 19.0773
      vertex 14.0451 -45 19.5611
    endloop
  endfacet
  facet normal 0 1 0
    outer loop
      vertex 25 -45 20
      vertex 13.1871 -45 18.6474
      vertex 13.6448 -45 19.0773
    endloop
  endfacet
  facet normal -0 1 0
    outer loop
      vertex 12.1289 -45 17.9759
      vertex 25 -45 20
      vertex 45 -45 6
    endloop
  endfacet
  facet normal 0 1 0
    outer loop
      vertex 25 -45 20
      vertex 12.6791 -45 18.2784
      vertex 13.1871 -45 18.6474
    endloop
  endfacet
  facet normal 0 1 0
    outer loop
      vertex 25 -45 20
      vertex 12.1289 -45 17.9759
      vertex 12.6791 -45 18.2784
    endloop
  endfacet
  facet normal 0 1 0
    outer loop
      vertex 12.1289 -45 17.9759
      vertex 45 -45 6
      vertex 11.5451 -45 17.7447
    endloop
  endfacet
  facet normal 0 1 0
    outer loop
      vertex 11.5451 -45 17.7447
      vertex 45 -45 6
      vertex 10.9369 -45 17.5886
    endloop
  endfacet
  facet normal 0 1 0
    outer loop
      vertex 10.314 -45 17.5099
      vertex 45 -45 6
      vertex 9.68605 -45 17.5099
    endloop
  endfacet
  facet normal 0 1 0
    outer loop
      vertex 10.9369 -45 17.5886
      vertex 45 -45 6
      vertex 10.314 -45 17.5099
    endloop
  endfacet
  facet normal 0 1 -0
    outer loop
      vertex 45 -45 6
      vertex 35 -45 20
      vertex 45 -45 32.95
    endloop
  endfacet
  facet normal 0 1 0
    outer loop
      vertex 45 -45 32.95
      vertex 9.68605 -45 27.4901
      vertex -45 -45 32.95
    endloop
  endfacet
  facet normal 0 1 -0
    outer loop
      vertex 9.06309 -45 27.4114
      vertex -45 -45 32.95
      vertex 9.68605 -45 27.4901
    endloop
  endfacet
  facet normal 0 1 -0
    outer loop
      vertex 8.45491 -45 27.2553
      vertex -45 -45 32.95
      vertex 9.06309 -45 27.4114
    endloop
  endfacet
  facet normal 0 1 0
    outer loop
      vertex -29.2505 -45 26.4291
      vertex 8.45491 -45 27.2553
      vertex 7.8711 -45 27.0241
    endloop
  endfacet
  facet normal 0 1 0
    outer loop
      vertex -2.5 -45 25
      vertex 7.8711 -45 27.0241
      vertex 7.32087 -45 26.7216
    endloop
  endfacet
  facet normal 0 1 -0
    outer loop
      vertex -29.2505 -45 26.4291
      vertex -45 -45 32.95
      vertex 8.45491 -45 27.2553
    endloop
  endfacet
  facet normal 0 1 -0
    outer loop
      vertex -30.2512 -45 26.4921
      vertex -45 -45 32.95
      vertex -29.7488 -45 26.4921
    endloop
  endfacet
  facet normal 0 1 -0
    outer loop
      vertex -30.7495 -45 26.4291
      vertex -45 -45 32.95
      vertex -30.2512 -45 26.4921
    endloop
  endfacet
  facet normal 0 1 -0
    outer loop
      vertex -31.2361 -45 26.3042
      vertex -45 -45 32.95
      vertex -30.7495 -45 26.4291
    endloop
  endfacet
  facet normal 0 1 -0
    outer loop
      vertex -31.7031 -45 26.1193
      vertex -45 -45 32.95
      vertex -31.2361 -45 26.3042
    endloop
  endfacet
  facet normal 0 1 -0
    outer loop
      vertex -32.1433 -45 25.8773
      vertex -45 -45 32.95
      vertex -31.7031 -45 26.1193
    endloop
  endfacet
  facet normal 0 1 -0
    outer loop
      vertex -32.5497 -45 25.5821
      vertex -45 -45 32.95
      vertex -32.1433 -45 25.8773
    endloop
  endfacet
  facet normal 0 1 -0
    outer loop
      vertex -32.9159 -45 25.2382
      vertex -45 -45 32.95
      vertex -32.5497 -45 25.5821
    endloop
  endfacet
  facet normal 0 1 -0
    outer loop
      vertex -33.2361 -45 24.8511
      vertex -45 -45 32.95
      vertex -32.9159 -45 25.2382
    endloop
  endfacet
  facet normal 0 1 -0
    outer loop
      vertex -33.5052 -45 24.427
      vertex -45 -45 32.95
      vertex -33.2361 -45 24.8511
    endloop
  endfacet
  facet normal 0 1 -0
    outer loop
      vertex -33.7191 -45 23.9725
      vertex -45 -45 32.95
      vertex -33.5052 -45 24.427
    endloop
  endfacet
  facet normal 0 1 -0
    outer loop
      vertex -33.8743 -45 23.4948
      vertex -45 -45 32.95
      vertex -33.7191 -45 23.9725
    endloop
  endfacet
  facet normal 0 1 -0
    outer loop
      vertex -33.9685 -45 23.0013
      vertex -45 -45 32.95
      vertex -33.8743 -45 23.4948
    endloop
  endfacet
  facet normal 0 1 -0
    outer loop
      vertex -33.9842 -45 22.7507
      vertex -45 -45 32.95
      vertex -33.9685 -45 23.0013
    endloop
  endfacet
  facet normal 0 1 -0
    outer loop
      vertex -34 -45 22.5
      vertex -45 -45 32.95
      vertex -33.9842 -45 22.7507
    endloop
  endfacet
  facet normal 0 1 0
    outer loop
      vertex -33.9842 -45 22.2493
      vertex -45 -45 32.95
      vertex -34 -45 22.5
    endloop
  endfacet
  facet normal 0 1 0
    outer loop
      vertex -33.9685 -45 21.9987
      vertex -45 -45 32.95
      vertex -33.9842 -45 22.2493
    endloop
  endfacet
  facet normal 0 1 0
    outer loop
      vertex -45 -45 6
      vertex -33.9685 -45 21.9987
      vertex -33.8743 -45 21.5052
    endloop
  endfacet
  facet normal 0 1 0
    outer loop
      vertex -45 -45 6
      vertex -33.8743 -45 21.5052
      vertex -33.7191 -45 21.0275
    endloop
  endfacet
  facet normal 0 1 0
    outer loop
      vertex -45 -45 6
      vertex -33.7191 -45 21.0275
      vertex -33.5052 -45 20.573
    endloop
  endfacet
  facet normal 0 1 0
    outer loop
      vertex -45 -45 6
      vertex -33.5052 -45 20.573
      vertex -33.2361 -45 20.1489
    endloop
  endfacet
  facet normal 0 1 0
    outer loop
      vertex -45 -45 6
      vertex -33.2361 -45 20.1489
      vertex -32.9159 -45 19.7618
    endloop
  endfacet
  facet normal 0 1 0
    outer loop
      vertex -29.2505 -45 18.5709
      vertex -45 -45 6
      vertex -29.7488 -45 18.5079
    endloop
  endfacet
  facet normal 0 1 0
    outer loop
      vertex -2.5 -45 20
      vertex 8.45491 -45 17.7447
      vertex -45 -45 6
    endloop
  endfacet
  facet normal 0 1 0
    outer loop
      vertex -45 -45 6
      vertex 8.45491 -45 17.7447
      vertex 9.06309 -45 17.5886
    endloop
  endfacet
  facet normal 0 1 0
    outer loop
      vertex -45 -45 6
      vertex 9.06309 -45 17.5886
      vertex 9.68605 -45 17.5099
    endloop
  endfacet
  facet normal 0 1 0
    outer loop
      vertex -45 -45 6
      vertex 9.68605 -45 17.5099
      vertex 45 -45 6
    endloop
  endfacet
  facet normal 0 1 0
    outer loop
      vertex -29.7488 -45 18.5079
      vertex -45 -45 6
      vertex -30.2512 -45 18.5079
    endloop
  endfacet
  facet normal 0 1 0
    outer loop
      vertex -33.9685 -45 21.9987
      vertex -45 -45 6
      vertex -45 -45 32.95
    endloop
  endfacet
  facet normal 0 1 0
    outer loop
      vertex -32.5497 -45 19.4179
      vertex -45 -45 6
      vertex -32.9159 -45 19.7618
    endloop
  endfacet
  facet normal 0 1 0
    outer loop
      vertex -32.1433 -45 19.1227
      vertex -45 -45 6
      vertex -32.5497 -45 19.4179
    endloop
  endfacet
  facet normal 0 1 0
    outer loop
      vertex -31.7031 -45 18.8807
      vertex -45 -45 6
      vertex -32.1433 -45 19.1227
    endloop
  endfacet
  facet normal 0 1 0
    outer loop
      vertex -31.2361 -45 18.6958
      vertex -45 -45 6
      vertex -31.7031 -45 18.8807
    endloop
  endfacet
  facet normal 0 1 0
    outer loop
      vertex -30.7495 -45 18.5709
      vertex -45 -45 6
      vertex -31.2361 -45 18.6958
    endloop
  endfacet
  facet normal 0 1 0
    outer loop
      vertex -30.2512 -45 18.5079
      vertex -45 -45 6
      vertex -30.7495 -45 18.5709
    endloop
  endfacet
  facet normal 0 1 0
    outer loop
      vertex 13.6448 -45 25.9227
      vertex 25 -45 25
      vertex 14.0451 -45 25.4389
    endloop
  endfacet
  facet normal 0 1 0
    outer loop
      vertex 25 -45 25
      vertex 14.3815 -45 24.9088
      vertex 14.0451 -45 25.4389
    endloop
  endfacet
  facet normal 0 1 0
    outer loop
      vertex 25 -45 25
      vertex 14.6489 -45 24.3406
      vertex 14.3815 -45 24.9088
    endloop
  endfacet
  facet normal 0 1 0
    outer loop
      vertex 25 -45 25
      vertex 14.8429 -45 23.7435
      vertex 14.6489 -45 24.3406
    endloop
  endfacet
  facet normal 0 1 0
    outer loop
      vertex 25 -45 25
      vertex 14.9606 -45 23.1267
      vertex 14.8429 -45 23.7435
    endloop
  endfacet
  facet normal 0 1 0
    outer loop
      vertex 25 -45 25
      vertex 14.9803 -45 22.8133
      vertex 14.9606 -45 23.1267
    endloop
  endfacet
  facet normal 0 1 0
    outer loop
      vertex 25 -45 25
      vertex 15 -45 22.5
      vertex 14.9803 -45 22.8133
    endloop
  endfacet
  facet normal 0 1 -0
    outer loop
      vertex 25 -45 20
      vertex 15 -45 22.5
      vertex 25 -45 25
    endloop
  endfacet
  facet normal 0 1 0
    outer loop
      vertex 15 -45 22.5
      vertex 25 -45 20
      vertex 14.9803 -45 22.1867
    endloop
  endfacet
  facet normal 0 1 0
    outer loop
      vertex 14.9803 -45 22.1867
      vertex 25 -45 20
      vertex 14.9606 -45 21.8733
    endloop
  endfacet
  facet normal 0 1 0
    outer loop
      vertex 14.9606 -45 21.8733
      vertex 25 -45 20
      vertex 14.8429 -45 21.2565
    endloop
  endfacet
  facet normal 0 1 0
    outer loop
      vertex 14.8429 -45 21.2565
      vertex 25 -45 20
      vertex 14.6489 -45 20.6594
    endloop
  endfacet
  facet normal 0 1 0
    outer loop
      vertex 14.6489 -45 20.6594
      vertex 25 -45 20
      vertex 14.3815 -45 20.0912
    endloop
  endfacet
  facet normal 0 1 0
    outer loop
      vertex 14.3815 -45 20.0912
      vertex 25 -45 20
      vertex 14.0451 -45 19.5611
    endloop
  endfacet
  facet normal 0 1 0
    outer loop
      vertex -27.4503 -45 25.5821
      vertex -17.5 -45 25
      vertex -27.0841 -45 25.2382
    endloop
  endfacet
  facet normal 0 1 0
    outer loop
      vertex -17.5 -45 25
      vertex -26.7639 -45 24.8511
      vertex -27.0841 -45 25.2382
    endloop
  endfacet
  facet normal 0 1 0
    outer loop
      vertex -17.5 -45 25
      vertex -26.4948 -45 24.427
      vertex -26.7639 -45 24.8511
    endloop
  endfacet
  facet normal 0 1 0
    outer loop
      vertex -17.5 -45 25
      vertex -26.2809 -45 23.9725
      vertex -26.4948 -45 24.427
    endloop
  endfacet
  facet normal 0 1 0
    outer loop
      vertex -17.5 -45 25
      vertex -26.1257 -45 23.4948
      vertex -26.2809 -45 23.9725
    endloop
  endfacet
  facet normal 0 1 0
    outer loop
      vertex -17.5 -45 25
      vertex -26.0315 -45 23.0013
      vertex -26.1257 -45 23.4948
    endloop
  endfacet
  facet normal 0 1 0
    outer loop
      vertex -17.5 -45 25
      vertex -26.0158 -45 22.7507
      vertex -26.0315 -45 23.0013
    endloop
  endfacet
  facet normal 0 1 0
    outer loop
      vertex -17.5 -45 25
      vertex -26 -45 22.5
      vertex -26.0158 -45 22.7507
    endloop
  endfacet
  facet normal 0 1 -0
    outer loop
      vertex -17.5 -45 20
      vertex -26 -45 22.5
      vertex -17.5 -45 25
    endloop
  endfacet
  facet normal 0 1 0
    outer loop
      vertex -26 -45 22.5
      vertex -17.5 -45 20
      vertex -26.0158 -45 22.2493
    endloop
  endfacet
  facet normal 0 1 0
    outer loop
      vertex -26.0158 -45 22.2493
      vertex -17.5 -45 20
      vertex -26.0315 -45 21.9987
    endloop
  endfacet
  facet normal 0 1 0
    outer loop
      vertex -26.0315 -45 21.9987
      vertex -17.5 -45 20
      vertex -26.1257 -45 21.5052
    endloop
  endfacet
  facet normal 0 1 0
    outer loop
      vertex -26.1257 -45 21.5052
      vertex -17.5 -45 20
      vertex -26.2809 -45 21.0275
    endloop
  endfacet
  facet normal 0 1 0
    outer loop
      vertex -26.2809 -45 21.0275
      vertex -17.5 -45 20
      vertex -26.4948 -45 20.573
    endloop
  endfacet
  facet normal 0 1 0
    outer loop
      vertex -26.4948 -45 20.573
      vertex -17.5 -45 20
      vertex -26.7639 -45 20.1489
    endloop
  endfacet
  facet normal 0 1 0
    outer loop
      vertex -26.7639 -45 20.1489
      vertex -17.5 -45 20
      vertex -27.0841 -45 19.7618
    endloop
  endfacet
  facet normal 1 -0 0
    outer loop
      vertex -10 -15 6
      vertex -10 35 2.5
      vertex -10 35 6
    endloop
  endfacet
  facet normal 1 0 0
    outer loop
      vertex -10 35 2.5
      vertex -10 -15 6
      vertex -10 -15 2.5
    endloop
  endfacet
  facet normal -1 0 0
    outer loop
      vertex 40 -15 2.5
      vertex 40 35 6
      vertex 40 35 2.5
    endloop
  endfacet
  facet normal -1 -0 0
    outer loop
      vertex 40 35 6
      vertex 40 -15 2.5
      vertex 40 -15 6
    endloop
  endfacet
  facet normal -0 0 1
    outer loop
      vertex -10 35 2.5
      vertex 40 -15 2.5
      vertex 40 35 2.5
    endloop
  endfacet
  facet normal 0 0 1
    outer loop
      vertex 40 -15 2.5
      vertex -10 35 2.5
      vertex -10 -15 2.5
    endloop
  endfacet
  facet normal 0 1 -0
    outer loop
      vertex 40 -15 2.5
      vertex -10 -15 6
      vertex 40 -15 6
    endloop
  endfacet
  facet normal 0 1 0
    outer loop
      vertex -10 -15 6
      vertex 40 -15 2.5
      vertex -10 -15 2.5
    endloop
  endfacet
  facet normal 0 -1 0
    outer loop
      vertex -10 35 2.5
      vertex 40 35 6
      vertex -10 35 6
    endloop
  endfacet
  facet normal 0 -1 -0
    outer loop
      vertex 40 35 6
      vertex -10 35 2.5
      vertex 40 35 2.5
    endloop
  endfacet
  facet normal 1 -0 0
    outer loop
      vertex -37.5 -10 6
      vertex -37.5 30 2.5
      vertex -37.5 30 6
    endloop
  endfacet
  facet normal 1 0 0
    outer loop
      vertex -37.5 30 2.5
      vertex -37.5 -10 6
      vertex -37.5 -10 2.5
    endloop
  endfacet
  facet normal -1 0 0
    outer loop
      vertex -12.5 -10 2.5
      vertex -12.5 30 6
      vertex -12.5 30 2.5
    endloop
  endfacet
  facet normal -1 -0 0
    outer loop
      vertex -12.5 30 6
      vertex -12.5 -10 2.5
      vertex -12.5 -10 6
    endloop
  endfacet
  facet normal -0 0 1
    outer loop
      vertex -37.5 30 2.5
      vertex -12.5 -10 2.5
      vertex -12.5 30 2.5
    endloop
  endfacet
  facet normal 0 0 1
    outer loop
      vertex -12.5 -10 2.5
      vertex -37.5 30 2.5
      vertex -37.5 -10 2.5
    endloop
  endfacet
  facet normal 0 1 -0
    outer loop
      vertex -12.5 -10 2.5
      vertex -37.5 -10 6
      vertex -12.5 -10 6
    endloop
  endfacet
  facet normal 0 1 0
    outer loop
      vertex -37.5 -10 6
      vertex -12.5 -10 2.5
      vertex -37.5 -10 2.5
    endloop
  endfacet
  facet normal 0 -1 0
    outer loop
      vertex -37.5 30 2.5
      vertex -12.5 30 6
      vertex -37.5 30 6
    endloop
  endfacet
  facet normal 0 -1 -0
    outer loop
      vertex -12.5 30 6
      vertex -37.5 30 2.5
      vertex -12.5 30 2.5
    endloop
  endfacet
  facet normal -0.998027 1.09257e-07 -0.0627902
    outer loop
      vertex 14.9606 -47 23.1267
      vertex 14.9803 -45 22.8133
      vertex 14.9842 -47 22.7507
    endloop
  endfacet
  facet normal -0.998027 0 -0.0627909
    outer loop
      vertex 14.9803 -45 22.8133
      vertex 14.9606 -47 23.1267
      vertex 14.9606 -45 23.1267
    endloop
  endfacet
  facet normal -0.982287 0 -0.187381
    outer loop
      vertex 14.9606 -47 23.1267
      vertex 14.8429 -45 23.7435
      vertex 14.9606 -45 23.1267
    endloop
  endfacet
  facet normal -0.982287 -0 -0.187381
    outer loop
      vertex 14.8429 -45 23.7435
      vertex 14.9606 -47 23.1267
      vertex 14.8429 -47 23.7435
    endloop
  endfacet
  facet normal -0.998027 0 -0.062792
    outer loop
      vertex 14.9842 -47 22.7507
      vertex 15 -45 22.5
      vertex 15 -47 22.5
    endloop
  endfacet
  facet normal -0.998027 1.31108e-07 -0.0627909
    outer loop
      vertex 15 -45 22.5
      vertex 14.9842 -47 22.7507
      vertex 14.9803 -45 22.8133
    endloop
  endfacet
  facet normal 0.998027 -8.3518e-08 0.0627894
    outer loop
      vertex 5.02366 -47 22.124
      vertex 5.03943 -45 21.8733
      vertex 5.01971 -45 22.1867
    endloop
  endfacet
  facet normal 0.998027 0 0.0627901
    outer loop
      vertex 5.03943 -45 21.8733
      vertex 5.02366 -47 22.124
      vertex 5.03943 -47 21.8733
    endloop
  endfacet
  facet normal -0.684547 0 -0.728969
    outer loop
      vertex 13.1871 -47 26.3526
      vertex 13.6448 -45 25.9227
      vertex 13.6448 -47 25.9227
    endloop
  endfacet
  facet normal -0.684547 0 -0.728969
    outer loop
      vertex 13.6448 -45 25.9227
      vertex 13.1871 -47 26.3526
      vertex 13.1871 -45 26.3526
    endloop
  endfacet
  facet normal 0.770513 0 -0.637425
    outer loop
      vertex 6.35516 -47 25.9227
      vertex 5.95491 -45 25.4389
      vertex 6.35516 -45 25.9227
    endloop
  endfacet
  facet normal 0.770513 0 -0.637425
    outer loop
      vertex 5.95491 -45 25.4389
      vertex 6.35516 -47 25.9227
      vertex 5.95491 -47 25.4389
    endloop
  endfacet
  facet normal 0.481756 0 -0.876305
    outer loop
      vertex 7.32087 -47 26.7216
      vertex 7.8711 -45 27.0241
      vertex 7.8711 -47 27.0241
    endloop
  endfacet
  facet normal 0.481756 0 -0.876305
    outer loop
      vertex 7.8711 -45 27.0241
      vertex 7.32087 -47 26.7216
      vertex 7.32087 -45 26.7216
    endloop
  endfacet
  facet normal -0.904827 0 -0.425779
    outer loop
      vertex 14.6489 -47 24.3406
      vertex 14.3815 -45 24.9088
      vertex 14.6489 -45 24.3406
    endloop
  endfacet
  facet normal -0.904827 -0 -0.425779
    outer loop
      vertex 14.3815 -45 24.9088
      vertex 14.6489 -47 24.3406
      vertex 14.3815 -47 24.9088
    endloop
  endfacet
  facet normal -0.368126 0 -0.929776
    outer loop
      vertex 11.5451 -47 27.2553
      vertex 12.1289 -45 27.0241
      vertex 12.1289 -47 27.0241
    endloop
  endfacet
  facet normal -0.368126 0 -0.929776
    outer loop
      vertex 12.1289 -45 27.0241
      vertex 11.5451 -47 27.2553
      vertex 11.5451 -45 27.2553
    endloop
  endfacet
  facet normal -0.481756 0 -0.876305
    outer loop
      vertex 12.1289 -47 27.0241
      vertex 12.6791 -45 26.7216
      vertex 12.6791 -47 26.7216
    endloop
  endfacet
  facet normal -0.481756 0 -0.876305
    outer loop
      vertex 12.6791 -45 26.7216
      vertex 12.1289 -47 27.0241
      vertex 12.1289 -45 27.0241
    endloop
  endfacet
  facet normal 0.951056 0 -0.309018
    outer loop
      vertex 5.35112 -47 24.3406
      vertex 5.15708 -45 23.7435
      vertex 5.35112 -45 24.3406
    endloop
  endfacet
  facet normal 0.951056 0 -0.309018
    outer loop
      vertex 5.15708 -45 23.7435
      vertex 5.35112 -47 24.3406
      vertex 5.15708 -47 23.7435
    endloop
  endfacet
  facet normal 0.904827 0 -0.425779
    outer loop
      vertex 5.61847 -47 24.9088
      vertex 5.35112 -45 24.3406
      vertex 5.61847 -45 24.9088
    endloop
  endfacet
  facet normal 0.904827 0 -0.425779
    outer loop
      vertex 5.35112 -45 24.3406
      vertex 5.61847 -47 24.9088
      vertex 5.35112 -47 24.3406
    endloop
  endfacet
  facet normal 0.684547 0 -0.728969
    outer loop
      vertex 6.35516 -47 25.9227
      vertex 6.81288 -45 26.3526
      vertex 6.81288 -47 26.3526
    endloop
  endfacet
  facet normal 0.684547 0 -0.728969
    outer loop
      vertex 6.81288 -45 26.3526
      vertex 6.35516 -47 25.9227
      vertex 6.35516 -45 25.9227
    endloop
  endfacet
  facet normal 0.248688 0 -0.968584
    outer loop
      vertex 8.45491 -47 27.2553
      vertex 9.06309 -45 27.4114
      vertex 9.06309 -47 27.4114
    endloop
  endfacet
  facet normal 0.248688 0 -0.968584
    outer loop
      vertex 9.06309 -45 27.4114
      vertex 8.45491 -47 27.2553
      vertex 8.45491 -45 27.2553
    endloop
  endfacet
  facet normal -0.951056 0 0.309018
    outer loop
      vertex 14.6489 -47 20.6594
      vertex 14.8429 -45 21.2565
      vertex 14.6489 -45 20.6594
    endloop
  endfacet
  facet normal -0.951056 0 0.309018
    outer loop
      vertex 14.8429 -45 21.2565
      vertex 14.6489 -47 20.6594
      vertex 14.8429 -47 21.2565
    endloop
  endfacet
  facet normal -0.248691 0 0.968583
    outer loop
      vertex 10.9369 -45 17.5886
      vertex 11.5451 -47 17.7447
      vertex 11.5451 -45 17.7447
    endloop
  endfacet
  facet normal -0.248691 0 0.968583
    outer loop
      vertex 11.5451 -47 17.7447
      vertex 10.9369 -45 17.5886
      vertex 10.9369 -47 17.5886
    endloop
  endfacet
  facet normal -0.770513 0 -0.637425
    outer loop
      vertex 14.0451 -47 25.4389
      vertex 13.6448 -45 25.9227
      vertex 14.0451 -45 25.4389
    endloop
  endfacet
  facet normal -0.770513 -0 -0.637425
    outer loop
      vertex 13.6448 -45 25.9227
      vertex 14.0451 -47 25.4389
      vertex 13.6448 -47 25.9227
    endloop
  endfacet
  facet normal -0.844329 0 -0.535825
    outer loop
      vertex 14.3815 -47 24.9088
      vertex 14.0451 -45 25.4389
      vertex 14.3815 -45 24.9088
    endloop
  endfacet
  facet normal -0.844329 -0 -0.535825
    outer loop
      vertex 14.0451 -45 25.4389
      vertex 14.3815 -47 24.9088
      vertex 14.0451 -47 25.4389
    endloop
  endfacet
  facet normal -0.125333 0 -0.992115
    outer loop
      vertex 10.314 -47 27.4901
      vertex 10.9369 -45 27.4114
      vertex 10.9369 -47 27.4114
    endloop
  endfacet
  facet normal -0.125333 0 -0.992115
    outer loop
      vertex 10.9369 -45 27.4114
      vertex 10.314 -47 27.4901
      vertex 10.314 -45 27.4901
    endloop
  endfacet
  facet normal -0.587784 0 -0.809018
    outer loop
      vertex 12.6791 -47 26.7216
      vertex 13.1871 -45 26.3526
      vertex 13.1871 -47 26.3526
    endloop
  endfacet
  facet normal -0.587784 0 -0.809018
    outer loop
      vertex 13.1871 -45 26.3526
      vertex 12.6791 -47 26.7216
      vertex 12.6791 -45 26.7216
    endloop
  endfacet
  facet normal 0.982287 0 -0.187381
    outer loop
      vertex 5.15708 -47 23.7435
      vertex 5.03943 -45 23.1267
      vertex 5.15708 -45 23.7435
    endloop
  endfacet
  facet normal 0.982287 0 -0.187381
    outer loop
      vertex 5.03943 -45 23.1267
      vertex 5.15708 -47 23.7435
      vertex 5.03943 -47 23.1267
    endloop
  endfacet
  facet normal 0.998027 0 -0.0627894
    outer loop
      vertex 5.03943 -47 23.1267
      vertex 5.01971 -45 22.8133
      vertex 5.03943 -45 23.1267
    endloop
  endfacet
  facet normal 0.998027 6.95981e-08 -0.062789
    outer loop
      vertex 5.01971 -45 22.8133
      vertex 5.03943 -47 23.1267
      vertex 5.01577 -47 22.7507
    endloop
  endfacet
  facet normal -0.982287 0 0.187381
    outer loop
      vertex 14.8429 -47 21.2565
      vertex 14.9606 -45 21.8733
      vertex 14.8429 -45 21.2565
    endloop
  endfacet
  facet normal -0.982287 0 0.187381
    outer loop
      vertex 14.9606 -45 21.8733
      vertex 14.8429 -47 21.2565
      vertex 14.9606 -47 21.8733
    endloop
  endfacet
  facet normal 0.684545 0 0.728971
    outer loop
      vertex 6.35516 -45 19.0773
      vertex 6.81288 -47 18.6474
      vertex 6.81288 -45 18.6474
    endloop
  endfacet
  facet normal 0.684545 0 0.728971
    outer loop
      vertex 6.81288 -47 18.6474
      vertex 6.35516 -45 19.0773
      vertex 6.35516 -47 19.0773
    endloop
  endfacet
  facet normal 0.904827 -0 0.425779
    outer loop
      vertex 5.35112 -47 20.6594
      vertex 5.61847 -45 20.0912
      vertex 5.35112 -45 20.6594
    endloop
  endfacet
  facet normal 0.904827 0 0.425779
    outer loop
      vertex 5.61847 -45 20.0912
      vertex 5.35112 -47 20.6594
      vertex 5.61847 -47 20.0912
    endloop
  endfacet
  facet normal 0.982287 -0 0.187381
    outer loop
      vertex 5.03943 -47 21.8733
      vertex 5.15708 -45 21.2565
      vertex 5.03943 -45 21.8733
    endloop
  endfacet
  facet normal 0.982287 0 0.187381
    outer loop
      vertex 5.15708 -45 21.2565
      vertex 5.03943 -47 21.8733
      vertex 5.15708 -47 21.2565
    endloop
  endfacet
  facet normal -0.125333 0 0.992115
    outer loop
      vertex 10.314 -45 17.5099
      vertex 10.9369 -47 17.5886
      vertex 10.9369 -45 17.5886
    endloop
  endfacet
  facet normal -0.125333 0 0.992115
    outer loop
      vertex 10.9369 -47 17.5886
      vertex 10.314 -45 17.5099
      vertex 10.314 -47 17.5099
    endloop
  endfacet
  facet normal -0.481754 0 0.876307
    outer loop
      vertex 12.1289 -45 17.9759
      vertex 12.6791 -47 18.2784
      vertex 12.6791 -45 18.2784
    endloop
  endfacet
  facet normal -0.481754 0 0.876307
    outer loop
      vertex 12.6791 -47 18.2784
      vertex 12.1289 -45 17.9759
      vertex 12.1289 -47 17.9759
    endloop
  endfacet
  facet normal -0.951056 0 -0.309018
    outer loop
      vertex 14.8429 -47 23.7435
      vertex 14.6489 -45 24.3406
      vertex 14.8429 -45 23.7435
    endloop
  endfacet
  facet normal -0.951056 -0 -0.309018
    outer loop
      vertex 14.6489 -45 24.3406
      vertex 14.8429 -47 23.7435
      vertex 14.6489 -47 24.3406
    endloop
  endfacet
  facet normal -0.248688 0 -0.968584
    outer loop
      vertex 10.9369 -47 27.4114
      vertex 11.5451 -45 27.2553
      vertex 11.5451 -47 27.2553
    endloop
  endfacet
  facet normal -0.248688 0 -0.968584
    outer loop
      vertex 11.5451 -45 27.2553
      vertex 10.9369 -47 27.4114
      vertex 10.9369 -45 27.4114
    endloop
  endfacet
  facet normal 0 0 -1
    outer loop
      vertex 9.68605 -47 27.4901
      vertex 10.314 -45 27.4901
      vertex 10.314 -47 27.4901
    endloop
  endfacet
  facet normal -0 0 -1
    outer loop
      vertex 10.314 -45 27.4901
      vertex 9.68605 -47 27.4901
      vertex 9.68605 -45 27.4901
    endloop
  endfacet
  facet normal 0.125333 0 -0.992115
    outer loop
      vertex 9.06309 -47 27.4114
      vertex 9.68605 -45 27.4901
      vertex 9.68605 -47 27.4901
    endloop
  endfacet
  facet normal 0.125333 0 -0.992115
    outer loop
      vertex 9.68605 -45 27.4901
      vertex 9.06309 -47 27.4114
      vertex 9.06309 -45 27.4114
    endloop
  endfacet
  facet normal 0.844329 0 -0.535825
    outer loop
      vertex 5.95491 -47 25.4389
      vertex 5.61847 -45 24.9088
      vertex 5.95491 -45 25.4389
    endloop
  endfacet
  facet normal 0.844329 0 -0.535825
    outer loop
      vertex 5.61847 -45 24.9088
      vertex 5.95491 -47 25.4389
      vertex 5.61847 -47 24.9088
    endloop
  endfacet
  facet normal 0.998027 8.3518e-08 -0.0627894
    outer loop
      vertex 5.01577 -47 22.7507
      vertex 5 -45 22.5
      vertex 5.01971 -45 22.8133
    endloop
  endfacet
  facet normal 0.998027 0 -0.0627901
    outer loop
      vertex 5 -45 22.5
      vertex 5.01577 -47 22.7507
      vertex 5 -47 22.5
    endloop
  endfacet
  facet normal 0.998027 -0 0.0627894
    outer loop
      vertex 5 -47 22.5
      vertex 5.01971 -45 22.1867
      vertex 5 -45 22.5
    endloop
  endfacet
  facet normal 0.998027 -6.95981e-08 0.062789
    outer loop
      vertex 5.01971 -45 22.1867
      vertex 5 -47 22.5
      vertex 5.02366 -47 22.124
    endloop
  endfacet
  facet normal 0.587784 0 -0.809018
    outer loop
      vertex 6.81288 -47 26.3526
      vertex 7.32087 -45 26.7216
      vertex 7.32087 -47 26.7216
    endloop
  endfacet
  facet normal 0.587784 0 -0.809018
    outer loop
      vertex 7.32087 -45 26.7216
      vertex 6.81288 -47 26.3526
      vertex 6.81288 -45 26.3526
    endloop
  endfacet
  facet normal 0.368126 0 -0.929776
    outer loop
      vertex 7.8711 -47 27.0241
      vertex 8.45491 -45 27.2553
      vertex 8.45491 -47 27.2553
    endloop
  endfacet
  facet normal 0.368126 0 -0.929776
    outer loop
      vertex 8.45491 -45 27.2553
      vertex 7.8711 -47 27.0241
      vertex 7.8711 -45 27.0241
    endloop
  endfacet
  facet normal -0.770514 0 0.637423
    outer loop
      vertex 13.6448 -47 19.0773
      vertex 14.0451 -45 19.5611
      vertex 13.6448 -45 19.0773
    endloop
  endfacet
  facet normal -0.770514 0 0.637423
    outer loop
      vertex 14.0451 -45 19.5611
      vertex 13.6448 -47 19.0773
      vertex 14.0451 -47 19.5611
    endloop
  endfacet
  facet normal -0.587786 0 0.809017
    outer loop
      vertex 12.6791 -45 18.2784
      vertex 13.1871 -47 18.6474
      vertex 13.1871 -45 18.6474
    endloop
  endfacet
  facet normal -0.587786 0 0.809017
    outer loop
      vertex 13.1871 -47 18.6474
      vertex 12.6791 -45 18.2784
      vertex 12.6791 -47 18.2784
    endloop
  endfacet
  facet normal -0.844329 0 0.535825
    outer loop
      vertex 14.0451 -47 19.5611
      vertex 14.3815 -45 20.0912
      vertex 14.0451 -45 19.5611
    endloop
  endfacet
  facet normal -0.844329 0 0.535825
    outer loop
      vertex 14.3815 -45 20.0912
      vertex 14.0451 -47 19.5611
      vertex 14.3815 -47 20.0912
    endloop
  endfacet
  facet normal -0.998027 0 0.062792
    outer loop
      vertex 14.9763 -47 22.124
      vertex 14.9606 -45 21.8733
      vertex 14.9606 -47 21.8733
    endloop
  endfacet
  facet normal -0.998027 -1.31108e-07 0.0627909
    outer loop
      vertex 14.9606 -45 21.8733
      vertex 14.9763 -47 22.124
      vertex 14.9803 -45 22.1867
    endloop
  endfacet
  facet normal -0.998027 -1.09257e-07 0.0627902
    outer loop
      vertex 15 -47 22.5
      vertex 14.9803 -45 22.1867
      vertex 14.9763 -47 22.124
    endloop
  endfacet
  facet normal -0.998027 0 0.0627909
    outer loop
      vertex 14.9803 -45 22.1867
      vertex 15 -47 22.5
      vertex 15 -45 22.5
    endloop
  endfacet
  facet normal 0.770514 -0 0.637423
    outer loop
      vertex 5.95491 -47 19.5611
      vertex 6.35516 -45 19.0773
      vertex 5.95491 -45 19.5611
    endloop
  endfacet
  facet normal 0.770514 0 0.637423
    outer loop
      vertex 6.35516 -45 19.0773
      vertex 5.95491 -47 19.5611
      vertex 6.35516 -47 19.0773
    endloop
  endfacet
  facet normal 0.844329 -0 0.535825
    outer loop
      vertex 5.61847 -47 20.0912
      vertex 5.95491 -45 19.5611
      vertex 5.61847 -45 20.0912
    endloop
  endfacet
  facet normal 0.844329 0 0.535825
    outer loop
      vertex 5.95491 -45 19.5611
      vertex 5.61847 -47 20.0912
      vertex 5.95491 -47 19.5611
    endloop
  endfacet
  facet normal 0.951056 -0 0.309018
    outer loop
      vertex 5.15708 -47 21.2565
      vertex 5.35112 -45 20.6594
      vertex 5.15708 -45 21.2565
    endloop
  endfacet
  facet normal 0.951056 0 0.309018
    outer loop
      vertex 5.35112 -45 20.6594
      vertex 5.15708 -47 21.2565
      vertex 5.35112 -47 20.6594
    endloop
  endfacet
  facet normal -0.368126 0 0.929776
    outer loop
      vertex 11.5451 -45 17.7447
      vertex 12.1289 -47 17.9759
      vertex 12.1289 -45 17.9759
    endloop
  endfacet
  facet normal -0.368126 0 0.929776
    outer loop
      vertex 12.1289 -47 17.9759
      vertex 11.5451 -45 17.7447
      vertex 11.5451 -47 17.7447
    endloop
  endfacet
  facet normal -0.684545 0 0.728971
    outer loop
      vertex 13.1871 -45 18.6474
      vertex 13.6448 -47 19.0773
      vertex 13.6448 -45 19.0773
    endloop
  endfacet
  facet normal -0.684545 0 0.728971
    outer loop
      vertex 13.6448 -47 19.0773
      vertex 13.1871 -45 18.6474
      vertex 13.1871 -47 18.6474
    endloop
  endfacet
  facet normal -0.904827 0 0.425779
    outer loop
      vertex 14.3815 -47 20.0912
      vertex 14.6489 -45 20.6594
      vertex 14.3815 -45 20.0912
    endloop
  endfacet
  facet normal -0.904827 0 0.425779
    outer loop
      vertex 14.6489 -45 20.6594
      vertex 14.3815 -47 20.0912
      vertex 14.6489 -47 20.6594
    endloop
  endfacet
  facet normal 0.248691 0 0.968583
    outer loop
      vertex 8.45491 -45 17.7447
      vertex 9.06309 -47 17.5886
      vertex 9.06309 -45 17.5886
    endloop
  endfacet
  facet normal 0.248691 0 0.968583
    outer loop
      vertex 9.06309 -47 17.5886
      vertex 8.45491 -45 17.7447
      vertex 8.45491 -47 17.7447
    endloop
  endfacet
  facet normal 0.368126 0 0.929776
    outer loop
      vertex 7.8711 -45 17.9759
      vertex 8.45491 -47 17.7447
      vertex 8.45491 -45 17.7447
    endloop
  endfacet
  facet normal 0.368126 0 0.929776
    outer loop
      vertex 8.45491 -47 17.7447
      vertex 7.8711 -45 17.9759
      vertex 7.8711 -47 17.9759
    endloop
  endfacet
  facet normal 0.587786 0 0.809017
    outer loop
      vertex 6.81288 -45 18.6474
      vertex 7.32087 -47 18.2784
      vertex 7.32087 -45 18.2784
    endloop
  endfacet
  facet normal 0.587786 0 0.809017
    outer loop
      vertex 7.32087 -47 18.2784
      vertex 6.81288 -45 18.6474
      vertex 6.81288 -47 18.6474
    endloop
  endfacet
  facet normal 0.481754 0 0.876307
    outer loop
      vertex 7.32087 -45 18.2784
      vertex 7.8711 -47 17.9759
      vertex 7.8711 -45 17.9759
    endloop
  endfacet
  facet normal 0.481754 0 0.876307
    outer loop
      vertex 7.8711 -47 17.9759
      vertex 7.32087 -45 18.2784
      vertex 7.32087 -47 18.2784
    endloop
  endfacet
  facet normal 0.125333 0 0.992115
    outer loop
      vertex 9.06309 -45 17.5886
      vertex 9.68605 -47 17.5099
      vertex 9.68605 -45 17.5099
    endloop
  endfacet
  facet normal 0.125333 0 0.992115
    outer loop
      vertex 9.68605 -47 17.5099
      vertex 9.06309 -45 17.5886
      vertex 9.06309 -47 17.5886
    endloop
  endfacet
  facet normal -0 0 1
    outer loop
      vertex 9.68605 -45 17.5099
      vertex 10.314 -47 17.5099
      vertex 10.314 -45 17.5099
    endloop
  endfacet
  facet normal 0 0 1
    outer loop
      vertex 10.314 -47 17.5099
      vertex 9.68605 -45 17.5099
      vertex 9.68605 -47 17.5099
    endloop
  endfacet
  facet normal -0.998027 4.65917e-07 -0.0627845
    outer loop
      vertex -26.0315 -47 23.0013
      vertex -26.0158 -45 22.7507
      vertex -26.0126 -47 22.7005
    endloop
  endfacet
  facet normal -0.998027 0 -0.0627882
    outer loop
      vertex -26.0158 -45 22.7507
      vertex -26.0315 -47 23.0013
      vertex -26.0315 -45 23.0013
    endloop
  endfacet
  facet normal -0.998027 0 -0.0627937
    outer loop
      vertex -26.0126 -47 22.7005
      vertex -26 -45 22.5
      vertex -26 -47 22.5
    endloop
  endfacet
  facet normal -0.998027 5.591e-07 -0.0627882
    outer loop
      vertex -26 -45 22.5
      vertex -26.0126 -47 22.7005
      vertex -26.0158 -45 22.7507
    endloop
  endfacet
  facet normal -0.982287 0 -0.187384
    outer loop
      vertex -26.0315 -47 23.0013
      vertex -26.1257 -45 23.4948
      vertex -26.0315 -45 23.0013
    endloop
  endfacet
  facet normal -0.982287 -0 -0.187384
    outer loop
      vertex -26.1257 -45 23.4948
      vertex -26.0315 -47 23.0013
      vertex -26.1257 -47 23.4948
    endloop
  endfacet
  facet normal -0.951057 0 -0.309015
    outer loop
      vertex -26.1257 -47 23.4948
      vertex -26.2809 -45 23.9725
      vertex -26.1257 -45 23.4948
    endloop
  endfacet
  facet normal -0.951057 -0 -0.309015
    outer loop
      vertex -26.2809 -45 23.9725
      vertex -26.1257 -47 23.4948
      vertex -26.2809 -47 23.9725
    endloop
  endfacet
  facet normal 0.998027 -0 0.0627877
    outer loop
      vertex -34 -47 22.5
      vertex -33.9842 -45 22.2493
      vertex -34 -45 22.5
    endloop
  endfacet
  facet normal 0.998027 3.37225e-07 0.0627904
    outer loop
      vertex -33.9842 -45 22.2493
      vertex -34 -47 22.5
      vertex -33.9811 -47 22.1992
    endloop
  endfacet
  facet normal 0.248691 0 -0.968583
    outer loop
      vertex -31.2361 -47 26.3042
      vertex -30.7495 -45 26.4291
      vertex -30.7495 -47 26.4291
    endloop
  endfacet
  facet normal 0.248691 0 -0.968583
    outer loop
      vertex -30.7495 -45 26.4291
      vertex -31.2361 -47 26.3042
      vertex -31.2361 -45 26.3042
    endloop
  endfacet
  facet normal 0.998027 -3.92693e-07 -0.0627882
    outer loop
      vertex -33.9874 -47 22.7005
      vertex -34 -45 22.5
      vertex -33.9842 -45 22.7507
    endloop
  endfacet
  facet normal 0.998027 0 -0.0627843
    outer loop
      vertex -34 -45 22.5
      vertex -33.9874 -47 22.7005
      vertex -34 -47 22.5
    endloop
  endfacet
  facet normal -0.368124 0 0.929777
    outer loop
      vertex -28.7639 -45 18.6958
      vertex -28.2969 -47 18.8807
      vertex -28.2969 -45 18.8807
    endloop
  endfacet
  facet normal -0.368124 0 0.929777
    outer loop
      vertex -28.2969 -47 18.8807
      vertex -28.7639 -45 18.6958
      vertex -28.7639 -47 18.6958
    endloop
  endfacet
  facet normal 0.684545 0 0.72897
    outer loop
      vertex -32.9159 -45 19.7618
      vertex -32.5497 -47 19.4179
      vertex -32.5497 -45 19.4179
    endloop
  endfacet
  facet normal 0.684545 0 0.72897
    outer loop
      vertex -32.5497 -47 19.4179
      vertex -32.9159 -45 19.7618
      vertex -32.9159 -47 19.7618
    endloop
  endfacet
  facet normal 0.982287 -0 0.187385
    outer loop
      vertex -33.9685 -47 21.9987
      vertex -33.8743 -45 21.5052
      vertex -33.9685 -45 21.9987
    endloop
  endfacet
  facet normal 0.982287 0 0.187385
    outer loop
      vertex -33.8743 -45 21.5052
      vertex -33.9685 -47 21.9987
      vertex -33.8743 -47 21.5052
    endloop
  endfacet
  facet normal -0.84433 0 -0.535824
    outer loop
      vertex -26.4948 -47 24.427
      vertex -26.7639 -45 24.8511
      vertex -26.4948 -45 24.427
    endloop
  endfacet
  facet normal -0.84433 -0 -0.535824
    outer loop
      vertex -26.7639 -45 24.8511
      vertex -26.4948 -47 24.427
      vertex -26.7639 -47 24.8511
    endloop
  endfacet
  facet normal -0.587786 0 -0.809017
    outer loop
      vertex -27.8567 -47 25.8773
      vertex -27.4503 -45 25.5821
      vertex -27.4503 -47 25.5821
    endloop
  endfacet
  facet normal -0.587786 0 -0.809017
    outer loop
      vertex -27.4503 -45 25.5821
      vertex -27.8567 -47 25.8773
      vertex -27.8567 -45 25.8773
    endloop
  endfacet
  facet normal 0.951056 0 -0.309018
    outer loop
      vertex -33.7191 -47 23.9725
      vertex -33.8743 -45 23.4948
      vertex -33.7191 -45 23.9725
    endloop
  endfacet
  facet normal 0.951056 0 -0.309018
    outer loop
      vertex -33.8743 -45 23.4948
      vertex -33.7191 -47 23.9725
      vertex -33.8743 -47 23.4948
    endloop
  endfacet
  facet normal 0.368124 0 -0.929777
    outer loop
      vertex -31.7031 -47 26.1193
      vertex -31.2361 -45 26.3042
      vertex -31.2361 -47 26.3042
    endloop
  endfacet
  facet normal 0.368124 0 -0.929777
    outer loop
      vertex -31.2361 -45 26.3042
      vertex -31.7031 -47 26.1193
      vertex -31.7031 -45 26.1193
    endloop
  endfacet
  facet normal -0.982287 0 0.187385
    outer loop
      vertex -26.1257 -47 21.5052
      vertex -26.0315 -45 21.9987
      vertex -26.1257 -45 21.5052
    endloop
  endfacet
  facet normal -0.982287 0 0.187385
    outer loop
      vertex -26.0315 -45 21.9987
      vertex -26.1257 -47 21.5052
      vertex -26.0315 -47 21.9987
    endloop
  endfacet
  facet normal -0.998027 0 0.0627843
    outer loop
      vertex -26.0189 -47 22.1992
      vertex -26.0315 -45 21.9987
      vertex -26.0315 -47 21.9987
    endloop
  endfacet
  facet normal -0.998027 3.92693e-07 0.0627882
    outer loop
      vertex -26.0315 -45 21.9987
      vertex -26.0189 -47 22.1992
      vertex -26.0158 -45 22.2493
    endloop
  endfacet
  facet normal -0.998027 3.37225e-07 0.0627904
    outer loop
      vertex -26 -47 22.5
      vertex -26.0158 -45 22.2493
      vertex -26.0189 -47 22.1992
    endloop
  endfacet
  facet normal -0.998027 0 0.0627877
    outer loop
      vertex -26.0158 -45 22.2493
      vertex -26 -47 22.5
      vertex -26 -45 22.5
    endloop
  endfacet
  facet normal -0.481755 0 0.876306
    outer loop
      vertex -28.2969 -45 18.8807
      vertex -27.8567 -47 19.1227
      vertex -27.8567 -45 19.1227
    endloop
  endfacet
  facet normal -0.481755 0 0.876306
    outer loop
      vertex -27.8567 -47 19.1227
      vertex -28.2969 -45 18.8807
      vertex -28.2969 -47 18.8807
    endloop
  endfacet
  facet normal -0.951058 0 0.309014
    outer loop
      vertex -26.2809 -47 21.0275
      vertex -26.1257 -45 21.5052
      vertex -26.2809 -45 21.0275
    endloop
  endfacet
  facet normal -0.951058 0 0.309014
    outer loop
      vertex -26.1257 -45 21.5052
      vertex -26.2809 -47 21.0275
      vertex -26.1257 -47 21.5052
    endloop
  endfacet
  facet normal -0.125333 0 0.992115
    outer loop
      vertex -29.7488 -45 18.5079
      vertex -29.2505 -47 18.5709
      vertex -29.2505 -45 18.5709
    endloop
  endfacet
  facet normal -0.125333 0 0.992115
    outer loop
      vertex -29.2505 -47 18.5709
      vertex -29.7488 -45 18.5079
      vertex -29.7488 -47 18.5079
    endloop
  endfacet
  facet normal -0.248692 0 0.968583
    outer loop
      vertex -29.2505 -45 18.5709
      vertex -28.7639 -47 18.6958
      vertex -28.7639 -45 18.6958
    endloop
  endfacet
  facet normal -0.248692 0 0.968583
    outer loop
      vertex -28.7639 -47 18.6958
      vertex -29.2505 -45 18.5709
      vertex -29.2505 -47 18.5709
    endloop
  endfacet
  facet normal 0.248691 0 0.968583
    outer loop
      vertex -31.2361 -45 18.6958
      vertex -30.7495 -47 18.5709
      vertex -30.7495 -45 18.5709
    endloop
  endfacet
  facet normal 0.248691 0 0.968583
    outer loop
      vertex -30.7495 -47 18.5709
      vertex -31.2361 -45 18.6958
      vertex -31.2361 -47 18.6958
    endloop
  endfacet
  facet normal 0.904827 -0 0.425779
    outer loop
      vertex -33.7191 -47 21.0275
      vertex -33.5052 -45 20.573
      vertex -33.7191 -45 21.0275
    endloop
  endfacet
  facet normal 0.904827 0 0.425779
    outer loop
      vertex -33.5052 -45 20.573
      vertex -33.7191 -47 21.0275
      vertex -33.5052 -47 20.573
    endloop
  endfacet
  facet normal 0.770512 -0 0.637425
    outer loop
      vertex -33.2361 -47 20.1489
      vertex -32.9159 -45 19.7618
      vertex -33.2361 -45 20.1489
    endloop
  endfacet
  facet normal 0.770512 0 0.637425
    outer loop
      vertex -32.9159 -45 19.7618
      vertex -33.2361 -47 20.1489
      vertex -32.9159 -47 19.7618
    endloop
  endfacet
  facet normal 0.951056 -0 0.309017
    outer loop
      vertex -33.8743 -47 21.5052
      vertex -33.7191 -45 21.0275
      vertex -33.8743 -45 21.5052
    endloop
  endfacet
  facet normal 0.951056 0 0.309017
    outer loop
      vertex -33.7191 -45 21.0275
      vertex -33.8743 -47 21.5052
      vertex -33.7191 -47 21.0275
    endloop
  endfacet
  facet normal 0.998027 3.92693e-07 0.0627882
    outer loop
      vertex -33.9811 -47 22.1992
      vertex -33.9685 -45 21.9987
      vertex -33.9842 -45 22.2493
    endloop
  endfacet
  facet normal 0.998027 0 0.0627843
    outer loop
      vertex -33.9685 -45 21.9987
      vertex -33.9811 -47 22.1992
      vertex -33.9685 -47 21.9987
    endloop
  endfacet
  facet normal -0.904826 0 -0.425782
    outer loop
      vertex -26.2809 -47 23.9725
      vertex -26.4948 -45 24.427
      vertex -26.2809 -45 23.9725
    endloop
  endfacet
  facet normal -0.904826 -0 -0.425782
    outer loop
      vertex -26.4948 -45 24.427
      vertex -26.2809 -47 23.9725
      vertex -26.4948 -47 24.427
    endloop
  endfacet
  facet normal -0.684547 0 -0.728969
    outer loop
      vertex -27.4503 -47 25.5821
      vertex -27.0841 -45 25.2382
      vertex -27.0841 -47 25.2382
    endloop
  endfacet
  facet normal -0.684547 0 -0.728969
    outer loop
      vertex -27.0841 -45 25.2382
      vertex -27.4503 -47 25.5821
      vertex -27.4503 -45 25.5821
    endloop
  endfacet
  facet normal -0.770512 0 -0.637425
    outer loop
      vertex -26.7639 -47 24.8511
      vertex -27.0841 -45 25.2382
      vertex -26.7639 -45 24.8511
    endloop
  endfacet
  facet normal -0.770512 -0 -0.637425
    outer loop
      vertex -27.0841 -45 25.2382
      vertex -26.7639 -47 24.8511
      vertex -27.0841 -47 25.2382
    endloop
  endfacet
  facet normal -0.248692 0 -0.968583
    outer loop
      vertex -29.2505 -47 26.4291
      vertex -28.7639 -45 26.3042
      vertex -28.7639 -47 26.3042
    endloop
  endfacet
  facet normal -0.248692 0 -0.968583
    outer loop
      vertex -28.7639 -45 26.3042
      vertex -29.2505 -47 26.4291
      vertex -29.2505 -45 26.4291
    endloop
  endfacet
  facet normal -0.368124 0 -0.929777
    outer loop
      vertex -28.7639 -47 26.3042
      vertex -28.2969 -45 26.1193
      vertex -28.2969 -47 26.1193
    endloop
  endfacet
  facet normal -0.368124 0 -0.929777
    outer loop
      vertex -28.2969 -45 26.1193
      vertex -28.7639 -47 26.3042
      vertex -28.7639 -45 26.3042
    endloop
  endfacet
  facet normal -0.481755 0 -0.876306
    outer loop
      vertex -28.2969 -47 26.1193
      vertex -27.8567 -45 25.8773
      vertex -27.8567 -47 25.8773
    endloop
  endfacet
  facet normal -0.481755 0 -0.876306
    outer loop
      vertex -27.8567 -45 25.8773
      vertex -28.2969 -47 26.1193
      vertex -28.2969 -45 26.1193
    endloop
  endfacet
  facet normal 0.998027 0 -0.0627882
    outer loop
      vertex -33.9685 -47 23.0013
      vertex -33.9842 -45 22.7507
      vertex -33.9685 -45 23.0013
    endloop
  endfacet
  facet normal 0.998027 -3.27244e-07 -0.0627908
    outer loop
      vertex -33.9842 -45 22.7507
      vertex -33.9685 -47 23.0013
      vertex -33.9874 -47 22.7005
    endloop
  endfacet
  facet normal 0.125333 0 -0.992115
    outer loop
      vertex -30.7495 -47 26.4291
      vertex -30.2512 -45 26.4921
      vertex -30.2512 -47 26.4921
    endloop
  endfacet
  facet normal 0.125333 0 -0.992115
    outer loop
      vertex -30.2512 -45 26.4921
      vertex -30.7495 -47 26.4291
      vertex -30.7495 -45 26.4291
    endloop
  endfacet
  facet normal -0.770512 0 0.637425
    outer loop
      vertex -27.0841 -47 19.7618
      vertex -26.7639 -45 20.1489
      vertex -27.0841 -45 19.7618
    endloop
  endfacet
  facet normal -0.770512 0 0.637425
    outer loop
      vertex -26.7639 -45 20.1489
      vertex -27.0841 -47 19.7618
      vertex -26.7639 -47 20.1489
    endloop
  endfacet
  facet normal -0.587783 0 0.809018
    outer loop
      vertex -27.8567 -45 19.1227
      vertex -27.4503 -47 19.4179
      vertex -27.4503 -45 19.4179
    endloop
  endfacet
  facet normal -0.587783 0 0.809018
    outer loop
      vertex -27.4503 -47 19.4179
      vertex -27.8567 -45 19.1227
      vertex -27.8567 -47 19.1227
    endloop
  endfacet
  facet normal 0.587785 0 0.809017
    outer loop
      vertex -32.5497 -45 19.4179
      vertex -32.1433 -47 19.1227
      vertex -32.1433 -45 19.1227
    endloop
  endfacet
  facet normal 0.587785 0 0.809017
    outer loop
      vertex -32.1433 -47 19.1227
      vertex -32.5497 -45 19.4179
      vertex -32.5497 -47 19.4179
    endloop
  endfacet
  facet normal 0.481755 0 0.876306
    outer loop
      vertex -32.1433 -45 19.1227
      vertex -31.7031 -47 18.8807
      vertex -31.7031 -45 18.8807
    endloop
  endfacet
  facet normal 0.481755 0 0.876306
    outer loop
      vertex -31.7031 -47 18.8807
      vertex -32.1433 -45 19.1227
      vertex -32.1433 -47 19.1227
    endloop
  endfacet
  facet normal 0.368124 0 0.929777
    outer loop
      vertex -31.7031 -45 18.8807
      vertex -31.2361 -47 18.6958
      vertex -31.2361 -45 18.6958
    endloop
  endfacet
  facet normal 0.368124 0 0.929777
    outer loop
      vertex -31.2361 -47 18.6958
      vertex -31.7031 -45 18.8807
      vertex -31.7031 -47 18.8807
    endloop
  endfacet
  facet normal 0.125333 0 0.992115
    outer loop
      vertex -30.7495 -45 18.5709
      vertex -30.2512 -47 18.5079
      vertex -30.2512 -45 18.5079
    endloop
  endfacet
  facet normal 0.125333 0 0.992115
    outer loop
      vertex -30.2512 -47 18.5079
      vertex -30.7495 -45 18.5709
      vertex -30.7495 -47 18.5709
    endloop
  endfacet
  facet normal -0 0 1
    outer loop
      vertex -30.2512 -45 18.5079
      vertex -29.7488 -47 18.5079
      vertex -29.7488 -45 18.5079
    endloop
  endfacet
  facet normal 0 0 1
    outer loop
      vertex -29.7488 -47 18.5079
      vertex -30.2512 -45 18.5079
      vertex -30.2512 -47 18.5079
    endloop
  endfacet
  facet normal 0.84433 -0 0.535824
    outer loop
      vertex -33.5052 -47 20.573
      vertex -33.2361 -45 20.1489
      vertex -33.5052 -45 20.573
    endloop
  endfacet
  facet normal 0.84433 0 0.535824
    outer loop
      vertex -33.2361 -45 20.1489
      vertex -33.5052 -47 20.573
      vertex -33.2361 -47 20.1489
    endloop
  endfacet
  facet normal 0 0 -1
    outer loop
      vertex -30.2512 -47 26.4921
      vertex -29.7488 -45 26.4921
      vertex -29.7488 -47 26.4921
    endloop
  endfacet
  facet normal -0 0 -1
    outer loop
      vertex -29.7488 -45 26.4921
      vertex -30.2512 -47 26.4921
      vertex -30.2512 -45 26.4921
    endloop
  endfacet
  facet normal -0.125333 0 -0.992115
    outer loop
      vertex -29.7488 -47 26.4921
      vertex -29.2505 -45 26.4291
      vertex -29.2505 -47 26.4291
    endloop
  endfacet
  facet normal -0.125333 0 -0.992115
    outer loop
      vertex -29.2505 -45 26.4291
      vertex -29.7488 -47 26.4921
      vertex -29.7488 -45 26.4921
    endloop
  endfacet
  facet normal 0.587788 0 -0.809015
    outer loop
      vertex -32.5497 -47 25.5821
      vertex -32.1433 -45 25.8773
      vertex -32.1433 -47 25.8773
    endloop
  endfacet
  facet normal 0.587788 0 -0.809015
    outer loop
      vertex -32.1433 -45 25.8773
      vertex -32.5497 -47 25.5821
      vertex -32.5497 -45 25.5821
    endloop
  endfacet
  facet normal 0.481755 0 -0.876306
    outer loop
      vertex -32.1433 -47 25.8773
      vertex -31.7031 -45 26.1193
      vertex -31.7031 -47 26.1193
    endloop
  endfacet
  facet normal 0.481755 0 -0.876306
    outer loop
      vertex -31.7031 -45 26.1193
      vertex -32.1433 -47 25.8773
      vertex -32.1433 -45 25.8773
    endloop
  endfacet
  facet normal 0.904827 0 -0.425779
    outer loop
      vertex -33.5052 -47 24.427
      vertex -33.7191 -45 23.9725
      vertex -33.5052 -45 24.427
    endloop
  endfacet
  facet normal 0.904827 0 -0.425779
    outer loop
      vertex -33.7191 -45 23.9725
      vertex -33.5052 -47 24.427
      vertex -33.7191 -47 23.9725
    endloop
  endfacet
  facet normal 0.770512 0 -0.637425
    outer loop
      vertex -32.9159 -47 25.2382
      vertex -33.2361 -45 24.8511
      vertex -32.9159 -45 25.2382
    endloop
  endfacet
  facet normal 0.770512 0 -0.637425
    outer loop
      vertex -33.2361 -45 24.8511
      vertex -32.9159 -47 25.2382
      vertex -33.2361 -47 24.8511
    endloop
  endfacet
  facet normal 0.84433 0 -0.535824
    outer loop
      vertex -33.2361 -47 24.8511
      vertex -33.5052 -45 24.427
      vertex -33.2361 -45 24.8511
    endloop
  endfacet
  facet normal 0.84433 0 -0.535824
    outer loop
      vertex -33.5052 -45 24.427
      vertex -33.2361 -47 24.8511
      vertex -33.5052 -47 24.427
    endloop
  endfacet
  facet normal 0.684545 0 -0.72897
    outer loop
      vertex -32.9159 -47 25.2382
      vertex -32.5497 -45 25.5821
      vertex -32.5497 -47 25.5821
    endloop
  endfacet
  facet normal 0.684545 0 -0.72897
    outer loop
      vertex -32.5497 -45 25.5821
      vertex -32.9159 -47 25.2382
      vertex -32.9159 -45 25.2382
    endloop
  endfacet
  facet normal 0.982287 0 -0.187384
    outer loop
      vertex -33.8743 -47 23.4948
      vertex -33.9685 -45 23.0013
      vertex -33.8743 -45 23.4948
    endloop
  endfacet
  facet normal 0.982287 0 -0.187384
    outer loop
      vertex -33.9685 -45 23.0013
      vertex -33.8743 -47 23.4948
      vertex -33.9685 -47 23.0013
    endloop
  endfacet
  facet normal -0.684547 0 0.728969
    outer loop
      vertex -27.4503 -45 19.4179
      vertex -27.0841 -47 19.7618
      vertex -27.0841 -45 19.7618
    endloop
  endfacet
  facet normal -0.684547 0 0.728969
    outer loop
      vertex -27.0841 -47 19.7618
      vertex -27.4503 -45 19.4179
      vertex -27.4503 -47 19.4179
    endloop
  endfacet
  facet normal -0.84433 0 0.535824
    outer loop
      vertex -26.7639 -47 20.1489
      vertex -26.4948 -45 20.573
      vertex -26.7639 -45 20.1489
    endloop
  endfacet
  facet normal -0.84433 0 0.535824
    outer loop
      vertex -26.4948 -45 20.573
      vertex -26.7639 -47 20.1489
      vertex -26.4948 -47 20.573
    endloop
  endfacet
  facet normal -0.904826 0 0.425782
    outer loop
      vertex -26.4948 -47 20.573
      vertex -26.2809 -45 21.0275
      vertex -26.4948 -45 20.573
    endloop
  endfacet
  facet normal -0.904826 0 0.425782
    outer loop
      vertex -26.2809 -45 21.0275
      vertex -26.4948 -47 20.573
      vertex -26.2809 -47 21.0275
    endloop
  endfacet
  facet normal 1 -0 0
    outer loop
      vertex -17.5 -47 25
      vertex -17.5 -45 20
      vertex -17.5 -45 25
    endloop
  endfacet
  facet normal 1 0 0
    outer loop
      vertex -17.5 -45 20
      vertex -17.5 -47 25
      vertex -17.5 -47 20
    endloop
  endfacet
  facet normal 0 0 -1
    outer loop
      vertex -17.5 -47 25
      vertex -2.5 -45 25
      vertex -2.5 -47 25
    endloop
  endfacet
  facet normal -0 0 -1
    outer loop
      vertex -2.5 -45 25
      vertex -17.5 -47 25
      vertex -17.5 -45 25
    endloop
  endfacet
  facet normal -1 0 0
    outer loop
      vertex -2.5 -47 20
      vertex -2.5 -45 25
      vertex -2.5 -45 20
    endloop
  endfacet
  facet normal -1 -0 0
    outer loop
      vertex -2.5 -45 25
      vertex -2.5 -47 20
      vertex -2.5 -47 25
    endloop
  endfacet
  facet normal -0 0 1
    outer loop
      vertex -17.5 -45 20
      vertex -2.5 -47 20
      vertex -2.5 -45 20
    endloop
  endfacet
  facet normal 0 0 1
    outer loop
      vertex -2.5 -47 20
      vertex -17.5 -45 20
      vertex -17.5 -47 20
    endloop
  endfacet
  facet normal 1 -0 0
    outer loop
      vertex 25 -47 25
      vertex 25 -45 20
      vertex 25 -45 25
    endloop
  endfacet
  facet normal 1 0 0
    outer loop
      vertex 25 -45 20
      vertex 25 -47 25
      vertex 25 -47 20
    endloop
  endfacet
  facet normal 0 0 -1
    outer loop
      vertex 25 -47 25
      vertex 35 -45 25
      vertex 35 -47 25
    endloop
  endfacet
  facet normal -0 0 -1
    outer loop
      vertex 35 -45 25
      vertex 25 -47 25
      vertex 25 -45 25
    endloop
  endfacet
  facet normal -1 0 0
    outer loop
      vertex 35 -47 20
      vertex 35 -45 25
      vertex 35 -45 20
    endloop
  endfacet
  facet normal -1 -0 0
    outer loop
      vertex 35 -45 25
      vertex 35 -47 20
      vertex 35 -47 25
    endloop
  endfacet
  facet normal -0 0 1
    outer loop
      vertex 25 -45 20
      vertex 35 -47 20
      vertex 35 -45 20
    endloop
  endfacet
  facet normal 0 0 1
    outer loop
      vertex 35 -47 20
      vertex 25 -45 20
      vertex 25 -47 20
    endloop
  endfacet
  facet normal 1 -0 0
    outer loop
      vertex -45.05 -46.05 35
      vertex -45.05 46.05 32.95
      vertex -45.05 46.05 35
    endloop
  endfacet
  facet normal 1 0 0
    outer loop
      vertex -45.05 46.05 32.95
      vertex -45.05 -46.05 35
      vertex -45.05 -46.05 32.95
    endloop
  endfacet
  facet normal 0 0 1
    outer loop
      vertex 47 46.05 32.95
      vertex 45 45 32.95
      vertex 47 -46.05 32.95
    endloop
  endfacet
  facet normal -0 0 1
    outer loop
      vertex -45.05 46.05 32.95
      vertex 45 45 32.95
      vertex 47 46.05 32.95
    endloop
  endfacet
  facet normal 0 0 1
    outer loop
      vertex -45 45 32.95
      vertex -45.05 46.05 32.95
      vertex -45 -45 32.95
    endloop
  endfacet
  facet normal 0 0 1
    outer loop
      vertex 45 45 32.95
      vertex -45.05 46.05 32.95
      vertex -45 45 32.95
    endloop
  endfacet
  facet normal -0 0 1
    outer loop
      vertex 45 -45 32.95
      vertex 47 -46.05 32.95
      vertex 45 45 32.95
    endloop
  endfacet
  facet normal 0 0 1
    outer loop
      vertex -45.05 -46.05 32.95
      vertex 45 -45 32.95
      vertex -45 -45 32.95
    endloop
  endfacet
  facet normal 0 0 1
    outer loop
      vertex 45 -45 32.95
      vertex -45.05 -46.05 32.95
      vertex 47 -46.05 32.95
    endloop
  endfacet
  facet normal 0 0 1
    outer loop
      vertex -45.05 -46.05 32.95
      vertex -45 -45 32.95
      vertex -45.05 46.05 32.95
    endloop
  endfacet
  facet normal 0 1 -0
    outer loop
      vertex 47 -46.05 32.95
      vertex -45.05 -46.05 35
      vertex 47 -46.05 35
    endloop
  endfacet
  facet normal 0 1 0
    outer loop
      vertex -45.05 -46.05 35
      vertex 47 -46.05 32.95
      vertex -45.05 -46.05 32.95
    endloop
  endfacet
  facet normal 0 -1 0
    outer loop
      vertex -45.05 46.05 32.95
      vertex 47 46.05 35
      vertex -45.05 46.05 35
    endloop
  endfacet
  facet normal 0 -1 -0
    outer loop
      vertex 47 46.05 35
      vertex -45.05 46.05 32.95
      vertex 47 46.05 32.95
    endloop
  endfacet
  facet normal -1 0 0
    outer loop
      vertex 52.5 -46 -1
      vertex 52.5 46 1
      vertex 52.5 46 -1
    endloop
  endfacet
  facet normal -1 -0 0
    outer loop
      vertex 52.5 46 1
      vertex 52.5 -46 -1
      vertex 52.5 -46 1
    endloop
  endfacet
  facet normal -0 0 1
    outer loop
      vertex 52.5 46 1
      vertex 147.5 -46 1
      vertex 147.5 46 1
    endloop
  endfacet
  facet normal 0 0 1
    outer loop
      vertex 147.5 -46 1
      vertex 52.5 46 1
      vertex 52.5 -46 1
    endloop
  endfacet
  facet normal 1 -0 0
    outer loop
      vertex 147.5 -46 1
      vertex 147.5 46 -1
      vertex 147.5 46 1
    endloop
  endfacet
  facet normal 1 0 0
    outer loop
      vertex 147.5 46 -1
      vertex 147.5 -46 1
      vertex 147.5 -46 -1
    endloop
  endfacet
  facet normal 0 1 -0
    outer loop
      vertex 147.5 46 -1
      vertex 52.5 46 1
      vertex 147.5 46 1
    endloop
  endfacet
  facet normal 0 1 0
    outer loop
      vertex 52.5 46 1
      vertex 147.5 46 -1
      vertex 52.5 46 -1
    endloop
  endfacet
  facet normal 0 0 -1
    outer loop
      vertex 52.5 -46 -1
      vertex 147.5 46 -1
      vertex 147.5 -46 -1
    endloop
  endfacet
  facet normal -0 0 -1
    outer loop
      vertex 147.5 46 -1
      vertex 52.5 -46 -1
      vertex 52.5 46 -1
    endloop
  endfacet
  facet normal 0 -1 0
    outer loop
      vertex 52.5 -46 -1
      vertex 147.5 -46 1
      vertex 52.5 -46 1
    endloop
  endfacet
  facet normal 0 -1 -0
    outer loop
      vertex 147.5 -46 1
      vertex 52.5 -46 -1
      vertex 147.5 -46 -1
    endloop
  endfacet
endsolid OpenSCAD_Model
