  0
SECTION
  2
HEADER
  9
$ACADVER
  1
AC1009
  9
$INSBASE
 10
0.0
 20
0.0
 30
0.0
  9
$EXTMIN
 10
-135.2087576384406
 20
-124.61901629527939
 30
0.0
  9
$EXTMAX
 10
102.03412382336759
 20
113.5990727835465
 30
0.0
  9
$LIMMIN
 10
0.0
 20
0.0
  9
$LIMMAX
 10
420.0
 20
297.0
  9
$ORTHOMODE
 70
     1
  9
$REGENMODE
 70
     1
  9
$FILLMODE
 70
     1
  9
$QTEXTMODE
 70
     0
  9
$MIRRTEXT
 70
     0
  9
$DRAGMODE
 70
     2
  9
$LTSCALE
 40
1.0
  9
$OSMODE
 70
   311
  9
$ATTMODE
 70
     1
  9
$TEXTSIZE
 40
2.5
  9
$TRACEWID
 40
1.0
  9
$TEXTSTYLE
  7
STANDARD
  9
$CLAYER
  8
E
  9
$CELTYPE
  6
BYLAYER
  9
$CECOLOR
 62
   256
  9
$DIMSCALE
 40
1.0
  9
$DIMASZ
 40
2.5
  9
$DIMEXO
 40
0.625
  9
$DIMDLI
 40
3.75
  9
$DIMRND
 40
0.0
  9
$DIMDLE
 40
0.0
  9
$DIMEXE
 40
1.25
  9
$DIMTP
 40
0.0
  9
$DIMTM
 40
0.0
  9
$DIMTXT
 40
2.5
  9
$DIMCEN
 40
2.5
  9
$DIMTSZ
 40
0.0
  9
$DIMTOL
 70
     0
  9
$DIMLIM
 70
     0
  9
$DIMTIH
 70
     0
  9
$DIMTOH
 70
     0
  9
$DIMSE1
 70
     0
  9
$DIMSE2
 70
     0
  9
$DIMTAD
 70
     1
  9
$DIMZIN
 70
     8
  9
$DIMBLK
  1

  9
$DIMASO
 70
     1
  9
$DIMSHO
 70
     1
  9
$DIMPOST
  1

  9
$DIMAPOST
  1

  9
$DIMALT
 70
     0
  9
$DIMALTD
 70
     3
  9
$DIMALTF
 40
0.03937007874016
  9
$DIMLFAC
 40
1.0
  9
$DIMTOFL
 70
     1
  9
$DIMTVP
 40
0.0
  9
$DIMTIX
 70
     0
  9
$DIMSOXD
 70
     0
  9
$DIMSAH
 70
     0
  9
$DIMBLK1
  1

  9
$DIMBLK2
  1

  9
$DIMSTYLE
  2
ISO-25
  9
$DIMCLRD
 70
     0
  9
$DIMCLRE
 70
     0
  9
$DIMCLRT
 70
     0
  9
$DIMTFAC
 40
1.0
  9
$DIMGAP
 40
0.625
  9
$LUNITS
 70
     2
  9
$LUPREC
 70
     4
  9
$SKETCHINC
 40
1.0
  9
$FILLETRAD
 40
0.0
  9
$AUNITS
 70
     0
  9
$AUPREC
 70
     0
  9
$MENU
  1
.
  9
$ELEVATION
 40
0.0
  9
$PELEVATION
 40
0.0
  9
$THICKNESS
 40
0.0
  9
$LIMCHECK
 70
     0
  9
$BLIPMODE
 70
     0
  9
$CHAMFERA
 40
0.0
  9
$CHAMFERB
 40
0.0
  9
$SKPOLY
 70
     0
  9
$TDCREATE
 40
2457582.0772022461
  9
$TDUPDATE
 40
2457582.1202564701
  9
$TDINDWG
 40
0.0430554861
  9
$TDUSRTIMER
 40
0.043055463
  9
$USRTIMER
 70
     1
  9
$ANGBASE
 50
0.0
  9
$ANGDIR
 70
     0
  9
$PDMODE
 70
     0
  9
$PDSIZE
 40
0.0
  9
$PLINEWID
 40
0.0
  9
$COORDS
 70
     1
  9
$SPLFRAME
 70
     0
  9
$SPLINETYPE
 70
     6
  9
$SPLINESEGS
 70
     8
  9
$ATTDIA
 70
     1
  9
$ATTREQ
 70
     1
  9
$HANDLING
 70
     1
  9
$HANDSEED
  5
AE1
  9
$SURFTAB1
 70
     6
  9
$SURFTAB2
 70
     6
  9
$SURFTYPE
 70
     6
  9
$SURFU
 70
     6
  9
$SURFV
 70
     6
  9
$UCSNAME
  2

  9
$UCSORG
 10
0.0
 20
0.0
 30
0.0
  9
$UCSXDIR
 10
1.0
 20
0.0
 30
0.0
  9
$UCSYDIR
 10
0.0
 20
1.0
 30
0.0
  9
$PUCSNAME
  2

  9
$PUCSORG
 10
0.0
 20
0.0
 30
0.0
  9
$PUCSXDIR
 10
1.0
 20
0.0
 30
0.0
  9
$PUCSYDIR
 10
0.0
 20
1.0
 30
0.0
  9
$USERI1
 70
     0
  9
$USERI2
 70
     0
  9
$USERI3
 70
     0
  9
$USERI4
 70
     0
  9
$USERI5
 70
     0
  9
$USERR1
 40
0.0
  9
$USERR2
 40
0.0
  9
$USERR3
 40
0.0
  9
$USERR4
 40
0.0
  9
$USERR5
 40
0.0
  9
$WORLDVIEW
 70
     1
  9
$SHADEDGE
 70
     3
  9
$SHADEDIF
 70
    70
  9
$TILEMODE
 70
     1
  9
$MAXACTVP
 70
    64
  9
$PLIMCHECK
 70
     0
  9
$PEXTMIN
 10
0.0
 20
0.0
 30
0.0
  9
$PEXTMAX
 10
0.0
 20
0.0
 30
0.0
  9
$PLIMMIN
 10
0.0
 20
0.0
  9
$PLIMMAX
 10
12.0
 20
9.0
  9
$UNITMODE
 70
     0
  9
$VISRETAIN
 70
     1
  9
$PLINEGEN
 70
     0
  9
$PSLTSCALE
 70
     1
  0
ENDSEC
  0
SECTION
  2
TABLES
  0
TABLE
  2
VPORT
 70
     1
  0
VPORT
  2
*ACTIVE
 70
     0
 10
0.0
 20
0.0
 11
1.0
 21
1.0
 12
35.372614042025823
 22
-102.5360512042795
 13
0.0
 23
0.0
 14
10.0
 24
10.0
 15
10.0
 25
10.0
 16
0.0
 26
0.0
 36
1.0
 17
0.0
 27
0.0
 37
0.0
 40
48.778329577579541
 41
2.318681318681318
 42
50.0
 43
0.0
 44
0.0
 50
0.0
 51
0.0
 71
     0
 72
  1000
 73
     1
 74
     3
 75
     0
 76
     1
 77
     0
 78
     0
  0
ENDTAB
  0
TABLE
  2
LTYPE
 70
     5
  0
LTYPE
  2
CONTINUOUS
 70
     0
  3
Solid line
 72
    65
 73
     0
 40
0.0
  0
LTYPE
  2
CENTER2
 70
     0
  3
Center (.5x) ___ _ ___ _ ___ _ ___ _ ___ _ ___
 72
    65
 73
     4
 40
28.574999999999999
 49
19.050000000000001
 49
-3.1749999999999989
 49
3.1749999999999989
 49
-3.1749999999999989
  0
LTYPE
  2
DASHED2
 70
     0
  3
Dashed (.5x) _ _ _ _ _ _ _ _ _ _ _ _ _ _ _ _ _
 72
    65
 73
     2
 40
9.5249999999999986
 49
6.3499999999999988
 49
-3.1749999999999989
  0
ENDTAB
  0
TABLE
  2
LAYER
 70
     6
  0
LAYER
  2
0
 70
     0
 62
     7
  6
CONTINUOUS
  0
LAYER
  2
A
 70
     0
 62
    10
  6
CONTINUOUS
  0
LAYER
  2
B
 70
     0
 62
    30
  6
DASHED2
  0
LAYER
  2
E
 70
     0
 62
    82
  6
CENTER2
  0
LAYER
  2
DIM
 70
     0
 62
   150
  6
CONTINUOUS
  0
LAYER
  2
DEFPOINTS
 70
     0
 62
     7
  6
CONTINUOUS
  0
ENDTAB
  0
TABLE
  2
STYLE
 70
     3
  0
STYLE
  2
STANDARD
 70
     0
 40
0.0
 41
1.0
 50
0.0
 71
     0
 42
2.5
  3
txt
  4

  0
STYLE
  2
ANNOTATIVE
 70
     0
 40
0.0
 41
1.0
 50
0.0
 71
     0
 42
2.5
  3
txt
  4

  0
STYLE
  2

 70
     1
 40
0.0
 41
1.0
 50
0.0
 71
     0
 42
2.5
  3
ltypeshp.shx
  4

  0
ENDTAB
  0
TABLE
  2
VIEW
 70
     4
  0
ENDTAB
  0
TABLE
  2
UCS
 70
     0
  0
ENDTAB
  0
TABLE
  2
APPID
 70
    13
  0
APPID
  2
ACAD
 70
     0
  0
APPID
  2
ACAD_PSEXT
 70
     0
  0
APPID
  2
ACADANNOPO
 70
     0
  0
APPID
  2
ACADANNOTATIVE
 70
     0
  0
APPID
  2
ACAD_DSTYLE_DIMJAG
 70
     0
  0
APPID
  2
ACAD_DSTYLE_DIMTALN
 70
     0
  0
APPID
  2
ACAD_MLEADERVER
 70
     0
  0
APPID
  2
ACAD_NAV_VCDISPLAY
 70
     0
  0
APPID
  2
ACAD_EXEMPT_FROM_CAD_STANDARDS
 70
     0
  0
APPID
  2
ACAECLAYERSTANDARD
 70
     0
  0
APPID
  2
ACCMTRANSPARENCY
 70
     0
  0
APPID
  2
GRADIENTCOLOR1ACI
 70
     0
  0
APPID
  2
GRADIENTCOLOR2ACI
 70
     0
  0
ENDTAB
  0
TABLE
  2
DIMSTYLE
 70
     4
  0
DIMSTYLE
  2
STANDARD
 70
     0
  3

  4

  5

  6

  7

 40
1.0
 41
0.18
 42
0.0625
 43
0.38
 44
0.18
 45
0.0
 46
0.0
 47
0.0
 48
0.0
140
0.18
141
0.09
142
0.0
143
25.399999999999999
144
1.0
145
0.0
146
1.0
147
0.09
 71
     0
 72
     0
 73
     1
 74
     1
 75
     0
 76
     0
 77
     0
 78
     0
170
     0
171
     2
172
     0
173
     0
174
     0
175
     0
176
     0
177
     0
178
     0
  0
DIMSTYLE
  2
ANNOTATIVE
 70
     0
  3

  4

  5

  6

  7

 40
0.0
 41
2.5
 42
0.625
 43
3.75
 44
1.25
 45
0.0
 46
0.0
 47
0.0
 48
0.0
140
2.5
141
2.5
142
0.0
143
0.03937007874016
144
1.0
145
0.0
146
1.0
147
0.625
 71
     0
 72
     0
 73
     0
 74
     0
 75
     0
 76
     0
 77
     1
 78
     8
170
     0
171
     3
172
     1
173
     0
174
     0
175
     0
176
     0
177
     0
178
     0
  0
DIMSTYLE
  2
ISO-25
 70
     0
  3

  4

  5

  6

  7

 40
1.0
 41
2.5
 42
0.625
 43
3.75
 44
1.25
 45
0.0
 46
0.0
 47
0.0
 48
0.0
140
2.5
141
2.5
142
0.0
143
0.03937007874016
144
1.0
145
0.0
146
1.0
147
0.625
 71
     0
 72
     0
 73
     0
 74
     0
 75
     0
 76
     0
 77
     1
 78
     8
170
     0
171
     3
172
     1
173
     0
174
     0
175
     0
176
     0
177
     0
178
     0
  0
ENDTAB
  0
ENDSEC
  0
SECTION
  2
BLOCKS
  0
BLOCK
  8
0
  2
$MODEL_SPACE
 70
     0
 10
0.0
 20
0.0
 30
0.0
  3
$MODEL_SPACE
  1

  0
ENDBLK
  5
21
  8
0
  0
BLOCK
 67
     1
  8
0
  2
$PAPER_SPACE
 70
     0
 10
0.0
 20
0.0
 30
0.0
  3
$PAPER_SPACE
  1

  0
ENDBLK
  5
D5
 67
     1
  8
0
  0
BLOCK
  8
0
  2
*D2
 70
     1
 10
0.0
 20
0.0
 30
0.0
  3
*D2
  1

  0
LINE
  5
52D
  8
DIM
 62
     0
 10
63.765799999999992
 20
11.7775
 30
0.0
 11
82.087871884958076
 21
11.777499999999989
 31
0.0
  0
LINE
  5
52E
  8
DIM
 62
     0
 10
63.765799999999977
 20
-11.7775
 30
0.0
 11
82.087871884958076
 21
-11.7775
 31
0.0
  0
LINE
  5
52F
  8
DIM
 62
     0
 10
80.837871884958076
 20
9.2774999999999945
 30
0.0
 11
80.837871884958076
 21
-9.2775000000000052
 31
0.0
  0
SOLID
  5
530
  8
DIM
 62
     0
 10
80.421205218291405
 20
9.2774999999999945
 30
0.0
 11
81.254538551624734
 21
9.2774999999999945
 31
0.0
 12
80.837871884958076
 22
11.777499999999989
 32
0.0
 13
80.837871884958076
 23
11.777499999999989
 33
0.0
  0
SOLID
  5
531
  8
DIM
 62
     0
 10
80.421205218291405
 20
-9.2775000000000052
 30
0.0
 11
81.254538551624734
 21
-9.2775000000000052
 31
0.0
 12
80.837871884958076
 22
-11.7775
 32
0.0
 13
80.837871884958076
 23
-11.7775
 33
0.0
  0
INSERT
  5
532
  8
E
  2
*U33
 10
0.0
 20
0.0
 30
0.0
  0
POINT
  5
533
  8
DEFPOINTS
 62
     0
 10
63.140799999999992
 20
11.7775
 30
0.0
  0
POINT
  5
534
  8
DEFPOINTS
 62
     0
 10
63.140799999999977
 20
-11.7775
 30
0.0
  0
POINT
  5
535
  8
DEFPOINTS
 62
     0
 10
80.837871884958076
 20
-11.7775
 30
0.0
  0
ENDBLK
  5
30C
  8
0
  0
BLOCK
  8
0
  2
*D3
 70
     1
 10
0.0
 20
0.0
 30
0.0
  3
*D3
  1

  0
LINE
  5
536
  8
DIM
 62
     0
 10
63.765799999999992
 20
6.570399999999994
 30
0.0
 11
72.121941182753289
 21
6.5703999999999922
 31
0.0
  0
LINE
  5
537
  8
DIM
 62
     0
 10
63.765799999999992
 20
-6.5703999999999967
 30
0.0
 11
72.121941182753289
 21
-6.5704000000000002
 31
0.0
  0
LINE
  5
538
  8
DIM
 62
     0
 10
70.871941182753289
 20
4.0703999999999922
 30
0.0
 11
70.871941182753289
 21
-4.0704000000000002
 31
0.0
  0
SOLID
  5
539
  8
DIM
 62
     0
 10
70.455274516086618
 20
4.0703999999999922
 30
0.0
 11
71.288607849419961
 21
4.0703999999999922
 31
0.0
 12
70.871941182753289
 22
6.5703999999999922
 32
0.0
 13
70.871941182753289
 23
6.5703999999999922
 33
0.0
  0
SOLID
  5
53A
  8
DIM
 62
     0
 10
70.455274516086618
 20
-4.0704000000000002
 30
0.0
 11
71.288607849419961
 21
-4.0704000000000002
 31
0.0
 12
70.871941182753289
 22
-6.5704000000000002
 32
0.0
 13
70.871941182753289
 23
-6.5704000000000002
 33
0.0
  0
INSERT
  5
53B
  8
E
  2
*U34
 10
0.0
 20
0.0
 30
0.0
  0
POINT
  5
53C
  8
DEFPOINTS
 62
     0
 10
63.140799999999992
 20
6.570399999999994
 30
0.0
  0
POINT
  5
53D
  8
DEFPOINTS
 62
     0
 10
63.140799999999992
 20
-6.5703999999999967
 30
0.0
  0
POINT
  5
53E
  8
DEFPOINTS
 62
     0
 10
70.871941182753289
 20
-6.5704000000000002
 30
0.0
  0
ENDBLK
  5
327
  8
0
  0
BLOCK
  8
0
  2
*D4
 70
     1
 10
0.0
 20
0.0
 30
0.0
  3
*D4
  1

  0
LINE
  5
54A
  8
DIM
 62
     0
 10
47.015799999999992
 20
5.8500000000000014
 30
0.0
 11
37.52981213352723
 21
5.8500000000000041
 31
0.0
  0
LINE
  5
54B
  8
DIM
 62
     0
 10
47.015799999999977
 20
-5.8499999999999961
 30
0.0
 11
37.52981213352723
 21
-5.8499999999999934
 31
0.0
  0
LINE
  5
54C
  8
DIM
 62
     0
 10
38.77981213352723
 20
3.3500000000000041
 30
0.0
 11
38.77981213352723
 21
-3.349999999999993
 31
0.0
  0
SOLID
  5
54D
  8
DIM
 62
     0
 10
38.363145466860573
 20
3.3500000000000041
 30
0.0
 11
39.196478800193901
 21
3.3500000000000041
 31
0.0
 12
38.77981213352723
 22
5.8500000000000041
 32
0.0
 13
38.77981213352723
 23
5.8500000000000041
 33
0.0
  0
SOLID
  5
54E
  8
DIM
 62
     0
 10
38.363145466860573
 20
-3.349999999999993
 30
0.0
 11
39.196478800193901
 21
-3.3499999999999939
 31
0.0
 12
38.77981213352723
 22
-5.8499999999999943
 32
0.0
 13
38.77981213352723
 23
-5.8499999999999943
 33
0.0
  0
INSERT
  5
54F
  8
E
  2
*U36
 10
0.0
 20
0.0
 30
0.0
  0
POINT
  5
550
  8
DEFPOINTS
 62
     0
 10
47.640799999999992
 20
5.8500000000000014
 30
0.0
  0
POINT
  5
551
  8
DEFPOINTS
 62
     0
 10
47.640799999999977
 20
-5.8499999999999961
 30
0.0
  0
POINT
  5
552
  8
DEFPOINTS
 62
     0
 10
38.77981213352723
 20
-5.8499999999999943
 30
0.0
  0
ENDBLK
  5
351
  8
0
  0
BLOCK
  8
0
  2
*D5
 70
     1
 10
0.0
 20
0.0
 30
0.0
  3
*D5
  1

  0
LINE
  5
53F
  8
DIM
 62
     0
 10
47.640799999999992
 20
5.2250000000000014
 30
0.0
 11
47.640799999999992
 21
0.6983440327812787
 31
0.0
  0
LINE
  5
540
  8
DIM
 62
     0
 10
48.640800000000013
 20
5.2250000000000014
 30
0.0
 11
48.640800000000013
 21
0.6983440327812787
 31
0.0
  0
LINE
  5
541
  8
DIM
 62
     0
 10
45.140799999999992
 20
1.948344032781278
 30
0.0
 11
42.640799999999992
 21
1.948344032781278
 31
0.0
  0
LINE
  5
542
  8
DIM
 62
     0
 10
51.140800000000013
 20
1.948344032781278
 30
0.0
 11
55.81167312414734
 21
1.948344032781278
 31
0.0
  0
LINE
  5
543
  8
DIM
 62
     0
 10
47.640799999999992
 20
1.948344032781278
 30
0.0
 11
48.640800000000013
 21
1.948344032781278
 31
0.0
  0
SOLID
  5
544
  8
DIM
 62
     0
 10
45.140799999999992
 20
2.3650106994479452
 30
0.0
 11
45.140799999999992
 21
1.531677366114611
 31
0.0
 12
47.640799999999992
 22
1.948344032781278
 32
0.0
 13
47.640799999999992
 23
1.948344032781278
 33
0.0
  0
SOLID
  5
545
  8
DIM
 62
     0
 10
51.140800000000013
 20
2.3650106994479452
 30
0.0
 11
51.140800000000013
 21
1.531677366114611
 31
0.0
 12
48.640800000000013
 22
1.948344032781278
 32
0.0
 13
48.640800000000013
 23
1.948344032781278
 33
0.0
  0
INSERT
  5
546
  8
E
  2
*U35
 10
0.0
 20
0.0
 30
0.0
  0
POINT
  5
547
  8
DEFPOINTS
 62
     0
 10
47.640799999999992
 20
5.8500000000000014
 30
0.0
  0
POINT
  5
548
  8
DEFPOINTS
 62
     0
 10
48.640800000000013
 20
5.8500000000000014
 30
0.0
  0
POINT
  5
549
  8
DEFPOINTS
 62
     0
 10
48.640800000000013
 20
1.948344032781278
 30
0.0
  0
ENDBLK
  5
369
  8
0
  0
BLOCK
  8
0
  2
*D6
 70
     1
 10
0.0
 20
0.0
 30
0.0
  3
*D6
  1

  0
LINE
  5
519
  8
DIM
 62
     0
 10
52.140799999999992
 20
13.7658
 30
0.0
 11
52.140799999999992
 21
21.6894002228637
 31
0.0
  0
LINE
  5
51A
  8
DIM
 62
     0
 10
53.140799999999977
 20
13.7658
 30
0.0
 11
53.140799999999977
 21
21.6894002228637
 31
0.0
  0
LINE
  5
51B
  8
DIM
 62
     0
 10
49.640799999999992
 20
20.4394002228637
 30
0.0
 11
47.140799999999977
 21
20.4394002228637
 31
0.0
  0
LINE
  5
51C
  8
DIM
 62
     0
 10
55.640799999999977
 20
20.4394002228637
 30
0.0
 11
60.311673124147333
 21
20.4394002228637
 31
0.0
  0
LINE
  5
51D
  8
DIM
 62
     0
 10
52.140799999999992
 20
20.4394002228637
 30
0.0
 11
53.140799999999977
 21
20.4394002228637
 31
0.0
  0
SOLID
  5
51E
  8
DIM
 62
     0
 10
49.640799999999992
 20
20.856066889530371
 30
0.0
 11
49.640799999999992
 21
20.022733556197029
 31
0.0
 12
52.140799999999992
 22
20.4394002228637
 32
0.0
 13
52.140799999999992
 23
20.4394002228637
 33
0.0
  0
SOLID
  5
51F
  8
DIM
 62
     0
 10
55.640799999999977
 20
20.856066889530371
 30
0.0
 11
55.640799999999977
 21
20.022733556197029
 31
0.0
 12
53.140799999999977
 22
20.4394002228637
 32
0.0
 13
53.140799999999977
 23
20.4394002228637
 33
0.0
  0
INSERT
  5
520
  8
E
  2
*U31
 10
0.0
 20
0.0
 30
0.0
  0
POINT
  5
521
  8
DEFPOINTS
 62
     0
 10
52.140799999999992
 20
13.1408
 30
0.0
  0
POINT
  5
522
  8
DEFPOINTS
 62
     0
 10
53.140799999999977
 20
13.1408
 30
0.0
  0
POINT
  5
523
  8
DEFPOINTS
 62
     0
 10
53.140799999999977
 20
20.4394002228637
 30
0.0
  0
ENDBLK
  5
385
  8
0
  0
BLOCK
  8
0
  2
*D7
 70
     1
 10
0.0
 20
0.0
 30
0.0
  3
*D7
  1

  0
LINE
  5
524
  8
DIM
 62
     0
 10
53.765799999999977
 20
13.1408
 30
0.0
 11
89.348768324000048
 21
13.14079999999999
 31
0.0
  0
LINE
  5
525
  8
DIM
 62
     0
 10
53.765799999999992
 20
-13.1408
 30
0.0
 11
89.348768324000048
 21
-13.140800000000009
 31
0.0
  0
LINE
  5
526
  8
DIM
 62
     0
 10
88.098768324000048
 20
10.64079999999999
 30
0.0
 11
88.098768324000048
 21
-10.640800000000009
 31
0.0
  0
SOLID
  5
527
  8
DIM
 62
     0
 10
87.682101657333376
 20
10.64079999999999
 30
0.0
 11
88.515434990666705
 21
10.64079999999999
 31
0.0
 12
88.098768324000048
 22
13.14079999999999
 32
0.0
 13
88.098768324000048
 23
13.14079999999999
 33
0.0
  0
SOLID
  5
528
  8
DIM
 62
     0
 10
87.682101657333376
 20
-10.640800000000009
 30
0.0
 11
88.515434990666705
 21
-10.640800000000009
 31
0.0
 12
88.098768324000048
 22
-13.140800000000009
 32
0.0
 13
88.098768324000048
 23
-13.140800000000009
 33
0.0
  0
INSERT
  5
529
  8
E
  2
*U32
 10
0.0
 20
0.0
 30
0.0
  0
POINT
  5
52A
  8
DEFPOINTS
 62
     0
 10
53.140799999999977
 20
13.1408
 30
0.0
  0
POINT
  5
52B
  8
DEFPOINTS
 62
     0
 10
53.140799999999992
 20
-13.1408
 30
0.0
  0
POINT
  5
52C
  8
DEFPOINTS
 62
     0
 10
88.098768324000048
 20
-13.140800000000009
 30
0.0
  0
ENDBLK
  5
3A1
  8
0
  0
BLOCK
  8
0
  2
*D8
 70
     1
 10
0.0
 20
0.0
 30
0.0
  3
*D8
  1

  0
LINE
  5
553
  8
DIM
 62
     0
 10
43.140799999999999
 20
-8.3948110355613608
 30
0.0
 11
43.140799999999999
 21
-24.657417081176391
 31
0.0
  0
LINE
  5
554
  8
DIM
 62
     0
 10
52.140799999999999
 20
-8.3948110355613608
 30
0.0
 11
52.140799999999999
 21
-24.657417081176391
 31
0.0
  0
LINE
  5
555
  8
DIM
 62
     0
 10
45.640799999999999
 20
-23.407417081176391
 30
0.0
 11
49.640799999999999
 21
-23.407417081176391
 31
0.0
  0
SOLID
  5
556
  8
DIM
 62
     0
 10
45.640799999999999
 20
-22.990750414509719
 30
0.0
 11
45.640799999999999
 21
-23.824083747843058
 31
0.0
 12
43.140799999999999
 22
-23.407417081176391
 32
0.0
 13
43.140799999999999
 23
-23.407417081176391
 33
0.0
  0
SOLID
  5
557
  8
DIM
 62
     0
 10
49.640799999999999
 20
-22.990750414509719
 30
0.0
 11
49.640799999999999
 21
-23.824083747843058
 31
0.0
 12
52.140799999999999
 22
-23.407417081176391
 32
0.0
 13
52.140799999999999
 23
-23.407417081176391
 33
0.0
  0
INSERT
  5
558
  8
E
  2
*U37
 10
0.0
 20
0.0
 30
0.0
  0
POINT
  5
559
  8
DEFPOINTS
 62
     0
 10
43.140799999999999
 20
-7.769811035561359
 30
0.0
  0
POINT
  5
55A
  8
DEFPOINTS
 62
     0
 10
52.140799999999999
 20
-7.769811035561359
 30
0.0
  0
POINT
  5
55B
  8
DEFPOINTS
 62
     0
 10
52.140799999999999
 20
-23.407417081176391
 30
0.0
  0
ENDBLK
  5
3B9
  8
0
  0
BLOCK
  8
0
  2
*D9
 70
     1
 10
0.0
 20
0.0
 30
0.0
  3
*D9
  1

  0
LINE
  5
445
  8
0
 62
     0
 10
-96.194543149351546
 20
-12.62499999999998
 30
0.0
 11
-96.194543149351546
 21
-30.947071884958081
 31
0.0
  0
LINE
  5
446
  8
0
 62
     0
 10
-119.7495431493515
 20
-12.62499999999998
 30
0.0
 11
-119.7495431493515
 21
-30.947071884958081
 31
0.0
  0
LINE
  5
447
  8
0
 62
     0
 10
-98.694543149351546
 20
-29.697071884958081
 30
0.0
 11
-117.2495431493515
 21
-29.697071884958081
 31
0.0
  0
SOLID
  5
448
  8
0
 62
     0
 10
-98.694543149351546
 20
-29.28040521829141
 30
0.0
 11
-98.694543149351546
 21
-30.113738551624749
 31
0.0
 12
-96.194543149351546
 22
-29.697071884958081
 32
0.0
 13
-96.194543149351546
 23
-29.697071884958081
 33
0.0
  0
SOLID
  5
449
  8
0
 62
     0
 10
-117.2495431493515
 20
-29.28040521829141
 30
0.0
 11
-117.2495431493515
 21
-30.113738551624749
 31
0.0
 12
-119.7495431493515
 22
-29.697071884958081
 32
0.0
 13
-119.7495431493515
 23
-29.697071884958081
 33
0.0
  0
INSERT
  5
44A
  8
E
  2
*U25
 10
0.0
 20
0.0
 30
0.0
  0
POINT
  5
44B
  8
DEFPOINTS
 62
     0
 10
-96.194543149351546
 20
-11.99999999999998
 30
0.0
  0
POINT
  5
44C
  8
DEFPOINTS
 62
     0
 10
-119.7495431493515
 20
-11.99999999999998
 30
0.0
  0
POINT
  5
44D
  8
DEFPOINTS
 62
     0
 10
-119.7495431493515
 20
-29.697071884958081
 30
0.0
  0
ENDBLK
  5
3FB
  8
0
  0
BLOCK
  8
0
  2
*D10
 70
     1
 10
0.0
 20
0.0
 30
0.0
  3
*D10
  1

  0
LINE
  5
44E
  8
0
 62
     0
 10
-101.4016431493515
 20
-12.62499999999998
 30
0.0
 11
-101.4016431493515
 21
-20.981141182753291
 31
0.0
  0
LINE
  5
44F
  8
0
 62
     0
 10
-114.5424431493515
 20
-12.62499999999998
 30
0.0
 11
-114.5424431493515
 21
-20.981141182753291
 31
0.0
  0
LINE
  5
450
  8
0
 62
     0
 10
-103.9016431493515
 20
-19.731141182753291
 30
0.0
 11
-112.0424431493515
 21
-19.731141182753291
 31
0.0
  0
SOLID
  5
451
  8
0
 62
     0
 10
-103.9016431493515
 20
-19.314474516086619
 30
0.0
 11
-103.9016431493515
 21
-20.147807849419959
 31
0.0
 12
-101.4016431493515
 22
-19.731141182753291
 32
0.0
 13
-101.4016431493515
 23
-19.731141182753291
 33
0.0
  0
SOLID
  5
452
  8
0
 62
     0
 10
-112.0424431493515
 20
-19.314474516086619
 30
0.0
 11
-112.0424431493515
 21
-20.147807849419959
 31
0.0
 12
-114.5424431493515
 22
-19.731141182753291
 32
0.0
 13
-114.5424431493515
 23
-19.731141182753291
 33
0.0
  0
INSERT
  5
453
  8
E
  2
*U26
 10
0.0
 20
0.0
 30
0.0
  0
POINT
  5
454
  8
DEFPOINTS
 62
     0
 10
-101.4016431493515
 20
-11.99999999999998
 30
0.0
  0
POINT
  5
455
  8
DEFPOINTS
 62
     0
 10
-114.5424431493515
 20
-11.99999999999998
 30
0.0
  0
POINT
  5
456
  8
DEFPOINTS
 62
     0
 10
-114.5424431493515
 20
-19.731141182753291
 30
0.0
  0
ENDBLK
  5
407
  8
0
  0
BLOCK
  8
0
  2
*D11
 70
     1
 10
0.0
 20
0.0
 30
0.0
  3
*D11
  1

  0
LINE
  5
457
  8
0
 62
     0
 10
-102.1220431493515
 20
4.125
 30
0.0
 11
-102.1220431493515
 21
13.610987866472771
 31
0.0
  0
LINE
  5
458
  8
0
 62
     0
 10
-113.8220431493515
 20
4.1250000000000142
 30
0.0
 11
-113.8220431493515
 21
13.610987866472771
 31
0.0
  0
LINE
  5
459
  8
0
 62
     0
 10
-104.6220431493515
 20
12.360987866472771
 30
0.0
 11
-111.3220431493515
 21
12.360987866472771
 31
0.0
  0
SOLID
  5
45A
  8
0
 62
     0
 10
-104.6220431493515
 20
12.77765453313943
 30
0.0
 11
-104.6220431493515
 21
11.944321199806099
 31
0.0
 12
-102.1220431493515
 22
12.360987866472771
 32
0.0
 13
-102.1220431493515
 23
12.360987866472771
 33
0.0
  0
SOLID
  5
45B
  8
0
 62
     0
 10
-111.3220431493515
 20
12.77765453313943
 30
0.0
 11
-111.3220431493515
 21
11.944321199806099
 31
0.0
 12
-113.8220431493515
 22
12.360987866472771
 32
0.0
 13
-113.8220431493515
 23
12.360987866472771
 33
0.0
  0
INSERT
  5
45C
  8
E
  2
*U27
 10
0.0
 20
0.0
 30
0.0
  0
POINT
  5
45D
  8
DEFPOINTS
 62
     0
 10
-102.1220431493515
 20
3.5
 30
0.0
  0
POINT
  5
45E
  8
DEFPOINTS
 62
     0
 10
-113.8220431493515
 20
3.5000000000000142
 30
0.0
  0
POINT
  5
45F
  8
DEFPOINTS
 62
     0
 10
-113.8220431493515
 20
12.360987866472771
 30
0.0
  0
ENDBLK
  5
413
  8
0
  0
BLOCK
  8
0
  2
*D12
 70
     1
 10
0.0
 20
0.0
 30
0.0
  3
*D12
  1

  0
LINE
  5
460
  8
0
 62
     0
 10
-102.7470431493515
 20
3.5
 30
0.0
 11
-107.2736991165702
 21
3.5000000000000009
 31
0.0
  0
LINE
  5
461
  8
0
 62
     0
 10
-102.7470431493515
 20
2.4999999999999849
 30
0.0
 11
-107.2736991165702
 21
2.4999999999999871
 31
0.0
  0
LINE
  5
462
  8
0
 62
     0
 10
-106.0236991165702
 20
6.0000000000000009
 30
0.0
 11
-106.0236991165702
 21
8.5000000000000018
 31
0.0
  0
LINE
  5
463
  8
0
 62
     0
 10
-106.0236991165702
 20
-0.0000000000000129
 30
0.0
 11
-106.0236991165702
 21
-4.6708731241473522
 31
0.0
  0
LINE
  5
464
  8
0
 62
     0
 10
-106.0236991165702
 20
3.5000000000000009
 30
0.0
 11
-106.0236991165702
 21
2.4999999999999871
 31
0.0
  0
SOLID
  5
465
  8
0
 62
     0
 10
-106.4403657832369
 20
6.0000000000000009
 30
0.0
 11
-105.6070324499036
 21
6.0
 31
0.0
 12
-106.0236991165702
 22
3.5000000000000009
 32
0.0
 13
-106.0236991165702
 23
3.5000000000000009
 33
0.0
  0
SOLID
  5
466
  8
0
 62
     0
 10
-106.4403657832369
 20
-0.0000000000000128
 30
0.0
 11
-105.6070324499036
 21
-0.000000000000013
 31
0.0
 12
-106.0236991165702
 22
2.4999999999999871
 32
0.0
 13
-106.0236991165702
 23
2.4999999999999871
 33
0.0
  0
INSERT
  5
467
  8
E
  2
*U28
 10
0.0
 20
0.0
 30
0.0
  0
POINT
  5
468
  8
DEFPOINTS
 62
     0
 10
-102.1220431493515
 20
3.5
 30
0.0
  0
POINT
  5
469
  8
DEFPOINTS
 62
     0
 10
-102.1220431493515
 20
2.4999999999999849
 30
0.0
  0
POINT
  5
46A
  8
DEFPOINTS
 62
     0
 10
-106.0236991165702
 20
2.4999999999999871
 30
0.0
  0
ENDBLK
  5
41F
  8
0
  0
BLOCK
  8
0
  2
*D13
 70
     1
 10
0.0
 20
0.0
 30
0.0
  3
*D13
  1

  0
LINE
  5
46B
  8
0
 62
     0
 10
-94.206243149351536
 20
-0.9999999999999859
 30
0.0
 11
-86.282642926487839
 21
-0.999999999999988
 31
0.0
  0
LINE
  5
46C
  8
0
 62
     0
 10
-94.206243149351536
 20
-1.9999999999999849
 30
0.0
 11
-86.282642926487839
 21
-1.9999999999999869
 31
0.0
  0
LINE
  5
46D
  8
0
 62
     0
 10
-87.532642926487839
 20
1.500000000000012
 30
0.0
 11
-87.532642926487839
 21
4.0000000000000124
 31
0.0
  0
LINE
  5
46E
  8
0
 62
     0
 10
-87.532642926487839
 20
-4.4999999999999867
 30
0.0
 11
-87.532642926487839
 21
-9.1708731241473291
 31
0.0
  0
LINE
  5
46F
  8
0
 62
     0
 10
-87.532642926487839
 20
-0.9999999999999879
 30
0.0
 11
-87.532642926487839
 21
-1.9999999999999869
 31
0.0
  0
SOLID
  5
470
  8
0
 62
     0
 10
-87.949309593154496
 20
1.500000000000012
 30
0.0
 11
-87.115976259821167
 21
1.5000000000000111
 31
0.0
 12
-87.532642926487839
 22
-0.9999999999999879
 32
0.0
 13
-87.532642926487839
 23
-0.9999999999999879
 33
0.0
  0
SOLID
  5
471
  8
0
 62
     0
 10
-87.949309593154496
 20
-4.4999999999999867
 30
0.0
 11
-87.115976259821167
 21
-4.4999999999999867
 31
0.0
 12
-87.532642926487839
 22
-1.9999999999999869
 32
0.0
 13
-87.532642926487839
 23
-1.9999999999999869
 33
0.0
  0
INSERT
  5
472
  8
E
  2
*U29
 10
0.0
 20
0.0
 30
0.0
  0
POINT
  5
473
  8
DEFPOINTS
 62
     0
 10
-94.831243149351536
 20
-0.9999999999999857
 30
0.0
  0
POINT
  5
474
  8
DEFPOINTS
 62
     0
 10
-94.831243149351536
 20
-1.9999999999999849
 30
0.0
  0
POINT
  5
475
  8
DEFPOINTS
 62
     0
 10
-87.532642926487839
 20
-1.9999999999999869
 30
0.0
  0
ENDBLK
  5
42D
  8
0
  0
BLOCK
  8
0
  2
*D14
 70
     1
 10
0.0
 20
0.0
 30
0.0
  3
*D14
  1

  0
LINE
  5
476
  8
0
 62
     0
 10
-116.3668541849129
 20
7.9999999999999849
 30
0.0
 11
-132.62946023052791
 21
7.9999999999999902
 31
0.0
  0
LINE
  5
477
  8
0
 62
     0
 10
-116.3668541849129
 20
-0.9999999999999998
 30
0.0
 11
-132.62946023052791
 21
-0.9999999999999952
 31
0.0
  0
LINE
  5
478
  8
0
 62
     0
 10
-131.37946023052791
 20
5.4999999999999902
 30
0.0
 11
-131.37946023052791
 21
1.500000000000004
 31
0.0
  0
SOLID
  5
479
  8
0
 62
     0
 10
-131.79612689719451
 20
5.4999999999999902
 30
0.0
 11
-130.9627935638612
 21
5.4999999999999902
 31
0.0
 12
-131.37946023052791
 22
7.9999999999999902
 32
0.0
 13
-131.37946023052791
 23
7.9999999999999902
 33
0.0
  0
SOLID
  5
47A
  8
0
 62
     0
 10
-131.79612689719451
 20
1.500000000000004
 30
0.0
 11
-130.9627935638612
 21
1.500000000000004
 31
0.0
 12
-131.37946023052791
 22
-0.9999999999999957
 32
0.0
 13
-131.37946023052791
 23
-0.9999999999999957
 33
0.0
  0
INSERT
  5
47B
  8
E
  2
*U30
 10
0.0
 20
0.0
 30
0.0
  0
POINT
  5
47C
  8
DEFPOINTS
 62
     0
 10
-115.7418541849129
 20
7.9999999999999849
 30
0.0
  0
POINT
  5
47D
  8
DEFPOINTS
 62
     0
 10
-115.7418541849129
 20
-1.0
 30
0.0
  0
POINT
  5
47E
  8
DEFPOINTS
 62
     0
 10
-131.37946023052791
 20
-0.9999999999999957
 30
0.0
  0
ENDBLK
  5
43B
  8
0
  0
BLOCK
  8
0
  2
*D15
 70
     1
 10
0.0
 20
0.0
 30
0.0
  3
*D15
  1

  0
LINE
  5
73A
  8
DIM
 62
     0
 10
-11.14079999999999
 20
-60.624999999999972
 30
0.0
 11
-11.14079999999999
 21
-70.005043380616371
 31
0.0
  0
LINE
  5
73B
  8
DIM
 62
     0
 10
11.1408
 20
-60.624999999999972
 30
0.0
 11
11.1408
 21
-70.005043380616371
 31
0.0
  0
LINE
  5
73C
  8
DIM
 62
     0
 10
-8.6407999999999952
 20
-68.755043380616371
 30
0.0
 11
8.6408000000000005
 21
-68.755043380616371
 31
0.0
  0
SOLID
  5
73D
  8
DIM
 62
     0
 10
-8.6407999999999952
 20
-68.3383767139497
 30
0.0
 11
-8.6407999999999952
 21
-69.171710047283042
 31
0.0
 12
-11.14079999999999
 22
-68.755043380616371
 32
0.0
 13
-11.14079999999999
 23
-68.755043380616371
 33
0.0
  0
SOLID
  5
73E
  8
DIM
 62
     0
 10
8.6408000000000005
 20
-68.3383767139497
 30
0.0
 11
8.6408000000000005
 21
-69.171710047283042
 31
0.0
 12
11.1408
 22
-68.755043380616371
 32
0.0
 13
11.1408
 23
-68.755043380616371
 33
0.0
  0
INSERT
  5
73F
  8
E
  2
*U43
 10
0.0
 20
0.0
 30
0.0
  0
POINT
  5
740
  8
DEFPOINTS
 62
     0
 10
-11.14079999999999
 20
-59.999999999999972
 30
0.0
  0
POINT
  5
741
  8
DEFPOINTS
 62
     0
 10
11.1408
 20
-59.999999999999972
 30
0.0
  0
POINT
  5
742
  8
DEFPOINTS
 62
     0
 10
11.1408
 20
-68.755043380616371
 30
0.0
  0
ENDBLK
  5
485
  8
0
  0
BLOCK
  8
0
  2
*D16
 70
     1
 10
0.0
 20
0.0
 30
0.0
  3
*D16
  1

  0
LINE
  5
743
  8
DIM
 62
     0
 10
8.6250000000000018
 20
-40.0
 30
0.0
 11
25.489567048164648
 21
-40.0
 31
0.0
  0
LINE
  5
744
  8
DIM
 62
     0
 10
12.4025
 20
-59.999999999999972
 30
0.0
 11
25.489567048164641
 21
-59.999999999999979
 31
0.0
  0
LINE
  5
745
  8
DIM
 62
     0
 10
24.239567048164648
 20
-42.5
 30
0.0
 11
24.239567048164641
 21
-57.499999999999979
 31
0.0
  0
SOLID
  5
746
  8
DIM
 62
     0
 10
23.822900381497981
 20
-42.5
 30
0.0
 11
24.656233714831309
 21
-42.5
 31
0.0
 12
24.239567048164648
 22
-40.0
 32
0.0
 13
24.239567048164648
 23
-40.0
 33
0.0
  0
SOLID
  5
747
  8
DIM
 62
     0
 10
23.82290038149797
 20
-57.499999999999979
 30
0.0
 11
24.656233714831309
 21
-57.499999999999979
 31
0.0
 12
24.239567048164641
 22
-59.999999999999979
 32
0.0
 13
24.239567048164641
 23
-59.999999999999979
 33
0.0
  0
INSERT
  5
748
  8
E
  2
*U44
 10
0.0
 20
0.0
 30
0.0
  0
POINT
  5
749
  8
DEFPOINTS
 62
     0
 10
8.0000000000000018
 20
-40.0
 30
0.0
  0
POINT
  5
74A
  8
DEFPOINTS
 62
     0
 10
11.7775
 20
-59.999999999999972
 30
0.0
  0
POINT
  5
74B
  8
DEFPOINTS
 62
     0
 10
24.239567048164641
 20
-59.999999999999979
 30
0.0
  0
ENDBLK
  5
49D
  8
0
  0
BLOCK
  8
0
  2
*D17
 70
     1
 10
0.0
 20
0.0
 30
0.0
  3
*D17
  1

  0
LINE
  5
56A
  8
0
 62
     0
 10
-10.504200000000001
 20
-0.6249999999999978
 30
0.0
 11
-10.504200000000001
 21
-23.264872151581589
 31
0.0
  0
LINE
  5
56B
  8
0
 62
     0
 10
10.504200000000001
 20
-0.625
 30
0.0
 11
10.504200000000001
 21
-23.264872151581589
 31
0.0
  0
LINE
  5
56C
  8
0
 62
     0
 10
-8.0042000000000026
 20
-22.014872151581589
 30
0.0
 11
8.0041999999999991
 21
-22.014872151581589
 31
0.0
  0
SOLID
  5
56D
  8
0
 62
     0
 10
-8.0042000000000026
 20
-21.598205484914921
 30
0.0
 11
-8.0042000000000026
 21
-22.43153881824826
 31
0.0
 12
-10.504200000000001
 22
-22.014872151581589
 32
0.0
 13
-10.504200000000001
 23
-22.014872151581589
 33
0.0
  0
SOLID
  5
56E
  8
0
 62
     0
 10
8.0041999999999991
 20
-21.598205484914921
 30
0.0
 11
8.0041999999999991
 21
-22.43153881824826
 31
0.0
 12
10.504200000000001
 22
-22.014872151581589
 32
0.0
 13
10.504200000000001
 23
-22.014872151581589
 33
0.0
  0
INSERT
  5
56F
  8
E
  2
*U38
 10
0.0
 20
0.0
 30
0.0
  0
POINT
  5
570
  8
DEFPOINTS
 62
     0
 10
-10.504200000000001
 20
0.0000000000000023
 30
0.0
  0
POINT
  5
571
  8
DEFPOINTS
 62
     0
 10
10.504200000000001
 20
0.0
 30
0.0
  0
POINT
  5
572
  8
DEFPOINTS
 62
     0
 10
10.504200000000001
 20
-22.014872151581589
 30
0.0
  0
ENDBLK
  5
55F
  8
0
  0
BLOCK
  8
0
  2
*D19
 70
     1
 10
0.0
 20
0.0
 30
0.0
  3
*D19
  1

  0
LINE
  5
5C1
  8
DIM
 62
     0
 10
-0.6249999999999993
 20
10.504200000000001
 30
0.0
 11
-26.83177142344903
 21
10.50420000000001
 31
0.0
  0
LINE
  5
5C2
  8
DIM
 62
     0
 10
-0.6249999999999991
 20
-10.504200000000001
 30
0.0
 11
-26.83177142344903
 21
-10.50419999999999
 31
0.0
  0
LINE
  5
5C3
  8
DIM
 62
     0
 10
-25.58177142344903
 20
8.0042000000000062
 30
0.0
 11
-25.58177142344903
 21
-8.0041999999999938
 31
0.0
  0
SOLID
  5
5C4
  8
DIM
 62
     0
 10
-25.998438090115691
 20
8.0042000000000062
 30
0.0
 11
-25.165104756782359
 21
8.0042000000000062
 31
0.0
 12
-25.58177142344903
 22
10.50420000000001
 32
0.0
 13
-25.58177142344903
 23
10.50420000000001
 33
0.0
  0
SOLID
  5
5C5
  8
DIM
 62
     0
 10
-25.998438090115702
 20
-8.0041999999999938
 30
0.0
 11
-25.16510475678237
 21
-8.0041999999999938
 31
0.0
 12
-25.58177142344903
 22
-10.50419999999999
 32
0.0
 13
-25.58177142344903
 23
-10.50419999999999
 33
0.0
  0
INSERT
  5
5C6
  8
E
  2
*U41
 10
0.0
 20
0.0
 30
0.0
  0
POINT
  5
5C7
  8
DEFPOINTS
 62
     0
 10
0.0000000000000006
 20
10.504200000000001
 30
0.0
  0
POINT
  5
5C8
  8
DEFPOINTS
 62
     0
 10
0.000000000000001
 20
-10.504200000000001
 30
0.0
  0
POINT
  5
5C9
  8
DEFPOINTS
 62
     0
 10
-25.58177142344903
 20
-10.50419999999999
 30
0.0
  0
ENDBLK
  5
59A
  8
0
  0
BLOCK
  8
0
  2
*D20
 70
     1
 10
0.0
 20
0.0
 30
0.0
  3
*D20
  1

  0
LINE
  5
769
  8
DIM
 62
     0
 10
30.625
 20
-112.1041386314168
 30
0.0
 11
38.728295753273407
 21
-112.1041386314168
 31
0.0
  0
LINE
  5
76A
  8
DIM
 62
     0
 10
30.625
 20
-116.1041386314168
 30
0.0
 11
38.728295753273407
 21
-116.1041386314169
 31
0.0
  0
LINE
  5
76B
  8
DIM
 62
     0
 10
37.478295753273422
 20
-109.6041386314168
 30
0.0
 11
37.478295753273422
 21
-107.1041386314168
 31
0.0
  0
LINE
  5
76C
  8
DIM
 62
     0
 10
37.478295753273407
 20
-118.6041386314168
 30
0.0
 11
37.478295753273407
 21
-121.1041386314168
 31
0.0
  0
LINE
  5
76D
  8
DIM
 62
     0
 10
37.478295753273407
 20
-112.1041386314168
 30
0.0
 11
37.478295753273407
 21
-116.1041386314169
 31
0.0
  0
SOLID
  5
76E
  8
DIM
 62
     0
 10
37.06162908660675
 20
-109.6041386314168
 30
0.0
 11
37.894962419940079
 21
-109.6041386314168
 31
0.0
 12
37.478295753273407
 22
-112.1041386314168
 32
0.0
 13
37.478295753273407
 23
-112.1041386314168
 33
0.0
  0
SOLID
  5
76F
  8
DIM
 62
     0
 10
37.06162908660675
 20
-118.6041386314168
 30
0.0
 11
37.894962419940072
 21
-118.6041386314168
 31
0.0
 12
37.478295753273407
 22
-116.1041386314169
 32
0.0
 13
37.478295753273407
 23
-116.1041386314169
 33
0.0
  0
INSERT
  5
770
  8
E
  2
*U45
 10
0.0
 20
0.0
 30
0.0
  0
POINT
  5
771
  8
DEFPOINTS
 62
     0
 10
30.0
 20
-112.1041386314168
 30
0.0
  0
POINT
  5
772
  8
DEFPOINTS
 62
     0
 10
30.0
 20
-116.1041386314168
 30
0.0
  0
POINT
  5
773
  8
DEFPOINTS
 62
     0
 10
37.478295753273407
 20
-116.1041386314169
 30
0.0
  0
ENDBLK
  5
658
  8
0
  0
BLOCK
  8
0
  2
*D21
 70
     1
 10
0.0
 20
0.0
 30
0.0
  3
*D21
  1

  0
LINE
  5
774
  8
DIM
 62
     0
 10
20.0
 20
-109.9777286314168
 30
0.0
 11
20.0
 21
-103.084363255783
 31
0.0
  0
LINE
  5
775
  8
DIM
 62
     0
 10
30.0
 20
-109.9777286314168
 30
0.0
 11
30.0
 21
-103.084363255783
 31
0.0
  0
LINE
  5
776
  8
DIM
 62
     0
 10
22.5
 20
-104.334363255783
 30
0.0
 11
27.5
 21
-104.334363255783
 31
0.0
  0
SOLID
  5
777
  8
DIM
 62
     0
 10
22.5
 20
-103.9176965891164
 30
0.0
 11
22.5
 21
-104.7510299224497
 31
0.0
 12
20.0
 22
-104.334363255783
 32
0.0
 13
20.0
 23
-104.334363255783
 33
0.0
  0
SOLID
  5
778
  8
DIM
 62
     0
 10
27.5
 20
-103.9176965891164
 30
0.0
 11
27.5
 21
-104.7510299224497
 31
0.0
 12
30.0
 22
-104.334363255783
 32
0.0
 13
30.0
 23
-104.334363255783
 33
0.0
  0
INSERT
  5
779
  8
E
  2
*U46
 10
0.0
 20
0.0
 30
0.0
  0
POINT
  5
77A
  8
DEFPOINTS
 62
     0
 10
20.0
 20
-110.6027286314168
 30
0.0
  0
POINT
  5
77B
  8
DEFPOINTS
 62
     0
 10
30.0
 20
-110.6027286314168
 30
0.0
  0
POINT
  5
77C
  8
DEFPOINTS
 62
     0
 10
30.0
 20
-104.334363255783
 30
0.0
  0
ENDBLK
  5
674
  8
0
  0
BLOCK
  8
0
  2
*D22
 70
     1
 10
0.0
 20
0.0
 30
0.0
  3
*D22
  1

  0
LINE
  5
77D
  8
DIM
 62
     0
 10
-3.501410000000003
 20
-114.7291386314168
 30
0.0
 11
-3.5014100000000039
 21
-124.61901629527939
 31
0.0
  0
LINE
  5
77E
  8
DIM
 62
     0
 10
3.501409999999995
 20
-114.7291386314168
 30
0.0
 11
3.501409999999995
 21
-124.61901629527939
 31
0.0
  0
LINE
  5
77F
  8
DIM
 62
     0
 10
-1.0014100000000039
 20
-123.36901629527939
 30
0.0
 11
1.001409999999995
 21
-123.36901629527939
 31
0.0
  0
SOLID
  5
780
  8
DIM
 62
     0
 10
-1.0014100000000039
 20
-122.95234962861269
 30
0.0
 11
-1.0014100000000039
 21
-123.78568296194599
 31
0.0
 12
-3.5014100000000039
 22
-123.36901629527939
 32
0.0
 13
-3.5014100000000039
 23
-123.36901629527939
 33
0.0
  0
SOLID
  5
781
  8
DIM
 62
     0
 10
1.001409999999995
 20
-122.95234962861269
 30
0.0
 11
1.001409999999995
 21
-123.78568296194599
 31
0.0
 12
3.501409999999995
 22
-123.36901629527939
 32
0.0
 13
3.501409999999995
 23
-123.36901629527939
 33
0.0
  0
INSERT
  5
782
  8
E
  2
*U47
 10
0.0
 20
0.0
 30
0.0
  0
POINT
  5
783
  8
DEFPOINTS
 62
     0
 10
-3.501410000000003
 20
-114.1041386314168
 30
0.0
  0
POINT
  5
784
  8
DEFPOINTS
 62
     0
 10
3.501409999999995
 20
-114.1041386314168
 30
0.0
  0
POINT
  5
785
  8
DEFPOINTS
 62
     0
 10
3.501409999999995
 20
-123.36901629527939
 30
0.0
  0
ENDBLK
  5
68C
  8
0
  0
BLOCK
  8
0
  2
*U23
 70
     1
 10
0.0
 20
0.0
 30
0.0
  3
*U23
  1

  0
TEXT
  5
8C9
  8
DIM
 10
-21.9835533420936
 20
14.212645626445919
 30
0.0
 40
4.0
  1
A
  0
POLYLINE
  8
DIM
  5
95B
  66
     1
 10
0.000000
 20
0.000000
 30
0.000000
  70
     8
  0
VERTEX
  8
DIM
  5
95C
 10
-4.00000
 20
16.2126
 30
0.000000
  70
    32
  0
VERTEX
  8
DIM
  5
95D
 10
-4.09644
 20
16.2126
 30
0.000000
  70
    32
  0
VERTEX
  8
DIM
  5
95E
 10
-4.19289
 20
16.2126
 30
0.000000
  70
    32
  0
VERTEX
  8
DIM
  5
95F
 10
-4.28933
 20
16.2126
 30
0.000000
  70
    32
  0
VERTEX
  8
DIM
  5
960
 10
-4.38577
 20
16.2126
 30
0.000000
  70
    32
  0
VERTEX
  8
DIM
  5
961
 10
-4.48221
 20
16.2126
 30
0.000000
  70
    32
  0
VERTEX
  8
DIM
  5
962
 10
-4.57866
 20
16.2126
 30
0.000000
  70
    32
  0
VERTEX
  8
DIM
  5
963
 10
-4.67510
 20
16.2126
 30
0.000000
  70
    32
  0
VERTEX
  8
DIM
  5
964
 10
-4.77154
 20
16.2126
 30
0.000000
  70
    32
  0
VERTEX
  8
DIM
  5
965
 10
-4.86798
 20
16.2126
 30
0.000000
  70
    32
  0
VERTEX
  8
DIM
  5
966
 10
-4.96443
 20
16.2126
 30
0.000000
  70
    32
  0
VERTEX
  8
DIM
  5
967
 10
-5.06087
 20
16.2126
 30
0.000000
  70
    32
  0
VERTEX
  8
DIM
  5
968
 10
-5.15731
 20
16.2126
 30
0.000000
  70
    32
  0
VERTEX
  8
DIM
  5
969
 10
-5.25375
 20
16.2126
 30
0.000000
  70
    32
  0
VERTEX
  8
DIM
  5
96A
 10
-5.35020
 20
16.2126
 30
0.000000
  70
    32
  0
VERTEX
  8
DIM
  5
96B
 10
-5.44664
 20
16.2126
 30
0.000000
  70
    32
  0
VERTEX
  8
DIM
  5
96C
 10
-5.54308
 20
16.2126
 30
0.000000
  70
    32
  0
VERTEX
  8
DIM
  5
96D
 10
-5.63953
 20
16.2126
 30
0.000000
  70
    32
  0
VERTEX
  8
DIM
  5
96E
 10
-5.73597
 20
16.2126
 30
0.000000
  70
    32
  0
VERTEX
  8
DIM
  5
96F
 10
-5.83241
 20
16.2126
 30
0.000000
  70
    32
  0
VERTEX
  8
DIM
  5
970
 10
-5.92885
 20
16.2126
 30
0.000000
  70
    32
  0
VERTEX
  8
DIM
  5
971
 10
-6.02530
 20
16.2126
 30
0.000000
  70
    32
  0
VERTEX
  8
DIM
  5
972
 10
-6.12174
 20
16.2126
 30
0.000000
  70
    32
  0
VERTEX
  8
DIM
  5
973
 10
-6.21818
 20
16.2126
 30
0.000000
  70
    32
  0
VERTEX
  8
DIM
  5
974
 10
-6.31462
 20
16.2126
 30
0.000000
  70
    32
  0
VERTEX
  8
DIM
  5
975
 10
-6.41107
 20
16.2126
 30
0.000000
  70
    32
  0
VERTEX
  8
DIM
  5
976
 10
-6.50751
 20
16.2126
 30
0.000000
  70
    32
  0
VERTEX
  8
DIM
  5
977
 10
-6.60395
 20
16.2126
 30
0.000000
  70
    32
  0
VERTEX
  8
DIM
  5
978
 10
-6.70039
 20
16.2126
 30
0.000000
  70
    32
  0
VERTEX
  8
DIM
  5
979
 10
-6.79684
 20
16.2126
 30
0.000000
  70
    32
  0
VERTEX
  8
DIM
  5
97A
 10
-6.89328
 20
16.2126
 30
0.000000
  70
    32
  0
VERTEX
  8
DIM
  5
97B
 10
-6.98972
 20
16.2126
 30
0.000000
  70
    32
  0
VERTEX
  8
DIM
  5
97C
 10
-7.08617
 20
16.2126
 30
0.000000
  70
    32
  0
VERTEX
  8
DIM
  5
97D
 10
-7.18261
 20
16.2126
 30
0.000000
  70
    32
  0
VERTEX
  8
DIM
  5
97E
 10
-7.27905
 20
16.2126
 30
0.000000
  70
    32
  0
VERTEX
  8
DIM
  5
97F
 10
-7.37549
 20
16.2126
 30
0.000000
  70
    32
  0
VERTEX
  8
DIM
  5
980
 10
-7.47194
 20
16.2126
 30
0.000000
  70
    32
  0
VERTEX
  8
DIM
  5
981
 10
-7.56838
 20
16.2126
 30
0.000000
  70
    32
  0
VERTEX
  8
DIM
  5
982
 10
-7.66482
 20
16.2126
 30
0.000000
  70
    32
  0
VERTEX
  8
DIM
  5
983
 10
-7.76126
 20
16.2126
 30
0.000000
  70
    32
  0
VERTEX
  8
DIM
  5
984
 10
-7.85771
 20
16.2126
 30
0.000000
  70
    32
  0
VERTEX
  8
DIM
  5
985
 10
-7.95415
 20
16.2126
 30
0.000000
  70
    32
  0
VERTEX
  8
DIM
  5
986
 10
-8.05059
 20
16.2126
 30
0.000000
  70
    32
  0
VERTEX
  8
DIM
  5
987
 10
-8.14703
 20
16.2126
 30
0.000000
  70
    32
  0
VERTEX
  8
DIM
  5
988
 10
-8.24348
 20
16.2126
 30
0.000000
  70
    32
  0
VERTEX
  8
DIM
  5
989
 10
-8.33992
 20
16.2126
 30
0.000000
  70
    32
  0
VERTEX
  8
DIM
  5
98A
 10
-8.43636
 20
16.2126
 30
0.000000
  70
    32
  0
VERTEX
  8
DIM
  5
98B
 10
-8.53281
 20
16.2126
 30
0.000000
  70
    32
  0
VERTEX
  8
DIM
  5
98C
 10
-8.62925
 20
16.2126
 30
0.000000
  70
    32
  0
VERTEX
  8
DIM
  5
98D
 10
-8.72569
 20
16.2126
 30
0.000000
  70
    32
  0
VERTEX
  8
DIM
  5
98E
 10
-8.82213
 20
16.2126
 30
0.000000
  70
    32
  0
VERTEX
  8
DIM
  5
98F
 10
-8.91858
 20
16.2126
 30
0.000000
  70
    32
  0
VERTEX
  8
DIM
  5
990
 10
-9.01502
 20
16.2126
 30
0.000000
  70
    32
  0
VERTEX
  8
DIM
  5
991
 10
-9.11146
 20
16.2126
 30
0.000000
  70
    32
  0
VERTEX
  8
DIM
  5
992
 10
-9.20790
 20
16.2126
 30
0.000000
  70
    32
  0
VERTEX
  8
DIM
  5
993
 10
-9.30435
 20
16.2126
 30
0.000000
  70
    32
  0
VERTEX
  8
DIM
  5
994
 10
-9.40079
 20
16.2126
 30
0.000000
  70
    32
  0
VERTEX
  8
DIM
  5
995
 10
-9.49723
 20
16.2126
 30
0.000000
  70
    32
  0
VERTEX
  8
DIM
  5
996
 10
-9.59367
 20
16.2126
 30
0.000000
  70
    32
  0
VERTEX
  8
DIM
  5
997
 10
-9.69012
 20
16.2126
 30
0.000000
  70
    32
  0
VERTEX
  8
DIM
  5
998
 10
-9.78656
 20
16.2126
 30
0.000000
  70
    32
  0
VERTEX
  8
DIM
  5
999
 10
-9.88300
 20
16.2126
 30
0.000000
  70
    32
  0
VERTEX
  8
DIM
  5
99A
 10
-9.97945
 20
16.2126
 30
0.000000
  70
    32
  0
VERTEX
  8
DIM
  5
99B
 10
-10.0759
 20
16.2126
 30
0.000000
  70
    32
  0
VERTEX
  8
DIM
  5
99C
 10
-10.1723
 20
16.2126
 30
0.000000
  70
    32
  0
VERTEX
  8
DIM
  5
99D
 10
-10.2688
 20
16.2126
 30
0.000000
  70
    32
  0
VERTEX
  8
DIM
  5
99E
 10
-10.3652
 20
16.2126
 30
0.000000
  70
    32
  0
VERTEX
  8
DIM
  5
99F
 10
-10.4617
 20
16.2126
 30
0.000000
  70
    32
  0
VERTEX
  8
DIM
  5
9A0
 10
-10.5581
 20
16.2126
 30
0.000000
  70
    32
  0
VERTEX
  8
DIM
  5
9A1
 10
-10.6545
 20
16.2126
 30
0.000000
  70
    32
  0
VERTEX
  8
DIM
  5
9A2
 10
-10.7510
 20
16.2126
 30
0.000000
  70
    32
  0
VERTEX
  8
DIM
  5
9A3
 10
-10.8474
 20
16.2126
 30
0.000000
  70
    32
  0
VERTEX
  8
DIM
  5
9A4
 10
-10.9439
 20
16.2126
 30
0.000000
  70
    32
  0
VERTEX
  8
DIM
  5
9A5
 10
-11.0403
 20
16.2126
 30
0.000000
  70
    32
  0
VERTEX
  8
DIM
  5
9A6
 10
-11.1368
 20
16.2126
 30
0.000000
  70
    32
  0
VERTEX
  8
DIM
  5
9A7
 10
-11.2332
 20
16.2126
 30
0.000000
  70
    32
  0
VERTEX
  8
DIM
  5
9A8
 10
-11.3296
 20
16.2126
 30
0.000000
  70
    32
  0
VERTEX
  8
DIM
  5
9A9
 10
-11.4261
 20
16.2126
 30
0.000000
  70
    32
  0
VERTEX
  8
DIM
  5
9AA
 10
-11.5225
 20
16.2126
 30
0.000000
  70
    32
  0
VERTEX
  8
DIM
  5
9AB
 10
-11.6190
 20
16.2126
 30
0.000000
  70
    32
  0
VERTEX
  8
DIM
  5
9AC
 10
-11.7154
 20
16.2126
 30
0.000000
  70
    32
  0
VERTEX
  8
DIM
  5
9AD
 10
-11.8119
 20
16.2126
 30
0.000000
  70
    32
  0
VERTEX
  8
DIM
  5
9AE
 10
-11.9083
 20
16.2126
 30
0.000000
  70
    32
  0
VERTEX
  8
DIM
  5
9AF
 10
-12.0047
 20
16.2126
 30
0.000000
  70
    32
  0
VERTEX
  8
DIM
  5
9B0
 10
-12.1012
 20
16.2126
 30
0.000000
  70
    32
  0
VERTEX
  8
DIM
  5
9B1
 10
-12.1976
 20
16.2126
 30
0.000000
  70
    32
  0
VERTEX
  8
DIM
  5
9B2
 10
-12.2941
 20
16.2126
 30
0.000000
  70
    32
  0
VERTEX
  8
DIM
  5
9B3
 10
-12.3905
 20
16.2126
 30
0.000000
  70
    32
  0
VERTEX
  8
DIM
  5
9B4
 10
-12.4870
 20
16.2126
 30
0.000000
  70
    32
  0
VERTEX
  8
DIM
  5
9B5
 10
-12.5834
 20
16.2126
 30
0.000000
  70
    32
  0
VERTEX
  8
DIM
  5
9B6
 10
-12.6798
 20
16.2126
 30
0.000000
  70
    32
  0
VERTEX
  8
DIM
  5
9B7
 10
-12.7763
 20
16.2126
 30
0.000000
  70
    32
  0
VERTEX
  8
DIM
  5
9B8
 10
-12.8727
 20
16.2126
 30
0.000000
  70
    32
  0
VERTEX
  8
DIM
  5
9B9
 10
-12.9692
 20
16.2126
 30
0.000000
  70
    32
  0
VERTEX
  8
DIM
  5
9BA
 10
-13.0656
 20
16.2126
 30
0.000000
  70
    32
  0
VERTEX
  8
DIM
  5
9BB
 10
-13.1621
 20
16.2126
 30
0.000000
  70
    32
  0
VERTEX
  8
DIM
  5
9BC
 10
-13.2585
 20
16.2126
 30
0.000000
  70
    32
  0
VERTEX
  8
DIM
  5
9BD
 10
-13.3549
 20
16.2126
 30
0.000000
  70
    32
  0
VERTEX
  8
DIM
  5
9BE
 10
-13.4514
 20
16.2126
 30
0.000000
  70
    32
  0
VERTEX
  8
DIM
  5
9BF
 10
-13.5478
 20
16.2126
 30
0.000000
  70
    32
  0
VERTEX
  8
DIM
  5
9C0
 10
-13.6443
 20
16.2126
 30
0.000000
  70
    32
  0
VERTEX
  8
DIM
  5
9C1
 10
-13.7407
 20
16.2126
 30
0.000000
  70
    32
  0
VERTEX
  8
DIM
  5
9C2
 10
-13.8372
 20
16.2126
 30
0.000000
  70
    32
  0
VERTEX
  8
DIM
  5
9C3
 10
-13.9336
 20
16.2126
 30
0.000000
  70
    32
  0
VERTEX
  8
DIM
  5
9C4
 10
-14.0300
 20
16.2126
 30
0.000000
  70
    32
  0
VERTEX
  8
DIM
  5
9C5
 10
-14.1265
 20
16.2126
 30
0.000000
  70
    32
  0
VERTEX
  8
DIM
  5
9C6
 10
-14.2229
 20
16.2126
 30
0.000000
  70
    32
  0
VERTEX
  8
DIM
  5
9C7
 10
-14.3194
 20
16.2126
 30
0.000000
  70
    32
  0
VERTEX
  8
DIM
  5
9C8
 10
-14.4158
 20
16.2126
 30
0.000000
  70
    32
  0
VERTEX
  8
DIM
  5
9C9
 10
-14.5123
 20
16.2126
 30
0.000000
  70
    32
  0
VERTEX
  8
DIM
  5
9CA
 10
-14.6087
 20
16.2126
 30
0.000000
  70
    32
  0
VERTEX
  8
DIM
  5
9CB
 10
-14.7051
 20
16.2126
 30
0.000000
  70
    32
  0
VERTEX
  8
DIM
  5
9CC
 10
-14.8016
 20
16.2126
 30
0.000000
  70
    32
  0
VERTEX
  8
DIM
  5
9CD
 10
-14.8980
 20
16.2126
 30
0.000000
  70
    32
  0
VERTEX
  8
DIM
  5
9CE
 10
-14.9945
 20
16.2126
 30
0.000000
  70
    32
  0
VERTEX
  8
DIM
  5
9CF
 10
-15.0909
 20
16.2126
 30
0.000000
  70
    32
  0
VERTEX
  8
DIM
  5
9D0
 10
-15.1873
 20
16.2126
 30
0.000000
  70
    32
  0
VERTEX
  8
DIM
  5
9D1
 10
-15.2838
 20
16.2126
 30
0.000000
  70
    32
  0
VERTEX
  8
DIM
  5
9D2
 10
-15.3802
 20
16.2126
 30
0.000000
  70
    32
  0
VERTEX
  8
DIM
  5
9D3
 10
-15.4767
 20
16.2126
 30
0.000000
  70
    32
  0
VERTEX
  8
DIM
  5
9D4
 10
-15.5731
 20
16.2126
 30
0.000000
  70
    32
  0
VERTEX
  8
DIM
  5
9D5
 10
-15.6696
 20
16.2126
 30
0.000000
  70
    32
  0
VERTEX
  8
DIM
  5
9D6
 10
-15.7660
 20
16.2126
 30
0.000000
  70
    32
  0
VERTEX
  8
DIM
  5
9D7
 10
-15.8624
 20
16.2126
 30
0.000000
  70
    32
  0
VERTEX
  8
DIM
  5
9D8
 10
-15.9589
 20
16.2126
 30
0.000000
  70
    32
  0
VERTEX
  8
DIM
  5
9D9
 10
-16.0553
 20
16.2126
 30
0.000000
  70
    32
  0
VERTEX
  8
DIM
  5
9DA
 10
-16.1518
 20
16.2126
 30
0.000000
  70
    32
  0
VERTEX
  8
DIM
  5
9DB
 10
-16.2482
 20
16.2126
 30
0.000000
  70
    32
  0
SEQEND
  8
DIM
  5
9DC
  0
SOLID
  5
8CB
  8
DIM
 10
-3.9999999999999991
 20
16.87931229311258
 30
0.0
 11
0.000000000000001
 21
16.212645626445919
 31
0.0
 12
-3.9999999999999991
 22
15.54597895977925
 32
0.0
 13
-3.9999999999999991
 23
15.54597895977925
 33
0.0
  0
ENDBLK
  5
8CD
  8
0
  0
BLOCK
  8
0
  2
*X24
 70
     1
 10
0.0
 20
0.0
 30
0.0
  3
*X24
  1

  0
LINE
  5
8CF
  8
0
 62
     0
 10
62.946312998820531
 20
-11.140799999999979
 30
0.0
 11
63.140799999999977
 21
-10.946312998820529
 31
0.0
  0
LINE
  5
8D0
  8
0
 62
     0
 10
62.309612998820512
 20
-11.7775
 30
0.0
 11
62.946312998820517
 21
-11.14079999999999
 31
0.0
  0
LINE
  5
8D1
  8
0
 62
     0
 10
60.701248968553237
 20
-11.140799999999979
 30
0.0
 11
63.140799999999977
 21
-8.7012489685532408
 31
0.0
  0
LINE
  5
8D2
  8
0
 62
     0
 10
60.064548968553233
 20
-11.7775
 30
0.0
 11
60.70124896855323
 21
-11.14079999999999
 31
0.0
  0
LINE
  5
8D3
  8
0
 62
     0
 10
58.456184938285944
 20
-11.14079999999999
 30
0.0
 11
63.026584938285943
 21
-6.5703999999999994
 31
0.0
  0
LINE
  5
8D4
  8
0
 62
     0
 10
57.819484938285932
 20
-11.7775
 30
0.0
 11
58.456184938285944
 21
-11.14079999999999
 31
0.0
  0
LINE
  5
8D5
  8
0
 62
     0
 10
56.21112090801865
 20
-11.14079999999999
 30
0.0
 11
60.781520908018649
 21
-6.5703999999999994
 31
0.0
  0
LINE
  5
8D6
  8
0
 62
     0
 10
55.574420908018652
 20
-11.7775
 30
0.0
 11
56.21112090801865
 21
-11.1408
 31
0.0
  0
LINE
  5
8D7
  8
0
 62
     0
 10
53.329356877751373
 20
-11.7775
 30
0.0
 11
53.96605687775137
 21
-11.1408
 31
0.0
  0
LINE
  5
8D8
  8
0
 62
     0
 10
53.96605687775137
 20
-11.1408
 30
0.0
 11
58.53645687775137
 21
-6.5703999999999994
 31
0.0
  0
LINE
  5
8D9
  8
0
 62
     0
 10
52.140799999999992
 20
-12.96605687775137
 30
0.0
 11
53.140799999999992
 21
-11.96605687775137
 31
0.0
  0
LINE
  5
8DA
  8
0
 62
     0
 10
52.140799999999992
 20
-10.72099284748408
 30
0.0
 11
56.291392847484083
 21
-6.5703999999999994
 31
0.0
  0
LINE
  5
8DB
  8
0
 62
     0
 10
52.140799999999999
 20
-8.4759288172167881
 30
0.0
 11
54.046328817216789
 21
-6.5703999999999994
 31
0.0
  0
LINE
  5
8DC
  8
0
 62
     0
 10
50.601853751388127
 20
-7.7698110355613599
 30
0.0
 11
51.801264786949503
 21
-6.5703999999999949
 31
0.0
  0
LINE
  5
8DD
  8
0
 62
     0
 10
62.697000756682201
 20
6.5703999999999994
 30
0.0
 11
63.140799999999999
 21
7.0141992433177833
 31
0.0
  0
LINE
  5
8DE
  8
0
 62
     0
 10
48.35678972112084
 20
-7.7698110355613599
 30
0.0
 11
49.556200756682202
 21
-6.570400000000002
 31
0.0
  0
LINE
  5
8DF
  8
0
 62
     0
 10
47.640799999999977
 20
-6.2407367264149221
 30
0.0
 11
48.031536726414913
 21
-5.8500000000000014
 31
0.0
  0
LINE
  5
8E0
  8
0
 62
     0
 10
60.451936726414921
 20
6.5703999999999994
 30
0.0
 11
63.140799999999992
 21
9.2592632735850682
 31
0.0
  0
LINE
  5
8E1
  8
0
 62
     0
 10
46.111725690853547
 20
-7.7698110355613643
 30
0.0
 11
47.311136726414908
 21
-6.5703999999999994
 31
0.0
  0
LINE
  5
8E2
  8
0
 62
     0
 10
58.20687269614762
 20
6.5703999999999994
 30
0.0
 11
62.777272696147641
 21
11.1408
 31
0.0
  0
LINE
  5
8E3
  8
0
 62
     0
 10
62.777272696147641
 20
11.1408
 30
0.0
 11
63.140799999999977
 21
11.504327303852349
 31
0.0
  0
LINE
  5
8E4
  8
0
 62
     0
 10
43.866661660586267
 20
-7.7698110355613643
 30
0.0
 11
45.066072696147629
 21
-6.5703999999999994
 31
0.0
  0
LINE
  5
8E5
  8
0
 62
     0
 10
60.532208665880347
 20
11.1408
 30
0.0
 11
61.168908665880352
 21
11.7775
 31
0.0
  0
LINE
  5
8E6
  8
0
 62
     0
 10
55.961808665880341
 20
6.5703999999999949
 30
0.0
 11
60.532208665880347
 21
11.1408
 31
0.0
  0
LINE
  5
8E7
  8
0
 62
     0
 10
58.287144635613068
 20
11.140800000000009
 30
0.0
 11
58.923844635613058
 21
11.7775
 31
0.0
  0
LINE
  5
8E8
  8
0
 62
     0
 10
53.716744635613047
 20
6.5703999999999994
 30
0.0
 11
58.287144635613068
 21
11.140800000000009
 31
0.0
  0
LINE
  5
8E9
  8
0
 62
     0
 10
56.042080605345781
 20
11.1408
 30
0.0
 11
56.678780605345771
 21
11.7775
 31
0.0
  0
LINE
  5
8EA
  8
0
 62
     0
 10
51.471680605345767
 20
6.5703999999999949
 30
0.0
 11
56.042080605345781
 21
11.1408
 31
0.0
  0
LINE
  5
8EB
  8
0
 62
     0
 10
52.140799999999992
 20
9.4845834249215031
 30
0.0
 11
53.79701657507848
 21
11.1408
 31
0.0
  0
LINE
  5
8EC
  8
0
 62
     0
 10
49.226616575078481
 20
6.5703999999999949
 30
0.0
 11
50.656216575078489
 21
8.0000000000000071
 31
0.0
  0
LINE
  5
8ED
  8
0
 62
     0
 10
53.79701657507848
 20
11.1408
 30
0.0
 11
54.433716575078492
 21
11.7775
 31
0.0
  0
LINE
  5
8EE
  8
0
 62
     0
 10
48.506216575078483
 20
5.849999999999997
 30
0.0
 11
48.640800000000013
 21
5.9845834249215244
 31
0.0
  0
LINE
  5
8EF
  8
0
 62
     0
 10
52.140799999999992
 20
11.72964745518879
 30
0.0
 11
53.140799999999977
 21
12.72964745518879
 31
0.0
  0
LINE
  5
8F0
  8
0
 62
     0
 10
46.98155254481118
 20
6.5703999999999994
 30
0.0
 11
48.411152544811202
 21
8.0000000000000071
 31
0.0
  0
LINE
  5
8F1
  8
0
 62
     0
 10
44.736488514543908
 20
6.5704000000000056
 30
0.0
 11
46.166088514543901
 21
8.0000000000000071
 31
0.0
  0
LINE
  5
8F2
  8
0
 62
     0
 10
43.140799999999992
 20
7.2197755157233869
 30
0.0
 11
43.921024484276622
 21
8.0000000000000071
 31
0.0
  0
ENDBLK
  5
8F4
  8
0
  0
BLOCK
  8
0
  2
*U25
 70
     1
 10
0.0
 20
0.0
 30
0.0
  3
*U25
  1

  0
TEXT
  5
8F6
  8
0
 62
     0
 10
-112.31293673734611
 20
-28.577528910878961
 30
0.0
 40
2.5
  1
23,56
  0
ENDBLK
  5
8F8
  8
0
  0
BLOCK
  8
0
  2
*U26
 70
     1
 10
0.0
 20
0.0
 30
0.0
  3
*U26
  1

  0
TEXT
  5
8FA
  8
0
 62
     0
 10
-112.4476570647676
 20
-18.61159820867417
 30
0.0
 40
2.5
  1
13,14
  0
ENDBLK
  5
8FC
  8
0
  0
BLOCK
  8
0
  2
*U27
 70
     1
 10
0.0
 20
0.0
 30
0.0
  3
*U27
  1

  0
TEXT
  5
8FE
  8
0
 62
     0
 10
-111.481592944713
 20
13.480530840551889
 30
0.0
 40
2.5
  1
11,7
  0
ENDBLK
  5
900
  8
0
  0
BLOCK
  8
0
  2
*U28
 70
     1
 10
0.0
 20
0.0
 30
0.0
  3
*U28
  1

  0
TEXT
  5
902
  8
0
 62
     0
 10
-106.6486991165702
 20
-4.4261596180082146
 30
0.0
 40
2.5
  1
1
 50
90.0
  0
ENDBLK
  5
904
  8
0
  0
BLOCK
  8
0
  2
*U29
 70
     1
 10
0.0
 20
0.0
 30
0.0
  3
*U29
  1

  0
TEXT
  5
906
  8
0
 62
     0
 10
-88.157642926487839
 20
-8.926159618008187
 30
0.0
 40
2.5
  1
1
 50
90.0
  0
ENDBLK
  5
908
  8
0
  0
BLOCK
  8
0
  2
*U30
 70
     1
 10
0.0
 20
0.0
 30
0.0
  3
*U30
  1

  0
TEXT
  5
90A
  8
0
 62
     0
 10
-132.04709324553471
 20
2.5330832196452691
 30
0.0
 40
2.5
  1
9
 50
90.0
  0
ENDBLK
  5
90C
  8
0
  0
BLOCK
  8
0
  2
*U31
 70
     1
 10
0.0
 20
0.0
 30
0.0
  3
*U31
  1

  0
TEXT
  5
90E
  8
DIM
 62
     0
 10
58.385513506139141
 20
21.0644002228637
 30
0.0
 40
2.5
  1
1
  0
ENDBLK
  5
910
  8
0
  0
BLOCK
  8
0
  2
*U32
 70
     1
 10
0.0
 20
0.0
 30
0.0
  3
*U32
  1

  0
TEXT
  5
912
  8
DIM
 62
     0
 10
86.979225349920924
 20
-4.3443042291950844
 30
0.0
 40
2.5
  1
26,28
 50
90.0
  0
ENDBLK
  5
914
  8
0
  0
BLOCK
  8
0
  2
*U33
 70
     1
 10
0.0
 20
0.0
 30
0.0
  3
*U33
  1

  0
TEXT
  5
916
  8
DIM
 62
     0
 10
79.718328910878952
 20
-4.3408935879945343
 30
0.0
 40
2.5
  1
23,56
 50
90.0
  0
ENDBLK
  5
918
  8
0
  0
BLOCK
  8
0
  2
*U34
 70
     1
 10
0.0
 20
0.0
 30
0.0
  3
*U34
  1

  0
TEXT
  5
91A
  8
DIM
 62
     0
 10
69.752398208674165
 20
-4.4756139154160888
 30
0.0
 40
2.5
  1
13,14
 50
90.0
  0
ENDBLK
  5
91C
  8
0
  0
BLOCK
  8
0
  2
*U35
 70
     1
 10
0.0
 20
0.0
 30
0.0
  3
*U35
  1

  0
TEXT
  5
91E
  8
DIM
 62
     0
 10
53.885513506139162
 20
2.5733440327812782
 30
0.0
 40
2.5
  1
1
  0
ENDBLK
  5
920
  8
0
  0
BLOCK
  8
0
  2
*U36
 70
     1
 10
0.0
 20
0.0
 30
0.0
  3
*U36
  1

  0
TEXT
  5
922
  8
DIM
 62
     0
 10
37.660269159448113
 20
-3.509549795361516
 30
0.0
 40
2.5
  1
11,7
 50
90.0
  0
ENDBLK
  5
924
  8
0
  0
BLOCK
  8
0
  2
*U37
 70
     1
 10
0.0
 20
0.0
 30
0.0
  3
*U37
  1

  0
TEXT
  5
926
  8
DIM
 62
     0
 10
46.67388321964529
 20
-22.73978406616957
 30
0.0
 40
2.5
  1
9
  0
ENDBLK
  5
928
  8
0
  0
BLOCK
  8
0
  2
*U38
 70
     1
 10
0.0
 20
0.0
 30
0.0
  3
*U38
  1

  0
TEXT
  5
92A
  8
0
 62
     0
 10
-4.1004433833560734
 20
-20.895329177502461
 30
0.0
 40
2.5
  1
21,01
  0
ENDBLK
  5
92C
  8
0
  0
BLOCK
  8
0
  2
*U39
 70
     1
 10
0.0
 20
0.0
 30
0.0
  3
*U39
  1

  0
TEXT
  5
92E
  8
DIM
 10
0.083050154640786
 20
1.216464601679945
 30
0.0
 40
4.0
  1
A
  0
POLYLINE
  8
DIM
  5
9DD
  66
     1
 10
0.000000
 20
0.000000
 30
0.000000
  70
     8
  0
VERTEX
  8
DIM
  5
9DE
 10
18.0666
 20
3.21646
 30
0.000000
  70
    32
  0
VERTEX
  8
DIM
  5
9DF
 10
17.9702
 20
3.21646
 30
0.000000
  70
    32
  0
VERTEX
  8
DIM
  5
9E0
 10
17.8737
 20
3.21646
 30
0.000000
  70
    32
  0
VERTEX
  8
DIM
  5
9E1
 10
17.7773
 20
3.21646
 30
0.000000
  70
    32
  0
VERTEX
  8
DIM
  5
9E2
 10
17.6808
 20
3.21646
 30
0.000000
  70
    32
  0
VERTEX
  8
DIM
  5
9E3
 10
17.5844
 20
3.21646
 30
0.000000
  70
    32
  0
VERTEX
  8
DIM
  5
9E4
 10
17.4879
 20
3.21646
 30
0.000000
  70
    32
  0
VERTEX
  8
DIM
  5
9E5
 10
17.3915
 20
3.21646
 30
0.000000
  70
    32
  0
VERTEX
  8
DIM
  5
9E6
 10
17.2951
 20
3.21646
 30
0.000000
  70
    32
  0
VERTEX
  8
DIM
  5
9E7
 10
17.1986
 20
3.21646
 30
0.000000
  70
    32
  0
VERTEX
  8
DIM
  5
9E8
 10
17.1022
 20
3.21646
 30
0.000000
  70
    32
  0
VERTEX
  8
DIM
  5
9E9
 10
17.0057
 20
3.21646
 30
0.000000
  70
    32
  0
VERTEX
  8
DIM
  5
9EA
 10
16.9093
 20
3.21646
 30
0.000000
  70
    32
  0
VERTEX
  8
DIM
  5
9EB
 10
16.8128
 20
3.21646
 30
0.000000
  70
    32
  0
VERTEX
  8
DIM
  5
9EC
 10
16.7164
 20
3.21646
 30
0.000000
  70
    32
  0
VERTEX
  8
DIM
  5
9ED
 10
16.6200
 20
3.21646
 30
0.000000
  70
    32
  0
VERTEX
  8
DIM
  5
9EE
 10
16.5235
 20
3.21646
 30
0.000000
  70
    32
  0
VERTEX
  8
DIM
  5
9EF
 10
16.4271
 20
3.21646
 30
0.000000
  70
    32
  0
VERTEX
  8
DIM
  5
9F0
 10
16.3306
 20
3.21646
 30
0.000000
  70
    32
  0
VERTEX
  8
DIM
  5
9F1
 10
16.2342
 20
3.21646
 30
0.000000
  70
    32
  0
VERTEX
  8
DIM
  5
9F2
 10
16.1378
 20
3.21646
 30
0.000000
  70
    32
  0
VERTEX
  8
DIM
  5
9F3
 10
16.0413
 20
3.21646
 30
0.000000
  70
    32
  0
VERTEX
  8
DIM
  5
9F4
 10
15.9449
 20
3.21646
 30
0.000000
  70
    32
  0
VERTEX
  8
DIM
  5
9F5
 10
15.8484
 20
3.21646
 30
0.000000
  70
    32
  0
VERTEX
  8
DIM
  5
9F6
 10
15.7520
 20
3.21646
 30
0.000000
  70
    32
  0
VERTEX
  8
DIM
  5
9F7
 10
15.6555
 20
3.21646
 30
0.000000
  70
    32
  0
VERTEX
  8
DIM
  5
9F8
 10
15.5591
 20
3.21646
 30
0.000000
  70
    32
  0
VERTEX
  8
DIM
  5
9F9
 10
15.4627
 20
3.21646
 30
0.000000
  70
    32
  0
VERTEX
  8
DIM
  5
9FA
 10
15.3662
 20
3.21646
 30
0.000000
  70
    32
  0
VERTEX
  8
DIM
  5
9FB
 10
15.2698
 20
3.21646
 30
0.000000
  70
    32
  0
VERTEX
  8
DIM
  5
9FC
 10
15.1733
 20
3.21646
 30
0.000000
  70
    32
  0
VERTEX
  8
DIM
  5
9FD
 10
15.0769
 20
3.21646
 30
0.000000
  70
    32
  0
VERTEX
  8
DIM
  5
9FE
 10
14.9804
 20
3.21646
 30
0.000000
  70
    32
  0
VERTEX
  8
DIM
  5
9FF
 10
14.8840
 20
3.21646
 30
0.000000
  70
    32
  0
VERTEX
  8
DIM
  5
A00
 10
14.7876
 20
3.21646
 30
0.000000
  70
    32
  0
VERTEX
  8
DIM
  5
A01
 10
14.6911
 20
3.21646
 30
0.000000
  70
    32
  0
VERTEX
  8
DIM
  5
A02
 10
14.5947
 20
3.21646
 30
0.000000
  70
    32
  0
VERTEX
  8
DIM
  5
A03
 10
14.4982
 20
3.21646
 30
0.000000
  70
    32
  0
VERTEX
  8
DIM
  5
A04
 10
14.4018
 20
3.21646
 30
0.000000
  70
    32
  0
VERTEX
  8
DIM
  5
A05
 10
14.3053
 20
3.21646
 30
0.000000
  70
    32
  0
VERTEX
  8
DIM
  5
A06
 10
14.2089
 20
3.21646
 30
0.000000
  70
    32
  0
VERTEX
  8
DIM
  5
A07
 10
14.1125
 20
3.21646
 30
0.000000
  70
    32
  0
VERTEX
  8
DIM
  5
A08
 10
14.0160
 20
3.21646
 30
0.000000
  70
    32
  0
VERTEX
  8
DIM
  5
A09
 10
13.9196
 20
3.21646
 30
0.000000
  70
    32
  0
VERTEX
  8
DIM
  5
A0A
 10
13.8231
 20
3.21646
 30
0.000000
  70
    32
  0
VERTEX
  8
DIM
  5
A0B
 10
13.7267
 20
3.21646
 30
0.000000
  70
    32
  0
VERTEX
  8
DIM
  5
A0C
 10
13.6302
 20
3.21646
 30
0.000000
  70
    32
  0
VERTEX
  8
DIM
  5
A0D
 10
13.5338
 20
3.21646
 30
0.000000
  70
    32
  0
VERTEX
  8
DIM
  5
A0E
 10
13.4374
 20
3.21646
 30
0.000000
  70
    32
  0
VERTEX
  8
DIM
  5
A0F
 10
13.3409
 20
3.21646
 30
0.000000
  70
    32
  0
VERTEX
  8
DIM
  5
A10
 10
13.2445
 20
3.21646
 30
0.000000
  70
    32
  0
VERTEX
  8
DIM
  5
A11
 10
13.1480
 20
3.21646
 30
0.000000
  70
    32
  0
VERTEX
  8
DIM
  5
A12
 10
13.0516
 20
3.21646
 30
0.000000
  70
    32
  0
VERTEX
  8
DIM
  5
A13
 10
12.9551
 20
3.21646
 30
0.000000
  70
    32
  0
VERTEX
  8
DIM
  5
A14
 10
12.8587
 20
3.21646
 30
0.000000
  70
    32
  0
VERTEX
  8
DIM
  5
A15
 10
12.7623
 20
3.21646
 30
0.000000
  70
    32
  0
VERTEX
  8
DIM
  5
A16
 10
12.6658
 20
3.21646
 30
0.000000
  70
    32
  0
VERTEX
  8
DIM
  5
A17
 10
12.5694
 20
3.21646
 30
0.000000
  70
    32
  0
VERTEX
  8
DIM
  5
A18
 10
12.4729
 20
3.21646
 30
0.000000
  70
    32
  0
VERTEX
  8
DIM
  5
A19
 10
12.3765
 20
3.21646
 30
0.000000
  70
    32
  0
VERTEX
  8
DIM
  5
A1A
 10
12.2800
 20
3.21646
 30
0.000000
  70
    32
  0
VERTEX
  8
DIM
  5
A1B
 10
12.1836
 20
3.21646
 30
0.000000
  70
    32
  0
VERTEX
  8
DIM
  5
A1C
 10
12.0872
 20
3.21646
 30
0.000000
  70
    32
  0
VERTEX
  8
DIM
  5
A1D
 10
11.9907
 20
3.21646
 30
0.000000
  70
    32
  0
VERTEX
  8
DIM
  5
A1E
 10
11.8943
 20
3.21646
 30
0.000000
  70
    32
  0
VERTEX
  8
DIM
  5
A1F
 10
11.7978
 20
3.21646
 30
0.000000
  70
    32
  0
VERTEX
  8
DIM
  5
A20
 10
11.7014
 20
3.21646
 30
0.000000
  70
    32
  0
VERTEX
  8
DIM
  5
A21
 10
11.6049
 20
3.21646
 30
0.000000
  70
    32
  0
VERTEX
  8
DIM
  5
A22
 10
11.5085
 20
3.21646
 30
0.000000
  70
    32
  0
VERTEX
  8
DIM
  5
A23
 10
11.4121
 20
3.21646
 30
0.000000
  70
    32
  0
VERTEX
  8
DIM
  5
A24
 10
11.3156
 20
3.21646
 30
0.000000
  70
    32
  0
VERTEX
  8
DIM
  5
A25
 10
11.2192
 20
3.21646
 30
0.000000
  70
    32
  0
VERTEX
  8
DIM
  5
A26
 10
11.1227
 20
3.21646
 30
0.000000
  70
    32
  0
VERTEX
  8
DIM
  5
A27
 10
11.0263
 20
3.21646
 30
0.000000
  70
    32
  0
VERTEX
  8
DIM
  5
A28
 10
10.9298
 20
3.21646
 30
0.000000
  70
    32
  0
VERTEX
  8
DIM
  5
A29
 10
10.8334
 20
3.21646
 30
0.000000
  70
    32
  0
VERTEX
  8
DIM
  5
A2A
 10
10.7370
 20
3.21646
 30
0.000000
  70
    32
  0
VERTEX
  8
DIM
  5
A2B
 10
10.6405
 20
3.21646
 30
0.000000
  70
    32
  0
VERTEX
  8
DIM
  5
A2C
 10
10.5441
 20
3.21646
 30
0.000000
  70
    32
  0
VERTEX
  8
DIM
  5
A2D
 10
10.4476
 20
3.21646
 30
0.000000
  70
    32
  0
VERTEX
  8
DIM
  5
A2E
 10
10.3512
 20
3.21646
 30
0.000000
  70
    32
  0
VERTEX
  8
DIM
  5
A2F
 10
10.2547
 20
3.21646
 30
0.000000
  70
    32
  0
VERTEX
  8
DIM
  5
A30
 10
10.1583
 20
3.21646
 30
0.000000
  70
    32
  0
VERTEX
  8
DIM
  5
A31
 10
10.0619
 20
3.21646
 30
0.000000
  70
    32
  0
VERTEX
  8
DIM
  5
A32
 10
9.96542
 20
3.21646
 30
0.000000
  70
    32
  0
VERTEX
  8
DIM
  5
A33
 10
9.86898
 20
3.21646
 30
0.000000
  70
    32
  0
VERTEX
  8
DIM
  5
A34
 10
9.77253
 20
3.21646
 30
0.000000
  70
    32
  0
VERTEX
  8
DIM
  5
A35
 10
9.67609
 20
3.21646
 30
0.000000
  70
    32
  0
VERTEX
  8
DIM
  5
A36
 10
9.57965
 20
3.21646
 30
0.000000
  70
    32
  0
VERTEX
  8
DIM
  5
A37
 10
9.48321
 20
3.21646
 30
0.000000
  70
    32
  0
VERTEX
  8
DIM
  5
A38
 10
9.38676
 20
3.21646
 30
0.000000
  70
    32
  0
VERTEX
  8
DIM
  5
A39
 10
9.29032
 20
3.21646
 30
0.000000
  70
    32
  0
VERTEX
  8
DIM
  5
A3A
 10
9.19388
 20
3.21646
 30
0.000000
  70
    32
  0
VERTEX
  8
DIM
  5
A3B
 10
9.09744
 20
3.21646
 30
0.000000
  70
    32
  0
VERTEX
  8
DIM
  5
A3C
 10
9.00099
 20
3.21646
 30
0.000000
  70
    32
  0
VERTEX
  8
DIM
  5
A3D
 10
8.90455
 20
3.21646
 30
0.000000
  70
    32
  0
VERTEX
  8
DIM
  5
A3E
 10
8.80811
 20
3.21646
 30
0.000000
  70
    32
  0
VERTEX
  8
DIM
  5
A3F
 10
8.71166
 20
3.21646
 30
0.000000
  70
    32
  0
VERTEX
  8
DIM
  5
A40
 10
8.61522
 20
3.21646
 30
0.000000
  70
    32
  0
VERTEX
  8
DIM
  5
A41
 10
8.51878
 20
3.21646
 30
0.000000
  70
    32
  0
VERTEX
  8
DIM
  5
A42
 10
8.42234
 20
3.21646
 30
0.000000
  70
    32
  0
VERTEX
  8
DIM
  5
A43
 10
8.32589
 20
3.21646
 30
0.000000
  70
    32
  0
VERTEX
  8
DIM
  5
A44
 10
8.22945
 20
3.21646
 30
0.000000
  70
    32
  0
VERTEX
  8
DIM
  5
A45
 10
8.13301
 20
3.21646
 30
0.000000
  70
    32
  0
VERTEX
  8
DIM
  5
A46
 10
8.03657
 20
3.21646
 30
0.000000
  70
    32
  0
VERTEX
  8
DIM
  5
A47
 10
7.94012
 20
3.21646
 30
0.000000
  70
    32
  0
VERTEX
  8
DIM
  5
A48
 10
7.84368
 20
3.21646
 30
0.000000
  70
    32
  0
VERTEX
  8
DIM
  5
A49
 10
7.74724
 20
3.21646
 30
0.000000
  70
    32
  0
VERTEX
  8
DIM
  5
A4A
 10
7.65080
 20
3.21646
 30
0.000000
  70
    32
  0
VERTEX
  8
DIM
  5
A4B
 10
7.55435
 20
3.21646
 30
0.000000
  70
    32
  0
VERTEX
  8
DIM
  5
A4C
 10
7.45791
 20
3.21646
 30
0.000000
  70
    32
  0
VERTEX
  8
DIM
  5
A4D
 10
7.36147
 20
3.21646
 30
0.000000
  70
    32
  0
VERTEX
  8
DIM
  5
A4E
 10
7.26502
 20
3.21646
 30
0.000000
  70
    32
  0
VERTEX
  8
DIM
  5
A4F
 10
7.16858
 20
3.21646
 30
0.000000
  70
    32
  0
VERTEX
  8
DIM
  5
A50
 10
7.07214
 20
3.21646
 30
0.000000
  70
    32
  0
VERTEX
  8
DIM
  5
A51
 10
6.97570
 20
3.21646
 30
0.000000
  70
    32
  0
VERTEX
  8
DIM
  5
A52
 10
6.87925
 20
3.21646
 30
0.000000
  70
    32
  0
VERTEX
  8
DIM
  5
A53
 10
6.78281
 20
3.21646
 30
0.000000
  70
    32
  0
VERTEX
  8
DIM
  5
A54
 10
6.68637
 20
3.21646
 30
0.000000
  70
    32
  0
VERTEX
  8
DIM
  5
A55
 10
6.58993
 20
3.21646
 30
0.000000
  70
    32
  0
VERTEX
  8
DIM
  5
A56
 10
6.49348
 20
3.21646
 30
0.000000
  70
    32
  0
VERTEX
  8
DIM
  5
A57
 10
6.39704
 20
3.21646
 30
0.000000
  70
    32
  0
VERTEX
  8
DIM
  5
A58
 10
6.30060
 20
3.21646
 30
0.000000
  70
    32
  0
VERTEX
  8
DIM
  5
A59
 10
6.20416
 20
3.21646
 30
0.000000
  70
    32
  0
VERTEX
  8
DIM
  5
A5A
 10
6.10771
 20
3.21646
 30
0.000000
  70
    32
  0
VERTEX
  8
DIM
  5
A5B
 10
6.01127
 20
3.21646
 30
0.000000
  70
    32
  0
VERTEX
  8
DIM
  5
A5C
 10
5.91483
 20
3.21646
 30
0.000000
  70
    32
  0
VERTEX
  8
DIM
  5
A5D
 10
5.81838
 20
3.21646
 30
0.000000
  70
    32
  0
SEQEND
  8
DIM
  5
A5E
  0
SOLID
  5
930
  8
DIM
 10
18.066603496734391
 20
3.8831312683466108
 30
0.0
 11
22.066603496734391
 21
3.2164646016799452
 31
0.0
 12
18.066603496734391
 22
2.5497979350132778
 32
0.0
 13
18.066603496734391
 23
2.5497979350132778
 33
0.0
  0
ENDBLK
  5
932
  8
0
  0
BLOCK
  8
0
  2
*U40
 70
     1
 10
0.0
 20
0.0
 30
0.0
  3
*U40
  1

  0
TEXT
  5
934
  8
DIM
 10
-23.375459416225439
 20
-18.333899618907711
 30
0.0
 40
4.0
  1
A
  0
POLYLINE
  8
DIM
  5
A5F
  66
     1
 10
0.000000
 20
0.000000
 30
0.000000
  70
     8
  0
VERTEX
  8
DIM
  5
A60
 10
-4.00000
 20
-16.3157
 30
0.000000
  70
    32
  0
VERTEX
  8
DIM
  5
A61
 10
-4.10740
 20
-16.3159
 30
0.000000
  70
    32
  0
VERTEX
  8
DIM
  5
A62
 10
-4.21480
 20
-16.3160
 30
0.000000
  70
    32
  0
VERTEX
  8
DIM
  5
A63
 10
-4.32220
 20
-16.3162
 30
0.000000
  70
    32
  0
VERTEX
  8
DIM
  5
A64
 10
-4.42961
 20
-16.3163
 30
0.000000
  70
    32
  0
VERTEX
  8
DIM
  5
A65
 10
-4.53701
 20
-16.3165
 30
0.000000
  70
    32
  0
VERTEX
  8
DIM
  5
A66
 10
-4.64441
 20
-16.3166
 30
0.000000
  70
    32
  0
VERTEX
  8
DIM
  5
A67
 10
-4.75181
 20
-16.3168
 30
0.000000
  70
    32
  0
VERTEX
  8
DIM
  5
A68
 10
-4.85922
 20
-16.3169
 30
0.000000
  70
    32
  0
VERTEX
  8
DIM
  5
A69
 10
-4.96662
 20
-16.3171
 30
0.000000
  70
    32
  0
VERTEX
  8
DIM
  5
A6A
 10
-5.07402
 20
-16.3173
 30
0.000000
  70
    32
  0
VERTEX
  8
DIM
  5
A6B
 10
-5.18142
 20
-16.3174
 30
0.000000
  70
    32
  0
VERTEX
  8
DIM
  5
A6C
 10
-5.28883
 20
-16.3176
 30
0.000000
  70
    32
  0
VERTEX
  8
DIM
  5
A6D
 10
-5.39623
 20
-16.3178
 30
0.000000
  70
    32
  0
VERTEX
  8
DIM
  5
A6E
 10
-5.50363
 20
-16.3179
 30
0.000000
  70
    32
  0
VERTEX
  8
DIM
  5
A6F
 10
-5.61104
 20
-16.3181
 30
0.000000
  70
    32
  0
VERTEX
  8
DIM
  5
A70
 10
-5.71844
 20
-16.3183
 30
0.000000
  70
    32
  0
VERTEX
  8
DIM
  5
A71
 10
-5.82584
 20
-16.3184
 30
0.000000
  70
    32
  0
VERTEX
  8
DIM
  5
A72
 10
-5.93324
 20
-16.3186
 30
0.000000
  70
    32
  0
VERTEX
  8
DIM
  5
A73
 10
-6.04065
 20
-16.3188
 30
0.000000
  70
    32
  0
VERTEX
  8
DIM
  5
A74
 10
-6.14805
 20
-16.3190
 30
0.000000
  70
    32
  0
VERTEX
  8
DIM
  5
A75
 10
-6.25545
 20
-16.3192
 30
0.000000
  70
    32
  0
VERTEX
  8
DIM
  5
A76
 10
-6.36285
 20
-16.3193
 30
0.000000
  70
    32
  0
VERTEX
  8
DIM
  5
A77
 10
-6.47026
 20
-16.3195
 30
0.000000
  70
    32
  0
VERTEX
  8
DIM
  5
A78
 10
-6.57766
 20
-16.3197
 30
0.000000
  70
    32
  0
VERTEX
  8
DIM
  5
A79
 10
-6.68506
 20
-16.3199
 30
0.000000
  70
    32
  0
VERTEX
  8
DIM
  5
A7A
 10
-6.79246
 20
-16.3201
 30
0.000000
  70
    32
  0
VERTEX
  8
DIM
  5
A7B
 10
-6.89987
 20
-16.3202
 30
0.000000
  70
    32
  0
VERTEX
  8
DIM
  5
A7C
 10
-7.00727
 20
-16.3204
 30
0.000000
  70
    32
  0
VERTEX
  8
DIM
  5
A7D
 10
-7.11467
 20
-16.3206
 30
0.000000
  70
    32
  0
VERTEX
  8
DIM
  5
A7E
 10
-7.22207
 20
-16.3208
 30
0.000000
  70
    32
  0
VERTEX
  8
DIM
  5
A7F
 10
-7.32948
 20
-16.3210
 30
0.000000
  70
    32
  0
VERTEX
  8
DIM
  5
A80
 10
-7.43688
 20
-16.3212
 30
0.000000
  70
    32
  0
VERTEX
  8
DIM
  5
A81
 10
-7.54428
 20
-16.3214
 30
0.000000
  70
    32
  0
VERTEX
  8
DIM
  5
A82
 10
-7.65168
 20
-16.3215
 30
0.000000
  70
    32
  0
VERTEX
  8
DIM
  5
A83
 10
-7.75909
 20
-16.3217
 30
0.000000
  70
    32
  0
VERTEX
  8
DIM
  5
A84
 10
-7.86649
 20
-16.3219
 30
0.000000
  70
    32
  0
VERTEX
  8
DIM
  5
A85
 10
-7.97389
 20
-16.3221
 30
0.000000
  70
    32
  0
VERTEX
  8
DIM
  5
A86
 10
-8.08129
 20
-16.3223
 30
0.000000
  70
    32
  0
VERTEX
  8
DIM
  5
A87
 10
-8.18870
 20
-16.3225
 30
0.000000
  70
    32
  0
VERTEX
  8
DIM
  5
A88
 10
-8.29610
 20
-16.3227
 30
0.000000
  70
    32
  0
VERTEX
  8
DIM
  5
A89
 10
-8.40350
 20
-16.3229
 30
0.000000
  70
    32
  0
VERTEX
  8
DIM
  5
A8A
 10
-8.51090
 20
-16.3231
 30
0.000000
  70
    32
  0
VERTEX
  8
DIM
  5
A8B
 10
-8.61831
 20
-16.3233
 30
0.000000
  70
    32
  0
VERTEX
  8
DIM
  5
A8C
 10
-8.72571
 20
-16.3235
 30
0.000000
  70
    32
  0
VERTEX
  8
DIM
  5
A8D
 10
-8.83311
 20
-16.3236
 30
0.000000
  70
    32
  0
VERTEX
  8
DIM
  5
A8E
 10
-8.94051
 20
-16.3238
 30
0.000000
  70
    32
  0
VERTEX
  8
DIM
  5
A8F
 10
-9.04792
 20
-16.3240
 30
0.000000
  70
    32
  0
VERTEX
  8
DIM
  5
A90
 10
-9.15532
 20
-16.3242
 30
0.000000
  70
    32
  0
VERTEX
  8
DIM
  5
A91
 10
-9.26272
 20
-16.3244
 30
0.000000
  70
    32
  0
VERTEX
  8
DIM
  5
A92
 10
-9.37012
 20
-16.3246
 30
0.000000
  70
    32
  0
VERTEX
  8
DIM
  5
A93
 10
-9.47753
 20
-16.3248
 30
0.000000
  70
    32
  0
VERTEX
  8
DIM
  5
A94
 10
-9.58493
 20
-16.3250
 30
0.000000
  70
    32
  0
VERTEX
  8
DIM
  5
A95
 10
-9.69233
 20
-16.3252
 30
0.000000
  70
    32
  0
VERTEX
  8
DIM
  5
A96
 10
-9.79973
 20
-16.3253
 30
0.000000
  70
    32
  0
VERTEX
  8
DIM
  5
A97
 10
-9.90714
 20
-16.3255
 30
0.000000
  70
    32
  0
VERTEX
  8
DIM
  5
A98
 10
-10.0145
 20
-16.3257
 30
0.000000
  70
    32
  0
VERTEX
  8
DIM
  5
A99
 10
-10.1219
 20
-16.3259
 30
0.000000
  70
    32
  0
VERTEX
  8
DIM
  5
A9A
 10
-10.2293
 20
-16.3261
 30
0.000000
  70
    32
  0
VERTEX
  8
DIM
  5
A9B
 10
-10.3367
 20
-16.3263
 30
0.000000
  70
    32
  0
VERTEX
  8
DIM
  5
A9C
 10
-10.4442
 20
-16.3265
 30
0.000000
  70
    32
  0
VERTEX
  8
DIM
  5
A9D
 10
-10.5516
 20
-16.3266
 30
0.000000
  70
    32
  0
VERTEX
  8
DIM
  5
A9E
 10
-10.6590
 20
-16.3268
 30
0.000000
  70
    32
  0
VERTEX
  8
DIM
  5
A9F
 10
-10.7664
 20
-16.3270
 30
0.000000
  70
    32
  0
VERTEX
  8
DIM
  5
AA0
 10
-10.8738
 20
-16.3272
 30
0.000000
  70
    32
  0
VERTEX
  8
DIM
  5
AA1
 10
-10.9812
 20
-16.3274
 30
0.000000
  70
    32
  0
VERTEX
  8
DIM
  5
AA2
 10
-11.0886
 20
-16.3275
 30
0.000000
  70
    32
  0
VERTEX
  8
DIM
  5
AA3
 10
-11.1960
 20
-16.3277
 30
0.000000
  70
    32
  0
VERTEX
  8
DIM
  5
AA4
 10
-11.3034
 20
-16.3279
 30
0.000000
  70
    32
  0
VERTEX
  8
DIM
  5
AA5
 10
-11.4108
 20
-16.3281
 30
0.000000
  70
    32
  0
VERTEX
  8
DIM
  5
AA6
 10
-11.5182
 20
-16.3282
 30
0.000000
  70
    32
  0
VERTEX
  8
DIM
  5
AA7
 10
-11.6256
 20
-16.3284
 30
0.000000
  70
    32
  0
VERTEX
  8
DIM
  5
AA8
 10
-11.7330
 20
-16.3286
 30
0.000000
  70
    32
  0
VERTEX
  8
DIM
  5
AA9
 10
-11.8404
 20
-16.3287
 30
0.000000
  70
    32
  0
VERTEX
  8
DIM
  5
AAA
 10
-11.9478
 20
-16.3289
 30
0.000000
  70
    32
  0
VERTEX
  8
DIM
  5
AAB
 10
-12.0552
 20
-16.3291
 30
0.000000
  70
    32
  0
VERTEX
  8
DIM
  5
AAC
 10
-12.1626
 20
-16.3292
 30
0.000000
  70
    32
  0
VERTEX
  8
DIM
  5
AAD
 10
-12.2700
 20
-16.3294
 30
0.000000
  70
    32
  0
VERTEX
  8
DIM
  5
AAE
 10
-12.3774
 20
-16.3295
 30
0.000000
  70
    32
  0
VERTEX
  8
DIM
  5
AAF
 10
-12.4848
 20
-16.3297
 30
0.000000
  70
    32
  0
VERTEX
  8
DIM
  5
AB0
 10
-12.5922
 20
-16.3298
 30
0.000000
  70
    32
  0
VERTEX
  8
DIM
  5
AB1
 10
-12.6996
 20
-16.3300
 30
0.000000
  70
    32
  0
VERTEX
  8
DIM
  5
AB2
 10
-12.8070
 20
-16.3301
 30
0.000000
  70
    32
  0
VERTEX
  8
DIM
  5
AB3
 10
-12.9144
 20
-16.3303
 30
0.000000
  70
    32
  0
VERTEX
  8
DIM
  5
AB4
 10
-13.0218
 20
-16.3304
 30
0.000000
  70
    32
  0
VERTEX
  8
DIM
  5
AB5
 10
-13.1292
 20
-16.3306
 30
0.000000
  70
    32
  0
VERTEX
  8
DIM
  5
AB6
 10
-13.2366
 20
-16.3307
 30
0.000000
  70
    32
  0
VERTEX
  8
DIM
  5
AB7
 10
-13.3440
 20
-16.3309
 30
0.000000
  70
    32
  0
VERTEX
  8
DIM
  5
AB8
 10
-13.4514
 20
-16.3310
 30
0.000000
  70
    32
  0
VERTEX
  8
DIM
  5
AB9
 10
-13.5588
 20
-16.3311
 30
0.000000
  70
    32
  0
VERTEX
  8
DIM
  5
ABA
 10
-13.6662
 20
-16.3313
 30
0.000000
  70
    32
  0
VERTEX
  8
DIM
  5
ABB
 10
-13.7736
 20
-16.3314
 30
0.000000
  70
    32
  0
VERTEX
  8
DIM
  5
ABC
 10
-13.8810
 20
-16.3315
 30
0.000000
  70
    32
  0
VERTEX
  8
DIM
  5
ABD
 10
-13.9884
 20
-16.3316
 30
0.000000
  70
    32
  0
VERTEX
  8
DIM
  5
ABE
 10
-14.0958
 20
-16.3318
 30
0.000000
  70
    32
  0
VERTEX
  8
DIM
  5
ABF
 10
-14.2032
 20
-16.3319
 30
0.000000
  70
    32
  0
VERTEX
  8
DIM
  5
AC0
 10
-14.3106
 20
-16.3320
 30
0.000000
  70
    32
  0
VERTEX
  8
DIM
  5
AC1
 10
-14.4180
 20
-16.3321
 30
0.000000
  70
    32
  0
VERTEX
  8
DIM
  5
AC2
 10
-14.5254
 20
-16.3322
 30
0.000000
  70
    32
  0
VERTEX
  8
DIM
  5
AC3
 10
-14.6329
 20
-16.3323
 30
0.000000
  70
    32
  0
VERTEX
  8
DIM
  5
AC4
 10
-14.7403
 20
-16.3324
 30
0.000000
  70
    32
  0
VERTEX
  8
DIM
  5
AC5
 10
-14.8477
 20
-16.3325
 30
0.000000
  70
    32
  0
VERTEX
  8
DIM
  5
AC6
 10
-14.9551
 20
-16.3326
 30
0.000000
  70
    32
  0
VERTEX
  8
DIM
  5
AC7
 10
-15.0625
 20
-16.3327
 30
0.000000
  70
    32
  0
VERTEX
  8
DIM
  5
AC8
 10
-15.1699
 20
-16.3328
 30
0.000000
  70
    32
  0
VERTEX
  8
DIM
  5
AC9
 10
-15.2773
 20
-16.3329
 30
0.000000
  70
    32
  0
VERTEX
  8
DIM
  5
ACA
 10
-15.3847
 20
-16.3330
 30
0.000000
  70
    32
  0
VERTEX
  8
DIM
  5
ACB
 10
-15.4921
 20
-16.3331
 30
0.000000
  70
    32
  0
VERTEX
  8
DIM
  5
ACC
 10
-15.5995
 20
-16.3331
 30
0.000000
  70
    32
  0
VERTEX
  8
DIM
  5
ACD
 10
-15.7069
 20
-16.3332
 30
0.000000
  70
    32
  0
VERTEX
  8
DIM
  5
ACE
 10
-15.8143
 20
-16.3333
 30
0.000000
  70
    32
  0
VERTEX
  8
DIM
  5
ACF
 10
-15.9217
 20
-16.3334
 30
0.000000
  70
    32
  0
VERTEX
  8
DIM
  5
AD0
 10
-16.0291
 20
-16.3334
 30
0.000000
  70
    32
  0
VERTEX
  8
DIM
  5
AD1
 10
-16.1365
 20
-16.3335
 30
0.000000
  70
    32
  0
VERTEX
  8
DIM
  5
AD2
 10
-16.2439
 20
-16.3335
 30
0.000000
  70
    32
  0
VERTEX
  8
DIM
  5
AD3
 10
-16.3513
 20
-16.3336
 30
0.000000
  70
    32
  0
VERTEX
  8
DIM
  5
AD4
 10
-16.4587
 20
-16.3336
 30
0.000000
  70
    32
  0
VERTEX
  8
DIM
  5
AD5
 10
-16.5661
 20
-16.3337
 30
0.000000
  70
    32
  0
VERTEX
  8
DIM
  5
AD6
 10
-16.6735
 20
-16.3337
 30
0.000000
  70
    32
  0
VERTEX
  8
DIM
  5
AD7
 10
-16.7809
 20
-16.3338
 30
0.000000
  70
    32
  0
VERTEX
  8
DIM
  5
AD8
 10
-16.8883
 20
-16.3338
 30
0.000000
  70
    32
  0
VERTEX
  8
DIM
  5
AD9
 10
-16.9957
 20
-16.3338
 30
0.000000
  70
    32
  0
VERTEX
  8
DIM
  5
ADA
 10
-17.1031
 20
-16.3338
 30
0.000000
  70
    32
  0
VERTEX
  8
DIM
  5
ADB
 10
-17.2105
 20
-16.3339
 30
0.000000
  70
    32
  0
VERTEX
  8
DIM
  5
ADC
 10
-17.3179
 20
-16.3339
 30
0.000000
  70
    32
  0
VERTEX
  8
DIM
  5
ADD
 10
-17.4253
 20
-16.3339
 30
0.000000
  70
    32
  0
VERTEX
  8
DIM
  5
ADE
 10
-17.5327
 20
-16.3339
 30
0.000000
  70
    32
  0
VERTEX
  8
DIM
  5
ADF
 10
-17.6401
 20
-16.3339
 30
0.000000
  70
    32
  0
SEQEND
  8
DIM
  5
AE0
  0
SOLID
  5
936
  8
DIM
 10
-4.0008844272193747
 20
-15.649065377871629
 30
0.0
 11
0.000000000000001
 21
-16.31040360032512
 31
0.0
 12
-3.9991084762735101
 22
-16.982397528453781
 32
0.0
 13
-3.9991084762735101
 23
-16.982397528453781
 33
0.0
  0
ENDBLK
  5
938
  8
0
  0
BLOCK
  8
0
  2
*U41
 70
     1
 10
0.0
 20
0.0
 30
0.0
  3
*U41
  1

  0
TEXT
  5
93A
  8
DIM
 62
     0
 10
-26.701314397528151
 20
-4.1004433833560681
 30
0.0
 40
2.5
  1
21,01
 50
90.0
  0
ENDBLK
  5
93C
  8
0
  0
BLOCK
  8
0
  2
*U42
 70
     1
 10
0.0
 20
0.0
 30
0.0
  3
*U42
  1

  0
TEXT
  5
93E
  8
DIM
 10
23.85884459363297
 20
14.80054674354006
 30
0.0
 40
2.5
  1
Angulo: 28
  0
LINE
  5
93F
  8
DIM
  6
BYBLOCK
 10
13.858844593632959
 20
15.6932820777829
 30
0.0
 11
21.85884459363297
 21
15.6932820777829
 31
0.0
  0
POLYLINE
  5
940
  8
DIM
  6
BYBLOCK
 66
     1
 10
0.0
 20
0.0
 30
0.0
  0
VERTEX
  5
941
  8
DIM
  6
BYBLOCK
 10
9.1024594695108636
 20
11.210262473273749
 30
0.0
  0
VERTEX
  5
942
  8
DIM
  6
BYBLOCK
 10
13.858844593632959
 20
15.6932820777829
 30
0.0
  0
SEQEND
  5
943
  8
DIM
  6
BYBLOCK
  0
SOLID
  5
944
  8
DIM
 10
9.5597164885484993
 20
10.72512284081186
 30
0.0
 11
6.1916216747395083
 21
8.4667203590479403
 31
0.0
 12
8.6452024504732279
 22
11.69540210573564
 32
0.0
 13
8.6452024504732279
 23
11.69540210573564
 33
0.0
  0
ENDBLK
  5
946
  8
0
  0
BLOCK
  8
0
  2
*U43
 70
     1
 10
0.0
 20
0.0
 30
0.0
  3
*U43
  1

  0
TEXT
  5
948
  8
DIM
 62
     0
 10
-4.3443042291950871
 20
-67.635500406537247
 30
0.0
 40
2.5
  1
22,28
  0
ENDBLK
  5
94A
  8
0
  0
BLOCK
  8
0
  2
*U44
 70
     1
 10
0.0
 20
0.0
 30
0.0
  3
*U44
  1

  0
TEXT
  5
94C
  8
DIM
 62
     0
 10
23.571934033157831
 20
-51.909959072305583
 30
0.0
 40
2.5
  1
20
 50
90.0
  0
ENDBLK
  5
94E
  8
0
  0
BLOCK
  8
0
  2
*U45
 70
     1
 10
0.0
 20
0.0
 30
0.0
  3
*U45
  1

  0
TEXT
  5
950
  8
DIM
 62
     0
 10
36.853295753273429
 20
-115.0130745113623
 30
0.0
 40
2.5
  1
4
 50
90.0
  0
ENDBLK
  5
952
  8
0
  0
BLOCK
  8
0
  2
*U46
 70
     1
 10
0.0
 20
0.0
 30
0.0
  3
*U46
  1

  0
TEXT
  5
954
  8
DIM
 62
     0
 10
22.951057298772159
 20
-103.6667302407762
 30
0.0
 40
2.5
  1
10
  0
ENDBLK
  5
956
  8
0
  0
BLOCK
  8
0
  2
*U47
 70
     1
 10
0.0
 20
0.0
 30
0.0
  3
*U47
  1

  0
TEXT
  5
958
  8
DIM
 62
     0
 10
-0.9745907230559389
 20
-122.74401629527939
 30
0.0
 40
2.5
  1
7
  0
ENDBLK
  5
95A
  8
0
  0
ENDSEC
  0
SECTION
  2
ENTITIES
  0
CIRCLE
  5
252
  8
E
 10
0.0
 20
0.0
 30
0.0
 40
11.1408
  0
CIRCLE
  5
253
  8
A
 10
0.0
 20
0.0
 30
0.0
 40
11.7775
  0
CIRCLE
  5
25E
  8
B
 10
0.0
 20
0.0
 30
0.0
 40
10.504200000000001
  0
CIRCLE
  5
262
  8
A
 10
0.0
 20
0.0
 30
0.0
 40
13.1408
  0
CIRCLE
  5
264
  8
A
 10
0.0
 20
0.0
 30
0.0
 40
6.5704000000000002
  0
LINE
  5
265
  8
E
 10
0.000000000000001
 20
16.212645626445919
 30
0.0
 11
0.000000000000001
 21
-16.31040360032512
 31
0.0
  0
LINE
  5
266
  8
E
 10
-18.466184387632889
 20
0.0000000000000023
 30
0.0
 11
16.88084530220112
 21
0.0000000000000023
 31
0.0
  0
INSERT
  5
267
  8
E
  2
*U23
 10
0.0
 20
0.0
 30
0.0
1001
ACAD_MLEADERVER
1070
     2
  0
LINE
  5
26C
  8
A
 10
52.140799999999992
 20
13.1408
 30
0.0
 11
53.140799999999977
 21
13.1408
 31
0.0
1001
ACAD
1000
ASC_BOUNDS
1002
{
1070
    19
1005
307
1002
}
  0
LINE
  5
26D
  8
A
 10
52.140799999999992
 20
-13.1408
 30
0.0
 11
53.140799999999992
 21
-13.1408
 31
0.0
1001
ACAD
1000
ASC_BOUNDS
1002
{
1070
    19
1005
307
1002
}
  0
LINE
  5
26E
  8
A
 10
53.140799999999977
 20
-11.7775
 30
0.0
 11
63.140799999999977
 21
-11.7775
 31
0.0
1001
ACAD
1000
ASC_BOUNDS
1002
{
1070
    19
1005
307
1002
}
  0
LINE
  5
26F
  8
A
 10
53.140799999999999
 20
11.7775
 30
0.0
 11
63.140799999999992
 21
11.7775
 31
0.0
1001
ACAD
1000
ASC_BOUNDS
1002
{
1070
    19
1005
307
1002
}
  0
LINE
  5
271
  8
A
 10
43.140799999999999
 20
-7.7698110355613599
 30
0.0
 11
43.140799999999999
 21
8.0000000000000018
 31
0.0
1001
ACAD
1000
ASC_BOUNDS
1002
{
1070
    19
1005
307
1005
307
1002
}
  0
CIRCLE
  5
273
  8
A
 10
0.0
 20
0.0000000000000023
 30
0.0
 40
5.8499999999999988
  0
CIRCLE
  5
274
  8
B
 10
0.0
 20
0.0000000000000023
 30
0.0
 40
8.0
  0
LINE
  5
275
  8
A
 10
43.140799999999992
 20
8.0000000000000018
 30
0.0
 11
52.140799999999999
 21
8.0000000000000018
 31
0.0
1001
ACAD
1000
ASC_BOUNDS
1002
{
1070
    19
1005
307
1002
}
  0
LINE
  5
276
  8
A
 10
43.140799999999992
 20
-7.769811035561359
 30
0.0
 11
52.140799999999999
 21
-7.769811035561359
 31
0.0
1001
ACAD
1000
ASC_BOUNDS
1002
{
1070
    19
1005
307
1002
}
  0
LINE
  5
277
  8
A
 10
53.140799999999992
 20
-13.1408
 30
0.0
 11
53.140799999999999
 21
-11.777499999999989
 31
0.0
1001
ACAD
1000
ASC_BOUNDS
1002
{
1070
    19
1005
307
1002
}
  0
LINE
  5
278
  8
A
 10
43.140799999999999
 20
6.5704000000000011
 30
0.0
 11
47.640799999999992
 21
6.5704000000000011
 31
0.0
1001
ACAD
1000
ASC_BOUNDS
1002
{
1070
    19
1005
307
1002
}
  0
LINE
  5
279
  8
A
 10
43.140799999999999
 20
-6.5704000000000002
 30
0.0
 11
47.640799999999992
 21
-6.5704000000000002
 31
0.0
1001
ACAD
1000
ASC_BOUNDS
1002
{
1070
    19
1005
307
1002
}
  0
LINE
  5
27F
  8
A
 10
48.640799999999999
 20
6.5704000000000011
 30
0.0
 11
48.640800000000013
 21
5.8500000000000014
 31
0.0
1001
ACAD
1000
ASC_BOUNDS
1002
{
1070
    19
1005
307
1002
}
  0
LINE
  5
280
  8
A
 10
47.640799999999992
 20
6.5704000000000011
 30
0.0
 11
47.640799999999999
 21
5.8500000000000014
 31
0.0
1001
ACAD
1000
ASC_BOUNDS
1002
{
1070
    19
1005
307
1002
}
  0
LINE
  5
281
  8
A
 10
47.640799999999992
 20
5.8500000000000014
 30
0.0
 11
48.640800000000013
 21
5.8500000000000014
 31
0.0
1001
ACAD
1000
ASC_BOUNDS
1002
{
1070
    19
1005
307
1002
}
  0
LINE
  5
283
  8
A
 10
47.640799999999992
 20
-5.8499999999999961
 30
0.0
 11
47.640799999999992
 21
-6.5704000000000002
 31
0.0
1001
ACAD
1000
ASC_BOUNDS
1002
{
1070
    19
1005
307
1002
}
  0
LINE
  5
284
  8
A
 10
48.640800000000013
 20
-5.8499999999999961
 30
0.0
 11
48.640800000000013
 21
-6.5704000000000002
 31
0.0
1001
ACAD
1000
ASC_BOUNDS
1002
{
1070
    19
1005
307
1002
}
  0
LINE
  5
287
  8
A
 10
47.640799999999977
 20
-5.8499999999999961
 30
0.0
 11
48.640800000000013
 21
-5.849999999999997
 31
0.0
1001
ACAD
1000
ASC_BOUNDS
1002
{
1070
    19
1005
307
1002
}
  0
LINE
  5
28B
  8
A
 10
48.640799999999999
 20
6.5704000000000011
 30
0.0
 11
63.140799999999992
 21
6.570399999999994
 31
0.0
1001
ACAD
1000
ASC_BOUNDS
1002
{
1070
    19
1005
307
1002
}
  0
LINE
  5
28C
  8
A
 10
48.640800000000013
 20
-6.5704000000000002
 30
0.0
 11
63.140799999999992
 21
-6.5703999999999967
 31
0.0
1001
ACAD
1000
ASC_BOUNDS
1002
{
1070
    19
1005
307
1002
}
  0
LINE
  5
28D
  8
A
 10
63.140799999999992
 20
-11.7775
 30
0.0
 11
63.140799999999992
 21
11.7775
 31
0.0
1001
ACAD
1000
ASC_BOUNDS
1002
{
1070
    19
1005
307
1005
307
1005
307
1005
307
1002
}
  0
LINE
  5
28E
  8
E
 10
51.140799999999992
 20
11.1408
 30
0.0
 11
65.140799999999984
 21
11.1408
 31
0.0
1001
ACAD
1000
ASC_BOUNDS
1002
{
1070
    19
1005
307
1002
}
  0
LINE
  5
28F
  8
E
 10
51.140799999999999
 20
-11.1408
 30
0.0
 11
65.140799999999984
 21
-11.1408
 31
0.0
1001
ACAD
1000
ASC_BOUNDS
1002
{
1070
    19
1005
307
1002
}
  0
LINE
  5
292
  8
A
 10
53.14079999999997
 20
11.7775
 30
0.0
 11
53.140799999999977
 21
13.1408
 31
0.0
1001
ACAD
1000
ASC_BOUNDS
1002
{
1070
    19
1005
307
1002
}
  0
LINE
  5
293
  8
A
 10
52.140799999999992
 20
8.0
 30
0.0
 11
52.140799999999992
 21
13.1408
 31
0.0
1001
ACAD
1000
ASC_BOUNDS
1002
{
1070
    19
1005
307
1005
307
1002
}
  0
LINE
  5
294
  8
A
 10
52.140799999999992
 20
-13.1408
 30
0.0
 11
52.140799999999999
 21
-7.7698110355613581
 31
0.0
1001
ACAD
1000
ASC_BOUNDS
1002
{
1070
    19
1005
307
1005
307
1002
}
  0
INSERT
  5
307
  8
DIM
  6
CONTINUOUS
  2
*X24
 10
0.0
 20
0.0
 30
0.0
1001
GRADIENTCOLOR1ACI
1070
     5
1001
GRADIENTCOLOR2ACI
1070
     2
1001
ACAD
1000
HATCH
1002
{
1070
    19
1000
ANSI31
1040
0.5
1040
0.0
1000
ASC_BOUNDS
1070
     4
1070
     1
1070
     6
1005
28D
1005
26E
1005
277
1005
26D
1005
294
1070
     1
1070
    10
1005
28D
1005
28F
1005
294
1005
276
1005
271
1005
279
1005
283
1005
287
1005
284
1005
28C
1070
     1
1070
    10
1005
28D
1005
28B
1005
27F
1005
281
1005
280
1005
278
1005
271
1005
275
1005
293
1070
     1
1070
     6
1005
292
1005
26F
1005
28D
1005
28E
1005
293
1005
26C
1000
ASC_SEEDPOINT
1011
52.557932779958719
1021
0.0
1031
0.0
1021
12.06691445992328
1031
0.0
1000
R14_HATCH_DATA
1000
307
1011
1.0
1021
0.0
1031
0.0
1021
0.0
1031
0.0
1011
0.0
1021
0.0
1031
0.0
1021
1.0
1031
0.0
1011
0.0
1021
0.0
1031
0.0
1021
0.0
1031
1.0
1040
0.0
1010
0.0
1020
0.0
1030
1.0
1000
ANSI31
1070
     0
1070
     1
1071
        4
1071
        7
1070
     0
1070
     1
1071
        6
1040
53.140799999999977
1040
13.1408
1040
52.140799999999992
1040
13.1408
1040
52.140799999999992
1040
11.1408
1040
63.140799999999992
1040
11.1408
1040
63.140799999999992
1040
11.7775
1040
53.14079999999997
1040
11.7775
1071
        6
1005
26C
1005
293
1005
28E
1005
28D
1005
26F
1005
292
1071
        7
1070
     0
1070
     1
1071
       10
1040
63.140799999999992
1040
11.1408
1040
52.140799999999992
1040
11.1408
1040
52.140799999999992
1040
8.0
1040
43.140799999999999
1040
8.0000000000000018
1040
43.140799999999999
1040
6.5704000000000011
1040
47.640799999999992
1040
6.5704000000000011
1040
47.640799999999999
1040
5.8500000000000014
1040
48.640800000000013
1040
5.8500000000000014
1040
48.640799999999999
1040
6.5704000000000002
1040
63.140799999999992
1040
6.570399999999994
1071
       10
1005
2E5
1005
293
1005
275
1005
271
1005
278
1005
280
1005
281
1005
27F
1005
28B
1005
28D
1071
        7
1070
     0
1070
     1
1071
       10
1040
63.140799999999992
1040
-6.5703999999999994
1040
48.640800000000013
1040
-6.570400000000002
1040
48.640800000000013
1040
-5.8500000000000014
1040
47.640799999999992
1040
-5.8500000000000014
1040
47.640799999999992
1040
-6.5703999999999994
1040
43.140799999999999
1040
-6.5703999999999949
1040
43.140799999999999
1040
-7.7698110355613599
1040
52.140799999999999
1040
-7.7698110355613599
1040
52.140799999999992
1040
-11.1408
1040
63.140799999999992
1040
-11.1408
1071
       10
1005
28C
1005
284
1005
287
1005
283
1005
279
1005
271
1005
276
1005
294
1005
28F
1005
28D
1071
        7
1070
     0
1070
     1
1071
        6
1040
63.140799999999977
1040
-11.14079999999999
1040
52.140799999999992
1040
-11.1408
1040
52.140799999999992
1040
-13.1408
1040
53.140799999999992
1040
-13.1408
1040
53.140799999999999
1040
-11.7775
1040
63.140799999999992
1040
-11.7775
1071
        6
1005
2FD
1005
294
1005
26D
1005
277
1005
26E
1005
28D
1070
     1
1070
     1
1040
0.0
1040
0.5
1070
     0
1070
     1
1040
0.7853981633974483
1040
0.0
1040
0.0
1040
-1.1225320151336431
1040
1.122532015133644
1070
     0
1040
0.0351089383472366
1071
        4
1040
52.557932779958719
1040
12.06691445992328
1040
0.0
1040
53.608284331048701
1040
8.9530355578735907
1040
0.0
1040
56.482471336046729
1040
-8.5617038237132874
1040
0.0
1040
52.688756230292711
1040
-11.736227417822191
1040
0.0
1002
}
  0
DIMENSION
  5
308
  8
DIM
  2
*D2
 10
80.837871884958076
 20
-11.7775
 30
0.0
 11
80.837871884958076
 21
0.0000000000000098
 31
0.0
 70
   128
 13
63.140799999999992
 23
11.7775
 33
0.0
 14
63.140799999999977
 24
-11.7775
 34
0.0
 50
90.0
  0
DIMENSION
  5
324
  8
DIM
  2
*D3
 10
70.871941182753289
 20
-6.5704000000000002
 30
0.0
 11
70.871941182753289
 21
0.0000000000000089
 31
0.0
 70
   128
 13
63.140799999999992
 23
6.570399999999994
 33
0.0
 14
63.140799999999992
 24
-6.5703999999999967
 34
0.0
 50
90.0
  0
DIMENSION
  5
34E
  8
DIM
  2
*D4
 10
38.77981213352723
 20
-5.8499999999999943
 30
0.0
 11
36.652424684686849
 21
0.0000000000000117
 31
0.0
 70
     0
 13
47.640799999999992
 23
5.8500000000000014
 33
0.0
 14
47.640799999999977
 24
-5.8499999999999961
 34
0.0
 50
90.0
  0
DIMENSION
  5
366
  8
DIM
  2
*D5
 10
48.640800000000013
 20
1.948344032781278
 30
0.0
 11
54.72623656207368
 21
3.8284599945820972
 31
0.0
 70
     0
 13
47.640799999999992
 23
5.8500000000000014
 33
0.0
 14
48.640800000000013
 24
5.8500000000000014
 34
0.0
  0
DIMENSION
  5
382
  8
DIM
  2
*D6
 10
53.140799999999977
 20
20.4394002228637
 30
0.0
 11
59.226236562073652
 21
22.319516184664511
 31
0.0
 70
     0
 13
52.140799999999992
 23
13.1408
 33
0.0
 14
53.140799999999977
 24
13.1408
 34
0.0
  0
DIMENSION
  5
39E
  8
DIM
  2
*D7
 10
88.098768324000048
 20
-13.140800000000009
 30
0.0
 11
85.971380875159667
 21
0.0000000000000055
 31
0.0
 70
     0
 13
53.140799999999977
 23
13.1408
 33
0.0
 14
53.140799999999992
 24
-13.1408
 34
0.0
 50
90.0
  0
DIMENSION
  5
3B6
  8
DIM
  2
*D8
 10
52.140799999999999
 20
-23.407417081176391
 30
0.0
 11
47.640799999999992
 21
-21.505984611872162
 31
0.0
 70
     0
 13
43.140799999999999
 23
-7.769811035561359
 33
0.0
 14
52.140799999999999
 24
-7.769811035561359
 34
0.0
  0
LINE
  5
3CF
  8
A
 10
13.1408
 20
-48.999999999999972
 30
0.0
 11
13.1408
 21
-49.999999999999972
 31
0.0
  0
LINE
  5
3D0
  8
A
 10
-13.14079999999999
 20
-48.999999999999972
 30
0.0
 11
-13.14079999999999
 21
-49.999999999999972
 31
0.0
  0
LINE
  5
3D1
  8
A
 10
-11.77749999999998
 20
-49.999999999999972
 30
0.0
 11
-11.7775
 21
-59.999999999999972
 31
0.0
  0
LINE
  5
3D2
  8
A
 10
11.7775
 20
-49.999999999999993
 30
0.0
 11
11.7775
 21
-59.999999999999972
 31
0.0
  0
LINE
  5
3D3
  8
A
 10
-7.769811035561359
 20
-40.0
 30
0.0
 11
8.0000000000000018
 21
-40.0
 31
0.0
  0
LINE
  5
3D4
  8
A
 10
-13.14079999999999
 20
-49.999999999999972
 30
0.0
 11
13.1408
 21
-50.000000000000242
 31
0.0
  0
LINE
  5
3D5
  8
A
 10
-13.14079999999999
 20
-48.999999999999972
 30
0.0
 11
13.1408
 21
-49.000000000000043
 31
0.0
  0
LINE
  5
3D8
  8
A
 10
-11.7775
 20
-59.999999999999972
 30
0.0
 11
11.7775
 21
-59.999999999999972
 31
0.0
  0
LINE
  5
3D9
  8
A
 10
8.0000000000000018
 20
-39.999999999999993
 30
0.0
 11
8.0000000000000018
 21
-48.999999999999979
 31
0.0
  0
LINE
  5
3DA
  8
A
 10
-7.769811035561359
 20
-39.999999999999993
 30
0.0
 11
-7.769811035561359
 21
-49.0
 31
0.0
  0
LINE
  5
3DC
  8
B
 10
6.5704000000000109
 20
-40.0
 30
0.0
 11
6.5703999999999931
 21
-59.999999999999972
 31
0.0
  0
LINE
  5
3DE
  8
B
 10
-6.5703999999999922
 20
-40.0
 30
0.0
 11
-6.5703999999999914
 21
-59.999999999999972
 31
0.0
  0
LINE
  5
3E5
  8
E
 10
11.1408
 20
-47.999999999999972
 30
0.0
 11
11.1408
 21
-61.999999999999972
 31
0.0
  0
LINE
  5
3E6
  8
E
 10
-11.14079999999999
 20
-47.999999999999979
 30
0.0
 11
-11.14079999999999
 21
-61.999999999999972
 31
0.0
  0
DIMENSION
  5
482
  8
DIM
  2
*D15
 10
11.1408
 20
-68.755043380616371
 30
0.0
 11
0.0000000000000019
 21
-66.62765593177599
 31
0.0
 70
     0
 13
-11.14079999999999
 23
-59.999999999999972
 33
0.0
 14
11.1408
 24
-59.999999999999972
 34
0.0
  0
DIMENSION
  5
49A
  8
DIM
  2
*D16
 10
24.239567048164641
 20
-59.999999999999979
 30
0.0
 11
22.338134578860419
 21
-49.999999999999993
 31
0.0
 70
     0
 13
8.0000000000000018
 23
-40.0
 33
0.0
 14
11.7775
 24
-59.999999999999972
 34
0.0
 50
90.0
  0
INSERT
  5
593
  8
E
  2
*U40
 10
0.0
 20
0.0
 30
0.0
1001
ACAD_MLEADERVER
1070
     2
  0
DIMENSION
  5
597
  8
DIM
  2
*D19
 10
-25.58177142344903
 20
-10.50419999999999
 30
0.0
 11
-27.709158872289411
 21
0.0000000000000036
 31
0.0
 70
     0
 13
0.0000000000000006
 23
10.504200000000001
 33
0.0
 14
0.000000000000001
 24
-10.504200000000001
 34
0.0
 50
90.0
  0
INSERT
  5
5CA
  8
E
  2
*U42
 10
0.0
 20
0.0
 30
0.0
1001
ACAD_MLEADERVER
1070
     2
  0
CIRCLE
  5
64A
  8
A
 10
-0.0000000000000039
 20
-114.1041386314168
 30
0.0
 40
3.501409999999999
  0
CIRCLE
  5
64B
  8
E
 10
-0.0000000000000039
 20
-114.1041386314168
 30
0.0
 40
3.1831
  0
CIRCLE
  5
64C
  8
A
 10
-0.0000000000000039
 20
-114.1041386314168
 30
0.0
 40
2.0
  0
LINE
  5
64D
  8
A
 10
20.0
 20
-110.6027286314168
 30
0.0
 11
30.0
 21
-110.6027286314168
 31
0.0
  0
LINE
  5
64E
  8
A
 10
20.0
 20
-117.6055486314168
 30
0.0
 11
30.0
 21
-117.6055486314168
 31
0.0
  0
LINE
  5
64F
  8
E
 10
-0.0000000000000039
 20
-108.7303564468252
 30
0.0
 11
-0.0000000000000039
 21
-119.7707624106374
 31
0.0
  0
LINE
  5
650
  8
E
 10
-6.0191518596566338
 20
-114.1041386314168
 30
0.0
 11
5.0289215117863888
 21
-114.1041386314168
 31
0.0
  0
LINE
  5
651
  8
A
 10
20.0
 20
-110.6027286314168
 30
0.0
 11
20.0
 21
-117.6055486314168
 31
0.0
  0
LINE
  5
652
  8
A
 10
30.0
 20
-110.6027286314168
 30
0.0
 11
30.0
 21
-117.6055486314168
 31
0.0
  0
LINE
  5
653
  8
B
 10
20.0
 20
-112.1041386314168
 30
0.0
 11
30.0
 21
-112.1041386314168
 31
0.0
  0
LINE
  5
654
  8
B
 10
20.0
 20
-116.1041386314168
 30
0.0
 11
30.0
 21
-116.1041386314168
 31
0.0
  0
DIMENSION
  5
655
  8
DIM
  2
*D20
 10
37.478295753273407
 20
-116.1041386314169
 30
0.0
 11
35.603295753273429
 21
-114.1041386314168
 31
0.0
 70
     0
 13
30.0
 23
-112.1041386314168
 33
0.0
 14
30.0
 24
-116.1041386314168
 34
0.0
 50
90.0
  0
DIMENSION
  5
671
  8
DIM
  2
*D21
 10
30.0
 20
-104.334363255783
 30
0.0
 11
25.0
 21
-102.43293078647881
 31
0.0
 70
     0
 13
20.0
 23
-110.6027286314168
 33
0.0
 14
30.0
 24
-110.6027286314168
 34
0.0
  0
DIMENSION
  5
689
  8
DIM
  2
*D22
 10
3.501409999999995
 20
-123.36901629527939
 30
0.0
 11
-0.0000000000000043
 21
-121.49401629527939
 31
0.0
 70
     0
 13
-3.501410000000003
 23
-114.1041386314168
 33
0.0
 14
3.501409999999995
 24
-114.1041386314168
 34
0.0
  0
LINE
  5
739
  8
E
 10
0.000000000000001
 20
-16.31040360032512
 30
0.0
 11
0.000000000000001
 21
-59.999999999999972
 31
0.0
  0
LINE
  5
786
  8
E
 10
18.879157010653209
 20
-110.92103863141681
 30
0.0
 11
31.358175602312262
 21
-110.92103863141681
 31
0.0
  0
LINE
  5
787
  8
E
 10
18.437170493560188
 20
-117.2872386314168
 30
0.0
 11
30.818791296369451
 21
-117.2872386314168
 31
0.0
  0
ENDSEC
  0
EOF
