  0
SECTION
  2
HEADER
  9
$ACADVER
  1
AC1009
  9
$INSBASE
 10
0.0
 20
0.0
 30
0.0
  9
$EXTMIN
 10
-33.145751013822981
 20
-0.0090630292066862
 30
-0.0015258207003583
  9
$EXTMAX
 10
128.00079409498821
 20
173.1080022562621
 30
0.0000000349246037
  9
$LIMMIN
 10
0.0
 20
0.0
  9
$LIMMAX
 10
420.0
 20
297.0
  9
$ORTHOMODE
 70
     1
  9
$REGENMODE
 70
     1
  9
$FILLMODE
 70
     1
  9
$QTEXTMODE
 70
     0
  9
$MIRRTEXT
 70
     0
  9
$DRAGMODE
 70
     2
  9
$LTSCALE
 40
1.0
  9
$OSMODE
 70
    39
  9
$ATTMODE
 70
     1
  9
$TEXTSIZE
 40
2.5
  9
$TRACEWID
 40
1.0
  9
$TEXTSTYLE
  7
STANDARD
  9
$CLAYER
  8
A
  9
$CELTYPE
  6
BYLAYER
  9
$CECOLOR
 62
   256
  9
$DIMSCALE
 40
1.0
  9
$DIMASZ
 40
2.5
  9
$DIMEXO
 40
0.625
  9
$DIMDLI
 40
3.75
  9
$DIMRND
 40
0.0
  9
$DIMDLE
 40
0.0
  9
$DIMEXE
 40
1.25
  9
$DIMTP
 40
0.0
  9
$DIMTM
 40
0.0
  9
$DIMTXT
 40
2.5
  9
$DIMCEN
 40
2.5
  9
$DIMTSZ
 40
0.0
  9
$DIMTOL
 70
     0
  9
$DIMLIM
 70
     0
  9
$DIMTIH
 70
     0
  9
$DIMTOH
 70
     0
  9
$DIMSE1
 70
     0
  9
$DIMSE2
 70
     0
  9
$DIMTAD
 70
     1
  9
$DIMZIN
 70
     8
  9
$DIMBLK
  1

  9
$DIMASO
 70
     1
  9
$DIMSHO
 70
     1
  9
$DIMPOST
  1

  9
$DIMAPOST
  1

  9
$DIMALT
 70
     0
  9
$DIMALTD
 70
     3
  9
$DIMALTF
 40
0.03937007874016
  9
$DIMLFAC
 40
1.0
  9
$DIMTOFL
 70
     1
  9
$DIMTVP
 40
0.0
  9
$DIMTIX
 70
     0
  9
$DIMSOXD
 70
     0
  9
$DIMSAH
 70
     0
  9
$DIMBLK1
  1

  9
$DIMBLK2
  1

  9
$DIMSTYLE
  2
ISO-25
  9
$DIMCLRD
 70
     0
  9
$DIMCLRE
 70
     0
  9
$DIMCLRT
 70
     0
  9
$DIMTFAC
 40
1.0
  9
$DIMGAP
 40
0.625
  9
$LUNITS
 70
     2
  9
$LUPREC
 70
     4
  9
$SKETCHINC
 40
1.0
  9
$FILLETRAD
 40
0.0
  9
$AUNITS
 70
     0
  9
$AUPREC
 70
     0
  9
$MENU
  1
.
  9
$ELEVATION
 40
0.0
  9
$PELEVATION
 40
0.0
  9
$THICKNESS
 40
0.0
  9
$LIMCHECK
 70
     0
  9
$BLIPMODE
 70
     0
  9
$CHAMFERA
 40
0.0
  9
$CHAMFERB
 40
0.0
  9
$SKPOLY
 70
     0
  9
$TDCREATE
 40
2457581.8876745952
  9
$TDUPDATE
 40
2457582.0106116091
  9
$TDINDWG
 40
0.1229385301
  9
$TDUSRTIMER
 40
0.1229385185
  9
$USRTIMER
 70
     1
  9
$ANGBASE
 50
0.0
  9
$ANGDIR
 70
     0
  9
$PDMODE
 70
     0
  9
$PDSIZE
 40
0.0
  9
$PLINEWID
 40
0.0
  9
$COORDS
 70
     1
  9
$SPLFRAME
 70
     0
  9
$SPLINETYPE
 70
     6
  9
$SPLINESEGS
 70
     8
  9
$ATTDIA
 70
     1
  9
$ATTREQ
 70
     1
  9
$HANDLING
 70
     1
  9
$HANDSEED
  5
8D2
  9
$SURFTAB1
 70
     6
  9
$SURFTAB2
 70
     6
  9
$SURFTYPE
 70
     6
  9
$SURFU
 70
     6
  9
$SURFV
 70
     6
  9
$UCSNAME
  2

  9
$UCSORG
 10
0.0
 20
0.0
 30
0.0
  9
$UCSXDIR
 10
1.0
 20
0.0
 30
0.0
  9
$UCSYDIR
 10
0.0
 20
1.0
 30
0.0
  9
$PUCSNAME
  2

  9
$PUCSORG
 10
0.0
 20
0.0
 30
0.0
  9
$PUCSXDIR
 10
1.0
 20
0.0
 30
0.0
  9
$PUCSYDIR
 10
0.0
 20
1.0
 30
0.0
  9
$USERI1
 70
     0
  9
$USERI2
 70
     0
  9
$USERI3
 70
     0
  9
$USERI4
 70
     0
  9
$USERI5
 70
     0
  9
$USERR1
 40
0.0
  9
$USERR2
 40
0.0
  9
$USERR3
 40
0.0
  9
$USERR4
 40
0.0
  9
$USERR5
 40
0.0
  9
$WORLDVIEW
 70
     1
  9
$SHADEDGE
 70
     3
  9
$SHADEDIF
 70
    70
  9
$TILEMODE
 70
     1
  9
$MAXACTVP
 70
    64
  9
$PLIMCHECK
 70
     0
  9
$PEXTMIN
 10
0.0
 20
0.0
 30
0.0
  9
$PEXTMAX
 10
0.0
 20
0.0
 30
0.0
  9
$PLIMMIN
 10
0.0
 20
0.0
  9
$PLIMMAX
 10
12.0
 20
9.0
  9
$UNITMODE
 70
     0
  9
$VISRETAIN
 70
     1
  9
$PLINEGEN
 70
     0
  9
$PSLTSCALE
 70
     1
  0
ENDSEC
  0
SECTION
  2
TABLES
  0
TABLE
  2
VPORT
 70
     1
  0
VPORT
  2
*ACTIVE
 70
     0
 10
0.0
 20
0.0
 11
1.0
 21
1.0
 12
149.57644459413879
 22
76.623586944935596
 13
0.0
 23
0.0
 14
10.0
 24
10.0
 15
10.0
 25
10.0
 16
0.0
 26
0.0
 36
1.0
 17
0.0
 27
0.0
 37
0.0
 40
295.52480140826083
 41
2.315403422982885
 42
50.0
 43
0.0
 44
0.0
 50
0.0
 51
0.0
 71
     0
 72
  1000
 73
     1
 74
     3
 75
     0
 76
     1
 77
     0
 78
     0
  0
ENDTAB
  0
TABLE
  2
LTYPE
 70
     4
  0
LTYPE
  2
CONTINUOUS
 70
     0
  3
Solid line
 72
    65
 73
     0
 40
0.0
  0
LTYPE
  2
DASHED2
 70
     0
  3
Dashed (.5x) _ _ _ _ _ _ _ _ _ _ _ _ _ _ _ _ _
 72
    65
 73
     2
 40
9.5249999999999986
 49
6.3499999999999988
 49
-3.1749999999999989
  0
LTYPE
  2
CENTER2
 70
     0
  3
Center (.5x) ___ _ ___ _ ___ _ ___ _ ___ _ ___
 72
    65
 73
     4
 40
28.574999999999999
 49
19.050000000000001
 49
-3.1749999999999989
 49
3.1749999999999989
 49
-3.1749999999999989
  0
ENDTAB
  0
TABLE
  2
LAYER
 70
     8
  0
LAYER
  2
0
 70
     0
 62
     7
  6
CONTINUOUS
  0
LAYER
  2
DEFPOINTS
 70
     0
 62
     7
  6
CONTINUOUS
  0
LAYER
  2
A
 70
     0
 62
    10
  6
CONTINUOUS
  0
LAYER
  2
B
 70
     0
 62
    30
  6
DASHED2
  0
LAYER
  2
E
 70
     0
 62
    82
  6
CENTER2
  0
LAYER
  2
DIM
 70
     0
 62
   152
  6
CONTINUOUS
  0
ENDTAB
  0
TABLE
  2
STYLE
 70
     5
  0
STYLE
  2
STANDARD
 70
     0
 40
0.0
 41
1.0
 50
0.0
 71
     0
 42
2.5
  3
txt
  4

  0
STYLE
  2
ANNOTATIVE
 70
     0
 40
0.0
 41
1.0
 50
0.0
 71
     0
 42
2.5
  3
txt
  4

  0
STYLE
  2

 70
     1
 40
0.0
 41
1.0
 50
0.0
 71
     0
 42
2.5
  3
ltypeshp.shx
  4

  0
ENDTAB
  0
TABLE
  2
VIEW
 70
     3
  0
ENDTAB
  0
TABLE
  2
UCS
 70
     0
  0
ENDTAB
  0
TABLE
  2
APPID
 70
    12
  0
APPID
  2
ACAD
 70
     0
  0
APPID
  2
ACAD_PSEXT
 70
     0
  0
APPID
  2
ACADANNOPO
 70
     0
  0
APPID
  2
ACADANNOTATIVE
 70
     0
  0
APPID
  2
ACAD_DSTYLE_DIMJAG
 70
     0
  0
APPID
  2
ACAD_DSTYLE_DIMTALN
 70
     0
  0
APPID
  2
ACAD_MLEADERVER
 70
     0
  0
APPID
  2
ACAD_NAV_VCDISPLAY
 70
     0
  0
APPID
  2
ACAD_EXEMPT_FROM_CAD_STANDARDS
 70
     0
  0
APPID
  2
ACAECLAYERSTANDARD
 70
     0
  0
APPID
  2
ACCMTRANSPARENCY
 70
     0
  0
APPID
  2
ACAD_DSTYLE_DIMRADIAL_EXTENSION
 70
     0
  0
ENDTAB
  0
TABLE
  2
DIMSTYLE
 70
     6
  0
DIMSTYLE
  2
STANDARD
 70
     0
  3

  4

  5

  6

  7

 40
1.0
 41
0.18
 42
0.0625
 43
0.38
 44
0.18
 45
0.0
 46
0.0
 47
0.0
 48
0.0
140
0.18
141
0.09
142
0.0
143
25.399999999999999
144
1.0
145
0.0
146
1.0
147
0.09
 71
     0
 72
     0
 73
     1
 74
     1
 75
     0
 76
     0
 77
     0
 78
     0
170
     0
171
     2
172
     0
173
     0
174
     0
175
     0
176
     0
177
     0
178
     0
  0
DIMSTYLE
  2
ANNOTATIVE
 70
     0
  3

  4

  5

  6

  7

 40
0.0
 41
2.5
 42
0.625
 43
3.75
 44
1.25
 45
0.0
 46
0.0
 47
0.0
 48
0.0
140
2.5
141
2.5
142
0.0
143
0.03937007874016
144
1.0
145
0.0
146
1.0
147
0.625
 71
     0
 72
     0
 73
     0
 74
     0
 75
     0
 76
     0
 77
     1
 78
     8
170
     0
171
     3
172
     1
173
     0
174
     0
175
     0
176
     0
177
     0
178
     0
  0
DIMSTYLE
  2
ISO-25
 70
     0
  3

  4

  5

  6

  7

 40
1.0
 41
2.5
 42
0.625
 43
3.75
 44
1.25
 45
0.0
 46
0.0
 47
0.0
 48
0.0
140
2.5
141
2.5
142
0.0
143
0.03937007874016
144
1.0
145
0.0
146
1.0
147
0.625
 71
     0
 72
     0
 73
     0
 74
     0
 75
     0
 76
     0
 77
     1
 78
     8
170
     0
171
     3
172
     1
173
     0
174
     0
175
     0
176
     0
177
     0
178
     0
  0
ENDTAB
  0
ENDSEC
  0
SECTION
  2
BLOCKS
  0
BLOCK
  8
0
  2
$MODEL_SPACE
 70
     0
 10
0.0
 20
0.0
 30
0.0
  3
$MODEL_SPACE
  1

  0
ENDBLK
  5
21
  8
0
  0
BLOCK
 67
     1
  8
0
  2
$PAPER_SPACE
 70
     0
 10
0.0
 20
0.0
 30
0.0
  3
$PAPER_SPACE
  1

  0
ENDBLK
  5
D5
 67
     1
  8
0
  0
BLOCK
  8
0
  2
*D2
 70
     1
 10
0.0
 20
0.0
 30
0.0
  3
*D2
  1

  0
LINE
  5
72D
  8
DIM
 62
     0
 10
0.0
 20
92.375
 30
0.0
 11
-0.0000000000000009
 21
77.595969315102593
 31
0.0
  0
LINE
  5
72E
  8
DIM
 62
     0
 10
35.0
 20
92.375
 30
0.0
 11
35.0
 21
77.595969315102593
 31
0.0
  0
LINE
  5
72F
  8
DIM
 62
     0
 10
2.4999999999999991
 20
78.845969315102593
 30
0.0
 11
32.5
 21
78.845969315102593
 31
0.0
  0
SOLID
  5
730
  8
DIM
 62
     0
 10
2.4999999999999991
 20
79.262635981769265
 30
0.0
 11
2.4999999999999991
 21
78.429302648435922
 31
0.0
 12
-0.0000000000000009
 22
78.845969315102593
 32
0.0
 13
-0.0000000000000009
 23
78.845969315102593
 33
0.0
  0
SOLID
  5
731
  8
DIM
 62
     0
 10
32.5
 20
79.262635981769265
 30
0.0
 11
32.5
 21
78.429302648435922
 31
0.0
 12
35.0
 22
78.845969315102593
 32
0.0
 13
35.0
 23
78.845969315102593
 33
0.0
  0
INSERT
  5
732
  8
A
  2
*U49
 10
0.0
 20
0.0
 30
0.0
  0
POINT
  5
733
  8
DEFPOINTS
 62
     0
 10
0.0
 20
93.0
 30
0.0
  0
POINT
  5
734
  8
DEFPOINTS
 62
     0
 10
35.0
 20
93.0
 30
0.0
  0
POINT
  5
735
  8
DEFPOINTS
 62
     0
 10
35.0
 20
78.845969315102593
 30
0.0
  0
ENDBLK
  5
265
  8
0
  0
BLOCK
  8
0
  2
*D3
 70
     1
 10
0.0
 20
0.0
 30
0.0
  3
*D3
  1

  0
LINE
  5
297
  8
0
 62
     0
 10
7.5
 20
65.625
 30
0.0
 11
7.5
 21
74.295754113292773
 31
0.0
  0
LINE
  5
298
  8
0
 62
     0
 10
27.5
 20
65.625
 30
0.0
 11
27.5
 21
74.295754113292773
 31
0.0
  0
LINE
  5
299
  8
0
 62
     0
 10
10.0
 20
73.045754113292773
 30
0.0
 11
25.0
 21
73.045754113292773
 31
0.0
  0
SOLID
  5
29A
  8
0
 62
     0
 10
10.0
 20
73.462420779959444
 30
0.0
 11
10.0
 21
72.629087446626116
 31
0.0
 12
7.5
 22
73.045754113292773
 32
0.0
 13
7.5
 23
73.045754113292773
 33
0.0
  0
SOLID
  5
29B
  8
0
 62
     0
 10
25.0
 20
73.462420779959444
 30
0.0
 11
25.0
 21
72.629087446626116
 31
0.0
 12
27.5
 22
73.045754113292773
 32
0.0
 13
27.5
 23
73.045754113292773
 33
0.0
  0
INSERT
  5
29C
  8
A
  2
*U35
 10
0.0
 20
0.0
 30
0.0
  0
POINT
  5
29D
  8
DEFPOINTS
 62
     0
 10
7.5
 20
65.0
 30
0.0
  0
POINT
  5
29E
  8
DEFPOINTS
 62
     0
 10
27.5
 20
65.0
 30
0.0
  0
POINT
  5
29F
  8
DEFPOINTS
 62
     0
 10
27.5
 20
73.045754113292773
 30
0.0
  0
ENDBLK
  5
28C
  8
0
  0
BLOCK
  8
0
  2
*D4
 70
     1
 10
0.0
 20
0.0
 30
0.0
  3
*D4
  1

  0
LINE
  5
32B
  8
0
 62
     0
 10
7.9550000000000001
 20
50.625
 30
0.0
 11
7.955000000000001
 21
72.669556129721059
 31
0.0
  0
LINE
  5
32C
  8
0
 62
     0
 10
27.045000000000002
 20
50.625
 30
0.0
 11
27.045000000000002
 21
72.669556129721059
 31
0.0
  0
LINE
  5
32D
  8
0
 62
     0
 10
10.455
 20
71.419556129721059
 30
0.0
 11
24.545000000000002
 21
71.419556129721059
 31
0.0
  0
SOLID
  5
32E
  8
0
 62
     0
 10
10.455
 20
71.83622279638773
 30
0.0
 11
10.455
 21
71.002889463054387
 31
0.0
 12
7.9550000000000001
 22
71.419556129721059
 32
0.0
 13
7.9550000000000001
 23
71.419556129721059
 33
0.0
  0
SOLID
  5
32F
  8
0
 62
     0
 10
24.545000000000002
 20
71.83622279638773
 30
0.0
 11
24.545000000000002
 21
71.002889463054387
 31
0.0
 12
27.045000000000002
 22
71.419556129721059
 32
0.0
 13
27.045000000000002
 23
71.419556129721059
 33
0.0
  0
INSERT
  5
330
  8
A
  2
*U37
 10
0.0
 20
0.0
 30
0.0
  0
POINT
  5
331
  8
DEFPOINTS
 62
     0
 10
7.9550000000000001
 20
50.0
 30
0.0
  0
POINT
  5
332
  8
DEFPOINTS
 62
     0
 10
27.045000000000002
 20
50.0
 30
0.0
  0
POINT
  5
333
  8
DEFPOINTS
 62
     0
 10
27.045000000000002
 20
71.419556129721059
 30
0.0
  0
ENDBLK
  5
2B4
  8
0
  0
BLOCK
  8
0
  2
*D5
 70
     1
 10
0.0
 20
0.0
 30
0.0
  3
*D5
  1

  0
LINE
  5
431
  8
0
 62
     0
 10
25.399999999999999
 20
50.625
 30
0.0
 11
25.399999999999999
 21
67.115581970439052
 31
0.0
  0
LINE
  5
432
  8
0
 62
     0
 10
25.399999999999999
 20
50.625
 30
0.0
 11
25.399999999999999
 21
67.115581970439052
 31
0.0
  0
LINE
  5
433
  8
0
 62
     0
 10
22.899999999999999
 20
65.865581970439052
 30
0.0
 11
20.399999999999999
 21
65.865581970439052
 31
0.0
  0
LINE
  5
434
  8
0
 62
     0
 10
27.899999999999999
 20
65.865581970439052
 30
0.0
 11
33.280286493860842
 21
65.865581970439052
 31
0.0
  0
SOLID
  5
435
  8
0
 62
     0
 10
22.899999999999999
 20
66.282248637105724
 30
0.0
 11
22.899999999999999
 21
65.448915303772381
 31
0.0
 12
25.399999999999999
 22
65.865581970439052
 32
0.0
 13
25.399999999999999
 23
65.865581970439052
 33
0.0
  0
SOLID
  5
436
  8
0
 62
     0
 10
27.899999999999999
 20
66.282248637105724
 30
0.0
 11
27.899999999999999
 21
65.448915303772381
 31
0.0
 12
25.399999999999999
 22
65.865581970439052
 32
0.0
 13
25.399999999999999
 23
65.865581970439052
 33
0.0
  0
INSERT
  5
437
  8
A
  2
*U43
 10
0.0
 20
0.0
 30
0.0
  0
POINT
  5
438
  8
DEFPOINTS
 62
     0
 10
25.399999999999999
 20
50.0
 30
0.0
  0
POINT
  5
439
  8
DEFPOINTS
 62
     0
 10
25.399999999999999
 20
50.0
 30
0.0
  0
POINT
  5
43A
  8
DEFPOINTS
 62
     0
 10
25.399999999999999
 20
65.865581970439052
 30
0.0
  0
ENDBLK
  5
2CC
  8
0
  0
BLOCK
  8
0
  2
*D6
 70
     1
 10
0.0
 20
0.0
 30
0.0
  3
*D6
  1

  0
LINE
  5
2EF
  8
0
 62
     0
 10
35.625
 20
50.0
 30
0.0
 11
56.179102785399678
 21
50.0
 31
0.0
  0
LINE
  5
2F0
  8
0
 62
     0
 10
35.625
 20
-0.0000000000000002
 30
0.0
 11
56.179102785399657
 21
-0.000000000000006
 31
0.0
  0
LINE
  5
2F1
  8
0
 62
     0
 10
54.929102785399671
 20
47.499999999999993
 30
0.0
 11
54.929102785399657
 21
2.4999999999999938
 31
0.0
  0
SOLID
  5
2F2
  8
0
 62
     0
 10
54.512436118733007
 20
47.499999999999993
 30
0.0
 11
55.345769452066342
 21
47.499999999999993
 31
0.0
 12
54.929102785399678
 22
50.0
 32
0.0
 13
54.929102785399678
 23
50.0
 33
0.0
  0
SOLID
  5
2F3
  8
0
 62
     0
 10
54.512436118733
 20
2.4999999999999938
 30
0.0
 11
55.345769452066328
 21
2.4999999999999938
 31
0.0
 12
54.929102785399657
 22
-0.0000000000000056
 32
0.0
 13
54.929102785399657
 23
-0.0000000000000056
 33
0.0
  0
INSERT
  5
2F4
  8
A
  2
*U36
 10
0.0
 20
0.0
 30
0.0
  0
POINT
  5
2F5
  8
DEFPOINTS
 62
     0
 10
35.0
 20
50.0
 30
0.0
  0
POINT
  5
2F6
  8
DEFPOINTS
 62
     0
 10
35.0
 20
0.0
 30
0.0
  0
POINT
  5
2F7
  8
DEFPOINTS
 62
     0
 10
54.929102785399657
 20
-0.0000000000000056
 30
0.0
  0
ENDBLK
  5
2E4
  8
0
  0
BLOCK
  8
0
  2
*D7
 70
     1
 10
0.0
 20
0.0
 30
0.0
  3
*D7
  1

  0
LINE
  5
48C
  8
DIM
 62
     0
 10
6.5
 20
19.375
 30
0.0
 11
6.5
 21
12.883283206132541
 31
0.0
  0
LINE
  5
48D
  8
DIM
 62
     0
 10
28.5
 20
19.375
 30
0.0
 11
28.5
 21
12.883283206132541
 31
0.0
  0
LINE
  5
48E
  8
DIM
 62
     0
 10
9.0
 20
14.133283206132541
 30
0.0
 11
26.0
 21
14.133283206132541
 31
0.0
  0
SOLID
  5
48F
  8
DIM
 62
     0
 10
9.0
 20
14.54994987279921
 30
0.0
 11
9.0
 21
13.71661653946588
 31
0.0
 12
6.5
 22
14.133283206132541
 32
0.0
 13
6.5
 23
14.133283206132541
 33
0.0
  0
SOLID
  5
490
  8
DIM
 62
     0
 10
26.0
 20
14.54994987279921
 30
0.0
 11
26.0
 21
13.71661653946588
 31
0.0
 12
28.5
 22
14.133283206132541
 32
0.0
 13
28.5
 23
14.133283206132541
 33
0.0
  0
INSERT
  5
491
  8
A
  2
*U45
 10
0.0
 20
0.0
 30
0.0
  0
POINT
  5
492
  8
DEFPOINTS
 62
     0
 10
6.5
 20
20.0
 30
0.0
  0
POINT
  5
493
  8
DEFPOINTS
 62
     0
 10
28.5
 20
20.0
 30
0.0
  0
POINT
  5
494
  8
DEFPOINTS
 62
     0
 10
28.5
 20
14.133283206132541
 30
0.0
  0
ENDBLK
  5
2FC
  8
0
  0
BLOCK
  8
0
  2
*D8
 70
     1
 10
0.0
 20
0.0
 30
0.0
  3
*D8
  1

  0
LINE
  5
736
  8
DIM
 62
     0
 10
7.5
 20
92.375
 30
0.0
 11
7.5
 21
86.615336904022115
 31
0.0
  0
LINE
  5
737
  8
DIM
 62
     0
 10
27.5
 20
92.375
 30
0.0
 11
27.5
 21
86.615336904022115
 31
0.0
  0
LINE
  5
738
  8
DIM
 62
     0
 10
10.0
 20
87.865336904022115
 30
0.0
 11
25.0
 21
87.865336904022115
 31
0.0
  0
SOLID
  5
739
  8
DIM
 62
     0
 10
10.0
 20
88.282003570688786
 30
0.0
 11
10.0
 21
87.448670237355444
 31
0.0
 12
7.5
 22
87.865336904022115
 32
0.0
 13
7.5
 23
87.865336904022115
 33
0.0
  0
SOLID
  5
73A
  8
DIM
 62
     0
 10
25.0
 20
88.282003570688786
 30
0.0
 11
25.0
 21
87.448670237355444
 31
0.0
 12
27.5
 22
87.865336904022115
 32
0.0
 13
27.5
 23
87.865336904022115
 33
0.0
  0
INSERT
  5
73B
  8
A
  2
*U50
 10
0.0
 20
0.0
 30
0.0
  0
POINT
  5
73C
  8
DEFPOINTS
 62
     0
 10
7.5
 20
93.0
 30
0.0
  0
POINT
  5
73D
  8
DEFPOINTS
 62
     0
 10
27.5
 20
93.0
 30
0.0
  0
POINT
  5
73E
  8
DEFPOINTS
 62
     0
 10
27.5
 20
87.865336904022115
 30
0.0
  0
ENDBLK
  5
314
  8
0
  0
BLOCK
  8
0
  2
*D9
 70
     1
 10
0.0
 20
0.0
 30
0.0
  3
*D9
  1

  0
LINE
  5
349
  8
0
 62
     0
 10
2.5
 20
62.625
 30
0.0
 11
2.5
 21
78.026327184684305
 31
0.0
  0
LINE
  5
34A
  8
0
 62
     0
 10
32.5
 20
62.625
 30
0.0
 11
32.5
 21
78.026327184684305
 31
0.0
  0
LINE
  5
34B
  8
0
 62
     0
 10
5.0
 20
76.776327184684305
 30
0.0
 11
30.0
 21
76.776327184684305
 31
0.0
  0
SOLID
  5
34C
  8
0
 62
     0
 10
5.0
 20
77.192993851350977
 30
0.0
 11
5.0
 21
76.359660518017634
 31
0.0
 12
2.5
 22
76.776327184684305
 32
0.0
 13
2.5
 23
76.776327184684305
 33
0.0
  0
SOLID
  5
34D
  8
0
 62
     0
 10
30.0
 20
77.192993851350977
 30
0.0
 11
30.0
 21
76.359660518017634
 31
0.0
 12
32.5
 22
76.776327184684305
 32
0.0
 13
32.5
 23
76.776327184684305
 33
0.0
  0
INSERT
  5
34E
  8
A
  2
*U38
 10
0.0
 20
0.0
 30
0.0
  0
POINT
  5
34F
  8
DEFPOINTS
 62
     0
 10
2.5
 20
62.0
 30
0.0
  0
POINT
  5
350
  8
DEFPOINTS
 62
     0
 10
32.5
 20
62.0
 30
0.0
  0
POINT
  5
351
  8
DEFPOINTS
 62
     0
 10
32.5
 20
76.776327184684305
 30
0.0
  0
ENDBLK
  5
33E
  8
0
  0
BLOCK
  8
0
  2
*D10
 70
     1
 10
0.0
 20
0.0
 30
0.0
  3
*D10
  1

  0
LINE
  5
363
  8
0
 62
     0
 10
5.5
 20
62.625
 30
0.0
 11
5.5
 21
77.782840531183865
 31
0.0
  0
LINE
  5
364
  8
0
 62
     0
 10
29.5
 20
62.625
 30
0.0
 11
29.5
 21
77.782840531183865
 31
0.0
  0
LINE
  5
365
  8
0
 62
     0
 10
8.0
 20
76.532840531183865
 30
0.0
 11
27.0
 21
76.532840531183865
 31
0.0
  0
SOLID
  5
366
  8
0
 62
     0
 10
8.0
 20
76.949507197850536
 30
0.0
 11
8.0
 21
76.116173864517194
 31
0.0
 12
5.5
 22
76.532840531183865
 32
0.0
 13
5.5
 23
76.532840531183865
 33
0.0
  0
SOLID
  5
367
  8
0
 62
     0
 10
27.0
 20
76.949507197850536
 30
0.0
 11
27.0
 21
76.116173864517194
 31
0.0
 12
29.5
 22
76.532840531183865
 32
0.0
 13
29.5
 23
76.532840531183865
 33
0.0
  0
INSERT
  5
368
  8
A
  2
*U39
 10
0.0
 20
0.0
 30
0.0
  0
POINT
  5
369
  8
DEFPOINTS
 62
     0
 10
5.5
 20
62.0
 30
0.0
  0
POINT
  5
36A
  8
DEFPOINTS
 62
     0
 10
29.5
 20
62.0
 30
0.0
  0
POINT
  5
36B
  8
DEFPOINTS
 62
     0
 10
29.5
 20
76.532840531183865
 30
0.0
  0
ENDBLK
  5
358
  8
0
  0
BLOCK
  8
0
  2
*D11
 70
     1
 10
0.0
 20
0.0
 30
0.0
  3
*D11
  1

  0
LINE
  5
37B
  8
0
 62
     0
 10
6.5
 20
62.625
 30
0.0
 11
6.5
 21
75.672625023448745
 31
0.0
  0
LINE
  5
37C
  8
0
 62
     0
 10
28.5
 20
62.625
 30
0.0
 11
28.5
 21
75.672625023448745
 31
0.0
  0
LINE
  5
37D
  8
0
 62
     0
 10
9.0
 20
74.422625023448745
 30
0.0
 11
26.0
 21
74.422625023448745
 31
0.0
  0
SOLID
  5
37E
  8
0
 62
     0
 10
9.0
 20
74.839291690115417
 30
0.0
 11
9.0
 21
74.005958356782074
 31
0.0
 12
6.5
 22
74.422625023448745
 32
0.0
 13
6.5
 23
74.422625023448745
 33
0.0
  0
SOLID
  5
37F
  8
0
 62
     0
 10
26.0
 20
74.839291690115417
 30
0.0
 11
26.0
 21
74.005958356782074
 31
0.0
 12
28.5
 22
74.422625023448745
 32
0.0
 13
28.5
 23
74.422625023448745
 33
0.0
  0
INSERT
  5
380
  8
A
  2
*U40
 10
0.0
 20
0.0
 30
0.0
  0
POINT
  5
381
  8
DEFPOINTS
 62
     0
 10
6.5
 20
62.0
 30
0.0
  0
POINT
  5
382
  8
DEFPOINTS
 62
     0
 10
28.5
 20
62.0
 30
0.0
  0
POINT
  5
383
  8
DEFPOINTS
 62
     0
 10
28.5
 20
74.422625023448745
 30
0.0
  0
ENDBLK
  5
370
  8
0
  0
BLOCK
  8
0
  2
*D12
 70
     1
 10
0.0
 20
0.0
 30
0.0
  3
*D12
  1

  0
LINE
  5
397
  8
0
 62
     0
 10
-0.5
 20
63.354999999999997
 30
0.0
 11
-0.4999999999999998
 21
67.448227193734056
 31
0.0
  0
LINE
  5
398
  8
0
 62
     0
 10
5.5
 20
63.354999999999997
 30
0.0
 11
5.5
 21
67.448227193734056
 31
0.0
  0
LINE
  5
399
  8
0
 62
     0
 10
-3.0
 20
66.198227193734056
 30
0.0
 11
-5.5
 21
66.198227193734056
 31
0.0
  0
LINE
  5
39A
  8
0
 62
     0
 10
8.0
 20
66.198227193734056
 30
0.0
 11
10.5
 21
66.198227193734056
 31
0.0
  0
LINE
  5
39B
  8
0
 62
     0
 10
-0.4999999999999999
 20
66.198227193734056
 30
0.0
 11
5.5
 21
66.198227193734056
 31
0.0
  0
SOLID
  5
39C
  8
0
 62
     0
 10
-3.0
 20
66.614893860400727
 30
0.0
 11
-3.0
 21
65.781560527067384
 31
0.0
 12
-0.4999999999999999
 22
66.198227193734056
 32
0.0
 13
-0.4999999999999999
 23
66.198227193734056
 33
0.0
  0
SOLID
  5
39D
  8
0
 62
     0
 10
8.0
 20
66.614893860400727
 30
0.0
 11
8.0
 21
65.781560527067384
 31
0.0
 12
5.5
 22
66.198227193734056
 32
0.0
 13
5.5
 23
66.198227193734056
 33
0.0
  0
INSERT
  5
39E
  8
A
  2
*U41
 10
0.0
 20
0.0
 30
0.0
  0
POINT
  5
39F
  8
DEFPOINTS
 62
     0
 10
-0.5
 20
62.729999999999997
 30
0.0
  0
POINT
  5
3A0
  8
DEFPOINTS
 62
     0
 10
5.5
 20
62.729999999999997
 30
0.0
  0
POINT
  5
3A1
  8
DEFPOINTS
 62
     0
 10
5.5
 20
66.198227193734056
 30
0.0
  0
ENDBLK
  5
38A
  8
0
  0
BLOCK
  8
0
  2
*D13
 70
     1
 10
0.0
 20
0.0
 30
0.0
  3
*D13
  1

  0
LINE
  5
73F
  8
DIM
 62
     0
 10
-0.625
 20
125.49299999999999
 30
0.0
 11
-16.10549678194911
 21
125.49299999999999
 31
0.0
  0
LINE
  5
740
  8
DIM
 62
     0
 10
-0.625
 20
93.0
 30
0.0
 11
-16.105496781949121
 21
93.0
 31
0.0
  0
LINE
  5
741
  8
DIM
 62
     0
 10
-14.85549678194911
 20
122.99299999999999
 30
0.0
 11
-14.855496781949119
 21
95.5
 31
0.0
  0
SOLID
  5
742
  8
DIM
 62
     0
 10
-15.27216344861578
 20
122.99299999999999
 30
0.0
 11
-14.438830115282441
 21
122.99299999999999
 31
0.0
 12
-14.85549678194911
 22
125.49299999999999
 32
0.0
 13
-14.85549678194911
 23
125.49299999999999
 33
0.0
  0
SOLID
  5
743
  8
DIM
 62
     0
 10
-15.27216344861578
 20
95.5
 30
0.0
 11
-14.43883011528245
 21
95.5
 31
0.0
 12
-14.855496781949119
 22
93.0
 32
0.0
 13
-14.855496781949119
 23
93.0
 33
0.0
  0
INSERT
  5
744
  8
A
  2
*U51
 10
0.0
 20
0.0
 30
0.0
  0
POINT
  5
745
  8
DEFPOINTS
 62
     0
 10
0.0
 20
125.49299999999999
 30
0.0
  0
POINT
  5
746
  8
DEFPOINTS
 62
     0
 10
0.0
 20
93.0
 30
0.0
  0
POINT
  5
747
  8
DEFPOINTS
 62
     0
 10
-14.855496781949119
 20
93.0
 30
0.0
  0
ENDBLK
  5
3AB
  8
0
  0
BLOCK
  8
0
  2
*D14
 70
     1
 10
0.0
 20
0.0
 30
0.0
  3
*D14
  1

  0
LINE
  5
483
  8
DIM
 62
     0
 10
7.4499999999999984
 20
23.067999999999991
 30
0.0
 11
7.4499999999999984
 21
27.198886036007028
 31
0.0
  0
LINE
  5
484
  8
DIM
 62
     0
 10
27.550000000000001
 20
23.067999999999991
 30
0.0
 11
27.550000000000001
 21
27.198886036007028
 31
0.0
  0
LINE
  5
485
  8
DIM
 62
     0
 10
9.9499999999999993
 20
25.948886036007028
 30
0.0
 11
25.050000000000001
 21
25.948886036007028
 31
0.0
  0
SOLID
  5
486
  8
DIM
 62
     0
 10
9.9499999999999993
 20
26.365552702673689
 30
0.0
 11
9.9499999999999993
 21
25.532219369340361
 31
0.0
 12
7.4499999999999984
 22
25.948886036007028
 32
0.0
 13
7.4499999999999984
 23
25.948886036007028
 33
0.0
  0
SOLID
  5
487
  8
DIM
 62
     0
 10
25.050000000000001
 20
26.365552702673689
 30
0.0
 11
25.050000000000001
 21
25.532219369340361
 31
0.0
 12
27.550000000000001
 22
25.948886036007028
 32
0.0
 13
27.550000000000001
 23
25.948886036007028
 33
0.0
  0
INSERT
  5
488
  8
A
  2
*U44
 10
0.0
 20
0.0
 30
0.0
  0
POINT
  5
489
  8
DEFPOINTS
 62
     0
 10
7.4499999999999984
 20
22.442999999999991
 30
0.0
  0
POINT
  5
48A
  8
DEFPOINTS
 62
     0
 10
27.550000000000001
 20
22.442999999999991
 30
0.0
  0
POINT
  5
48B
  8
DEFPOINTS
 62
     0
 10
27.550000000000001
 20
25.948886036007028
 30
0.0
  0
ENDBLK
  5
3C9
  8
0
  0
BLOCK
  8
0
  2
*D15
 70
     1
 10
0.0
 20
0.0
 30
0.0
  3
*D15
  1

  0
LINE
  5
748
  8
DIM
 62
     0
 10
5.875
 20
155.0
 30
0.0
 11
-30.564457279100662
 21
155.0
 31
0.0
  0
LINE
  5
749
  8
DIM
 62
     0
 10
-0.625
 20
93.0
 30
0.0
 11
-30.564457279100679
 21
93.0
 31
0.0
  0
LINE
  5
74A
  8
DIM
 62
     0
 10
-29.314457279100662
 20
152.5
 30
0.0
 11
-29.314457279100679
 21
95.5
 31
0.0
  0
SOLID
  5
74B
  8
DIM
 62
     0
 10
-29.73112394576734
 20
152.5
 30
0.0
 11
-28.897790612434001
 21
152.5
 31
0.0
 12
-29.314457279100662
 22
155.0
 32
0.0
 13
-29.314457279100662
 23
155.0
 33
0.0
  0
SOLID
  5
74C
  8
DIM
 62
     0
 10
-29.731123945767351
 20
95.5
 30
0.0
 11
-28.897790612434012
 21
95.5
 31
0.0
 12
-29.314457279100679
 22
93.0
 32
0.0
 13
-29.314457279100679
 23
93.0
 33
0.0
  0
INSERT
  5
74D
  8
A
  2
*U52
 10
0.0
 20
0.0
 30
0.0
  0
POINT
  5
74E
  8
DEFPOINTS
 62
     0
 10
6.5
 20
155.0
 30
0.0
  0
POINT
  5
74F
  8
DEFPOINTS
 62
     0
 10
0.0
 20
93.0
 30
0.0
  0
POINT
  5
750
  8
DEFPOINTS
 62
     0
 10
-29.314457279100679
 20
93.0
 30
0.0
  0
ENDBLK
  5
3E3
  8
0
  0
BLOCK
  8
0
  2
*D16
 70
     1
 10
0.0
 20
0.0
 30
0.0
  3
*D16
  1

  0
LINE
  5
427
  8
0
 62
     0
 10
110.125
 20
56.0
 30
0.0
 11
129.9550777436998
 21
55.999999999999993
 31
0.0
  0
LINE
  5
428
  8
0
 62
     0
 10
110.125
 20
46.0
 30
0.0
 11
129.9550777436998
 21
45.999999999999993
 31
0.0
  0
LINE
  5
429
  8
0
 62
     0
 10
128.7050777436998
 20
53.499999999999993
 30
0.0
 11
128.7050777436998
 21
48.499999999999993
 31
0.0
  0
SOLID
  5
42A
  8
0
 62
     0
 10
128.28841107703309
 20
53.499999999999993
 30
0.0
 11
129.1217444103664
 21
53.499999999999993
 31
0.0
 12
128.7050777436998
 22
55.999999999999993
 32
0.0
 13
128.7050777436998
 23
55.999999999999993
 33
0.0
  0
SOLID
  5
42B
  8
0
 62
     0
 10
128.28841107703309
 20
48.499999999999993
 30
0.0
 11
129.1217444103664
 21
48.499999999999993
 31
0.0
 12
128.7050777436998
 22
45.999999999999993
 32
0.0
 13
128.7050777436998
 23
45.999999999999993
 33
0.0
  0
INSERT
  5
42C
  8
A
  2
*U42
 10
0.0
 20
0.0
 30
0.0
  0
POINT
  5
42D
  8
DEFPOINTS
 62
     0
 10
109.5
 20
56.0
 30
0.0
  0
POINT
  5
42E
  8
DEFPOINTS
 62
     0
 10
109.5
 20
46.0
 30
0.0
  0
POINT
  5
42F
  8
DEFPOINTS
 62
     0
 10
128.7050777436998
 20
45.999999999999993
 30
0.0
  0
ENDBLK
  5
41C
  8
0
  0
BLOCK
  8
0
  2
*D17
 70
     1
 10
0.0
 20
0.0
 30
0.0
  3
*D17
  1

  0
LINE
  5
751
  8
DIM
 62
     0
 10
6.5
 20
155.625
 30
0.0
 11
6.5
 21
170.5684718959082
 31
0.0
  0
LINE
  5
752
  8
DIM
 62
     0
 10
28.5
 20
155.625
 30
0.0
 11
28.5
 21
170.5684718959082
 31
0.0
  0
LINE
  5
753
  8
DIM
 62
     0
 10
9.0
 20
169.3184718959082
 30
0.0
 11
26.0
 21
169.3184718959082
 31
0.0
  0
SOLID
  5
754
  8
DIM
 62
     0
 10
9.0
 20
169.73513856257489
 30
0.0
 11
9.0
 21
168.9018052292416
 31
0.0
 12
6.5
 22
169.3184718959082
 32
0.0
 13
6.5
 23
169.3184718959082
 33
0.0
  0
SOLID
  5
755
  8
DIM
 62
     0
 10
26.0
 20
169.73513856257489
 30
0.0
 11
26.0
 21
168.9018052292416
 31
0.0
 12
28.5
 22
169.3184718959082
 32
0.0
 13
28.5
 23
169.3184718959082
 33
0.0
  0
INSERT
  5
756
  8
A
  2
*U53
 10
0.0
 20
0.0
 30
0.0
  0
POINT
  5
757
  8
DEFPOINTS
 62
     0
 10
6.5
 20
155.0
 30
0.0
  0
POINT
  5
758
  8
DEFPOINTS
 62
     0
 10
28.5
 20
155.0
 30
0.0
  0
POINT
  5
759
  8
DEFPOINTS
 62
     0
 10
28.5
 20
169.3184718959082
 30
0.0
  0
ENDBLK
  5
4F2
  8
0
  0
BLOCK
  8
0
  2
*D18
 70
     1
 10
0.0
 20
0.0
 30
0.0
  3
*D18
  1

  0
LINE
  5
75A
  8
DIM
 62
     0
 10
7.4499999999999984
 20
114.818
 30
0.0
 11
7.4499999999999966
 21
105.2916932965627
 31
0.0
  0
LINE
  5
75B
  8
DIM
 62
     0
 10
27.550000000000001
 20
114.818
 30
0.0
 11
27.550000000000001
 21
105.2916932965627
 31
0.0
  0
LINE
  5
75C
  8
DIM
 62
     0
 10
9.9499999999999975
 20
106.5416932965627
 30
0.0
 11
25.050000000000001
 21
106.5416932965627
 31
0.0
  0
SOLID
  5
75D
  8
DIM
 62
     0
 10
9.9499999999999975
 20
106.9583599632293
 30
0.0
 11
9.9499999999999975
 21
106.125026629896
 31
0.0
 12
7.4499999999999966
 22
106.5416932965627
 32
0.0
 13
7.4499999999999966
 23
106.5416932965627
 33
0.0
  0
SOLID
  5
75E
  8
DIM
 62
     0
 10
25.050000000000001
 20
106.9583599632293
 30
0.0
 11
25.050000000000001
 21
106.125026629896
 31
0.0
 12
27.550000000000001
 22
106.5416932965627
 32
0.0
 13
27.550000000000001
 23
106.5416932965627
 33
0.0
  0
INSERT
  5
75F
  8
A
  2
*U54
 10
0.0
 20
0.0
 30
0.0
  0
POINT
  5
760
  8
DEFPOINTS
 62
     0
 10
7.4499999999999984
 20
115.443
 30
0.0
  0
POINT
  5
761
  8
DEFPOINTS
 62
     0
 10
27.550000000000001
 20
115.443
 30
0.0
  0
POINT
  5
762
  8
DEFPOINTS
 62
     0
 10
27.550000000000001
 20
106.5416932965627
 30
0.0
  0
ENDBLK
  5
50A
  8
0
  0
BLOCK
  8
0
  2
*D19
 70
     1
 10
0.0
 20
0.0
 30
0.0
  3
*D19
  1

  0
LINE
  5
763
  8
DIM
 62
     0
 10
18.125
 20
150.0
 30
0.0
 11
46.066932581135923
 21
150.0
 31
0.0
  0
LINE
  5
764
  8
DIM
 62
     0
 10
18.125
 20
136.0
 30
0.0
 11
46.066932581135909
 21
136.0
 31
0.0
  0
LINE
  5
765
  8
DIM
 62
     0
 10
44.816932581135923
 20
147.5
 30
0.0
 11
44.816932581135909
 21
138.5
 31
0.0
  0
SOLID
  5
766
  8
DIM
 62
     0
 10
44.400265914469252
 20
147.5
 30
0.0
 11
45.23359924780258
 21
147.5
 31
0.0
 12
44.816932581135923
 22
150.0
 32
0.0
 13
44.816932581135923
 23
150.0
 33
0.0
  0
SOLID
  5
767
  8
DIM
 62
     0
 10
44.400265914469252
 20
138.5
 30
0.0
 11
45.233599247802573
 21
138.5
 31
0.0
 12
44.816932581135909
 22
136.0
 32
0.0
 13
44.816932581135909
 23
136.0
 33
0.0
  0
INSERT
  5
768
  8
A
  2
*U55
 10
0.0
 20
0.0
 30
0.0
  0
POINT
  5
769
  8
DEFPOINTS
 62
     0
 10
17.5
 20
150.0
 30
0.0
  0
POINT
  5
76A
  8
DEFPOINTS
 62
     0
 10
17.5
 20
136.0
 30
0.0
  0
POINT
  5
76B
  8
DEFPOINTS
 62
     0
 10
44.816932581135909
 20
136.0
 30
0.0
  0
ENDBLK
  5
52B
  8
0
  0
BLOCK
  8
0
  2
*D20
 70
     1
 10
0.0
 20
0.0
 30
0.0
  3
*D20
  1

  0
LINE
  5
76C
  8
DIM
 62
     0
 10
110.125
 20
149.0
 30
0.0
 11
126.1854454300246
 21
149.0
 31
0.0
  0
LINE
  5
76D
  8
DIM
 62
     0
 10
110.125
 20
137.0
 30
0.0
 11
126.1854454300246
 21
137.0
 31
0.0
  0
LINE
  5
76E
  8
DIM
 62
     0
 10
124.9354454300246
 20
146.5
 30
0.0
 11
124.9354454300246
 21
139.5
 31
0.0
  0
SOLID
  5
76F
  8
DIM
 62
     0
 10
124.5187787633579
 20
146.5
 30
0.0
 11
125.3521120966913
 21
146.5
 31
0.0
 12
124.9354454300246
 22
149.0
 32
0.0
 13
124.9354454300246
 23
149.0
 33
0.0
  0
SOLID
  5
770
  8
DIM
 62
     0
 10
124.5187787633579
 20
139.5
 30
0.0
 11
125.3521120966913
 21
139.5
 31
0.0
 12
124.9354454300246
 22
137.0
 32
0.0
 13
124.9354454300246
 23
137.0
 33
0.0
  0
INSERT
  5
771
  8
A
  2
*U56
 10
0.0
 20
0.0
 30
0.0
  0
POINT
  5
772
  8
DEFPOINTS
 62
     0
 10
109.5
 20
149.0
 30
0.0
  0
POINT
  5
773
  8
DEFPOINTS
 62
     0
 10
109.5
 20
137.0
 30
0.0
  0
POINT
  5
774
  8
DEFPOINTS
 62
     0
 10
124.9354454300246
 20
137.0
 30
0.0
  0
ENDBLK
  5
551
  8
0
  0
BLOCK
  8
0
  2
*D21
 70
     1
 10
0.0
 20
0.0
 30
0.0
  3
*D21
  1

  0
LINE
  5
775
  8
DIM
 62
     0
 10
106.125
 20
147.0
 30
0.0
 11
118.7705977329114
 21
147.0
 31
0.0
  0
LINE
  5
776
  8
DIM
 62
     0
 10
106.125
 20
139.0
 30
0.0
 11
118.7705977329114
 21
139.0
 31
0.0
  0
LINE
  5
777
  8
DIM
 62
     0
 10
117.5205977329115
 20
144.5
 30
0.0
 11
117.5205977329115
 21
141.5
 31
0.0
  0
SOLID
  5
778
  8
DIM
 62
     0
 10
117.1039310662448
 20
144.5
 30
0.0
 11
117.9372643995781
 21
144.5
 31
0.0
 12
117.5205977329115
 22
147.0
 32
0.0
 13
117.5205977329115
 23
147.0
 33
0.0
  0
SOLID
  5
779
  8
DIM
 62
     0
 10
117.1039310662448
 20
141.5
 30
0.0
 11
117.9372643995781
 21
141.5
 31
0.0
 12
117.5205977329115
 22
139.0
 32
0.0
 13
117.5205977329115
 23
139.0
 33
0.0
  0
INSERT
  5
77A
  8
A
  2
*U57
 10
0.0
 20
0.0
 30
0.0
  0
POINT
  5
77B
  8
DEFPOINTS
 62
     0
 10
105.5
 20
147.0
 30
0.0
  0
POINT
  5
77C
  8
DEFPOINTS
 62
     0
 10
105.5
 20
139.0
 30
0.0
  0
POINT
  5
77D
  8
DEFPOINTS
 62
     0
 10
117.5205977329115
 20
139.0
 30
0.0
  0
ENDBLK
  5
584
  8
0
  0
BLOCK
  8
0
  2
*D22
 70
     1
 10
0.0
 20
0.0
 30
0.0
  3
*D22
  1

  0
LINE
  5
6ED
  8
DIM
 62
     0
 10
90.875
 20
57.899999999999999
 30
0.0
 11
77.136621093197391
 21
57.899999999999999
 31
0.0
  0
LINE
  5
6EE
  8
DIM
 62
     0
 10
90.875
 20
42.100000000000001
 30
0.0
 11
77.136621093197391
 21
42.100000000000009
 31
0.0
  0
LINE
  5
6EF
  8
DIM
 62
     0
 10
78.386621093197391
 20
55.399999999999999
 30
0.0
 11
78.386621093197391
 21
44.600000000000009
 31
0.0
  0
SOLID
  5
6F0
  8
DIM
 62
     0
 10
77.96995442653072
 20
55.399999999999999
 30
0.0
 11
78.803287759864062
 21
55.399999999999999
 31
0.0
 12
78.386621093197391
 22
57.899999999999999
 32
0.0
 13
78.386621093197391
 23
57.899999999999999
 33
0.0
  0
SOLID
  5
6F1
  8
DIM
 62
     0
 10
77.96995442653072
 20
44.600000000000009
 30
0.0
 11
78.803287759864062
 21
44.600000000000009
 31
0.0
 12
78.386621093197391
 22
42.100000000000009
 32
0.0
 13
78.386621093197391
 23
42.100000000000009
 33
0.0
  0
INSERT
  5
6F2
  8
A
  2
*U48
 10
0.0
 20
0.0
 30
0.0
  0
POINT
  5
6F3
  8
DEFPOINTS
 62
     0
 10
91.5
 20
57.899999999999999
 30
0.0
  0
POINT
  5
6F4
  8
DEFPOINTS
 62
     0
 10
91.5
 20
42.100000000000001
 30
0.0
  0
POINT
  5
6F5
  8
DEFPOINTS
 62
     0
 10
78.386621093197391
 20
42.100000000000009
 30
0.0
  0
ENDBLK
  5
59C
  8
0
  0
BLOCK
  8
0
  2
*D23
 70
     1
 10
0.0
 20
0.0
 30
0.0
  3
*D23
  1

  0
LINE
  5
7C7
  8
DIM
 62
     0
 10
6.6715784590769402
 20
131.9326576584144
 30
0.0
 11
13.632266877529471
 21
127.7931392334692
 31
0.0
  0
LINE
  5
7C8
  8
DIM
 62
     0
 10
21.367733122470518
 20
123.1928607665307
 30
0.0
 11
23.516473746065252
 21
121.9150056368256
 31
0.0
  0
INSERT
  5
7C9
  8
A
  2
*U65
 10
0.0
 20
0.0
 30
0.0
  0
LINE
  5
7CA
  8
DIM
 62
     0
 10
19.218992498875782
 20
124.4707158962359
 30
0.0
 11
15.781007501124209
 21
126.5152841037641
 31
0.0
  0
SOLID
  5
7CB
  8
DIM
 62
     0
 10
21.580708977421381
 20
123.5509842037965
 30
0.0
 11
21.15475726751967
 21
122.8347373292649
 31
0.0
 12
19.218992498875782
 22
124.4707158962359
 32
0.0
 13
19.218992498875782
 23
124.4707158962359
 33
0.0
  0
SOLID
  5
7CC
  8
DIM
 62
     0
 10
13.84524273248034
 20
128.15126267073501
 30
0.0
 11
13.419291022578619
 21
127.4350157962034
 31
0.0
 12
15.781007501124209
 22
126.5152841037641
 32
0.0
 13
15.781007501124209
 23
126.5152841037641
 33
0.0
  0
POINT
  5
7CD
  8
DEFPOINTS
 62
     0
 10
15.781007501124209
 20
126.5152841037641
 30
0.0
  0
POINT
  5
7CE
  8
DEFPOINTS
 62
     0
 10
19.218992498875782
 20
124.4707158962359
 30
0.0
  0
ENDBLK
  5
5B7
  8
0
  0
BLOCK
  8
0
  2
*D24
 70
     1
 10
0.0
 20
0.0
 30
0.0
  3
*D24
  1

  0
LINE
  5
786
  8
DIM
 62
     0
 10
84.375
 20
103.0
 30
0.0
 11
73.249235972294642
 21
103.0
 31
0.0
  0
LINE
  5
787
  8
DIM
 62
     0
 10
84.375
 20
93.0
 30
0.0
 11
73.249235972294628
 21
93.0
 31
0.0
  0
LINE
  5
788
  8
DIM
 62
     0
 10
74.499235972294642
 20
100.5
 30
0.0
 11
74.499235972294628
 21
95.5
 31
0.0
  0
SOLID
  5
789
  8
DIM
 62
     0
 10
74.08256930562797
 20
100.5
 30
0.0
 11
74.915902638961313
 21
100.5
 31
0.0
 12
74.499235972294642
 22
103.0
 32
0.0
 13
74.499235972294642
 23
103.0
 33
0.0
  0
SOLID
  5
78A
  8
DIM
 62
     0
 10
74.082569305627956
 20
95.5
 30
0.0
 11
74.915902638961299
 21
95.5
 31
0.0
 12
74.499235972294628
 22
93.0
 32
0.0
 13
74.499235972294628
 23
93.0
 33
0.0
  0
INSERT
  5
78B
  8
A
  2
*U58
 10
0.0
 20
0.0
 30
0.0
  0
POINT
  5
78C
  8
DEFPOINTS
 62
     0
 10
85.0
 20
103.0
 30
0.0
  0
POINT
  5
78D
  8
DEFPOINTS
 62
     0
 10
85.0
 20
93.0
 30
0.0
  0
POINT
  5
78E
  8
DEFPOINTS
 62
     0
 10
74.499235972294628
 20
93.0
 30
0.0
  0
ENDBLK
  5
5CF
  8
0
  0
BLOCK
  8
0
  2
*D25
 70
     1
 10
0.0
 20
0.0
 30
0.0
  3
*D25
  1

  0
LINE
  5
78F
  8
DIM
 62
     0
 10
85.0
 20
92.375
 30
0.0
 11
85.0
 21
80.228194181529943
 31
0.0
  0
LINE
  5
790
  8
DIM
 62
     0
 10
128.0
 20
92.375
 30
0.0
 11
128.0
 21
80.228194181529943
 31
0.0
  0
LINE
  5
791
  8
DIM
 62
     0
 10
87.5
 20
81.478194181529943
 30
0.0
 11
125.5
 21
81.478194181529943
 31
0.0
  0
SOLID
  5
792
  8
DIM
 62
     0
 10
87.5
 20
81.894860848196615
 30
0.0
 11
87.5
 21
81.061527514863272
 31
0.0
 12
85.0
 22
81.478194181529943
 32
0.0
 13
85.0
 23
81.478194181529943
 33
0.0
  0
SOLID
  5
793
  8
DIM
 62
     0
 10
125.5
 20
81.894860848196615
 30
0.0
 11
125.5
 21
81.061527514863272
 31
0.0
 12
128.0
 22
81.478194181529943
 32
0.0
 13
128.0
 23
81.478194181529943
 33
0.0
  0
INSERT
  5
794
  8
A
  2
*U59
 10
0.0
 20
0.0
 30
0.0
  0
POINT
  5
795
  8
DEFPOINTS
 62
     0
 10
85.0
 20
93.0
 30
0.0
  0
POINT
  5
796
  8
DEFPOINTS
 62
     0
 10
128.0
 20
93.0
 30
0.0
  0
POINT
  5
797
  8
DEFPOINTS
 62
     0
 10
128.0
 20
81.478194181529943
 30
0.0
  0
ENDBLK
  5
5E7
  8
0
  0
BLOCK
  8
0
  2
*D26
 70
     1
 10
0.0
 20
0.0
 30
0.0
  3
*D26
  1

  0
LINE
  5
60A
  8
DIM
 62
     0
 10
101.5
 20
19.375
 30
0.0
 11
101.5
 21
12.056097354353369
 31
0.0
  0
LINE
  5
60B
  8
DIM
 62
     0
 10
121.5
 20
19.375
 30
0.0
 11
121.5
 21
12.056097354353369
 31
0.0
  0
LINE
  5
60C
  8
DIM
 62
     0
 10
104.0
 20
13.306097354353369
 30
0.0
 11
119.0
 21
13.306097354353369
 31
0.0
  0
SOLID
  5
60D
  8
DIM
 62
     0
 10
104.0
 20
13.72276402102003
 30
0.0
 11
104.0
 21
12.8894306876867
 31
0.0
 12
101.5
 22
13.306097354353369
 32
0.0
 13
101.5
 23
13.306097354353369
 33
0.0
  0
SOLID
  5
60E
  8
DIM
 62
     0
 10
119.0
 20
13.72276402102003
 30
0.0
 11
119.0
 21
12.8894306876867
 31
0.0
 12
121.5
 22
13.306097354353369
 32
0.0
 13
121.5
 23
13.306097354353369
 33
0.0
  0
INSERT
  5
60F
  8
A
  2
*U46
 10
0.0
 20
0.0
 30
0.0
  0
POINT
  5
610
  8
DEFPOINTS
 62
     0
 10
101.5
 20
20.0
 30
0.0
  0
POINT
  5
611
  8
DEFPOINTS
 62
     0
 10
121.5
 20
20.0
 30
0.0
  0
POINT
  5
612
  8
DEFPOINTS
 62
     0
 10
121.5
 20
13.306097354353369
 30
0.0
  0
ENDBLK
  5
5FF
  8
0
  0
BLOCK
  8
0
  2
*D27
 70
     1
 10
0.0
 20
0.0
 30
0.0
  3
*D27
  1

  0
LINE
  5
798
  8
DIM
 62
     0
 10
91.5
 20
155.625
 30
0.0
 11
91.5
 21
165.97195793826361
 31
0.0
  0
LINE
  5
799
  8
DIM
 62
     0
 10
101.5
 20
155.625
 30
0.0
 11
101.5
 21
165.97195793826361
 31
0.0
  0
LINE
  5
79A
  8
DIM
 62
     0
 10
94.0
 20
164.72195793826361
 30
0.0
 11
99.0
 21
164.72195793826361
 31
0.0
  0
SOLID
  5
79B
  8
DIM
 62
     0
 10
94.0
 20
165.13862460493019
 30
0.0
 11
94.0
 21
164.3052912715969
 31
0.0
 12
91.5
 22
164.72195793826361
 32
0.0
 13
91.5
 23
164.72195793826361
 33
0.0
  0
SOLID
  5
79C
  8
DIM
 62
     0
 10
99.0
 20
165.13862460493019
 30
0.0
 11
99.0
 21
164.3052912715969
 31
0.0
 12
101.5
 22
164.72195793826361
 32
0.0
 13
101.5
 23
164.72195793826361
 33
0.0
  0
INSERT
  5
79D
  8
A
  2
*U60
 10
0.0
 20
0.0
 30
0.0
  0
POINT
  5
79E
  8
DEFPOINTS
 62
     0
 10
91.5
 20
155.0
 30
0.0
  0
POINT
  5
79F
  8
DEFPOINTS
 62
     0
 10
101.5
 20
155.0
 30
0.0
  0
POINT
  5
7A0
  8
DEFPOINTS
 62
     0
 10
101.5
 20
164.72195793826361
 30
0.0
  0
ENDBLK
  5
61F
  8
0
  0
BLOCK
  8
0
  2
*D28
 70
     1
 10
0.0
 20
0.0
 30
0.0
  3
*D28
  1

  0
LINE
  5
7A1
  8
DIM
 62
     0
 10
101.5
 20
150.625
 30
0.0
 11
101.5
 21
165.97195793826361
 31
0.0
  0
LINE
  5
7A2
  8
DIM
 62
     0
 10
109.5
 20
150.625
 30
0.0
 11
109.5
 21
165.97195793826361
 31
0.0
  0
LINE
  5
7A3
  8
DIM
 62
     0
 10
104.0
 20
164.72195793826361
 30
0.0
 11
107.0
 21
164.72195793826361
 31
0.0
  0
SOLID
  5
7A4
  8
DIM
 62
     0
 10
104.0
 20
165.13862460493019
 30
0.0
 11
104.0
 21
164.3052912715969
 31
0.0
 12
101.5
 22
164.72195793826361
 32
0.0
 13
101.5
 23
164.72195793826361
 33
0.0
  0
SOLID
  5
7A5
  8
DIM
 62
     0
 10
107.0
 20
165.13862460493019
 30
0.0
 11
107.0
 21
164.3052912715969
 31
0.0
 12
109.5
 22
164.72195793826361
 32
0.0
 13
109.5
 23
164.72195793826361
 33
0.0
  0
INSERT
  5
7A6
  8
A
  2
*U61
 10
0.0
 20
0.0
 30
0.0
  0
POINT
  5
7A7
  8
DEFPOINTS
 62
     0
 10
101.5
 20
150.0
 30
0.0
  0
POINT
  5
7A8
  8
DEFPOINTS
 62
     0
 10
109.5
 20
150.0
 30
0.0
  0
POINT
  5
7A9
  8
DEFPOINTS
 62
     0
 10
109.5
 20
164.72195793826361
 30
0.0
  0
ENDBLK
  5
637
  8
0
  0
BLOCK
  8
0
  2
*D29
 70
     1
 10
0.0
 20
0.0
 30
0.0
  3
*D29
  1

  0
LINE
  5
7AA
  8
DIM
 62
     0
 10
10.874999999999989
 20
22.5
 30
0.0
 11
-7.347356568559916
 21
22.5
 31
0.0
  0
LINE
  5
7AB
  8
DIM
 62
     0
 10
10.875
 20
18.500000000000011
 30
0.0
 11
-7.3473565685599169
 21
18.500000000000021
 31
0.0
  0
LINE
  5
7AC
  8
DIM
 62
     0
 10
-6.097356568559916
 20
25.0
 30
0.0
 11
-6.097356568559916
 21
27.5
 31
0.0
  0
LINE
  5
7AD
  8
DIM
 62
     0
 10
-6.0973565685599178
 20
16.000000000000021
 30
0.0
 11
-6.0973565685599187
 21
13.50000000000002
 31
0.0
  0
LINE
  5
7AE
  8
DIM
 62
     0
 10
-6.097356568559916
 20
22.5
 30
0.0
 11
-6.0973565685599169
 21
18.500000000000021
 31
0.0
  0
SOLID
  5
7AF
  8
DIM
 62
     0
 10
-6.514023235226583
 20
25.0
 30
0.0
 11
-5.6806899018932491
 21
25.0
 31
0.0
 12
-6.097356568559916
 22
22.5
 32
0.0
 13
-6.097356568559916
 23
22.5
 33
0.0
  0
SOLID
  5
7B0
  8
DIM
 62
     0
 10
-6.5140232352265848
 20
16.000000000000021
 30
0.0
 11
-5.6806899018932508
 21
16.000000000000021
 31
0.0
 12
-6.0973565685599169
 22
18.500000000000021
 32
0.0
 13
-6.0973565685599169
 23
18.500000000000021
 33
0.0
  0
INSERT
  5
7B1
  8
A
  2
*U62
 10
0.0
 20
0.0
 30
0.0
  0
POINT
  5
7B2
  8
DEFPOINTS
 62
     0
 10
11.499999999999989
 20
22.5
 30
0.0
  0
POINT
  5
7B3
  8
DEFPOINTS
 62
     0
 10
11.5
 20
18.500000000000011
 30
0.0
  0
POINT
  5
7B4
  8
DEFPOINTS
 62
     0
 10
-6.0973565685599169
 20
18.500000000000021
 30
0.0
  0
ENDBLK
  5
659
  8
0
  0
BLOCK
  8
0
  2
*D30
 70
     1
 10
0.0
 20
0.0
 30
0.0
  3
*D30
  1

  0
LINE
  5
6AE
  8
0
 62
     0
 10
101.5
 20
19.375
 30
0.0
 11
101.5
 21
2.467971176239188
 31
0.0
  0
LINE
  5
6AF
  8
0
 62
     0
 10
121.5
 20
19.375
 30
0.0
 11
121.5
 21
2.467971176239188
 31
0.0
  0
LINE
  5
6B0
  8
0
 62
     0
 10
104.0
 20
3.717971176239188
 30
0.0
 11
119.0
 21
3.717971176239188
 31
0.0
  0
SOLID
  5
6B1
  8
0
 62
     0
 10
104.0
 20
4.134637842905855
 30
0.0
 11
104.0
 21
3.301304509572522
 31
0.0
 12
101.5
 22
3.717971176239188
 32
0.0
 13
101.5
 23
3.717971176239188
 33
0.0
  0
SOLID
  5
6B2
  8
0
 62
     0
 10
119.0
 20
4.134637842905855
 30
0.0
 11
119.0
 21
3.301304509572522
 31
0.0
 12
121.5
 22
3.717971176239188
 32
0.0
 13
121.5
 23
3.717971176239188
 33
0.0
  0
INSERT
  5
6B3
  8
A
  2
*U47
 10
0.0
 20
0.0
 30
0.0
  0
POINT
  5
6B4
  8
DEFPOINTS
 62
     0
 10
101.5
 20
20.0
 30
0.0
  0
POINT
  5
6B5
  8
DEFPOINTS
 62
     0
 10
121.5
 20
20.0
 30
0.0
  0
POINT
  5
6B6
  8
DEFPOINTS
 62
     0
 10
121.5
 20
3.717971176239188
 30
0.0
  0
ENDBLK
  5
6A3
  8
0
  0
BLOCK
  8
0
  2
*D31
 70
     1
 10
0.0
 20
0.0
 30
0.0
  3
*D31
  1

  0
LINE
  5
7B5
  8
DIM
 62
     0
 10
29.125
 20
26.5
 30
0.0
 11
47.261742446557037
 21
26.5
 31
0.0
  0
LINE
  5
7B6
  8
DIM
 62
     0
 10
29.125
 20
6.5
 30
0.0
 11
47.261742446557037
 21
6.4999999999999938
 31
0.0
  0
LINE
  5
7B7
  8
DIM
 62
     0
 10
46.011742446557037
 20
24.0
 30
0.0
 11
46.011742446557037
 21
8.9999999999999947
 31
0.0
  0
SOLID
  5
7B8
  8
DIM
 62
     0
 10
45.595075779890372
 20
24.0
 30
0.0
 11
46.428409113223701
 21
24.0
 31
0.0
 12
46.011742446557037
 22
26.5
 32
0.0
 13
46.011742446557037
 23
26.5
 33
0.0
  0
SOLID
  5
7B9
  8
DIM
 62
     0
 10
45.595075779890372
 20
8.9999999999999947
 30
0.0
 11
46.428409113223701
 21
8.9999999999999947
 31
0.0
 12
46.011742446557037
 22
6.4999999999999938
 32
0.0
 13
46.011742446557037
 23
6.4999999999999938
 33
0.0
  0
INSERT
  5
7BA
  8
A
  2
*U63
 10
0.0
 20
0.0
 30
0.0
  0
POINT
  5
7BB
  8
DEFPOINTS
 62
     0
 10
28.5
 20
26.5
 30
0.0
  0
POINT
  5
7BC
  8
DEFPOINTS
 62
     0
 10
28.5
 20
6.5
 30
0.0
  0
POINT
  5
7BD
  8
DEFPOINTS
 62
     0
 10
46.011742446557037
 20
6.4999999999999938
 30
0.0
  0
ENDBLK
  5
6C5
  8
0
  0
BLOCK
  8
0
  2
*D32
 70
     1
 10
0.0
 20
0.0
 30
0.0
  3
*D32
  1

  0
LINE
  5
7BE
  8
DIM
 62
     0
 10
90.875
 20
151.0
 30
0.0
 11
75.128878074077875
 21
151.0
 31
0.0
  0
LINE
  5
7BF
  8
DIM
 62
     0
 10
90.875
 20
135.0
 30
0.0
 11
75.128878074077875
 21
135.0
 31
0.0
  0
LINE
  5
7C0
  8
DIM
 62
     0
 10
76.378878074077875
 20
148.5
 30
0.0
 11
76.378878074077875
 21
137.5
 31
0.0
  0
SOLID
  5
7C1
  8
DIM
 62
     0
 10
75.962211407411203
 20
148.5
 30
0.0
 11
76.795544740744546
 21
148.5
 31
0.0
 12
76.378878074077875
 22
151.0
 32
0.0
 13
76.378878074077875
 23
151.0
 33
0.0
  0
SOLID
  5
7C2
  8
DIM
 62
     0
 10
75.962211407411203
 20
137.5
 30
0.0
 11
76.795544740744546
 21
137.5
 31
0.0
 12
76.378878074077875
 22
135.0
 32
0.0
 13
76.378878074077875
 23
135.0
 33
0.0
  0
INSERT
  5
7C3
  8
A
  2
*U64
 10
0.0
 20
0.0
 30
0.0
  0
POINT
  5
7C4
  8
DEFPOINTS
 62
     0
 10
91.5
 20
151.0
 30
0.0
  0
POINT
  5
7C5
  8
DEFPOINTS
 62
     0
 10
91.5
 20
135.0
 30
0.0
  0
POINT
  5
7C6
  8
DEFPOINTS
 62
     0
 10
76.378878074077875
 20
135.0
 30
0.0
  0
ENDBLK
  5
6FB
  8
0
  0
BLOCK
  8
0
  2
*U35
 70
     1
 10
0.0
 20
0.0
 30
0.0
  3
*U35
  1

  0
TEXT
  5
857
  8
0
 62
     0
 10
15.59004092769441
 20
73.713387128299601
 30
0.0
 40
2.5
  1
20
  0
ENDBLK
  5
859
  8
0
  0
BLOCK
  8
0
  2
*U36
 70
     1
 10
0.0
 20
0.0
 30
0.0
  3
*U36
  1

  0
TEXT
  5
85B
  8
0
 62
     0
 10
54.261469770392843
 20
23.068724420191
 30
0.0
 40
2.5
  1
50
 50
90.0
  0
ENDBLK
  5
85D
  8
0
  0
BLOCK
  8
0
  2
*U37
 70
     1
 10
0.0
 20
0.0
 30
0.0
  3
*U37
  1

  0
TEXT
  5
85F
  8
0
 62
     0
 10
13.016712141882669
 20
72.539099103800183
 30
0.0
 40
2.5
  1
19,09
  0
ENDBLK
  5
861
  8
0
  0
BLOCK
  8
0
  2
*U38
 70
     1
 10
0.0
 20
0.0
 30
0.0
  3
*U38
  1

  0
TEXT
  5
863
  8
0
 62
     0
 10
15.56787175989086
 20
77.445665520291399
 30
0.0
 40
2.5
  1
30
  0
ENDBLK
  5
865
  8
0
  0
BLOCK
  8
0
  2
*U39
 70
     1
 10
0.0
 20
0.0
 30
0.0
  3
*U39
  1

  0
TEXT
  5
867
  8
0
 62
     0
 10
15.59089358799454
 20
77.157840531183851
 30
0.0
 40
2.5
  1
24
  0
ENDBLK
  5
869
  8
0
  0
BLOCK
  8
0
  2
*U40
 70
     1
 10
0.0
 20
0.0
 30
0.0
  3
*U40
  1

  0
TEXT
  5
86B
  8
0
 62
     0
 10
15.598567530695769
 20
75.047625023448731
 30
0.0
 40
2.5
  1
22
  0
ENDBLK
  5
86D
  8
0
  0
BLOCK
  8
0
  2
*U41
 70
     1
 10
0.0
 20
0.0
 30
0.0
  3
*U41
  1

  0
TEXT
  5
86F
  8
0
 62
     0
 10
1.5433151432469301
 20
66.86586020874087
 30
0.0
 40
2.5
  1
6
  0
ENDBLK
  5
871
  8
0
  0
BLOCK
  8
0
  2
*U42
 70
     1
 10
0.0
 20
0.0
 30
0.0
  3
*U42
  1

  0
TEXT
  5
873
  8
0
 62
     0
 10
128.037444728693
 20
48.951057298772191
 30
0.0
 40
2.5
  1
10
 50
90.0
  0
ENDBLK
  5
875
  8
0
  0
BLOCK
  8
0
  2
*U43
 70
     1
 10
0.0
 20
0.0
 30
0.0
  3
*U43
  1

  0
TEXT
  5
877
  8
0
 62
     0
 10
30.880047748976811
 20
66.533214985445866
 30
0.0
 40
2.5
  1
0
  0
ENDBLK
  5
879
  8
0
  0
BLOCK
  8
0
  2
*U44
 70
     1
 10
0.0
 20
0.0
 30
0.0
  3
*U44
  1

  0
TEXT
  5
87B
  8
DIM
 62
     0
 10
14.370736698499311
 20
27.068429010086149
 30
0.0
 40
2.5
  1
20,1
  0
ENDBLK
  5
87D
  8
0
  0
BLOCK
  8
0
  2
*U45
 70
     1
 10
0.0
 20
0.0
 30
0.0
  3
*U45
  1

  0
TEXT
  5
87F
  8
DIM
 62
     0
 10
15.598567530695769
 20
14.758283206132541
 30
0.0
 40
2.5
  1
22
  0
ENDBLK
  5
881
  8
0
  0
BLOCK
  8
0
  2
*U46
 70
     1
 10
0.0
 20
0.0
 30
0.0
  3
*U46
  1

  0
TEXT
  5
883
  8
DIM
 62
     0
 10
109.5900409276944
 20
13.97373036936019
 30
0.0
 40
2.5
  1
20
  0
ENDBLK
  5
885
  8
0
  0
BLOCK
  8
0
  2
*U47
 70
     1
 10
0.0
 20
0.0
 30
0.0
  3
*U47
  1

  0
TEXT
  5
887
  8
0
 62
     0
 10
109.5900409276944
 20
4.3856041912460091
 30
0.0
 40
2.5
  1
20
  0
ENDBLK
  5
889
  8
0
  0
BLOCK
  8
0
  2
*U48
 70
     1
 10
0.0
 20
0.0
 30
0.0
  3
*U48
  1

  0
TEXT
  5
88B
  8
DIM
 62
     0
 10
77.267078119118253
 20
46.487892223738079
 30
0.0
 40
2.5
  1
15,8
 50
90.0
  0
ENDBLK
  5
88D
  8
0
  0
BLOCK
  8
0
  2
*U49
 70
     1
 10
0.0
 20
0.0
 30
0.0
  3
*U49
  1

  0
TEXT
  5
88F
  8
DIM
 62
     0
 10
15.554229195088681
 20
79.515307650709687
 30
0.0
 40
2.5
  1
35
  0
ENDBLK
  5
891
  8
0
  0
BLOCK
  8
0
  2
*U50
 70
     1
 10
0.0
 20
0.0
 30
0.0
  3
*U50
  1

  0
TEXT
  5
893
  8
DIM
 62
     0
 10
15.59004092769441
 20
88.532969919028915
 30
0.0
 40
2.5
  1
20
  0
ENDBLK
  5
895
  8
0
  0
BLOCK
  8
0
  2
*U51
 70
     1
 10
0.0
 20
0.0
 30
0.0
  3
*U51
  1

  0
TEXT
  5
897
  8
DIM
 62
     0
 10
-15.97503975602825
 20
104.8800266030013
 30
0.0
 40
2.5
  1
32,49
 50
90.0
  0
ENDBLK
  5
899
  8
0
  0
BLOCK
  8
0
  2
*U52
 70
     1
 10
0.0
 20
0.0
 30
0.0
  3
*U52
  1

  0
TEXT
  5
89B
  8
DIM
 62
     0
 10
-29.982090294107518
 20
122.08407230559339
 30
0.0
 40
2.5
  1
62
 50
90.0
  0
ENDBLK
  5
89D
  8
0
  0
BLOCK
  8
0
  2
*U53
 70
     1
 10
0.0
 20
0.0
 30
0.0
  3
*U53
  1

  0
TEXT
  5
89F
  8
DIM
 62
     0
 10
15.598567530695769
 20
169.9434718959082
 30
0.0
 40
2.5
  1
22
  0
ENDBLK
  5
8A1
  8
0
  0
BLOCK
  8
0
  2
*U54
 70
     1
 10
0.0
 20
0.0
 30
0.0
  3
*U54
  1

  0
TEXT
  5
8A3
  8
DIM
 62
     0
 10
14.370736698499311
 20
107.66123627064179
 30
0.0
 40
2.5
  1
20,1
  0
ENDBLK
  5
8A5
  8
0
  0
BLOCK
  8
0
  2
*U55
 70
     1
 10
0.0
 20
0.0
 30
0.0
  3
*U55
  1

  0
TEXT
  5
8A7
  8
DIM
 62
     0
 10
44.191932581135887
 20
140.95190995907231
 30
0.0
 40
2.5
  1
14
 50
90.0
  0
ENDBLK
  5
8A9
  8
0
  0
BLOCK
  8
0
  2
*U56
 70
     1
 10
0.0
 20
0.0
 30
0.0
  3
*U56
  1

  0
TEXT
  5
8AB
  8
DIM
 62
     0
 10
124.3104454300246
 20
140.95958390177361
 30
0.0
 40
2.5
  1
12
 50
90.0
  0
ENDBLK
  5
8AD
  8
0
  0
BLOCK
  8
0
  2
*U57
 70
     1
 10
0.0
 20
0.0
 30
0.0
  3
*U57
  1

  0
TEXT
  5
8AF
  8
DIM
 62
     0
 10
116.8529647179046
 20
142.03478854024559
 30
0.0
 40
2.5
  1
8
 50
90.0
  0
ENDBLK
  5
8B1
  8
0
  0
BLOCK
  8
0
  2
*U58
 70
     1
 10
0.0
 20
0.0
 30
0.0
  3
*U58
  1

  0
TEXT
  5
8B3
  8
DIM
 62
     0
 10
73.831602957287799
 20
95.951057298772184
 30
0.0
 40
2.5
  1
10
 50
90.0
  0
ENDBLK
  5
8B5
  8
0
  0
BLOCK
  8
0
  2
*U59
 70
     1
 10
0.0
 20
0.0
 30
0.0
  3
*U59
  1

  0
TEXT
  5
8B7
  8
DIM
 62
     0
 10
104.61476807639831
 20
82.147532517137037
 30
0.0
 40
2.5
  1
43
  0
ENDBLK
  5
8B9
  8
0
  0
BLOCK
  8
0
  2
*U60
 70
     1
 10
0.0
 20
0.0
 30
0.0
  3
*U60
  1

  0
TEXT
  5
8BB
  8
DIM
 62
     0
 10
94.451057298772184
 20
165.38959095327041
 30
0.0
 40
2.5
  1
10
  0
ENDBLK
  5
8BD
  8
0
  0
BLOCK
  8
0
  2
*U61
 70
     1
 10
0.0
 20
0.0
 30
0.0
  3
*U61
  1

  0
TEXT
  5
8BF
  8
DIM
 62
     0
 10
104.5347885402455
 20
165.38959095327041
 30
0.0
 40
2.5
  1
8
  0
ENDBLK
  5
8C1
  8
0
  0
BLOCK
  8
0
  2
*U62
 70
     1
 10
0.0
 20
0.0
 30
0.0
  3
*U62
  1

  0
TEXT
  5
8C3
  8
DIM
 62
     0
 10
-6.7223565685599196
 20
19.591064120054579
 30
0.0
 40
2.5
  1
4
 50
90.0
  0
ENDBLK
  5
8C5
  8
0
  0
BLOCK
  8
0
  2
*U63
 70
     1
 10
0.0
 20
0.0
 30
0.0
  3
*U63
  1

  0
TEXT
  5
8C7
  8
DIM
 62
     0
 10
45.344109431550208
 20
14.59004092769441
 30
0.0
 40
2.5
  1
20
 50
90.0
  0
ENDBLK
  5
8C9
  8
0
  0
BLOCK
  8
0
  2
*U64
 70
     1
 10
0.0
 20
0.0
 30
0.0
  3
*U64
  1

  0
TEXT
  5
8CB
  8
DIM
 62
     0
 10
75.711245059071047
 20
140.9476466575716
 30
0.0
 40
2.5
  1
16
 50
90.0
  0
ENDBLK
  5
8CD
  8
0
  0
BLOCK
  8
0
  2
*U65
 70
     1
 10
0.0
 20
0.0
 30
0.0
  3
*U65
  1

  0
TEXT
  5
8CF
  8
DIM
 62
     0
 10
7.4580009177936217
 20
132.30920418369959
 30
0.0
 40
2.5
  1
4
 50
329.26006877481802
  0
ENDBLK
  5
8D1
  8
0
  0
ENDSEC
  0
SECTION
  2
ENTITIES
  0
LINE
  5
252
  8
A
 10
0.0
 20
93.0
 30
0.0
 11
0.0
 21
113.0
 31
0.0
  0
LINE
  5
256
  8
A
 10
0.0
 20
93.0
 30
0.0
 11
7.5
 21
93.0
 31
0.0
  0
LINE
  5
257
  8
A
 10
35.0
 20
93.0
 30
0.0
 11
35.0
 21
113.0
 31
0.0
  0
LINE
  5
259
  8
A
 10
0.0
 20
113.0
 30
0.0
 11
35.0
 21
113.0
 31
0.0
  0
LINE
  5
25B
  8
A
 10
7.5
 20
103.0
 30
0.0
 11
27.5
 21
103.0
 31
0.0
  0
LINE
  5
25D
  8
A
 10
7.5
 20
93.0
 30
0.0
 11
7.5
 21
103.0
 31
0.0
  0
LINE
  5
25E
  8
A
 10
27.5
 20
93.0
 30
0.0
 11
27.5
 21
103.0
 31
0.0
  0
LINE
  5
25F
  8
A
 10
27.5
 20
93.0
 30
0.0
 11
35.0
 21
93.0
 31
0.0
  0
DIMENSION
  5
261
  8
DIM
  2
*D2
 10
35.0
 20
78.845969315102593
 30
0.0
 11
17.5
 21
78.845969315102593
 31
0.0
 70
   128
 13
0.0
 23
93.0
 33
0.0
 14
35.0
 24
93.0
 34
0.0
  0
LINE
  5
27B
  8
E
 10
17.5
 20
113.0
 30
0.0
 11
17.5
 21
155.0
 31
0.0
  0
LINE
  5
27C
  8
E
 10
0.0
 20
143.0
 30
0.0
 11
36.5
 21
143.0
 31
0.0
  0
LINE
  5
2AA
  8
A
 10
6.5
 20
113.0
 30
0.0
 11
6.5
 21
155.0
 31
0.0
  0
LINE
  5
2AB
  8
A
 10
28.5
 20
113.0
 30
0.0
 11
28.5
 21
155.0
 31
0.0
  0
LINE
  5
2AC
  8
A
 10
6.5
 20
155.0
 30
0.0
 11
28.5
 21
155.0
 31
0.0
  0
DIMENSION
  5
311
  8
DIM
  2
*D8
 10
27.5
 20
87.865336904022115
 30
0.0
 11
17.5
 21
89.766769373326341
 31
0.0
 70
     0
 13
7.5
 23
93.0
 33
0.0
 14
27.5
 24
93.0
 34
0.0
  0
CIRCLE
  5
33A
  8
A
 10
17.5
 20
125.49299999999999
 30
0.0
 40
2.0
  0
LINE
  5
3A3
  8
E
 10
0.0
 20
125.49299999999999
 30
0.0
 11
35.0
 21
125.49299999999999
 31
0.0
  0
DIMENSION
  5
3A8
  8
DIM
  2
*D13
 10
-14.855496781949119
 20
93.0
 30
0.0
 11
-16.982884230789509
 21
109.2465
 31
0.0
 70
     0
 13
0.0
 23
125.49299999999999
 33
0.0
 14
0.0
 24
93.0
 34
0.0
 50
90.0
  0
LINE
  5
3C1
  8
A
 10
7.4499999999999984
 20
115.443
 30
0.0
 11
27.550000000000001
 21
115.443
 31
0.0
  0
LINE
  5
3C2
  8
A
 10
7.4499999999999993
 20
115.443
 30
0.0
 11
7.4499999999999966
 21
135.54300000000001
 31
0.0
  0
LINE
  5
3C3
  8
A
 10
27.550000000000001
 20
115.443
 30
0.0
 11
27.550000000000001
 21
135.54300000000001
 31
0.0
  0
LINE
  5
3C4
  8
A
 10
6.5
 20
135.54300000000001
 30
0.0
 11
7.4499999999999993
 21
135.54300000000001
 31
0.0
  0
LINE
  5
3C5
  8
A
 10
27.550000000000011
 20
135.54300000000001
 30
0.0
 11
28.5
 21
135.54300000000001
 31
0.0
  0
CIRCLE
  5
3DE
  8
A
 10
17.5
 20
143.0
 30
0.0
 40
6.0
  0
CIRCLE
  5
3DF
  8
A
 10
17.5
 20
143.0
 30
0.0
 40
4.0
  0
DIMENSION
  5
3E0
  8
DIM
  2
*D15
 10
-29.314457279100679
 20
93.0
 30
0.0
 11
-31.215889748404919
 21
124.0
 31
0.0
 70
     0
 13
6.5
 23
155.0
 33
0.0
 14
0.0
 24
93.0
 34
0.0
 50
90.0
  0
LINE
  5
401
  8
A
 10
85.0
 20
93.0
 30
0.0
 11
85.000000000000014
 21
113.0
 31
0.0
  0
LINE
  5
402
  8
A
 10
91.5
 20
155.0
 30
0.0
 11
101.5
 21
155.0
 31
0.0
  0
LINE
  5
409
  8
A
 10
85.0
 20
113.0
 30
0.0
 11
128.0
 21
113.0
 31
0.0
  0
LINE
  5
40B
  8
A
 10
91.5
 20
113.0
 30
0.0
 11
91.5
 21
155.0
 31
0.0
  0
LINE
  5
40C
  8
A
 10
101.5
 20
113.0
 30
0.0
 11
101.5
 21
155.0
 31
0.0
  0
LINE
  5
410
  8
A
 10
101.5
 20
135.54300000000001
 30
0.0
 11
121.5
 21
135.54300000000001
 31
0.0
  0
LINE
  5
411
  8
A
 10
121.5
 20
135.54300000000001
 30
0.0
 11
121.5
 21
113.0
 31
0.0
  0
LINE
  5
413
  8
A
 10
128.0
 20
113.0
 30
0.0
 11
128.0
 21
93.0
 31
0.0
  0
LINE
  5
414
  8
A
 10
128.0
 20
93.0
 30
0.0
 11
85.0
 21
93.0
 31
0.0
  0
LINE
  5
415
  8
B
 10
101.5
 20
115.443
 30
0.0
 11
121.5
 21
115.443
 31
0.0
  0
LINE
  5
43D
  8
E
 10
81.5
 20
143.0
 30
0.0
 11
112.0392891683841
 21
143.0
 31
0.0
  0
CIRCLE
  5
4EC
  8
A
 10
17.5
 20
143.0
 30
0.0
 40
7.0
  0
LINE
  5
4ED
  8
A
 10
101.5
 20
150.0
 30
0.0
 11
109.5
 21
150.0
 31
0.0
  0
LINE
  5
4EE
  8
A
 10
101.5
 20
136.0
 30
0.0
 11
109.5
 21
136.0
 31
0.0
  0
DIMENSION
  5
4EF
  8
DIM
  2
*D17
 10
28.5
 20
169.3184718959082
 30
0.0
 11
17.5
 21
169.3184718959082
 31
0.0
 70
   128
 13
6.5
 23
155.0
 33
0.0
 14
28.5
 24
155.0
 34
0.0
  0
DIMENSION
  5
507
  8
DIM
  2
*D18
 10
27.550000000000001
 20
106.5416932965627
 30
0.0
 11
17.5
 21
108.66908074540309
 31
0.0
 70
     0
 13
7.4499999999999984
 23
115.443
 33
0.0
 14
27.550000000000001
 24
115.443
 34
0.0
  0
DIMENSION
  5
528
  8
DIM
  2
*D19
 10
44.816932581135909
 20
136.0
 30
0.0
 11
42.936816619335069
 21
143.0
 31
0.0
 70
     0
 13
17.5
 23
150.0
 33
0.0
 14
17.5
 24
136.0
 34
0.0
 50
90.0
  0
LINE
  5
541
  8
A
 10
109.5
 20
136.0
 30
0.0
 11
109.5
 21
150.0
 31
0.0
  0
LINE
  5
542
  8
B
 10
105.5
 20
149.0
 30
0.0
 11
109.5
 21
149.0
 31
0.0
  0
LINE
  5
543
  8
B
 10
105.5
 20
137.0
 30
0.0
 11
109.5
 21
137.0
 31
0.0
  0
LINE
  5
544
  8
B
 10
101.5
 20
147.0
 30
0.0
 11
105.5
 21
147.0
 31
0.0
  0
LINE
  5
545
  8
B
 10
101.5
 20
139.0
 30
0.0
 11
105.5
 21
139.0
 31
0.0
  0
LINE
  5
547
  8
B
 10
105.5
 20
137.0
 30
0.0
 11
105.5
 21
149.0
 31
0.0
  0
LINE
  5
548
  8
E
 10
83.499999999999986
 20
125.49299999999999
 30
0.0
 11
109.5
 21
125.49299999999999
 31
0.0
  0
LINE
  5
54B
  8
B
 10
91.500000000000014
 20
127.49299999999999
 30
0.0
 11
101.5
 21
127.49299999999999
 31
0.0
  0
LINE
  5
54C
  8
B
 10
91.500000000000014
 20
123.49299999999999
 30
0.0
 11
101.5
 21
123.49299999999999
 31
0.0
  0
LINE
  5
54D
  8
B
 10
85.0
 20
103.0
 30
0.0
 11
128.0
 21
103.0
 31
0.0
  0
DIMENSION
  5
54E
  8
DIM
  2
*D20
 10
124.9354454300246
 20
137.0
 30
0.0
 11
123.0553294682238
 21
143.0
 31
0.0
 70
     0
 13
109.5
 23
149.0
 33
0.0
 14
109.5
 24
137.0
 34
0.0
 50
90.0
  0
DIMENSION
  5
581
  8
DIM
  2
*D21
 10
117.5205977329115
 20
139.0
 30
0.0
 11
115.6191652636072
 21
143.0
 31
0.0
 70
     0
 13
105.5
 23
147.0
 33
0.0
 14
105.5
 24
139.0
 34
0.0
 50
90.0
  0
DIMENSION
  5
5CC
  8
DIM
  2
*D24
 10
74.499235972294628
 20
93.0
 30
0.0
 11
72.597803502990374
 21
98.000000000000014
 31
0.0
 70
     0
 13
85.0
 23
103.0
 33
0.0
 14
85.0
 24
93.0
 34
0.0
 50
90.0
  0
DIMENSION
  5
5E4
  8
DIM
  2
*D25
 10
128.0
 20
81.478194181529943
 30
0.0
 11
106.5
 21
83.380479311134309
 31
0.0
 70
     0
 13
85.0
 23
93.0
 33
0.0
 14
128.0
 24
93.0
 34
0.0
  0
LINE
  5
615
  8
A
 10
0.0
 20
43.0
 30
0.0
 11
35.0
 21
43.0
 31
0.0
  0
LINE
  5
616
  8
A
 10
0.0
 20
43.0
 30
0.0
 11
0.0
 21
0.0
 31
0.0
  0
LINE
  5
617
  8
A
 10
0.0
 20
0.0
 30
0.0
 11
35.0
 21
0.0
 31
0.0
  0
LINE
  5
618
  8
A
 10
35.0
 20
0.0
 30
0.0
 11
35.0
 21
43.0
 31
0.0
  0
LINE
  5
619
  8
A
 10
6.5
 20
36.5
 30
0.0
 11
28.5
 21
36.5
 31
0.0
  0
LINE
  5
61A
  8
A
 10
6.5
 20
36.5
 30
0.0
 11
6.5
 21
6.5
 31
0.0
  0
LINE
  5
61B
  8
A
 10
28.5
 20
6.5
 30
0.0
 11
28.5
 21
36.5
 31
0.0
  0
DIMENSION
  5
61C
  8
DIM
  2
*D27
 10
101.5
 20
164.72195793826361
 30
0.0
 11
96.5
 21
166.6233904075678
 31
0.0
 70
     0
 13
91.5
 23
155.0
 33
0.0
 14
101.5
 24
155.0
 34
0.0
  0
DIMENSION
  5
634
  8
DIM
  2
*D28
 10
109.5
 20
164.72195793826361
 30
0.0
 11
105.5
 21
166.6233904075678
 31
0.0
 70
     0
 13
101.5
 23
150.0
 33
0.0
 14
109.5
 24
150.0
 34
0.0
  0
LINE
  5
64C
  8
A
 10
6.5
 20
26.5
 30
0.0
 11
28.5
 21
26.5
 31
0.0
  0
LINE
  5
64D
  8
A
 10
10.5
 20
18.5
 30
0.0
 11
24.500000000000011
 21
18.5
 31
0.0
  0
LINE
  5
64E
  8
E
 10
17.5
 20
47.927504211803353
 30
0.0
 11
17.5
 21
13.57051290403524
 31
0.0
  0
LINE
  5
64F
  8
B
 10
11.499999999999989
 20
22.5
 30
0.0
 11
11.5
 21
18.500000000000011
 31
0.0
  0
LINE
  5
650
  8
B
 10
23.5
 20
22.5
 30
0.0
 11
23.5
 21
18.5
 31
0.0
  0
LINE
  5
651
  8
A
 10
10.5
 20
26.5
 30
0.0
 11
10.5
 21
18.5
 31
0.0
  0
LINE
  5
652
  8
A
 10
24.500000000000011
 20
26.5
 30
0.0
 11
24.500000000000011
 21
18.5
 31
0.0
  0
LINE
  5
653
  8
B
 10
11.499999999999989
 20
22.5
 30
0.0
 11
23.5
 21
22.5
 31
0.0
  0
LINE
  5
654
  8
B
 10
13.5
 20
26.5
 30
0.0
 11
13.5
 21
22.5
 31
0.0
  0
LINE
  5
655
  8
B
 10
21.5
 20
26.5
 30
0.0
 11
21.5
 21
22.5
 31
0.0
  0
DIMENSION
  5
656
  8
DIM
  2
*D29
 10
-6.0973565685599169
 20
18.500000000000021
 30
0.0
 11
-7.9723565685599214
 21
20.500000000000011
 31
0.0
 70
     0
 13
11.499999999999989
 23
22.5
 33
0.0
 14
11.5
 24
18.500000000000011
 34
0.0
 50
90.0
  0
LINE
  5
6B8
  8
A
 10
6.5
 20
6.5
 30
0.0
 11
28.5
 21
6.5
 31
0.0
  0
LINE
  5
6B9
  8
A
 10
7.4499999999999993
 20
26.5
 30
0.0
 11
7.4499999999999984
 21
6.5
 31
0.0
  0
LINE
  5
6BA
  8
A
 10
27.550000000000011
 20
26.5
 30
0.0
 11
27.550000000000001
 21
6.5
 31
0.0
  0
LINE
  5
6BE
  8
B
 10
15.5
 20
36.5
 30
0.0
 11
15.5
 21
26.5
 31
0.0
  0
LINE
  5
6BF
  8
B
 10
19.5
 20
36.5
 30
0.0
 11
19.5
 21
26.5
 31
0.0
  0
LINE
  5
6C0
  8
B
 10
25.5
 20
36.5
 30
0.0
 11
25.5
 21
26.5
 31
0.0
  0
LINE
  5
6C1
  8
B
 10
9.5
 20
36.5
 30
0.0
 11
9.5
 21
26.5
 31
0.0
  0
DIMENSION
  5
6C2
  8
DIM
  2
*D31
 10
46.011742446557037
 20
6.4999999999999938
 30
0.0
 11
44.110309977252797
 21
16.5
 31
0.0
 70
     0
 13
28.5
 23
26.5
 33
0.0
 14
28.5
 24
6.5
 34
0.0
 50
90.0
  0
CIRCLE
  5
6EC
  8
B
 10
17.5
 20
143.0
 30
0.0
 40
8.0
  0
LINE
  5
6F6
  8
B
 10
91.5
 20
151.0
 30
0.0
 11
101.5
 21
151.0
 31
0.0
  0
LINE
  5
6F7
  8
B
 10
91.5
 20
135.0
 30
0.0
 11
101.5
 21
135.0
 31
0.0
  0
DIMENSION
  5
6F8
  8
DIM
  2
*D32
 10
76.378878074077875
 20
135.0
 30
0.0
 11
74.477445604773635
 21
143.0
 31
0.0
 70
     0
 13
91.5
 23
151.0
 33
0.0
 14
91.5
 24
135.0
 34
0.0
 50
90.0
  0
LINE
  5
72B
  8
B
 10
7.5
 20
43.0
 30
0.0
 11
7.5
 21
0.0
 31
0.0
  0
LINE
  5
72C
  8
B
 10
27.5
 20
0.0
 30
0.0
 11
27.5
 21
43.0
 31
0.0
  0
ENDSEC
  0
EOF
