  0
SECTION
  2
HEADER
  9
$ACADVER
  1
AC1009
  9
$INSBASE
 10
0.0
 20
0.0
 30
0.0
  9
$EXTMIN
 10
-37.727965374626137
 20
-11.927855767691311
 30
-0.0015258207003583
  9
$EXTMAX
 10
181.48132394240389
 20
208.86438047171609
 30
0.0000000349246037
  9
$LIMMIN
 10
0.0
 20
0.0
  9
$LIMMAX
 10
420.0
 20
297.0
  9
$ORTHOMODE
 70
     1
  9
$REGENMODE
 70
     1
  9
$FILLMODE
 70
     1
  9
$QTEXTMODE
 70
     0
  9
$MIRRTEXT
 70
     0
  9
$DRAGMODE
 70
     2
  9
$LTSCALE
 40
1.0
  9
$OSMODE
 70
    39
  9
$ATTMODE
 70
     1
  9
$TEXTSIZE
 40
2.5
  9
$TRACEWID
 40
1.0
  9
$TEXTSTYLE
  7
STANDARD
  9
$CLAYER
  8
0
  9
$CELTYPE
  6
BYLAYER
  9
$CECOLOR
 62
   256
  9
$DIMSCALE
 40
1.0
  9
$DIMASZ
 40
2.5
  9
$DIMEXO
 40
0.625
  9
$DIMDLI
 40
3.75
  9
$DIMRND
 40
0.0
  9
$DIMDLE
 40
0.0
  9
$DIMEXE
 40
1.25
  9
$DIMTP
 40
0.0
  9
$DIMTM
 40
0.0
  9
$DIMTXT
 40
2.5
  9
$DIMCEN
 40
2.5
  9
$DIMTSZ
 40
0.0
  9
$DIMTOL
 70
     0
  9
$DIMLIM
 70
     0
  9
$DIMTIH
 70
     0
  9
$DIMTOH
 70
     0
  9
$DIMSE1
 70
     0
  9
$DIMSE2
 70
     0
  9
$DIMTAD
 70
     1
  9
$DIMZIN
 70
     8
  9
$DIMBLK
  1

  9
$DIMASO
 70
     1
  9
$DIMSHO
 70
     1
  9
$DIMPOST
  1

  9
$DIMAPOST
  1

  9
$DIMALT
 70
     0
  9
$DIMALTD
 70
     3
  9
$DIMALTF
 40
0.03937007874016
  9
$DIMLFAC
 40
1.0
  9
$DIMTOFL
 70
     1
  9
$DIMTVP
 40
0.0
  9
$DIMTIX
 70
     0
  9
$DIMSOXD
 70
     0
  9
$DIMSAH
 70
     0
  9
$DIMBLK1
  1

  9
$DIMBLK2
  1

  9
$DIMSTYLE
  2
ISO-25
  9
$DIMCLRD
 70
     0
  9
$DIMCLRE
 70
     0
  9
$DIMCLRT
 70
     0
  9
$DIMTFAC
 40
1.0
  9
$DIMGAP
 40
0.625
  9
$LUNITS
 70
     2
  9
$LUPREC
 70
     4
  9
$SKETCHINC
 40
1.0
  9
$FILLETRAD
 40
0.0
  9
$AUNITS
 70
     0
  9
$AUPREC
 70
     0
  9
$MENU
  1
.
  9
$ELEVATION
 40
0.0
  9
$PELEVATION
 40
0.0
  9
$THICKNESS
 40
0.0
  9
$LIMCHECK
 70
     0
  9
$BLIPMODE
 70
     0
  9
$CHAMFERA
 40
0.0
  9
$CHAMFERB
 40
0.0
  9
$SKPOLY
 70
     0
  9
$TDCREATE
 40
2457581.80406853
  9
$TDUPDATE
 40
2457582.0108535411
  9
$TDINDWG
 40
0.2067862384
  9
$TDUSRTIMER
 40
0.2067862037
  9
$USRTIMER
 70
     1
  9
$ANGBASE
 50
0.0
  9
$ANGDIR
 70
     0
  9
$PDMODE
 70
     0
  9
$PDSIZE
 40
0.0
  9
$PLINEWID
 40
0.0
  9
$COORDS
 70
     1
  9
$SPLFRAME
 70
     0
  9
$SPLINETYPE
 70
     6
  9
$SPLINESEGS
 70
     8
  9
$ATTDIA
 70
     1
  9
$ATTREQ
 70
     1
  9
$HANDLING
 70
     1
  9
$HANDSEED
  5
A42
  9
$SURFTAB1
 70
     6
  9
$SURFTAB2
 70
     6
  9
$SURFTYPE
 70
     6
  9
$SURFU
 70
     6
  9
$SURFV
 70
     6
  9
$UCSNAME
  2

  9
$UCSORG
 10
0.0
 20
0.0
 30
0.0
  9
$UCSXDIR
 10
1.0
 20
0.0
 30
0.0
  9
$UCSYDIR
 10
0.0
 20
1.0
 30
0.0
  9
$PUCSNAME
  2

  9
$PUCSORG
 10
0.0
 20
0.0
 30
0.0
  9
$PUCSXDIR
 10
1.0
 20
0.0
 30
0.0
  9
$PUCSYDIR
 10
0.0
 20
1.0
 30
0.0
  9
$USERI1
 70
     0
  9
$USERI2
 70
     0
  9
$USERI3
 70
     0
  9
$USERI4
 70
     0
  9
$USERI5
 70
     0
  9
$USERR1
 40
0.0
  9
$USERR2
 40
0.0
  9
$USERR3
 40
0.0
  9
$USERR4
 40
0.0
  9
$USERR5
 40
0.0
  9
$WORLDVIEW
 70
     1
  9
$SHADEDGE
 70
     3
  9
$SHADEDIF
 70
    70
  9
$TILEMODE
 70
     1
  9
$MAXACTVP
 70
    64
  9
$PLIMCHECK
 70
     0
  9
$PEXTMIN
 10
0.0
 20
0.0
 30
0.0
  9
$PEXTMAX
 10
0.0
 20
0.0
 30
0.0
  9
$PLIMMIN
 10
0.0
 20
0.0
  9
$PLIMMAX
 10
12.0
 20
9.0
  9
$UNITMODE
 70
     0
  9
$VISRETAIN
 70
     1
  9
$PLINEGEN
 70
     0
  9
$PSLTSCALE
 70
     1
  0
ENDSEC
  0
SECTION
  2
TABLES
  0
TABLE
  2
VPORT
 70
     1
  0
VPORT
  2
*ACTIVE
 70
     0
 10
0.0
 20
0.0
 11
1.0
 21
1.0
 12
149.13845858087731
 22
112.01246833702039
 13
0.0
 23
0.0
 14
10.0
 24
10.0
 15
10.0
 25
10.0
 16
0.0
 26
0.0
 36
1.0
 17
0.0
 27
0.0
 37
0.0
 40
282.57206437469898
 41
2.315403422982885
 42
50.0
 43
0.0
 44
0.0
 50
0.0
 51
0.0
 71
     0
 72
  1000
 73
     1
 74
     3
 75
     0
 76
     1
 77
     0
 78
     0
  0
ENDTAB
  0
TABLE
  2
LTYPE
 70
     6
  0
LTYPE
  2
CONTINUOUS
 70
     0
  3
Solid line
 72
    65
 73
     0
 40
0.0
  0
LTYPE
  2
ACAD_ISO02W100
 70
     0
  3
ISO dash __ __ __ __ __ __ __ __ __ __ __ __ __
 72
    65
 73
     2
 40
15.0
 49
12.0
 49
-3.0
  0
LTYPE
  2
DASHED2
 70
     0
  3
Dashed (.5x) _ _ _ _ _ _ _ _ _ _ _ _ _ _ _ _ _
 72
    65
 73
     2
 40
9.5249999999999986
 49
6.3499999999999988
 49
-3.1749999999999989
  0
LTYPE
  2
CENTER
 70
     0
  3
Center ____ _ ____ _ ____ _ ____ _ ____ _ ____
 72
    65
 73
     4
 40
50.799999999999997
 49
31.75
 49
-6.3499999999999988
 49
6.3499999999999988
 49
-6.3499999999999988
  0
LTYPE
  2
CENTER2
 70
     0
  3
Center (.5x) ___ _ ___ _ ___ _ ___ _ ___ _ ___
 72
    65
 73
     4
 40
28.574999999999999
 49
19.050000000000001
 49
-3.1749999999999989
 49
3.1749999999999989
 49
-3.1749999999999989
  0
ENDTAB
  0
TABLE
  2
LAYER
 70
     6
  0
LAYER
  2
0
 70
     0
 62
     7
  6
CONTINUOUS
  0
LAYER
  2
A
 70
     0
 62
    10
  6
CONTINUOUS
  0
LAYER
  2
B
 70
     0
 62
    40
  6
DASHED2
  0
LAYER
  2
E
 70
     0
 62
   102
  6
CENTER2
  0
LAYER
  2
DIM
 70
     0
 62
   144
  6
CONTINUOUS
  0
LAYER
  2
DEFPOINTS
 70
     0
 62
     7
  6
CONTINUOUS
  0
ENDTAB
  0
TABLE
  2
STYLE
 70
     6
  0
STYLE
  2
STANDARD
 70
     0
 40
0.0
 41
1.0
 50
0.0
 71
     0
 42
2.5
  3
txt
  4

  0
STYLE
  2
ANNOTATIVE
 70
     0
 40
0.0
 41
1.0
 50
0.0
 71
     0
 42
2.5
  3
txt
  4

  0
STYLE
  2

 70
     1
 40
0.0
 41
1.0
 50
0.0
 71
     0
 42
2.5
  3
ltypeshp.shx
  4

  0
ENDTAB
  0
TABLE
  2
VIEW
 70
     3
  0
ENDTAB
  0
TABLE
  2
UCS
 70
     0
  0
ENDTAB
  0
TABLE
  2
APPID
 70
    12
  0
APPID
  2
ACAD
 70
     0
  0
APPID
  2
ACAD_PSEXT
 70
     0
  0
APPID
  2
ACADANNOPO
 70
     0
  0
APPID
  2
ACADANNOTATIVE
 70
     0
  0
APPID
  2
ACAD_DSTYLE_DIMJAG
 70
     0
  0
APPID
  2
ACAD_DSTYLE_DIMTALN
 70
     0
  0
APPID
  2
ACAD_MLEADERVER
 70
     0
  0
APPID
  2
ACAD_NAV_VCDISPLAY
 70
     0
  0
APPID
  2
ACAD_EXEMPT_FROM_CAD_STANDARDS
 70
     0
  0
APPID
  2
ACAECLAYERSTANDARD
 70
     0
  0
APPID
  2
ACCMTRANSPARENCY
 70
     0
  0
APPID
  2
ACAD_DSTYLE_DIMRADIAL_EXTENSION
 70
     0
  0
ENDTAB
  0
TABLE
  2
DIMSTYLE
 70
     7
  0
DIMSTYLE
  2
STANDARD
 70
     0
  3

  4

  5

  6

  7

 40
1.0
 41
0.18
 42
0.0625
 43
0.38
 44
0.18
 45
0.0
 46
0.0
 47
0.0
 48
0.0
140
0.18
141
0.09
142
0.0
143
25.399999999999999
144
1.0
145
0.0
146
1.0
147
0.09
 71
     0
 72
     0
 73
     1
 74
     1
 75
     0
 76
     0
 77
     0
 78
     0
170
     0
171
     2
172
     0
173
     0
174
     0
175
     0
176
     0
177
     0
178
     0
  0
DIMSTYLE
  2
ANNOTATIVE
 70
     0
  3

  4

  5

  6

  7

 40
0.0
 41
2.5
 42
0.625
 43
3.75
 44
1.25
 45
0.0
 46
0.0
 47
0.0
 48
0.0
140
2.5
141
2.5
142
0.0
143
0.03937007874016
144
1.0
145
0.0
146
1.0
147
0.625
 71
     0
 72
     0
 73
     0
 74
     0
 75
     0
 76
     0
 77
     1
 78
     8
170
     0
171
     3
172
     1
173
     0
174
     0
175
     0
176
     0
177
     0
178
     0
  0
DIMSTYLE
  2
ISO-25
 70
     0
  3

  4

  5

  6

  7

 40
1.0
 41
2.5
 42
0.625
 43
3.75
 44
1.25
 45
0.0
 46
0.0
 47
0.0
 48
0.0
140
2.5
141
2.5
142
0.0
143
0.03937007874016
144
1.0
145
0.0
146
1.0
147
0.625
 71
     0
 72
     0
 73
     0
 74
     0
 75
     0
 76
     0
 77
     1
 78
     8
170
     0
171
     3
172
     1
173
     0
174
     0
175
     0
176
     0
177
     0
178
     0
  0
ENDTAB
  0
ENDSEC
  0
SECTION
  2
BLOCKS
  0
BLOCK
  8
0
  2
$MODEL_SPACE
 70
     0
 10
0.0
 20
0.0
 30
0.0
  3
$MODEL_SPACE
  1

  0
ENDBLK
  5
21
  8
0
  0
BLOCK
 67
     1
  8
0
  2
$PAPER_SPACE
 70
     0
 10
0.0
 20
0.0
 30
0.0
  3
$PAPER_SPACE
  1

  0
ENDBLK
  5
D5
 67
     1
  8
0
  0
BLOCK
  8
0
  2
*D2
 70
     1
 10
0.0
 20
0.0
 30
0.0
  3
*D2
  1

  0
LINE
  5
2D6
  8
DIM
 62
     0
 10
-0.6249999999999935
 20
58.0
 30
0.0
 11
-20.16296764358593
 21
58.0
 31
0.0
  0
LINE
  5
2D7
  8
DIM
 62
     0
 10
-0.6249999999999951
 20
42.0
 30
0.0
 11
-20.16296764358594
 21
42.000000000000007
 31
0.0
  0
LINE
  5
2D8
  8
DIM
 62
     0
 10
-18.91296764358594
 20
55.5
 30
0.0
 11
-18.91296764358594
 21
44.500000000000007
 31
0.0
  0
SOLID
  5
2D9
  8
DIM
 62
     0
 10
-19.329634310252601
 20
55.5
 30
0.0
 11
-18.496300976919269
 21
55.5
 31
0.0
 12
-18.91296764358593
 22
58.0
 32
0.0
 13
-18.91296764358593
 23
58.0
 33
0.0
  0
SOLID
  5
2DA
  8
DIM
 62
     0
 10
-19.329634310252601
 20
44.500000000000007
 30
0.0
 11
-18.496300976919269
 21
44.500000000000007
 31
0.0
 12
-18.91296764358594
 22
42.000000000000007
 32
0.0
 13
-18.91296764358594
 23
42.000000000000007
 33
0.0
  0
INSERT
  5
2DB
  8
0
  2
*U43
 10
0.0
 20
0.0
 30
0.0
  0
POINT
  5
2DC
  8
DEFPOINTS
 62
     0
 10
0.0000000000000067
 20
58.0
 30
0.0
  0
POINT
  5
2DD
  8
DEFPOINTS
 62
     0
 10
0.000000000000005
 20
42.0
 30
0.0
  0
POINT
  5
2DE
  8
DEFPOINTS
 62
     0
 10
-18.91296764358594
 20
42.000000000000007
 30
0.0
  0
ENDBLK
  5
2A9
  8
0
  0
BLOCK
  8
0
  2
*D3
 70
     1
 10
0.0
 20
0.0
 30
0.0
  3
*D3
  1

  0
LINE
  5
2DF
  8
DIM
 62
     0
 10
1.375000000000006
 20
54.0
 30
0.0
 11
-13.492648600674171
 21
54.0
 31
0.0
  0
LINE
  5
2E0
  8
DIM
 62
     0
 10
1.3750000000000051
 20
46.0
 30
0.0
 11
-13.492648600674171
 21
46.0
 31
0.0
  0
LINE
  5
2E1
  8
DIM
 62
     0
 10
-12.242648600674171
 20
51.5
 30
0.0
 11
-12.242648600674171
 21
48.5
 31
0.0
  0
SOLID
  5
2E2
  8
DIM
 62
     0
 10
-12.65931526734084
 20
51.5
 30
0.0
 11
-11.82598193400751
 21
51.5
 31
0.0
 12
-12.242648600674171
 22
54.0
 32
0.0
 13
-12.242648600674171
 23
54.0
 33
0.0
  0
SOLID
  5
2E3
  8
DIM
 62
     0
 10
-12.65931526734084
 20
48.5
 30
0.0
 11
-11.82598193400751
 21
48.5
 31
0.0
 12
-12.242648600674171
 22
46.0
 32
0.0
 13
-12.242648600674171
 23
46.0
 33
0.0
  0
INSERT
  5
2E4
  8
0
  2
*U44
 10
0.0
 20
0.0
 30
0.0
  0
POINT
  5
2E5
  8
DEFPOINTS
 62
     0
 10
2.0000000000000062
 20
54.0
 30
0.0
  0
POINT
  5
2E6
  8
DEFPOINTS
 62
     0
 10
2.0000000000000049
 20
46.0
 30
0.0
  0
POINT
  5
2E7
  8
DEFPOINTS
 62
     0
 10
-12.242648600674171
 20
46.0
 30
0.0
  0
ENDBLK
  5
2C1
  8
0
  0
BLOCK
  8
0
  2
*D4
 70
     1
 10
0.0
 20
0.0
 30
0.0
  3
*D4
  1

  0
LINE
  5
319
  8
A
 62
     0
 10
20.725000000000009
 20
-90.0
 30
0.0
 11
49.689857723558823
 21
-90.000000000000014
 31
0.0
  0
LINE
  5
31A
  8
A
 62
     0
 10
8.6249999999999982
 20
-130.19999999999999
 30
0.0
 11
49.689857723558823
 21
-130.19999999999999
 31
0.0
  0
LINE
  5
31B
  8
A
 62
     0
 10
48.439857723558823
 20
-92.500000000000014
 30
0.0
 11
48.439857723558823
 21
-127.7
 31
0.0
  0
SOLID
  5
31C
  8
A
 62
     0
 10
48.023191056892159
 20
-92.500000000000014
 30
0.0
 11
48.856524390225488
 21
-92.500000000000014
 31
0.0
 12
48.439857723558823
 22
-90.000000000000014
 32
0.0
 13
48.439857723558823
 23
-90.000000000000014
 33
0.0
  0
SOLID
  5
31D
  8
A
 62
     0
 10
48.023191056892152
 20
-127.7
 30
0.0
 11
48.856524390225481
 21
-127.7
 31
0.0
 12
48.439857723558823
 22
-130.19999999999999
 32
0.0
 13
48.439857723558823
 23
-130.19999999999999
 33
0.0
  0
INSERT
  5
31E
  8
0
  2
*U45
 10
0.0
 20
0.0
 30
0.0
  0
POINT
  5
31F
  8
DEFPOINTS
 62
     0
 10
20.100000000000009
 20
-90.0
 30
0.0
  0
POINT
  5
320
  8
DEFPOINTS
 62
     0
 10
7.9999999999999973
 20
-130.19999999999999
 30
0.0
  0
POINT
  5
321
  8
DEFPOINTS
 62
     0
 10
48.439857723558823
 20
-130.19999999999999
 30
0.0
  0
ENDBLK
  5
30E
  8
0
  0
BLOCK
  8
0
  2
*D5
 70
     1
 10
0.0
 20
0.0
 30
0.0
  3
*D5
  1

  0
LINE
  5
3C9
  8
DIM
 62
     0
 10
-0.625
 20
-50.0
 30
0.0
 11
-11.13546235938883
 21
-50.0
 31
0.0
  0
LINE
  5
3CA
  8
DIM
 62
     0
 10
-0.625
 20
-90.0
 30
0.0
 11
-11.135462359388841
 21
-90.0
 31
0.0
  0
LINE
  5
3CB
  8
DIM
 62
     0
 10
-9.8854623593888302
 20
-52.5
 30
0.0
 11
-9.8854623593888391
 21
-87.5
 31
0.0
  0
SOLID
  5
3CC
  8
DIM
 62
     0
 10
-10.302129026055489
 20
-52.5
 30
0.0
 11
-9.4687956927221641
 21
-52.5
 31
0.0
 12
-9.8854623593888302
 22
-50.0
 32
0.0
 13
-9.8854623593888302
 23
-50.0
 33
0.0
  0
SOLID
  5
3CD
  8
DIM
 62
     0
 10
-10.3021290260555
 20
-87.5
 30
0.0
 11
-9.468795692722173
 21
-87.5
 31
0.0
 12
-9.8854623593888391
 22
-90.0
 32
0.0
 13
-9.8854623593888391
 23
-90.0
 33
0.0
  0
INSERT
  5
3CE
  8
0
  2
*U49
 10
0.0
 20
0.0
 30
0.0
  0
POINT
  5
3CF
  8
DEFPOINTS
 62
     0
 10
0.0
 20
-50.0
 30
0.0
  0
POINT
  5
3D0
  8
DEFPOINTS
 62
     0
 10
0.0
 20
-90.0
 30
0.0
  0
POINT
  5
3D1
  8
DEFPOINTS
 62
     0
 10
-9.8854623593888391
 20
-90.0
 30
0.0
  0
ENDBLK
  5
327
  8
0
  0
BLOCK
  8
0
  2
*D6
 70
     1
 10
0.0
 20
0.0
 30
0.0
  3
*D6
  1

  0
LINE
  5
4E8
  8
DIM
 62
     0
 10
-0.625
 20
-90.0
 30
0.0
 11
-27.039809054878798
 21
-90.0
 31
0.0
  0
LINE
  5
4E9
  8
DIM
 62
     0
 10
-0.625
 20
-130.0
 30
0.0
 11
-27.039809054878809
 21
-130.0
 31
0.0
  0
LINE
  5
4EA
  8
DIM
 62
     0
 10
-25.789809054878798
 20
-92.5
 30
0.0
 11
-25.789809054878809
 21
-127.5
 31
0.0
  0
SOLID
  5
4EB
  8
DIM
 62
     0
 10
-26.20647572154547
 20
-92.5
 30
0.0
 11
-25.373142388212141
 21
-92.5
 31
0.0
 12
-25.789809054878798
 22
-90.0
 32
0.0
 13
-25.789809054878798
 23
-90.0
 33
0.0
  0
SOLID
  5
4EC
  8
DIM
 62
     0
 10
-26.20647572154548
 20
-127.5
 30
0.0
 11
-25.373142388212141
 21
-127.5
 31
0.0
 12
-25.789809054878809
 22
-130.0
 32
0.0
 13
-25.789809054878809
 23
-130.0
 33
0.0
  0
INSERT
  5
4ED
  8
0
  2
*U53
 10
0.0
 20
0.0
 30
0.0
  0
POINT
  5
4EE
  8
DEFPOINTS
 62
     0
 10
0.0
 20
-90.0
 30
0.0
  0
POINT
  5
4EF
  8
DEFPOINTS
 62
     0
 10
0.0
 20
-130.0
 30
0.0
  0
POINT
  5
4F0
  8
DEFPOINTS
 62
     0
 10
-25.789809054878809
 20
-130.0
 30
0.0
  0
ENDBLK
  5
33F
  8
0
  0
BLOCK
  8
0
  2
*D7
 70
     1
 10
0.0
 20
0.0
 30
0.0
  3
*D7
  1

  0
LINE
  5
362
  8
A
 62
     0
 10
0.0000000000000071
 20
60.725000000000001
 30
0.0
 11
0.0000000000000078
 21
71.241131056557606
 31
0.0
  0
LINE
  5
363
  8
A
 62
     0
 10
40.200000000000003
 20
60.725000000000001
 30
0.0
 11
40.200000000000003
 21
71.241131056557606
 31
0.0
  0
LINE
  5
364
  8
A
 62
     0
 10
2.5000000000000071
 20
69.991131056557606
 30
0.0
 11
37.700000000000003
 21
69.991131056557606
 31
0.0
  0
SOLID
  5
365
  8
A
 62
     0
 10
2.5000000000000071
 20
70.407797723224263
 30
0.0
 11
2.5000000000000071
 21
69.574464389890935
 31
0.0
 12
0.0000000000000077
 22
69.991131056557606
 32
0.0
 13
0.0000000000000077
 23
69.991131056557606
 33
0.0
  0
SOLID
  5
366
  8
A
 62
     0
 10
37.700000000000003
 20
70.407797723224263
 30
0.0
 11
37.700000000000003
 21
69.574464389890935
 31
0.0
 12
40.200000000000003
 22
69.991131056557606
 32
0.0
 13
40.200000000000003
 23
69.991131056557606
 33
0.0
  0
INSERT
  5
367
  8
0
  2
*U46
 10
0.0
 20
0.0
 30
0.0
  0
POINT
  5
368
  8
DEFPOINTS
 62
     0
 10
0.0000000000000071
 20
60.100000000000001
 30
0.0
  0
POINT
  5
369
  8
DEFPOINTS
 62
     0
 10
40.200000000000003
 20
60.100000000000001
 30
0.0
  0
POINT
  5
36A
  8
DEFPOINTS
 62
     0
 10
40.200000000000003
 20
69.991131056557606
 30
0.0
  0
ENDBLK
  5
357
  8
0
  0
BLOCK
  8
0
  2
*D8
 70
     1
 10
0.0
 20
0.0
 30
0.0
  3
*D8
  1

  0
LINE
  5
37A
  8
A
 62
     0
 10
0.0
 20
-49.375
 30
0.0
 11
0.0000000000000008
 21
-37.195267163710923
 31
0.0
  0
LINE
  5
37B
  8
A
 62
     0
 10
40.20000000000001
 20
-49.375
 30
0.0
 11
40.20000000000001
 21
-37.195267163710923
 31
0.0
  0
LINE
  5
37C
  8
A
 62
     0
 10
2.5
 20
-38.445267163710923
 30
0.0
 11
37.70000000000001
 21
-38.445267163710923
 31
0.0
  0
SOLID
  5
37D
  8
A
 62
     0
 10
2.5
 20
-38.028600497044259
 30
0.0
 11
2.5
 21
-38.861933830377588
 31
0.0
 12
0.0000000000000007
 22
-38.445267163710923
 32
0.0
 13
0.0000000000000007
 23
-38.445267163710923
 33
0.0
  0
SOLID
  5
37E
  8
A
 62
     0
 10
37.70000000000001
 20
-38.028600497044259
 30
0.0
 11
37.70000000000001
 21
-38.861933830377588
 31
0.0
 12
40.20000000000001
 22
-38.445267163710923
 32
0.0
 13
40.20000000000001
 23
-38.445267163710923
 33
0.0
  0
INSERT
  5
37F
  8
0
  2
*U47
 10
0.0
 20
0.0
 30
0.0
  0
POINT
  5
380
  8
DEFPOINTS
 62
     0
 10
0.0
 20
-50.0
 30
0.0
  0
POINT
  5
381
  8
DEFPOINTS
 62
     0
 10
40.20000000000001
 20
-50.0
 30
0.0
  0
POINT
  5
382
  8
DEFPOINTS
 62
     0
 10
40.20000000000001
 20
-38.445267163710923
 30
0.0
  0
ENDBLK
  5
36F
  8
0
  0
BLOCK
  8
0
  2
*D9
 70
     1
 10
0.0
 20
0.0
 30
0.0
  3
*D9
  1

  0
LINE
  5
398
  8
A
 62
     0
 10
-0.6249999999999977
 20
20.050000000000001
 30
0.0
 11
-14.277144919788039
 21
20.050000000000011
 31
0.0
  0
LINE
  5
399
  8
A
 62
     0
 10
-0.625
 20
0.0000000000000002
 30
0.0
 11
-14.277144919788039
 21
0.000000000000004
 31
0.0
  0
LINE
  5
39A
  8
A
 62
     0
 10
-13.027144919788039
 20
17.550000000000001
 30
0.0
 11
-13.027144919788039
 21
2.5000000000000031
 31
0.0
  0
SOLID
  5
39B
  8
A
 62
     0
 10
-13.4438115864547
 20
17.550000000000001
 30
0.0
 11
-12.61047825312137
 21
17.550000000000001
 31
0.0
 12
-13.027144919788039
 22
20.050000000000011
 32
0.0
 13
-13.027144919788039
 23
20.050000000000011
 33
0.0
  0
SOLID
  5
39C
  8
A
 62
     0
 10
-13.443811586454711
 20
2.5000000000000031
 30
0.0
 11
-12.61047825312137
 21
2.5000000000000031
 31
0.0
 12
-13.027144919788039
 22
0.0000000000000037
 32
0.0
 13
-13.027144919788039
 23
0.0000000000000037
 33
0.0
  0
INSERT
  5
39D
  8
0
  2
*U48
 10
0.0
 20
0.0
 30
0.0
  0
POINT
  5
39E
  8
DEFPOINTS
 62
     0
 10
0.0000000000000024
 20
20.050000000000001
 30
0.0
  0
POINT
  5
39F
  8
DEFPOINTS
 62
     0
 10
0.0
 20
0.0
 30
0.0
  0
POINT
  5
3A0
  8
DEFPOINTS
 62
     0
 10
-13.027144919788039
 20
0.0000000000000037
 30
0.0
  0
ENDBLK
  5
38D
  8
0
  0
BLOCK
  8
0
  2
*D10
 70
     1
 10
0.0
 20
0.0
 30
0.0
  3
*D10
  1

  0
LINE
  5
7C9
  8
DIM
 62
     0
 10
-0.625
 20
160.0
 30
0.0
 11
-10.9812888001179
 21
160.0
 31
0.0
  0
LINE
  5
7CA
  8
DIM
 62
     0
 10
-0.625
 20
150.0
 30
0.0
 11
-10.981288800117911
 21
150.0
 31
0.0
  0
LINE
  5
7CB
  8
DIM
 62
     0
 10
-9.7312888001179072
 20
157.5
 30
0.0
 11
-9.7312888001179072
 21
152.5
 31
0.0
  0
SOLID
  5
7CC
  8
DIM
 62
     0
 10
-10.14795546678457
 20
157.5
 30
0.0
 11
-9.3146221334512411
 21
157.5
 31
0.0
 12
-9.7312888001179072
 22
160.0
 32
0.0
 13
-9.7312888001179072
 23
160.0
 33
0.0
  0
SOLID
  5
7CD
  8
DIM
 62
     0
 10
-10.14795546678457
 20
152.5
 30
0.0
 11
-9.3146221334512411
 21
152.5
 31
0.0
 12
-9.7312888001179072
 22
150.0
 32
0.0
 13
-9.7312888001179072
 23
150.0
 33
0.0
  0
INSERT
  5
7CE
  8
0
  2
*U60
 10
0.0
 20
0.0
 30
0.0
  0
POINT
  5
7CF
  8
DEFPOINTS
 62
     0
 10
0.0
 20
160.0
 30
0.0
  0
POINT
  5
7D0
  8
DEFPOINTS
 62
     0
 10
0.0
 20
150.0
 30
0.0
  0
POINT
  5
7D1
  8
DEFPOINTS
 62
     0
 10
-9.7312888001179072
 20
150.0
 30
0.0
  0
ENDBLK
  5
3DE
  8
0
  0
BLOCK
  8
0
  2
*D11
 70
     1
 10
0.0
 20
0.0
 30
0.0
  3
*D11
  1

  0
LINE
  5
7D2
  8
DIM
 62
     0
 10
-0.625
 20
150.0
 30
0.0
 11
-10.981288800117911
 21
150.0
 31
0.0
  0
LINE
  5
7D3
  8
DIM
 62
     0
 10
-0.625
 20
130.0
 30
0.0
 11
-10.981288800117911
 21
130.0
 31
0.0
  0
LINE
  5
7D4
  8
DIM
 62
     0
 10
-9.7312888001179108
 20
147.5
 30
0.0
 11
-9.7312888001179125
 21
132.5
 31
0.0
  0
SOLID
  5
7D5
  8
DIM
 62
     0
 10
-10.14795546678457
 20
147.5
 30
0.0
 11
-9.3146221334512447
 21
147.5
 31
0.0
 12
-9.7312888001179072
 22
150.0
 32
0.0
 13
-9.7312888001179072
 23
150.0
 33
0.0
  0
SOLID
  5
7D6
  8
DIM
 62
     0
 10
-10.14795546678458
 20
132.5
 30
0.0
 11
-9.3146221334512465
 21
132.5
 31
0.0
 12
-9.7312888001179143
 22
130.0
 32
0.0
 13
-9.7312888001179143
 23
130.0
 33
0.0
  0
INSERT
  5
7D7
  8
0
  2
*U61
 10
0.0
 20
0.0
 30
0.0
  0
POINT
  5
7D8
  8
DEFPOINTS
 62
     0
 10
0.0
 20
150.0
 30
0.0
  0
POINT
  5
7D9
  8
DEFPOINTS
 62
     0
 10
0.0
 20
130.0
 30
0.0
  0
POINT
  5
7DA
  8
DEFPOINTS
 62
     0
 10
-9.7312888001179143
 20
130.0
 30
0.0
  0
ENDBLK
  5
3F6
  8
0
  0
BLOCK
  8
0
  2
*D12
 70
     1
 10
0.0
 20
0.0
 30
0.0
  3
*D12
  1

  0
LINE
  5
7DB
  8
DIM
 62
     0
 10
-0.625
 20
190.0
 30
0.0
 11
-35.127220614174767
 21
190.0
 31
0.0
  0
LINE
  5
7DC
  8
DIM
 62
     0
 10
-0.625
 20
130.0
 30
0.0
 11
-35.127220614174782
 21
130.0
 31
0.0
  0
LINE
  5
7DD
  8
DIM
 62
     0
 10
-33.877220614174767
 20
187.5
 30
0.0
 11
-33.877220614174782
 21
132.5
 31
0.0
  0
SOLID
  5
7DE
  8
DIM
 62
     0
 10
-34.293887280841432
 20
187.5
 30
0.0
 11
-33.460553947508103
 21
187.5
 31
0.0
 12
-33.877220614174767
 22
190.0
 32
0.0
 13
-33.877220614174767
 23
190.0
 33
0.0
  0
SOLID
  5
7DF
  8
DIM
 62
     0
 10
-34.293887280841453
 20
132.5
 30
0.0
 11
-33.460553947508117
 21
132.5
 31
0.0
 12
-33.877220614174782
 22
130.0
 32
0.0
 13
-33.877220614174782
 23
130.0
 33
0.0
  0
INSERT
  5
7E0
  8
0
  2
*U62
 10
0.0
 20
0.0
 30
0.0
  0
POINT
  5
7E1
  8
DEFPOINTS
 62
     0
 10
0.0
 20
190.0
 30
0.0
  0
POINT
  5
7E2
  8
DEFPOINTS
 62
     0
 10
0.0
 20
130.0
 30
0.0
  0
POINT
  5
7E3
  8
DEFPOINTS
 62
     0
 10
-33.877220614174782
 20
130.0
 30
0.0
  0
ENDBLK
  5
40E
  8
0
  0
BLOCK
  8
0
  2
*D13
 70
     1
 10
0.0
 20
0.0
 30
0.0
  3
*D13
  1

  0
LINE
  5
737
  8
DIM
 62
     0
 10
40.625
 20
49.999999999999972
 30
0.0
 11
55.788278512500263
 21
49.999999999999957
 31
0.0
  0
LINE
  5
738
  8
DIM
 62
     0
 10
40.625
 20
-0.0000000000000002
 30
0.0
 11
55.788278512500248
 21
-0.0000000000000045
 31
0.0
  0
LINE
  5
739
  8
DIM
 62
     0
 10
54.538278512500248
 20
47.499999999999957
 30
0.0
 11
54.538278512500248
 21
2.499999999999996
 31
0.0
  0
SOLID
  5
73A
  8
DIM
 62
     0
 10
54.121611845833591
 20
47.499999999999957
 30
0.0
 11
54.95494517916692
 21
47.499999999999957
 31
0.0
 12
54.538278512500263
 22
49.999999999999957
 32
0.0
 13
54.538278512500263
 23
49.999999999999957
 33
0.0
  0
SOLID
  5
73B
  8
DIM
 62
     0
 10
54.121611845833577
 20
2.499999999999996
 30
0.0
 11
54.954945179166913
 21
2.499999999999996
 31
0.0
 12
54.538278512500248
 22
-0.0000000000000041
 32
0.0
 13
54.538278512500248
 23
-0.0000000000000041
 33
0.0
  0
INSERT
  5
73C
  8
0
  2
*U59
 10
0.0
 20
0.0
 30
0.0
  0
POINT
  5
73D
  8
DEFPOINTS
 62
     0
 10
40.0
 20
49.999999999999972
 30
0.0
  0
POINT
  5
73E
  8
DEFPOINTS
 62
     0
 10
40.0
 20
0.0
 30
0.0
  0
POINT
  5
73F
  8
DEFPOINTS
 62
     0
 10
54.538278512500248
 20
-0.0000000000000041
 30
0.0
  0
ENDBLK
  5
426
  8
0
  0
BLOCK
  8
0
  2
*D14
 70
     1
 10
0.0
 20
0.0
 30
0.0
  3
*D14
  1

  0
LINE
  5
7E4
  8
DIM
 62
     0
 10
0.0000000000000071
 20
190.625
 30
0.0
 11
0.0000000000000081
 21
206.27089316922681
 31
0.0
  0
LINE
  5
7E5
  8
DIM
 62
     0
 10
40.0
 20
190.625
 30
0.0
 11
40.0
 21
206.27089316922681
 31
0.0
  0
LINE
  5
7E6
  8
DIM
 62
     0
 10
2.5000000000000071
 20
205.02089316922681
 30
0.0
 11
37.5
 21
205.02089316922681
 31
0.0
  0
SOLID
  5
7E7
  8
DIM
 62
     0
 10
2.5000000000000071
 20
205.4375598358935
 30
0.0
 11
2.5000000000000071
 21
204.60422650256021
 31
0.0
 12
0.000000000000008
 22
205.02089316922681
 32
0.0
 13
0.000000000000008
 23
205.02089316922681
 33
0.0
  0
SOLID
  5
7E8
  8
DIM
 62
     0
 10
37.5
 20
205.4375598358935
 30
0.0
 11
37.5
 21
204.60422650256021
 31
0.0
 12
40.0
 22
205.02089316922681
 32
0.0
 13
40.0
 23
205.02089316922681
 33
0.0
  0
INSERT
  5
7E9
  8
0
  2
*U63
 10
0.0
 20
0.0
 30
0.0
  0
POINT
  5
7EA
  8
DEFPOINTS
 62
     0
 10
0.0000000000000071
 20
190.0
 30
0.0
  0
POINT
  5
7EB
  8
DEFPOINTS
 62
     0
 10
40.0
 20
190.0
 30
0.0
  0
POINT
  5
7EC
  8
DEFPOINTS
 62
     0
 10
40.0
 20
205.02089316922681
 30
0.0
  0
ENDBLK
  5
43E
  8
0
  0
BLOCK
  8
0
  2
*D15
 70
     1
 10
0.0
 20
0.0
 30
0.0
  3
*D15
  1

  0
LINE
  5
461
  8
DIM
 62
     0
 10
-0.6249999999999929
 20
60.0
 30
0.0
 11
-11.589031539722781
 21
60.0
 31
0.0
  0
LINE
  5
462
  8
DIM
 62
     0
 10
-0.6249999999999929
 20
39.900000000000013
 30
0.0
 11
-11.589031539722781
 21
39.900000000000013
 31
0.0
  0
LINE
  5
463
  8
DIM
 62
     0
 10
-10.339031539722781
 20
57.5
 30
0.0
 11
-10.339031539722781
 21
42.400000000000013
 31
0.0
  0
SOLID
  5
464
  8
DIM
 62
     0
 10
-10.75569820638944
 20
57.5
 30
0.0
 11
-9.9223648730561127
 21
57.5
 31
0.0
 12
-10.339031539722781
 22
60.0
 32
0.0
 13
-10.339031539722781
 23
60.0
 33
0.0
  0
SOLID
  5
465
  8
DIM
 62
     0
 10
-10.75569820638945
 20
42.400000000000013
 30
0.0
 11
-9.9223648730561163
 21
42.400000000000013
 31
0.0
 12
-10.339031539722781
 22
39.900000000000013
 32
0.0
 13
-10.339031539722781
 23
39.900000000000013
 33
0.0
  0
INSERT
  5
466
  8
0
  2
*U50
 10
0.0
 20
0.0
 30
0.0
  0
POINT
  5
467
  8
DEFPOINTS
 62
     0
 10
0.0000000000000071
 20
60.0
 30
0.0
  0
POINT
  5
468
  8
DEFPOINTS
 62
     0
 10
0.0000000000000071
 20
39.900000000000013
 30
0.0
  0
POINT
  5
469
  8
DEFPOINTS
 62
     0
 10
-10.339031539722781
 20
39.900000000000013
 30
0.0
  0
ENDBLK
  5
456
  8
0
  0
BLOCK
  8
0
  2
*D16
 70
     1
 10
0.0
 20
0.0
 30
0.0
  3
*D16
  1

  0
LINE
  5
47A
  8
DIM
 62
     0
 10
-0.6249999999999929
 20
60.0
 30
0.0
 11
-11.45691702781186
 21
60.0
 31
0.0
  0
LINE
  5
47B
  8
DIM
 62
     0
 10
-0.625
 20
40.0
 30
0.0
 11
-11.456917027811871
 21
40.0
 31
0.0
  0
LINE
  5
47C
  8
DIM
 62
     0
 10
-10.20691702781186
 20
57.5
 30
0.0
 11
-10.206917027811871
 21
42.5
 31
0.0
  0
SOLID
  5
47D
  8
DIM
 62
     0
 10
-10.62358369447853
 20
57.5
 30
0.0
 11
-9.7902503611451994
 21
57.5
 31
0.0
 12
-10.20691702781186
 22
60.0
 32
0.0
 13
-10.20691702781186
 23
60.0
 33
0.0
  0
SOLID
  5
47E
  8
DIM
 62
     0
 10
-10.62358369447853
 20
42.5
 30
0.0
 11
-9.7902503611452012
 21
42.5
 31
0.0
 12
-10.206917027811871
 22
40.0
 32
0.0
 13
-10.206917027811871
 23
40.0
 33
0.0
  0
INSERT
  5
47F
  8
0
  2
*U51
 10
0.0
 20
0.0
 30
0.0
  0
POINT
  5
480
  8
DEFPOINTS
 62
     0
 10
0.0000000000000071
 20
60.0
 30
0.0
  0
POINT
  5
481
  8
DEFPOINTS
 62
     0
 10
0.0
 20
40.0
 30
0.0
  0
POINT
  5
482
  8
DEFPOINTS
 62
     0
 10
-10.206917027811871
 20
40.0
 30
0.0
  0
ENDBLK
  5
46F
  8
0
  0
BLOCK
  8
0
  2
*D17
 70
     1
 10
0.0
 20
0.0
 30
0.0
  3
*D17
  1

  0
LINE
  5
7ED
  8
DIM
 62
     0
 10
16.5
 20
129.375
 30
0.0
 11
16.5
 21
118.8317452319743
 31
0.0
  0
LINE
  5
7EE
  8
DIM
 62
     0
 10
23.5
 20
129.375
 30
0.0
 11
23.5
 21
118.8317452319743
 31
0.0
  0
LINE
  5
7EF
  8
DIM
 62
     0
 10
19.0
 20
120.0817452319743
 30
0.0
 11
21.0
 21
120.0817452319743
 31
0.0
  0
SOLID
  5
7F0
  8
DIM
 62
     0
 10
19.0
 20
120.498411898641
 30
0.0
 11
19.0
 21
119.6650785653076
 31
0.0
 12
16.5
 22
120.0817452319743
 32
0.0
 13
16.5
 23
120.0817452319743
 33
0.0
  0
SOLID
  5
7F1
  8
DIM
 62
     0
 10
21.0
 20
120.498411898641
 30
0.0
 11
21.0
 21
119.6650785653076
 31
0.0
 12
23.5
 22
120.0817452319743
 32
0.0
 13
23.5
 23
120.0817452319743
 33
0.0
  0
INSERT
  5
7F2
  8
0
  2
*U64
 10
0.0
 20
0.0
 30
0.0
  0
POINT
  5
7F3
  8
DEFPOINTS
 62
     0
 10
16.5
 20
130.0
 30
0.0
  0
POINT
  5
7F4
  8
DEFPOINTS
 62
     0
 10
23.5
 20
130.0
 30
0.0
  0
POINT
  5
7F5
  8
DEFPOINTS
 62
     0
 10
23.5
 20
120.0817452319743
 30
0.0
  0
ENDBLK
  5
488
  8
0
  0
BLOCK
  8
0
  2
*D18
 70
     1
 10
0.0
 20
0.0
 30
0.0
  3
*D18
  1

  0
LINE
  5
7F6
  8
DIM
 62
     0
 10
14.0
 20
135.375
 30
0.0
 11
14.0
 21
108.2395609875193
 31
0.0
  0
LINE
  5
7F7
  8
DIM
 62
     0
 10
26.0
 20
135.375
 30
0.0
 11
26.0
 21
108.2395609875193
 31
0.0
  0
LINE
  5
7F8
  8
DIM
 62
     0
 10
16.5
 20
109.4895609875193
 30
0.0
 11
23.5
 21
109.4895609875193
 31
0.0
  0
SOLID
  5
7F9
  8
DIM
 62
     0
 10
16.5
 20
109.906227654186
 30
0.0
 11
16.5
 21
109.0728943208526
 31
0.0
 12
14.0
 22
109.4895609875193
 32
0.0
 13
14.0
 23
109.4895609875193
 33
0.0
  0
SOLID
  5
7FA
  8
DIM
 62
     0
 10
23.5
 20
109.906227654186
 30
0.0
 11
23.5
 21
109.0728943208526
 31
0.0
 12
26.0
 22
109.4895609875193
 32
0.0
 13
26.0
 23
109.4895609875193
 33
0.0
  0
INSERT
  5
7FB
  8
0
  2
*U65
 10
0.0
 20
0.0
 30
0.0
  0
POINT
  5
7FC
  8
DEFPOINTS
 62
     0
 10
14.0
 20
136.0
 30
0.0
  0
POINT
  5
7FD
  8
DEFPOINTS
 62
     0
 10
26.0
 20
136.0
 30
0.0
  0
POINT
  5
7FE
  8
DEFPOINTS
 62
     0
 10
26.0
 20
109.4895609875193
 30
0.0
  0
ENDBLK
  5
4A0
  8
0
  0
BLOCK
  8
0
  2
*D19
 70
     1
 10
0.0
 20
0.0
 30
0.0
  3
*D19
  1

  0
LINE
  5
7FF
  8
DIM
 62
     0
 10
8.6249999999999964
 20
14.000000000000011
 30
0.0
 11
25.876476705010649
 21
14.000000000000011
 31
0.0
  0
LINE
  5
800
  8
DIM
 62
     0
 10
8.6249999999999982
 20
6.0
 30
0.0
 11
25.876476705010649
 21
5.9999999999999947
 31
0.0
  0
LINE
  5
801
  8
DIM
 62
     0
 10
24.626476705010649
 20
11.500000000000011
 30
0.0
 11
24.626476705010649
 21
8.4999999999999947
 31
0.0
  0
SOLID
  5
802
  8
DIM
 62
     0
 10
24.209810038343981
 20
11.500000000000011
 30
0.0
 11
25.043143371677321
 21
11.500000000000011
 31
0.0
 12
24.626476705010649
 22
14.000000000000011
 32
0.0
 13
24.626476705010649
 23
14.000000000000011
 33
0.0
  0
SOLID
  5
803
  8
DIM
 62
     0
 10
24.209810038343981
 20
8.4999999999999947
 30
0.0
 11
25.043143371677321
 21
8.4999999999999947
 31
0.0
 12
24.626476705010649
 22
5.9999999999999947
 32
0.0
 13
24.626476705010649
 23
5.9999999999999947
 33
0.0
  0
INSERT
  5
804
  8
0
  2
*U66
 10
0.0
 20
0.0
 30
0.0
  0
POINT
  5
805
  8
DEFPOINTS
 62
     0
 10
7.9999999999999973
 20
14.000000000000011
 30
0.0
  0
POINT
  5
806
  8
DEFPOINTS
 62
     0
 10
7.9999999999999982
 20
6.0
 30
0.0
  0
POINT
  5
807
  8
DEFPOINTS
 62
     0
 10
24.626476705010649
 20
5.9999999999999947
 30
0.0
  0
ENDBLK
  5
4B8
  8
0
  0
BLOCK
  8
0
  2
*D20
 70
     1
 10
0.0
 20
0.0
 30
0.0
  3
*D20
  1

  0
LINE
  5
4DB
  8
DIM
 62
     0
 10
4.6249999999999991
 20
-113.2
 30
0.0
 11
33.984508678144273
 21
-113.2
 31
0.0
  0
LINE
  5
4DC
  8
DIM
 62
     0
 10
4.625
 20
-125.2
 30
0.0
 11
33.984508678144273
 21
-125.2
 31
0.0
  0
LINE
  5
4DD
  8
DIM
 62
     0
 10
32.734508678144273
 20
-115.7
 30
0.0
 11
32.734508678144273
 21
-122.7
 31
0.0
  0
SOLID
  5
4DE
  8
DIM
 62
     0
 10
32.317842011477602
 20
-115.7
 30
0.0
 11
33.15117534481093
 21
-115.7
 31
0.0
 12
32.734508678144273
 22
-113.2
 32
0.0
 13
32.734508678144273
 23
-113.2
 33
0.0
  0
SOLID
  5
4DF
  8
DIM
 62
     0
 10
32.317842011477602
 20
-122.7
 30
0.0
 11
33.15117534481093
 21
-122.7
 31
0.0
 12
32.734508678144273
 22
-125.2
 32
0.0
 13
32.734508678144273
 23
-125.2
 33
0.0
  0
INSERT
  5
4E0
  8
0
  2
*U52
 10
0.0
 20
0.0
 30
0.0
  0
POINT
  5
4E1
  8
DEFPOINTS
 62
     0
 10
3.9999999999999978
 20
-113.2
 30
0.0
  0
POINT
  5
4E2
  8
DEFPOINTS
 62
     0
 10
3.9999999999999991
 20
-125.2
 30
0.0
  0
POINT
  5
4E3
  8
DEFPOINTS
 62
     0
 10
32.734508678144273
 20
-125.2
 30
0.0
  0
ENDBLK
  5
4D0
  8
0
  0
BLOCK
  8
0
  2
*D21
 70
     1
 10
0.0
 20
0.0
 30
0.0
  3
*D21
  1

  0
LINE
  5
808
  8
DIM
 62
     0
 10
11.475
 20
60.0
 30
0.0
 11
-22.044580406227389
 21
60.0
 31
0.0
  0
LINE
  5
809
  8
DIM
 62
     0
 10
-0.625
 20
10.0
 30
0.0
 11
-22.044580406227389
 21
10.0
 31
0.0
  0
LINE
  5
80A
  8
DIM
 62
     0
 10
-20.794580406227379
 20
57.5
 30
0.0
 11
-20.794580406227389
 21
12.500000000000011
 31
0.0
  0
SOLID
  5
80B
  8
DIM
 62
     0
 10
-21.21124707289405
 20
57.5
 30
0.0
 11
-20.377913739560711
 21
57.5
 31
0.0
 12
-20.794580406227379
 22
60.0
 32
0.0
 13
-20.794580406227379
 23
60.0
 33
0.0
  0
SOLID
  5
80C
  8
DIM
 62
     0
 10
-21.211247072894061
 20
12.500000000000011
 30
0.0
 11
-20.377913739560729
 21
12.500000000000011
 31
0.0
 12
-20.794580406227389
 22
10.0
 32
0.0
 13
-20.794580406227389
 23
10.0
 33
0.0
  0
INSERT
  5
80D
  8
0
  2
*U67
 10
0.0
 20
0.0
 30
0.0
  0
POINT
  5
80E
  8
DEFPOINTS
 62
     0
 10
12.1
 20
60.0
 30
0.0
  0
POINT
  5
80F
  8
DEFPOINTS
 62
     0
 10
0.0
 20
10.0
 30
0.0
  0
POINT
  5
810
  8
DEFPOINTS
 62
     0
 10
-20.794580406227389
 20
10.0
 30
0.0
  0
ENDBLK
  5
4F4
  8
0
  0
BLOCK
  8
0
  2
*D22
 70
     1
 10
0.0
 20
0.0
 30
0.0
  3
*D22
  1

  0
LINE
  5
811
  8
DIM
 62
     0
 10
8.6249999999999964
 20
-0.0000000000000002
 30
0.0
 11
51.175646457020768
 21
-0.0000000000000122
 31
0.0
  0
LINE
  5
812
  8
DIM
 62
     0
 10
40.825000000000017
 20
40.000000000000007
 30
0.0
 11
51.175646457020783
 21
40.0
 31
0.0
  0
LINE
  5
813
  8
DIM
 62
     0
 10
49.925646457020768
 20
2.499999999999988
 30
0.0
 11
49.925646457020783
 21
37.500000000000007
 31
0.0
  0
SOLID
  5
814
  8
DIM
 62
     0
 10
49.508979790354097
 20
2.499999999999988
 30
0.0
 11
50.342313123687433
 21
2.499999999999988
 31
0.0
 12
49.925646457020768
 22
-0.0000000000000119
 32
0.0
 13
49.925646457020768
 23
-0.0000000000000119
 33
0.0
  0
SOLID
  5
815
  8
DIM
 62
     0
 10
49.508979790354111
 20
37.500000000000007
 30
0.0
 11
50.34231312368744
 21
37.500000000000007
 31
0.0
 12
49.925646457020783
 22
40.0
 32
0.0
 13
49.925646457020783
 23
40.0
 33
0.0
  0
INSERT
  5
816
  8
0
  2
*U68
 10
0.0
 20
0.0
 30
0.0
  0
POINT
  5
817
  8
DEFPOINTS
 62
     0
 10
7.9999999999999973
 20
0.0
 30
0.0
  0
POINT
  5
818
  8
DEFPOINTS
 62
     0
 10
40.200000000000017
 20
40.000000000000007
 30
0.0
  0
POINT
  5
819
  8
DEFPOINTS
 62
     0
 10
49.925646457020783
 20
40.0
 30
0.0
  0
ENDBLK
  5
50C
  8
0
  0
BLOCK
  8
0
  2
*D23
 70
     1
 10
0.0
 20
0.0
 30
0.0
  3
*D23
  1

  0
LINE
  5
932
  8
DIM
 62
     0
 10
10.050000000000001
 20
80.625
 30
0.0
 11
10.050000000000001
 21
89.143105865624406
 31
0.0
  0
LINE
  5
933
  8
DIM
 62
     0
 10
30.150000000000009
 20
80.625
 30
0.0
 11
30.150000000000009
 21
89.143105865624406
 31
0.0
  0
LINE
  5
934
  8
DIM
 62
     0
 10
12.55000000000001
 20
87.893105865624406
 30
0.0
 11
27.650000000000009
 21
87.893105865624406
 31
0.0
  0
SOLID
  5
935
  8
DIM
 62
     0
 10
12.55000000000001
 20
88.309772532291092
 30
0.0
 11
12.55000000000001
 21
87.476439198957749
 31
0.0
 12
10.050000000000001
 22
87.893105865624406
 32
0.0
 13
10.050000000000001
 23
87.893105865624406
 33
0.0
  0
SOLID
  5
936
  8
DIM
 62
     0
 10
27.650000000000009
 20
88.309772532291092
 30
0.0
 11
27.650000000000009
 21
87.476439198957749
 31
0.0
 12
30.150000000000009
 22
87.893105865624406
 32
0.0
 13
30.150000000000009
 23
87.893105865624406
 33
0.0
  0
INSERT
  5
937
  8
0
  2
*U80
 10
0.0
 20
0.0
 30
0.0
  0
POINT
  5
938
  8
DEFPOINTS
 62
     0
 10
10.050000000000001
 20
80.0
 30
0.0
  0
POINT
  5
939
  8
DEFPOINTS
 62
     0
 10
30.150000000000009
 20
80.0
 30
0.0
  0
POINT
  5
93A
  8
DEFPOINTS
 62
     0
 10
30.150000000000009
 20
87.893105865624406
 30
0.0
  0
ENDBLK
  5
52D
  8
0
  0
BLOCK
  8
0
  2
*D24
 70
     1
 10
0.0
 20
0.0
 30
0.0
  3
*D24
  1

  0
LINE
  5
550
  8
DIM
 62
     0
 10
30.775000000000009
 20
-85.000000000000014
 30
0.0
 11
54.090864123591011
 21
-85.000000000000028
 31
0.0
  0
LINE
  5
551
  8
DIM
 62
     0
 10
30.775000000000009
 20
-50.0
 30
0.0
 11
54.090864123591011
 21
-50.000000000000007
 31
0.0
  0
LINE
  5
552
  8
DIM
 62
     0
 10
52.840864123591011
 20
-82.500000000000028
 30
0.0
 11
52.840864123591011
 21
-52.500000000000007
 31
0.0
  0
SOLID
  5
553
  8
DIM
 62
     0
 10
52.42419745692434
 20
-82.500000000000028
 30
0.0
 11
53.257530790257668
 21
-82.500000000000028
 31
0.0
 12
52.840864123591011
 22
-85.000000000000028
 32
0.0
 13
52.840864123591011
 23
-85.000000000000028
 33
0.0
  0
SOLID
  5
554
  8
DIM
 62
     0
 10
52.424197456924347
 20
-52.500000000000007
 30
0.0
 11
53.257530790257682
 21
-52.500000000000007
 31
0.0
 12
52.840864123591011
 22
-50.000000000000007
 32
0.0
 13
52.840864123591011
 23
-50.000000000000007
 33
0.0
  0
INSERT
  5
555
  8
0
  2
*U54
 10
0.0
 20
0.0
 30
0.0
  0
POINT
  5
556
  8
DEFPOINTS
 62
     0
 10
30.150000000000009
 20
-85.000000000000014
 30
0.0
  0
POINT
  5
557
  8
DEFPOINTS
 62
     0
 10
30.150000000000009
 20
-50.0
 30
0.0
  0
POINT
  5
558
  8
DEFPOINTS
 62
     0
 10
52.840864123591011
 20
-50.000000000000007
 30
0.0
  0
ENDBLK
  5
545
  8
0
  0
BLOCK
  8
0
  2
*D25
 70
     1
 10
0.0
 20
0.0
 30
0.0
  3
*D25
  1

  0
LINE
  5
568
  8
DIM
 62
     0
 10
40.82500000000001
 20
-50.0
 30
0.0
 11
66.41515797511056
 21
-50.000000000000007
 31
0.0
  0
LINE
  5
569
  8
DIM
 62
     0
 10
40.825000000000017
 20
-89.999999999999986
 30
0.0
 11
66.41515797511056
 21
-89.999999999999986
 31
0.0
  0
LINE
  5
56A
  8
DIM
 62
     0
 10
65.16515797511056
 20
-52.500000000000007
 30
0.0
 11
65.16515797511056
 21
-87.499999999999986
 31
0.0
  0
SOLID
  5
56B
  8
DIM
 62
     0
 10
64.748491308443889
 20
-52.500000000000007
 30
0.0
 11
65.581824641777231
 21
-52.500000000000007
 31
0.0
 12
65.16515797511056
 22
-50.000000000000007
 32
0.0
 13
65.16515797511056
 23
-50.000000000000007
 33
0.0
  0
SOLID
  5
56C
  8
DIM
 62
     0
 10
64.748491308443889
 20
-87.499999999999986
 30
0.0
 11
65.581824641777231
 21
-87.499999999999986
 31
0.0
 12
65.16515797511056
 22
-89.999999999999986
 32
0.0
 13
65.16515797511056
 23
-89.999999999999986
 33
0.0
  0
INSERT
  5
56D
  8
0
  2
*U55
 10
0.0
 20
0.0
 30
0.0
  0
POINT
  5
56E
  8
DEFPOINTS
 62
     0
 10
40.20000000000001
 20
-50.0
 30
0.0
  0
POINT
  5
56F
  8
DEFPOINTS
 62
     0
 10
40.200000000000017
 20
-89.999999999999986
 30
0.0
  0
POINT
  5
570
  8
DEFPOINTS
 62
     0
 10
65.16515797511056
 20
-89.999999999999986
 30
0.0
  0
ENDBLK
  5
55D
  8
0
  0
BLOCK
  8
0
  2
*D26
 70
     1
 10
0.0
 20
0.0
 30
0.0
  3
*D26
  1

  0
LINE
  5
580
  8
DIM
 62
     0
 10
40.82500000000001
 20
-50.0
 30
0.0
 11
51.175646457020783
 21
-50.0
 31
0.0
  0
LINE
  5
581
  8
DIM
 62
     0
 10
40.825000000000017
 20
-90.0
 30
0.0
 11
51.175646457020783
 21
-90.0
 31
0.0
  0
LINE
  5
582
  8
DIM
 62
     0
 10
49.925646457020783
 20
-52.5
 30
0.0
 11
49.925646457020783
 21
-87.5
 31
0.0
  0
SOLID
  5
583
  8
DIM
 62
     0
 10
49.508979790354118
 20
-52.5
 30
0.0
 11
50.342313123687447
 21
-52.5
 31
0.0
 12
49.925646457020783
 22
-50.0
 32
0.0
 13
49.925646457020783
 23
-50.0
 33
0.0
  0
SOLID
  5
584
  8
DIM
 62
     0
 10
49.508979790354111
 20
-87.5
 30
0.0
 11
50.34231312368744
 21
-87.5
 31
0.0
 12
49.925646457020783
 22
-90.0
 32
0.0
 13
49.925646457020783
 23
-90.0
 33
0.0
  0
INSERT
  5
585
  8
0
  2
*U56
 10
0.0
 20
0.0
 30
0.0
  0
POINT
  5
586
  8
DEFPOINTS
 62
     0
 10
40.20000000000001
 20
-50.0
 30
0.0
  0
POINT
  5
587
  8
DEFPOINTS
 62
     0
 10
40.200000000000017
 20
-90.0
 30
0.0
  0
POINT
  5
588
  8
DEFPOINTS
 62
     0
 10
49.925646457020783
 20
-90.0
 30
0.0
  0
ENDBLK
  5
575
  8
0
  0
BLOCK
  8
0
  2
*D27
 70
     1
 10
0.0
 20
0.0
 30
0.0
  3
*D27
  1

  0
LINE
  5
598
  8
DIM
 62
     0
 10
-0.625
 20
-50.0
 30
0.0
 11
-12.46634489613826
 21
-50.0
 31
0.0
  0
LINE
  5
599
  8
DIM
 62
     0
 10
9.425000000000006
 20
-85.000000000000014
 30
0.0
 11
-12.46634489613826
 21
-85.000000000000014
 31
0.0
  0
LINE
  5
59A
  8
DIM
 62
     0
 10
-11.21634489613826
 20
-52.5
 30
0.0
 11
-11.21634489613826
 21
-82.500000000000014
 31
0.0
  0
SOLID
  5
59B
  8
DIM
 62
     0
 10
-11.633011562804921
 20
-52.5
 30
0.0
 11
-10.79967822947159
 21
-52.5
 31
0.0
 12
-11.21634489613826
 22
-50.0
 32
0.0
 13
-11.21634489613826
 23
-50.0
 33
0.0
  0
SOLID
  5
59C
  8
DIM
 62
     0
 10
-11.63301156280493
 20
-82.500000000000014
 30
0.0
 11
-10.799678229471599
 21
-82.500000000000014
 31
0.0
 12
-11.216344896138271
 22
-85.000000000000014
 32
0.0
 13
-11.216344896138271
 23
-85.000000000000014
 33
0.0
  0
INSERT
  5
59D
  8
0
  2
*U57
 10
0.0
 20
0.0
 30
0.0
  0
POINT
  5
59E
  8
DEFPOINTS
 62
     0
 10
0.0
 20
-50.0
 30
0.0
  0
POINT
  5
59F
  8
DEFPOINTS
 62
     0
 10
10.050000000000001
 20
-85.000000000000014
 30
0.0
  0
POINT
  5
5A0
  8
DEFPOINTS
 62
     0
 10
-11.216344896138271
 20
-85.000000000000014
 30
0.0
  0
ENDBLK
  5
58D
  8
0
  0
BLOCK
  8
0
  2
*D28
 70
     1
 10
0.0
 20
0.0
 30
0.0
  3
*D28
  1

  0
LINE
  5
823
  8
DIM
 62
     0
 10
40.82500000000001
 20
80.0
 30
0.0
 11
51.17564645702079
 21
80.0
 31
0.0
  0
LINE
  5
824
  8
DIM
 62
     0
 10
30.775000000000009
 20
45.0
 30
0.0
 11
51.175646457020783
 21
44.999999999999993
 31
0.0
  0
LINE
  5
825
  8
DIM
 62
     0
 10
49.925646457020783
 20
77.5
 30
0.0
 11
49.925646457020783
 21
47.499999999999993
 31
0.0
  0
SOLID
  5
826
  8
DIM
 62
     0
 10
49.508979790354118
 20
77.5
 30
0.0
 11
50.342313123687447
 21
77.5
 31
0.0
 12
49.92564645702079
 22
80.0
 32
0.0
 13
49.92564645702079
 23
80.0
 33
0.0
  0
SOLID
  5
827
  8
DIM
 62
     0
 10
49.508979790354111
 20
47.499999999999993
 30
0.0
 11
50.34231312368744
 21
47.499999999999993
 31
0.0
 12
49.925646457020783
 22
44.999999999999993
 32
0.0
 13
49.925646457020783
 23
44.999999999999993
 33
0.0
  0
INSERT
  5
828
  8
0
  2
*U69
 10
0.0
 20
0.0
 30
0.0
  0
POINT
  5
829
  8
DEFPOINTS
 62
     0
 10
40.20000000000001
 20
80.0
 30
0.0
  0
POINT
  5
82A
  8
DEFPOINTS
 62
     0
 10
30.150000000000009
 20
45.0
 30
0.0
  0
POINT
  5
82B
  8
DEFPOINTS
 62
     0
 10
49.925646457020783
 20
44.999999999999993
 30
0.0
  0
ENDBLK
  5
5AE
  8
0
  0
BLOCK
  8
0
  2
*D29
 70
     1
 10
0.0
 20
0.0
 30
0.0
  3
*D29
  1

  0
LINE
  5
82C
  8
DIM
 62
     0
 10
40.82500000000001
 20
80.0
 30
0.0
 11
61.066012158991732
 21
80.0
 31
0.0
  0
LINE
  5
82D
  8
DIM
 62
     0
 10
40.825000000000017
 20
40.000000000000007
 30
0.0
 11
61.066012158991711
 21
40.0
 31
0.0
  0
LINE
  5
82E
  8
DIM
 62
     0
 10
59.816012158991718
 20
77.5
 30
0.0
 11
59.816012158991711
 21
42.5
 31
0.0
  0
SOLID
  5
82F
  8
DIM
 62
     0
 10
59.399345492325061
 20
77.5
 30
0.0
 11
60.23267882565839
 21
77.5
 31
0.0
 12
59.816012158991732
 22
80.0
 32
0.0
 13
59.816012158991732
 23
80.0
 33
0.0
  0
SOLID
  5
830
  8
DIM
 62
     0
 10
59.399345492325047
 20
42.5
 30
0.0
 11
60.232678825658382
 21
42.5
 31
0.0
 12
59.816012158991711
 22
40.0
 32
0.0
 13
59.816012158991711
 23
40.0
 33
0.0
  0
INSERT
  5
831
  8
0
  2
*U70
 10
0.0
 20
0.0
 30
0.0
  0
POINT
  5
832
  8
DEFPOINTS
 62
     0
 10
40.20000000000001
 20
80.0
 30
0.0
  0
POINT
  5
833
  8
DEFPOINTS
 62
     0
 10
40.200000000000017
 20
40.000000000000007
 30
0.0
  0
POINT
  5
834
  8
DEFPOINTS
 62
     0
 10
59.816012158991711
 20
40.0
 30
0.0
  0
ENDBLK
  5
5C6
  8
0
  0
BLOCK
  8
0
  2
*D30
 70
     1
 10
0.0
 20
0.0
 30
0.0
  3
*D30
  1

  0
LINE
  5
835
  8
DIM
 62
     0
 10
95.0
 20
149.375
 30
0.0
 11
95.0
 21
114.2972163508002
 31
0.0
  0
LINE
  5
836
  8
DIM
 62
     0
 10
125.0
 20
149.375
 30
0.0
 11
125.0
 21
114.2972163508002
 31
0.0
  0
LINE
  5
837
  8
DIM
 62
     0
 10
97.5
 20
115.5472163508002
 30
0.0
 11
122.5
 21
115.5472163508002
 31
0.0
  0
SOLID
  5
838
  8
DIM
 62
     0
 10
97.5
 20
115.9638830174669
 30
0.0
 11
97.5
 21
115.1305496841335
 31
0.0
 12
95.0
 22
115.5472163508002
 32
0.0
 13
95.0
 23
115.5472163508002
 33
0.0
  0
SOLID
  5
839
  8
DIM
 62
     0
 10
122.5
 20
115.9638830174669
 30
0.0
 11
122.5
 21
115.1305496841335
 31
0.0
 12
125.0
 22
115.5472163508002
 32
0.0
 13
125.0
 23
115.5472163508002
 33
0.0
  0
INSERT
  5
83A
  8
0
  2
*U71
 10
0.0
 20
0.0
 30
0.0
  0
POINT
  5
83B
  8
DEFPOINTS
 62
     0
 10
95.0
 20
150.0
 30
0.0
  0
POINT
  5
83C
  8
DEFPOINTS
 62
     0
 10
125.0
 20
150.0
 30
0.0
  0
POINT
  5
83D
  8
DEFPOINTS
 62
     0
 10
125.0
 20
115.5472163508002
 30
0.0
  0
ENDBLK
  5
5E9
  8
0
  0
BLOCK
  8
0
  2
*D31
 70
     1
 10
0.0
 20
0.0
 30
0.0
  3
*D31
  1

  0
LINE
  5
650
  8
A
 62
     0
 10
9.760154679161257
 20
41.785479542468757
 30
0.0
 11
16.099866656183529
 21
46.871268643611103
 31
0.0
  0
LINE
  5
651
  8
A
 62
     0
 10
23.900133343816471
 20
53.128731356388847
 30
0.0
 11
25.85020001572471
 21
54.693097034583282
 31
0.0
  0
INSERT
  5
652
  8
0
  2
*U58
 10
0.0
 20
0.0
 30
0.0
  0
LINE
  5
653
  8
A
 62
     0
 10
21.950066671908239
 20
51.564365678194413
 30
0.0
 11
18.049933328091761
 21
48.435634321805537
 31
0.0
  0
SOLID
  5
654
  8
A
 62
     0
 10
23.63940573078407
 20
53.453742468373548
 30
0.0
 11
24.160860956848879
 21
52.80372024440414
 31
0.0
 12
21.950066671908239
 22
51.564365678194413
 32
0.0
 13
21.950066671908239
 23
51.564365678194413
 33
0.0
  0
SOLID
  5
655
  8
A
 62
     0
 10
15.83913904315113
 20
47.19627975559581
 30
0.0
 11
16.360594269215941
 21
46.546257531626402
 31
0.0
 12
18.049933328091761
 22
48.435634321805537
 32
0.0
 13
18.049933328091761
 23
48.435634321805537
 33
0.0
  0
POINT
  5
656
  8
DEFPOINTS
 62
     0
 10
18.049933328091761
 20
48.435634321805537
 30
0.0
  0
POINT
  5
657
  8
DEFPOINTS
 62
     0
 10
21.950066671908239
 20
51.564365678194413
 30
0.0
  0
ENDBLK
  5
643
  8
0
  0
BLOCK
  8
0
  2
*D32
 70
     1
 10
0.0
 20
0.0
 30
0.0
  3
*D32
  1

  0
LINE
  5
83E
  8
DIM
 62
     0
 10
17.5
 20
180.625
 30
0.0
 11
17.5
 21
200.65686201498559
 31
0.0
  0
LINE
  5
83F
  8
DIM
 62
     0
 10
22.5
 20
180.625
 30
0.0
 11
22.5
 21
200.65686201498559
 31
0.0
  0
LINE
  5
840
  8
DIM
 62
     0
 10
15.0
 20
199.40686201498551
 30
0.0
 11
12.5
 21
199.40686201498551
 31
0.0
  0
LINE
  5
841
  8
DIM
 62
     0
 10
25.0
 20
199.40686201498551
 30
0.0
 11
27.5
 21
199.40686201498551
 31
0.0
  0
LINE
  5
842
  8
DIM
 62
     0
 10
17.5
 20
199.40686201498551
 30
0.0
 11
22.5
 21
199.40686201498551
 31
0.0
  0
SOLID
  5
843
  8
DIM
 62
     0
 10
15.0
 20
199.82352868165219
 30
0.0
 11
15.0
 21
198.99019534831891
 31
0.0
 12
17.5
 22
199.40686201498551
 32
0.0
 13
17.5
 23
199.40686201498551
 33
0.0
  0
SOLID
  5
844
  8
DIM
 62
     0
 10
25.0
 20
199.82352868165219
 30
0.0
 11
25.0
 21
198.99019534831891
 31
0.0
 12
22.5
 22
199.40686201498551
 32
0.0
 13
22.5
 23
199.40686201498551
 33
0.0
  0
INSERT
  5
845
  8
0
  2
*U72
 10
0.0
 20
0.0
 30
0.0
  0
POINT
  5
846
  8
DEFPOINTS
 62
     0
 10
17.5
 20
180.0
 30
0.0
  0
POINT
  5
847
  8
DEFPOINTS
 62
     0
 10
22.5
 20
180.0
 30
0.0
  0
POINT
  5
848
  8
DEFPOINTS
 62
     0
 10
22.5
 20
199.40686201498551
 30
0.0
  0
ENDBLK
  5
65B
  8
0
  0
BLOCK
  8
0
  2
*D33
 70
     1
 10
0.0
 20
0.0
 30
0.0
  3
*D33
  1

  0
LINE
  5
849
  8
DIM
 62
     0
 10
89.375
 20
169.90000000000001
 30
0.0
 11
76.497073792786978
 21
169.90000000000001
 31
0.0
  0
LINE
  5
84A
  8
DIM
 62
     0
 10
89.375
 20
190.0
 30
0.0
 11
76.497073792786978
 21
190.0
 31
0.0
  0
LINE
  5
84B
  8
DIM
 62
     0
 10
77.747073792786978
 20
172.40000000000001
 30
0.0
 11
77.747073792786978
 21
187.5
 31
0.0
  0
SOLID
  5
84C
  8
DIM
 62
     0
 10
77.330407126120306
 20
172.40000000000001
 30
0.0
 11
78.163740459453649
 21
172.40000000000001
 31
0.0
 12
77.747073792786978
 22
169.90000000000001
 32
0.0
 13
77.747073792786978
 23
169.90000000000001
 33
0.0
  0
SOLID
  5
84D
  8
DIM
 62
     0
 10
77.330407126120306
 20
187.5
 30
0.0
 11
78.163740459453649
 21
187.5
 31
0.0
 12
77.747073792786978
 22
190.0
 32
0.0
 13
77.747073792786978
 23
190.0
 33
0.0
  0
INSERT
  5
84E
  8
0
  2
*U73
 10
0.0
 20
0.0
 30
0.0
  0
POINT
  5
84F
  8
DEFPOINTS
 62
     0
 10
90.0
 20
169.90000000000001
 30
0.0
  0
POINT
  5
850
  8
DEFPOINTS
 62
     0
 10
90.0
 20
190.0
 30
0.0
  0
POINT
  5
851
  8
DEFPOINTS
 62
     0
 10
77.747073792786978
 20
190.0
 30
0.0
  0
ENDBLK
  5
68F
  8
0
  0
BLOCK
  8
0
  2
*D34
 70
     1
 10
0.0
 20
0.0
 30
0.0
  3
*D34
  1

  0
LINE
  5
87F
  8
DIM
 62
     0
 10
156.0
 20
179.375
 30
0.0
 11
156.0
 21
159.51049327754481
 31
0.0
  0
LINE
  5
880
  8
DIM
 62
     0
 10
156.0
 20
179.375
 30
0.0
 11
156.0
 21
159.51049327754481
 31
0.0
  0
LINE
  5
881
  8
DIM
 62
     0
 10
153.5
 20
160.76049327754481
 30
0.0
 11
151.0
 21
160.76049327754481
 31
0.0
  0
LINE
  5
882
  8
DIM
 62
     0
 10
158.5
 20
160.76049327754481
 30
0.0
 11
163.88028649386081
 21
160.76049327754481
 31
0.0
  0
SOLID
  5
883
  8
DIM
 62
     0
 10
153.5
 20
161.17715994421141
 30
0.0
 11
153.5
 21
160.3438266108781
 31
0.0
 12
156.0
 22
160.76049327754481
 32
0.0
 13
156.0
 23
160.76049327754481
 33
0.0
  0
SOLID
  5
884
  8
DIM
 62
     0
 10
158.5
 20
161.17715994421141
 30
0.0
 11
158.5
 21
160.3438266108781
 31
0.0
 12
156.0
 22
160.76049327754481
 32
0.0
 13
156.0
 23
160.76049327754481
 33
0.0
  0
INSERT
  5
885
  8
0
  2
*U77
 10
0.0
 20
0.0
 30
0.0
  0
POINT
  5
886
  8
DEFPOINTS
 62
     0
 10
156.0
 20
180.0
 30
0.0
  0
POINT
  5
887
  8
DEFPOINTS
 62
     0
 10
156.0
 20
180.0
 30
0.0
  0
POINT
  5
888
  8
DEFPOINTS
 62
     0
 10
156.0
 20
160.76049327754481
 30
0.0
  0
ENDBLK
  5
6CF
  8
0
  0
BLOCK
  8
0
  2
*D35
 70
     1
 10
0.0
 20
0.0
 30
0.0
  3
*D35
  1

  0
LINE
  5
85B
  8
DIM
 62
     0
 10
154.0
 20
179.375
 30
0.0
 11
154.0
 21
151.3123483407644
 31
0.0
  0
LINE
  5
85C
  8
DIM
 62
     0
 10
165.99999999999989
 20
179.375
 30
0.0
 11
165.99999999999989
 21
151.3123483407644
 31
0.0
  0
LINE
  5
85D
  8
DIM
 62
     0
 10
156.5
 20
152.5623483407644
 30
0.0
 11
163.49999999999989
 21
152.5623483407644
 31
0.0
  0
SOLID
  5
85E
  8
DIM
 62
     0
 10
156.5
 20
152.979015007431
 30
0.0
 11
156.5
 21
152.14568167409769
 31
0.0
 12
154.0
 22
152.5623483407644
 32
0.0
 13
154.0
 23
152.5623483407644
 33
0.0
  0
SOLID
  5
85F
  8
DIM
 62
     0
 10
163.49999999999989
 20
152.979015007431
 30
0.0
 11
163.49999999999989
 21
152.14568167409769
 31
0.0
 12
165.99999999999989
 22
152.5623483407644
 32
0.0
 13
165.99999999999989
 23
152.5623483407644
 33
0.0
  0
INSERT
  5
860
  8
0
  2
*U74
 10
0.0
 20
0.0
 30
0.0
  0
POINT
  5
861
  8
DEFPOINTS
 62
     0
 10
154.0
 20
180.0
 30
0.0
  0
POINT
  5
862
  8
DEFPOINTS
 62
     0
 10
165.99999999999989
 20
180.0
 30
0.0
  0
POINT
  5
863
  8
DEFPOINTS
 62
     0
 10
165.99999999999989
 20
152.5623483407644
 30
0.0
  0
ENDBLK
  5
6E7
  8
0
  0
BLOCK
  8
0
  2
*D36
 70
     1
 10
0.0
 20
0.0
 30
0.0
  3
*D36
  1

  0
LINE
  5
876
  8
DIM
 62
     0
 10
-20.001354165648081
 20
180.0
 30
0.0
 11
-23.783808412081271
 21
180.0
 31
0.0
  0
LINE
  5
877
  8
DIM
 62
     0
 10
-0.625
 20
130.0
 30
0.0
 11
-23.783808412081282
 21
130.0
 31
0.0
  0
LINE
  5
878
  8
DIM
 62
     0
 10
-22.533808412081271
 20
177.49999999999989
 30
0.0
 11
-22.533808412081282
 21
132.5
 31
0.0
  0
SOLID
  5
879
  8
DIM
 62
     0
 10
-22.950475078747939
 20
177.49999999999989
 30
0.0
 11
-22.11714174541461
 21
177.49999999999989
 31
0.0
 12
-22.533808412081271
 22
180.0
 32
0.0
 13
-22.533808412081271
 23
180.0
 33
0.0
  0
SOLID
  5
87A
  8
DIM
 62
     0
 10
-22.950475078747949
 20
132.5
 30
0.0
 11
-22.11714174541461
 21
132.5
 31
0.0
 12
-22.533808412081282
 22
130.0
 32
0.0
 13
-22.533808412081282
 23
130.0
 33
0.0
  0
INSERT
  5
87B
  8
0
  2
*U76
 10
0.0
 20
0.0
 30
0.0
  0
POINT
  5
87C
  8
DEFPOINTS
 62
     0
 10
-19.376354165648081
 20
180.0
 30
0.0
  0
POINT
  5
87D
  8
DEFPOINTS
 62
     0
 10
0.0
 20
130.0
 30
0.0
  0
POINT
  5
87E
  8
DEFPOINTS
 62
     0
 10
-22.533808412081282
 20
130.0
 30
0.0
  0
ENDBLK
  5
74C
  8
0
  0
BLOCK
  8
0
  2
*D37
 70
     1
 10
0.0
 20
0.0
 30
0.0
  3
*D37
  1

  0
LINE
  5
86D
  8
DIM
 62
     0
 10
170.625
 20
190.0
 30
0.0
 11
181.4625343238076
 21
190.0
 31
0.0
  0
LINE
  5
86E
  8
DIM
 62
     0
 10
170.625
 20
170.0
 30
0.0
 11
181.4625343238076
 21
170.0
 31
0.0
  0
LINE
  5
86F
  8
DIM
 62
     0
 10
180.2125343238076
 20
187.5
 30
0.0
 11
180.2125343238076
 21
172.5
 31
0.0
  0
SOLID
  5
870
  8
DIM
 62
     0
 10
179.79586765714089
 20
187.5
 30
0.0
 11
180.6292009904742
 21
187.5
 31
0.0
 12
180.2125343238076
 22
190.0
 32
0.0
 13
180.2125343238076
 23
190.0
 33
0.0
  0
SOLID
  5
871
  8
DIM
 62
     0
 10
179.79586765714089
 20
172.5
 30
0.0
 11
180.6292009904742
 21
172.5
 31
0.0
 12
180.2125343238076
 22
170.0
 32
0.0
 13
180.2125343238076
 23
170.0
 33
0.0
  0
INSERT
  5
872
  8
0
  2
*U75
 10
0.0
 20
0.0
 30
0.0
  0
POINT
  5
873
  8
DEFPOINTS
 62
     0
 10
170.0
 20
190.0
 30
0.0
  0
POINT
  5
874
  8
DEFPOINTS
 62
     0
 10
170.0
 20
170.0
 30
0.0
  0
POINT
  5
875
  8
DEFPOINTS
 62
     0
 10
180.2125343238076
 20
170.0
 30
0.0
  0
ENDBLK
  5
776
  8
0
  0
BLOCK
  8
0
  2
*D38
 70
     1
 10
0.0
 20
0.0
 30
0.0
  3
*D38
  1

  0
LINE
  5
8BD
  8
DIM
 62
     0
 10
0.0
 20
-0.625
 30
0.0
 11
-0.0000000000000007
 21
-11.91023286321979
 31
0.0
  0
LINE
  5
8BE
  8
DIM
 62
     0
 10
7.9999999999999973
 20
-0.625
 30
0.0
 11
7.9999999999999956
 21
-11.91023286321979
 31
0.0
  0
LINE
  5
8BF
  8
DIM
 62
     0
 10
2.4999999999999991
 20
-10.66023286321979
 30
0.0
 11
5.4999999999999956
 21
-10.66023286321979
 31
0.0
  0
SOLID
  5
8C0
  8
DIM
 62
     0
 10
2.4999999999999991
 20
-10.24356619655312
 30
0.0
 11
2.4999999999999991
 21
-11.07689952988645
 31
0.0
 12
-0.0000000000000007
 22
-10.66023286321979
 32
0.0
 13
-0.0000000000000007
 23
-10.66023286321979
 33
0.0
  0
SOLID
  5
8C1
  8
DIM
 62
     0
 10
5.4999999999999956
 20
-10.24356619655312
 30
0.0
 11
5.4999999999999956
 21
-11.07689952988645
 31
0.0
 12
7.9999999999999956
 22
-10.66023286321979
 32
0.0
 13
7.9999999999999956
 23
-10.66023286321979
 33
0.0
  0
INSERT
  5
8C2
  8
0
  2
*U78
 10
0.0
 20
0.0
 30
0.0
  0
POINT
  5
8C3
  8
DEFPOINTS
 62
     0
 10
0.0
 20
0.0
 30
0.0
  0
POINT
  5
8C4
  8
DEFPOINTS
 62
     0
 10
7.9999999999999973
 20
0.0
 30
0.0
  0
POINT
  5
8C5
  8
DEFPOINTS
 62
     0
 10
7.9999999999999956
 20
-10.66023286321979
 30
0.0
  0
ENDBLK
  5
896
  8
0
  0
BLOCK
  8
0
  2
*D40
 70
     1
 10
0.0
 20
0.0
 30
0.0
  3
*D40
  1

  0
LINE
  5
929
  8
DIM
 62
     0
 10
156.0
 20
179.375
 30
0.0
 11
156.0
 21
158.2867599471374
 31
0.0
  0
LINE
  5
92A
  8
DIM
 62
     0
 10
164.0
 20
179.375
 30
0.0
 11
164.0
 21
158.2867599471374
 31
0.0
  0
LINE
  5
92B
  8
DIM
 62
     0
 10
158.5
 20
159.5367599471374
 30
0.0
 11
161.5
 21
159.5367599471374
 31
0.0
  0
SOLID
  5
92C
  8
DIM
 62
     0
 10
158.5
 20
159.953426613804
 30
0.0
 11
158.5
 21
159.12009328047071
 31
0.0
 12
156.0
 22
159.5367599471374
 32
0.0
 13
156.0
 23
159.5367599471374
 33
0.0
  0
SOLID
  5
92D
  8
DIM
 62
     0
 10
161.5
 20
159.953426613804
 30
0.0
 11
161.5
 21
159.12009328047071
 31
0.0
 12
164.0
 22
159.5367599471374
 32
0.0
 13
164.0
 23
159.5367599471374
 33
0.0
  0
INSERT
  5
92E
  8
0
  2
*U79
 10
0.0
 20
0.0
 30
0.0
  0
POINT
  5
92F
  8
DEFPOINTS
 62
     0
 10
156.0
 20
180.0
 30
0.0
  0
POINT
  5
930
  8
DEFPOINTS
 62
     0
 10
164.0
 20
180.0
 30
0.0
  0
POINT
  5
931
  8
DEFPOINTS
 62
     0
 10
164.0
 20
159.5367599471374
 30
0.0
  0
ENDBLK
  5
8DE
  8
0
  0
BLOCK
  8
0
  2
*U43
 70
     1
 10
0.0
 20
0.0
 30
0.0
  3
*U43
  1

  0
TEXT
  5
9A7
  8
DIM
 62
     0
 10
-19.580600658592761
 20
47.947646657571617
 30
0.0
 40
2.5
  1
16
 50
90.0
  0
ENDBLK
  5
9A9
  8
0
  0
BLOCK
  8
0
  2
*U44
 70
     1
 10
0.0
 20
0.0
 30
0.0
  3
*U44
  1

  0
TEXT
  5
9AB
  8
DIM
 62
     0
 10
-12.910281615681001
 20
49.034788540245557
 30
0.0
 40
2.5
  1
8
 50
90.0
  0
ENDBLK
  5
9AD
  8
0
  0
BLOCK
  8
0
  2
*U45
 70
     1
 10
0.0
 20
0.0
 30
0.0
  3
*U45
  1

  0
TEXT
  5
9AF
  8
A
 62
     0
 10
47.320314749479707
 20
-113.4287858117326
 30
0.0
 40
2.5
  1
40,2
 50
90.0
  0
ENDBLK
  5
9B1
  8
0
  0
BLOCK
  8
0
  2
*U46
 70
     1
 10
0.0
 20
0.0
 30
0.0
  3
*U46
  1

  0
TEXT
  5
9B3
  8
A
 62
     0
 10
16.7712141882674
 20
71.11067403063673
 30
0.0
 40
2.5
  1
40,2
  0
ENDBLK
  5
9B5
  8
0
  0
BLOCK
  8
0
  2
*U47
 70
     1
 10
0.0
 20
0.0
 30
0.0
  3
*U47
  1

  0
TEXT
  5
9B7
  8
A
 62
     0
 10
16.7712141882674
 20
-37.325724189631799
 30
0.0
 40
2.5
  1
40,2
  0
ENDBLK
  5
9B9
  8
0
  0
BLOCK
  8
0
  2
*U48
 70
     1
 10
0.0
 20
0.0
 30
0.0
  3
*U48
  1

  0
TEXT
  5
9BB
  8
A
 62
     0
 10
-14.146687893867171
 20
5.6738744884038219
 30
0.0
 40
2.5
  1
20,05
 50
90.0
  0
ENDBLK
  5
9BD
  8
0
  0
BLOCK
  8
0
  2
*U49
 70
     1
 10
0.0
 20
0.0
 30
0.0
  3
*U49
  1

  0
TEXT
  5
9BF
  8
DIM
 62
     0
 10
-10.553095374395641
 20
-71.880968622100951
 30
0.0
 40
2.5
  1
40
 50
90.0
  0
ENDBLK
  5
9C1
  8
0
  0
BLOCK
  8
0
  2
*U50
 70
     1
 10
0.0
 20
0.0
 30
0.0
  3
*U50
  1

  0
TEXT
  5
9C3
  8
DIM
 62
     0
 10
-11.45857451380191
 20
46.820736698499317
 30
0.0
 40
2.5
  1
20,1
 50
90.0
  0
ENDBLK
  5
9C5
  8
0
  0
BLOCK
  8
0
  2
*U51
 70
     1
 10
0.0
 20
0.0
 30
0.0
  3
*U51
  1

  0
TEXT
  5
9C7
  8
DIM
 62
     0
 10
-10.87455004281869
 20
48.09004092769441
 30
0.0
 40
2.5
  1
20
 50
90.0
  0
ENDBLK
  5
9C9
  8
0
  0
BLOCK
  8
0
  2
*U52
 70
     1
 10
0.0
 20
0.0
 30
0.0
  3
*U52
  1

  0
TEXT
  5
9CB
  8
DIM
 62
     0
 10
32.109508678144287
 20
-121.2404160982264
 30
0.0
 40
2.5
  1
12
 50
90.0
  0
ENDBLK
  5
9CD
  8
0
  0
BLOCK
  8
0
  2
*U53
 70
     1
 10
0.0
 20
0.0
 30
0.0
  3
*U53
  1

  0
TEXT
  5
9CF
  8
DIM
 62
     0
 10
-26.457442069885609
 20
-111.88096862210089
 30
0.0
 40
2.5
  1
40
 50
90.0
  0
ENDBLK
  5
9D1
  8
0
  0
BLOCK
  8
0
  2
*U54
 70
     1
 10
0.0
 20
0.0
 30
0.0
  3
*U54
  1

  0
TEXT
  5
9D3
  8
DIM
 62
     0
 10
52.171525787983931
 20
-69.445770804911319
 30
0.0
 40
2.5
  1
35
 50
90.0
  0
ENDBLK
  5
9D5
  8
0
  0
BLOCK
  8
0
  2
*U55
 70
     1
 10
0.0
 20
0.0
 30
0.0
  3
*U55
  1

  0
TEXT
  5
9D7
  8
DIM
 62
     0
 10
64.497524960103732
 20
-71.880968622100937
 30
0.0
 40
2.5
  1
40
 50
90.0
  0
ENDBLK
  5
9D9
  8
0
  0
BLOCK
  8
0
  2
*U56
 70
     1
 10
0.0
 20
0.0
 30
0.0
  3
*U56
  1

  0
TEXT
  5
9DB
  8
DIM
 62
     0
 10
49.258013442013961
 20
-71.880968622100937
 30
0.0
 40
2.5
  1
40
 50
90.0
  0
ENDBLK
  5
9DD
  8
0
  0
BLOCK
  8
0
  2
*U57
 70
     1
 10
0.0
 20
0.0
 30
0.0
  3
*U57
  1

  0
TEXT
  5
9DF
  8
DIM
 62
     0
 10
-11.88568323174534
 20
-69.445770804911319
 30
0.0
 40
2.5
  1
35
 50
90.0
  0
ENDBLK
  5
9E1
  8
0
  0
BLOCK
  8
0
  2
*U58
 70
     1
 10
0.0
 20
0.0
 30
0.0
  3
*U58
  1

  0
TEXT
  5
9E3
  8
A
 62
     0
 10
9.6832149147780715
 20
42.654000032690497
 30
0.0
 40
2.5
  1
5
 50
38.736982766293757
  0
ENDBLK
  5
9E5
  8
0
  0
BLOCK
  8
0
  2
*U59
 70
     1
 10
0.0
 20
0.0
 30
0.0
  3
*U59
  1

  0
TEXT
  5
9E7
  8
DIM
 62
     0
 10
53.87064549749342
 20
23.068724420190978
 30
0.0
 40
2.5
  1
50
 50
90.0
  0
ENDBLK
  5
9E9
  8
0
  0
BLOCK
  8
0
  2
*U60
 70
     1
 10
0.0
 20
0.0
 30
0.0
  3
*U60
  1

  0
TEXT
  5
9EB
  8
DIM
 62
     0
 10
-10.39892181512475
 20
152.95105729877221
 30
0.0
 40
2.5
  1
10
 50
90.0
  0
ENDBLK
  5
9ED
  8
0
  0
BLOCK
  8
0
  2
*U61
 70
     1
 10
0.0
 20
0.0
 30
0.0
  3
*U61
  1

  0
TEXT
  5
9EF
  8
DIM
 62
     0
 10
-10.39892181512475
 20
138.09004092769439
 30
0.0
 40
2.5
  1
20
 50
90.0
  0
ENDBLK
  5
9F1
  8
0
  0
BLOCK
  8
0
  2
*U62
 70
     1
 10
0.0
 20
0.0
 30
0.0
  3
*U62
  1

  0
TEXT
  5
9F3
  8
DIM
 62
     0
 10
-34.544853629181631
 20
158.07554570259211
 30
0.0
 40
2.5
  1
60
 50
90.0
  0
ENDBLK
  5
9F5
  8
0
  0
BLOCK
  8
0
  2
*U63
 70
     1
 10
0.0
 20
0.0
 30
0.0
  3
*U63
  1

  0
TEXT
  5
9F7
  8
DIM
 62
     0
 10
18.119031377899049
 20
205.68852618423369
 30
0.0
 40
2.5
  1
40
  0
ENDBLK
  5
9F9
  8
0
  0
BLOCK
  8
0
  2
*U64
 70
     1
 10
0.0
 20
0.0
 30
0.0
  3
*U64
  1

  0
TEXT
  5
9FB
  8
DIM
 62
     0
 10
19.02540927694406
 20
120.7067452319743
 30
0.0
 40
2.5
  1
7
  0
ENDBLK
  5
9FD
  8
0
  0
BLOCK
  8
0
  2
*U65
 70
     1
 10
0.0
 20
0.0
 30
0.0
  3
*U65
  1

  0
TEXT
  5
9FF
  8
DIM
 62
     0
 10
17.959583901773531
 20
110.1145609875193
 30
0.0
 40
2.5
  1
12
  0
ENDBLK
  5
A01
  8
0
  0
BLOCK
  8
0
  2
*U66
 70
     1
 10
0.0
 20
0.0
 30
0.0
  3
*U66
  1

  0
TEXT
  5
A03
  8
DIM
 62
     0
 10
23.958843690003821
 20
9.0347885402455717
 30
0.0
 40
2.5
  1
8
 50
90.0
  0
ENDBLK
  5
A05
  8
0
  0
BLOCK
  8
0
  2
*U67
 70
     1
 10
0.0
 20
0.0
 30
0.0
  3
*U67
  1

  0
TEXT
  5
A07
  8
DIM
 62
     0
 10
-21.46221342123421
 20
33.068724420191003
 30
0.0
 40
2.5
  1
50
 50
90.0
  0
ENDBLK
  5
A09
  8
0
  0
BLOCK
  8
0
  2
*U68
 70
     1
 10
0.0
 20
0.0
 30
0.0
  3
*U68
  1

  0
TEXT
  5
A0B
  8
DIM
 62
     0
 10
49.25801344201394
 20
18.119031377899049
 30
0.0
 40
2.5
  1
40
 50
90.0
  0
ENDBLK
  5
A0D
  8
0
  0
BLOCK
  8
0
  2
*U69
 70
     1
 10
0.0
 20
0.0
 30
0.0
  3
*U69
  1

  0
TEXT
  5
A0F
  8
DIM
 62
     0
 10
49.256308121413682
 20
60.554229195088702
 30
0.0
 40
2.5
  1
35
 50
90.0
  0
ENDBLK
  5
A11
  8
0
  0
BLOCK
  8
0
  2
*U70
 70
     1
 10
0.0
 20
0.0
 30
0.0
  3
*U70
  1

  0
TEXT
  5
A13
  8
DIM
 62
     0
 10
59.14837914398489
 20
58.119031377899063
 30
0.0
 40
2.5
  1
40
 50
90.0
  0
ENDBLK
  5
A15
  8
0
  0
BLOCK
  8
0
  2
*U71
 70
     1
 10
0.0
 20
0.0
 30
0.0
  3
*U71
  1

  0
TEXT
  5
A17
  8
DIM
 62
     0
 10
108.06787175989081
 20
116.21655468640731
 30
0.0
 40
2.5
  1
30
  0
ENDBLK
  5
A19
  8
0
  0
BLOCK
  8
0
  2
*U72
 70
     1
 10
0.0
 20
0.0
 30
0.0
  3
*U72
  1

  0
TEXT
  5
A1B
  8
DIM
 62
     0
 10
19.0262619372442
 20
200.07449502999239
 30
0.0
 40
2.5
  1
5
  0
ENDBLK
  5
A1D
  8
0
  0
BLOCK
  8
0
  2
*U73
 70
     1
 10
0.0
 20
0.0
 30
0.0
  3
*U73
  1

  0
TEXT
  5
A1F
  8
DIM
 62
     0
 10
76.627530818707825
 20
176.8207366984993
 30
0.0
 40
2.5
  1
20,1
 50
90.0
  0
ENDBLK
  5
A21
  8
0
  0
BLOCK
  8
0
  2
*U74
 70
     1
 10
0.0
 20
0.0
 30
0.0
  3
*U74
  1

  0
TEXT
  5
A23
  8
DIM
 62
     0
 10
157.9595839017735
 20
153.1873483407644
 30
0.0
 40
2.5
  1
12
  0
ENDBLK
  5
A25
  8
0
  0
BLOCK
  8
0
  2
*U75
 70
     1
 10
0.0
 20
0.0
 30
0.0
  3
*U75
  1

  0
TEXT
  5
A27
  8
DIM
 62
     0
 10
179.5449013088008
 20
178.09004092769439
 30
0.0
 40
2.5
  1
20
 50
90.0
  0
ENDBLK
  5
A29
  8
0
  0
BLOCK
  8
0
  2
*U76
 70
     1
 10
0.0
 20
0.0
 30
0.0
  3
*U76
  1

  0
TEXT
  5
A2B
  8
DIM
 62
     0
 10
-23.20144142708812
 20
153.06872442019099
 30
0.0
 40
2.5
  1
50
 50
90.0
  0
ENDBLK
  5
A2D
  8
0
  0
BLOCK
  8
0
  2
*U77
 70
     1
 10
0.0
 20
0.0
 30
0.0
  3
*U77
  1

  0
TEXT
  5
A2F
  8
DIM
 62
     0
 10
161.4800477489768
 20
161.42812629255161
 30
0.0
 40
2.5
  1
0
  0
ENDBLK
  5
A31
  8
0
  0
BLOCK
  8
0
  2
*U78
 70
     1
 10
0.0
 20
0.0
 30
0.0
  3
*U78
  1

  0
TEXT
  5
A33
  8
DIM
 62
     0
 10
3.0347885402455641
 20
-9.9925998482129685
 30
0.0
 40
2.5
  1
8
  0
ENDBLK
  5
A35
  8
0
  0
BLOCK
  8
0
  2
*U79
 70
     1
 10
0.0
 20
0.0
 30
0.0
  3
*U79
  1

  0
TEXT
  5
A3B
  8
DIM
 62
     0
 10
159.03478854024559
 20
160.2043929621442
 30
0.0
 40
2.5
  1
8
  0
ENDBLK
  5
A3D
  8
0
  0
BLOCK
  8
0
  2
*U80
 70
     1
 10
0.0
 20
0.0
 30
0.0
  3
*U80
  1

  0
TEXT
  5
A3F
  8
DIM
 62
     0
 10
16.970736698499319
 20
89.012648839703544
 30
0.0
 40
2.5
  1
20,1
  0
ENDBLK
  5
A41
  8
0
  0
ENDSEC
  0
SECTION
  2
ENTITIES
  0
LINE
  5
252
  8
A
 10
0.0
 20
130.0
 30
0.0
 11
40.0
 21
130.0
 31
0.0
  0
LINE
  5
255
  8
A
 10
0.0000000000000071
 20
190.0
 30
0.0
 11
0.0000000000000035
 21
160.0
 31
0.0
  0
LINE
  5
25F
  8
E
 10
20.0
 20
196.3019999894704
 30
0.0
 11
20.0
 21
126.23235928955449
 31
0.0
  0
LINE
  5
263
  8
A
 10
8.0000000000000071
 20
190.0
 30
0.0
 11
8.0000000000000053
 21
170.0
 31
0.0
  0
CIRCLE
  5
266
  8
A
 10
20.0
 20
180.0
 30
0.0
 40
2.5
  0
LINE
  5
26B
  8
E
 10
26.409554742538958
 20
180.0
 30
0.0
 11
-19.376354165648081
 21
180.0
 31
0.0
  0
LINE
  5
26E
  8
B
 10
8.0000000000000071
 20
184.0
 30
0.0
 11
4.0000000000000062
 21
184.0
 31
0.0
  0
LINE
  5
26F
  8
B
 10
8.0000000000000071
 20
176.0
 30
0.0
 11
4.0000000000000053
 21
176.0
 31
0.0
  0
CIRCLE
  5
281
  8
A
 10
20.100000000000009
 20
60.0
 30
0.0
 40
6.0
  0
CIRCLE
  5
282
  8
A
 10
20.100000000000009
 20
60.0
 30
0.0
 40
3.5
  0
LINE
  5
283
  8
A
 10
10.050000000000001
 20
45.0
 30
0.0
 11
10.050000000000001
 21
80.0
 31
0.0
  0
LINE
  5
287
  8
A
 10
30.150000000000009
 20
44.999999999999993
 30
0.0
 11
30.150000000000009
 21
80.0
 31
0.0
  0
LINE
  5
289
  8
E
 10
12.1
 20
60.0
 30
0.0
 11
28.100000000000001
 21
60.0
 31
0.0
  0
LINE
  5
28B
  8
E
 10
20.099999999999991
 20
68.800000000000011
 30
0.0
 11
20.099999999999991
 21
52.800000000000011
 31
0.0
  0
LINE
  5
28C
  8
E
 10
-13.31028931030778
 20
10.0
 30
0.0
 11
19.826782329431811
 21
10.0
 31
0.0
  0
LINE
  5
29F
  8
A
 10
5.0000000000000027
 20
160.0
 30
0.0
 11
5.0000000000000018
 21
150.05000000000001
 31
0.0
  0
LINE
  5
2A0
  8
A
 10
35.20000000000001
 20
150.05000000000001
 30
0.0
 11
35.20000000000001
 21
160.0
 31
0.0
  0
LINE
  5
2A2
  8
A
 10
0.0000000000000024
 20
150.0
 30
0.0
 11
0.0
 21
130.0
 31
0.0
  0
LINE
  5
2EA
  8
B
 10
3.9999999999999991
 20
14.000000000000011
 30
0.0
 11
7.9999999999999973
 21
14.000000000000011
 31
0.0
  0
LINE
  5
2ED
  8
B
 10
3.9999999999999991
 20
6.0
 30
0.0
 11
7.9999999999999973
 21
6.0
 31
0.0
  0
LINE
  5
2F7
  8
B
 10
4.0000000000000071
 20
186.0
 30
0.0
 11
4.0000000000000044
 21
174.0
 31
0.0
  0
LINE
  5
2F8
  8
B
 10
4.0000000000000071
 20
186.0
 30
0.0
 11
0.0000000000000066
 21
186.0
 31
0.0
  0
LINE
  5
2F9
  8
B
 10
4.0000000000000044
 20
174.0
 30
0.0
 11
0.0000000000000052
 21
174.0
 31
0.0
  0
LINE
  5
2FE
  8
B
 10
0.0
 20
16.0
 30
0.0
 11
3.9999999999999991
 21
16.0
 31
0.0
  0
LINE
  5
2FF
  8
B
 10
0.0
 20
3.9999999999999849
 30
0.0
 11
3.9999999999999991
 21
3.9999999999999849
 31
0.0
  0
LINE
  5
300
  8
A
 10
0.0
 20
80.0
 30
0.0
 11
0.0
 21
0.0
 31
0.0
  0
LINE
  5
301
  8
A
 10
40.20000000000001
 20
80.0
 30
0.0
 11
40.200000000000017
 21
40.000000000000007
 31
0.0
  0
LINE
  5
302
  8
A
 10
0.0
 20
80.0
 30
0.0
 11
40.20000000000001
 21
80.0
 31
0.0
  0
LINE
  5
305
  8
A
 10
7.9999999999999973
 20
40.000000000000007
 30
0.0
 11
40.20000000000001
 21
40.0
 31
0.0
  0
LINE
  5
306
  8
A
 10
10.050000000000001
 20
44.999999999999993
 30
0.0
 11
30.150000000000009
 21
45.0
 31
0.0
  0
LINE
  5
308
  8
A
 10
7.9999999999999973
 20
40.000000000000007
 30
0.0
 11
7.9999999999999973
 21
0.0
 31
0.0
  0
LINE
  5
30A
  8
B
 10
3.9999999999999991
 20
3.9999999999999849
 30
0.0
 11
3.9999999999999991
 21
16.000000000000011
 31
0.0
  0
LINE
  5
323
  8
A
 10
0.0
 20
0.0
 30
0.0
 11
7.9999999999999973
 21
0.0
 31
0.0
  0
LINE
  5
387
  8
A
 10
40.0
 20
150.0
 30
0.0
 11
40.0
 21
130.0
 31
0.0
  0
LINE
  5
388
  8
A
 10
40.0
 20
160.0
 30
0.0
 11
40.0
 21
190.0
 31
0.0
  0
LINE
  5
3A2
  8
A
 10
0.0
 20
150.0
 30
0.0
 11
40.0
 21
150.0
 31
0.0
  0
LINE
  5
3A3
  8
A
 10
0.0
 20
160.0
 30
0.0
 11
40.0
 21
160.0
 31
0.0
  0
LINE
  5
3AE
  8
A
 10
0.0
 20
190.0
 30
0.0
 11
40.0
 21
190.0
 31
0.0
  0
LINE
  5
3AF
  8
B
 10
16.5
 20
136.0
 30
0.0
 11
16.5
 21
130.0
 31
0.0
  0
LINE
  5
3B0
  8
B
 10
23.5
 20
136.0
 30
0.0
 11
23.5
 21
130.0
 31
0.0
  0
LINE
  5
3B1
  8
B
 10
14.0
 20
169.80000000000001
 30
0.0
 11
14.0
 21
136.0
 31
0.0
  0
LINE
  5
3B2
  8
B
 10
26.0
 20
169.80000000000001
 30
0.0
 11
26.0
 21
136.0
 31
0.0
  0
LINE
  5
3B3
  8
B
 10
14.0
 20
136.0
 30
0.0
 11
26.0
 21
136.0
 31
0.0
  0
LINE
  5
3B4
  8
B
 10
30.100000000000001
 20
190.0
 30
0.0
 11
30.100000000000001
 21
169.80000000000001
 31
0.0
  0
LINE
  5
3B5
  8
B
 10
9.9000000000000004
 20
190.0
 30
0.0
 11
9.8999999999999986
 21
169.80000000000001
 31
0.0
  0
LINE
  5
3B6
  8
B
 10
9.9000000000000004
 20
169.80000000000001
 30
0.0
 11
30.100000000000001
 21
169.80000000000001
 31
0.0
  0
DIMENSION
  5
3DB
  8
DIM
  2
*D10
 10
-9.7312888001179072
 20
150.0
 30
0.0
 11
-11.632721269422159
 21
155.0
 31
0.0
 70
     0
 13
0.0
 23
160.0
 33
0.0
 14
0.0
 24
150.0
 34
0.0
 50
90.0
  0
DIMENSION
  5
3F3
  8
DIM
  2
*D11
 10
-9.7312888001179143
 20
130.0
 30
0.0
 11
-11.632721269422159
 21
140.0
 31
0.0
 70
     0
 13
0.0
 23
150.0
 33
0.0
 14
0.0
 24
130.0
 34
0.0
 50
90.0
  0
DIMENSION
  5
40B
  8
DIM
  2
*D12
 10
-33.877220614174782
 20
130.0
 30
0.0
 11
-33.87722061417481
 21
160.0
 31
0.0
 70
   128
 13
0.0
 23
190.0
 33
0.0
 14
0.0
 24
130.0
 34
0.0
 50
90.0
  0
DIMENSION
  5
43B
  8
DIM
  2
*D14
 10
40.0
 20
205.02089316922681
 30
0.0
 11
20.0
 21
206.92232563853111
 31
0.0
 70
     0
 13
0.0000000000000071
 23
190.0
 33
0.0
 14
40.0
 24
190.0
 34
0.0
  0
LINE
  5
46B
  8
A
 10
0.0
 20
170.0
 30
0.0
 11
8.0000000000000053
 21
170.0
 31
0.0
  0
DIMENSION
  5
485
  8
DIM
  2
*D17
 10
23.5
 20
120.0817452319743
 30
0.0
 11
20.0
 21
121.9567452319743
 31
0.0
 70
     0
 13
16.5
 23
130.0
 33
0.0
 14
23.5
 24
130.0
 34
0.0
  0
DIMENSION
  5
49D
  8
DIM
  2
*D18
 10
26.0
 20
109.4895609875193
 30
0.0
 11
20.0
 21
111.36967694932009
 31
0.0
 70
     0
 13
14.0
 23
136.0
 33
0.0
 14
26.0
 24
136.0
 34
0.0
  0
DIMENSION
  5
4B5
  8
DIM
  2
*D19
 10
24.626476705010649
 20
5.9999999999999947
 30
0.0
 11
22.72504423570642
 21
10.0
 31
0.0
 70
     0
 13
7.9999999999999973
 23
14.000000000000011
 33
0.0
 14
7.9999999999999973
 24
6.0
 34
0.0
 50
90.0
  0
DIMENSION
  5
4F1
  8
DIM
  2
*D21
 10
-20.794580406227389
 20
10.0
 30
0.0
 11
-20.794580406227389
 21
35.0
 31
0.0
 70
   128
 13
12.1
 23
60.0
 33
0.0
 14
0.0
 24
10.0
 34
0.0
 50
90.0
  0
DIMENSION
  5
509
  8
DIM
  2
*D22
 10
49.925646457020783
 20
40.0
 30
0.0
 11
48.024213987716529
 21
20.000000000000011
 31
0.0
 70
     0
 13
7.9999999999999973
 23
0.0
 33
0.0
 14
40.200000000000017
 24
40.000000000000007
 34
0.0
 50
90.0
  0
DIMENSION
  5
52A
  8
DIM
  2
*D23
 10
30.150000000000009
 20
87.893105865624406
 30
0.0
 11
20.100000000000009
 21
87.893105865624406
 31
0.0
 70
   128
 13
10.050000000000001
 23
80.0
 33
0.0
 14
30.150000000000009
 24
80.0
 34
0.0
  0
DIMENSION
  5
5AB
  8
DIM
  2
*D28
 10
49.925646457020783
 20
44.999999999999993
 30
0.0
 11
48.02336132741641
 21
62.500000000000007
 31
0.0
 70
     0
 13
40.20000000000001
 23
80.0
 33
0.0
 14
30.150000000000009
 24
45.0
 34
0.0
 50
90.0
  0
DIMENSION
  5
5C3
  8
DIM
  2
*D29
 10
59.816012158991711
 20
40.0
 30
0.0
 11
57.914579689687493
 21
60.000000000000007
 31
0.0
 70
     0
 13
40.20000000000001
 23
80.0
 33
0.0
 14
40.200000000000017
 24
40.000000000000007
 34
0.0
 50
90.0
  0
LINE
  5
5DC
  8
A
 10
90.0
 20
160.0
 30
0.0
 11
90.0
 21
190.0
 31
0.0
  0
LINE
  5
5DD
  8
A
 10
90.0
 20
150.0
 30
0.0
 11
90.0
 21
130.0
 31
0.0
  0
LINE
  5
5DE
  8
A
 10
130.0
 20
160.0
 30
0.0
 11
130.0
 21
170.0
 31
0.0
  0
LINE
  5
5DF
  8
A
 10
90.0
 20
190.0
 30
0.0
 11
170.0
 21
190.0
 31
0.0
  0
LINE
  5
5E0
  8
A
 10
90.0
 20
160.0
 30
0.0
 11
130.0
 21
160.0
 31
0.0
  0
LINE
  5
5E1
  8
A
 10
90.0
 20
150.0
 30
0.0
 11
130.0
 21
150.0
 31
0.0
  0
LINE
  5
5E2
  8
A
 10
130.0
 20
150.0
 30
0.0
 11
130.0
 21
130.0
 31
0.0
  0
LINE
  5
5E3
  8
A
 10
130.0
 20
130.0
 30
0.0
 11
90.0
 21
130.0
 31
0.0
  0
LINE
  5
5E4
  8
A
 10
95.0
 20
160.0
 30
0.0
 11
95.0
 21
150.0
 31
0.0
  0
LINE
  5
5E5
  8
A
 10
125.0
 20
160.0
 30
0.0
 11
125.0
 21
150.0
 31
0.0
  0
DIMENSION
  5
5E6
  8
DIM
  2
*D30
 10
125.0
 20
115.5472163508002
 30
0.0
 11
110.0
 21
115.5472163508002
 31
0.0
 70
   128
 13
95.0
 23
150.0
 33
0.0
 14
125.0
 24
150.0
 34
0.0
  0
DIMENSION
  5
658
  8
DIM
  2
*D32
 10
22.5
 20
199.40686201498551
 30
0.0
 11
20.0
 21
201.30317852248899
 31
0.0
 70
     0
 13
17.5
 23
180.0
 33
0.0
 14
22.5
 24
180.0
 34
0.0
  0
LINE
  5
68A
  8
B
 10
125.0
 20
169.90000000000001
 30
0.0
 11
125.0
 21
190.0
 31
0.0
  0
LINE
  5
68B
  8
B
 10
90.0
 20
169.90000000000001
 30
0.0
 11
125.0
 21
169.90000000000001
 31
0.0
  0
DIMENSION
  5
68C
  8
DIM
  2
*D33
 10
77.747073792786978
 20
190.0
 30
0.0
 11
75.619686343946569
 21
179.94999999999999
 31
0.0
 70
     0
 13
90.0
 23
169.90000000000001
 33
0.0
 14
90.0
 24
190.0
 34
0.0
 50
90.0
  0
LINE
  5
6B6
  8
B
 10
104.0
 20
136.0
 30
0.0
 11
116.0
 21
136.0
 31
0.0
  0
LINE
  5
6B7
  8
E
 10
110.0
 20
177.90000000000001
 30
0.0
 11
110.0
 21
126.23235928955449
 31
0.0
  0
LINE
  5
6B8
  8
B
 10
116.0
 20
169.80000000000001
 30
0.0
 11
116.0
 21
136.0
 31
0.0
  0
LINE
  5
6B9
  8
B
 10
104.0
 20
169.80000000000001
 30
0.0
 11
104.0
 21
136.0
 31
0.0
  0
LINE
  5
6BA
  8
B
 10
113.5
 20
136.0
 30
0.0
 11
113.5
 21
130.0
 31
0.0
  0
LINE
  5
6BB
  8
B
 10
106.5
 20
136.0
 30
0.0
 11
106.5
 21
130.0
 31
0.0
  0
LINE
  5
6BD
  8
A
 10
130.0
 20
170.0
 30
0.0
 11
170.0
 21
170.0
 31
0.0
  0
LINE
  5
6C1
  8
E
 10
160.0
 20
188.0
 30
0.0
 11
160.0
 21
172.0
 31
0.0
  0
LINE
  5
6C5
  8
A
 10
170.0
 20
170.0
 30
0.0
 11
170.0
 21
190.0
 31
0.0
  0
LINE
  5
6C6
  8
E
 10
168.0
 20
180.0
 30
0.0
 11
121.0
 21
180.0
 31
0.0
  0
CIRCLE
  5
6C9
  8
A
 10
160.0
 20
180.0
 30
0.0
 40
5.9999999999999707
  0
CIRCLE
  5
6CA
  8
A
 10
160.0
 20
180.0
 30
0.0
 40
4.0
  0
DIMENSION
  5
6E4
  8
DIM
  2
*D35
 10
165.99999999999989
 20
152.5623483407644
 30
0.0
 11
160.0
 21
154.44246430256521
 31
0.0
 70
     0
 13
154.0
 23
180.0
 33
0.0
 14
165.99999999999989
 24
180.0
 34
0.0
  0
LINE
  5
720
  8
B
 10
130.0
 20
170.0
 30
0.0
 11
130.0
 21
190.0
 31
0.0
  0
LINE
  5
721
  8
B
 10
125.0
 20
182.5
 30
0.0
 11
130.0
 21
182.5
 31
0.0
  0
LINE
  5
722
  8
B
 10
125.0
 20
177.49999999999989
 30
0.0
 11
130.0
 21
177.5
 31
0.0
  0
DIMENSION
  5
749
  8
DIM
  2
*D36
 10
-22.533808412081282
 20
130.0
 30
0.0
 11
-24.435240881385528
 21
155.0
 31
0.0
 70
     0
 13
-19.376354165648081
 23
180.0
 33
0.0
 14
0.0
 24
130.0
 34
0.0
 50
90.0
  0
DIMENSION
  5
773
  8
DIM
  2
*D37
 10
180.2125343238076
 20
170.0
 30
0.0
 11
178.31110185450331
 21
180.0
 31
0.0
 70
     0
 13
170.0
 23
190.0
 33
0.0
 14
170.0
 24
170.0
 34
0.0
 50
90.0
  0
LINE
  5
79D
  8
B
 10
17.499999999999972
 20
40.000000000000007
 30
0.0
 11
17.499999999999972
 21
44.999999999999993
 31
0.0
  0
LINE
  5
79E
  8
B
 10
22.499999999999979
 20
40.000000000000007
 30
0.0
 11
22.499999999999979
 21
45.0
 31
0.0
  0
DIMENSION
  5
893
  8
DIM
  2
*D38
 10
7.9999999999999956
 20
-10.66023286321979
 30
0.0
 11
3.9999999999999978
 21
-8.7588003939155605
 31
0.0
 70
     0
 13
0.0
 23
0.0
 33
0.0
 14
7.9999999999999973
 24
0.0
 34
0.0
  0
DIMENSION
  5
8DB
  8
DIM
  2
*D40
 10
164.0
 20
159.5367599471374
 30
0.0
 11
160.0
 21
161.43819241644161
 31
0.0
 70
     0
 13
156.0
 23
180.0
 33
0.0
 14
164.0
 24
180.0
 34
0.0
  0
ENDSEC
  0
EOF
